<?xml version="1.0" encoding="UTF-8" standalone="no"?>
<!DOCTYPE svg PUBLIC "-//W3C//DTD SVG 1.1//EN"
 "http://www.w3.org/Graphics/SVG/1.1/DTD/svg11.dtd">
<!-- Generated by graphviz version 2.40.1 (20161225.0304)
 -->
<!-- Title: Tree Pages: 1 -->
<svg width="282pt" height="258pt"
 viewBox="0.00 0.00 281.54 258.00" xmlns="http://www.w3.org/2000/svg" xmlns:xlink="http://www.w3.org/1999/xlink">
<g id="graph0" class="graph" transform="scale(1 1) rotate(0) translate(4 254)">
<title>Tree</title>
<polygon fill="#ffffff" stroke="transparent" points="-4,4 -4,-254 277.5371,-254 277.5371,4 -4,4"/>
<!-- 0 -->
<g id="node1" class="node">
<title>0</title>
<polygon fill="none" stroke="#000000" points="222.9816,-250 105.5555,-250 105.5555,-186 222.9816,-186 222.9816,-250"/>
<text text-anchor="middle" x="164.2686" y="-234.8" font-family="Times,serif" font-size="14.00" fill="#000000">X[26] &lt;= 117.152</text>
<text text-anchor="middle" x="164.2686" y="-220.8" font-family="Times,serif" font-size="14.00" fill="#000000">gini = 0.477</text>
<text text-anchor="middle" x="164.2686" y="-206.8" font-family="Times,serif" font-size="14.00" fill="#000000">samples = 28</text>
<text text-anchor="middle" x="164.2686" y="-192.8" font-family="Times,serif" font-size="14.00" fill="#000000">value = [11, 17]</text>
</g>
<!-- 1 -->
<g id="node2" class="node">
<title>1</title>
<polygon fill="none" stroke="#000000" points="156.9945,-150 53.5426,-150 53.5426,-86 156.9945,-86 156.9945,-150"/>
<text text-anchor="middle" x="105.2686" y="-134.8" font-family="Times,serif" font-size="14.00" fill="#000000">X[19] &lt;= 0.025</text>
<text text-anchor="middle" x="105.2686" y="-120.8" font-family="Times,serif" font-size="14.00" fill="#000000">gini = 0.105</text>
<text text-anchor="middle" x="105.2686" y="-106.8" font-family="Times,serif" font-size="14.00" fill="#000000">samples = 18</text>
<text text-anchor="middle" x="105.2686" y="-92.8" font-family="Times,serif" font-size="14.00" fill="#000000">value = [1, 17]</text>
</g>
<!-- 0&#45;&gt;1 -->
<g id="edge1" class="edge">
<title>0&#45;&gt;1</title>
<path fill="none" stroke="#000000" d="M145.2758,-185.8089C140.2228,-177.2445 134.6967,-167.8782 129.4084,-158.915"/>
<polygon fill="#000000" stroke="#000000" points="132.3217,-156.9649 124.2257,-150.1308 126.2928,-160.522 132.3217,-156.9649"/>
<text text-anchor="middle" x="117.9834" y="-170.1389" font-family="Times,serif" font-size="14.00" fill="#000000">True</text>
</g>
<!-- 2 -->
<g id="node5" class="node">
<title>2</title>
<polygon fill="none" stroke="#000000" points="273.3067,-143 175.2304,-143 175.2304,-93 273.3067,-93 273.3067,-143"/>
<text text-anchor="middle" x="224.2686" y="-127.8" font-family="Times,serif" font-size="14.00" fill="#000000">gini = 0.0</text>
<text text-anchor="middle" x="224.2686" y="-113.8" font-family="Times,serif" font-size="14.00" fill="#000000">samples = 10</text>
<text text-anchor="middle" x="224.2686" y="-99.8" font-family="Times,serif" font-size="14.00" fill="#000000">value = [10, 0]</text>
</g>
<!-- 0&#45;&gt;2 -->
<g id="edge4" class="edge">
<title>0&#45;&gt;2</title>
<path fill="none" stroke="#000000" d="M183.5832,-185.8089C190.06,-175.0142 197.3012,-162.9456 203.8591,-152.0158"/>
<polygon fill="#000000" stroke="#000000" points="207.0315,-153.5312 209.1752,-143.1555 201.029,-149.9297 207.0315,-153.5312"/>
<text text-anchor="middle" x="215.2386" y="-163.2091" font-family="Times,serif" font-size="14.00" fill="#000000">False</text>
</g>
<!-- 3 -->
<g id="node3" class="node">
<title>3</title>
<polygon fill="none" stroke="#000000" points="98.3067,-50 .2304,-50 .2304,0 98.3067,0 98.3067,-50"/>
<text text-anchor="middle" x="49.2686" y="-34.8" font-family="Times,serif" font-size="14.00" fill="#000000">gini = 0.0</text>
<text text-anchor="middle" x="49.2686" y="-20.8" font-family="Times,serif" font-size="14.00" fill="#000000">samples = 13</text>
<text text-anchor="middle" x="49.2686" y="-6.8" font-family="Times,serif" font-size="14.00" fill="#000000">value = [0, 13]</text>
</g>
<!-- 1&#45;&gt;3 -->
<g id="edge2" class="edge">
<title>1&#45;&gt;3</title>
<path fill="none" stroke="#000000" d="M85.9965,-85.9947C80.6813,-77.1676 74.8998,-67.5662 69.5304,-58.6491"/>
<polygon fill="#000000" stroke="#000000" points="72.4877,-56.7753 64.3308,-50.014 66.4909,-60.3863 72.4877,-56.7753"/>
</g>
<!-- 4 -->
<g id="node4" class="node">
<title>4</title>
<polygon fill="none" stroke="#000000" points="207.8068,-50 116.7303,-50 116.7303,0 207.8068,0 207.8068,-50"/>
<text text-anchor="middle" x="162.2686" y="-34.8" font-family="Times,serif" font-size="14.00" fill="#000000">gini = 0.32</text>
<text text-anchor="middle" x="162.2686" y="-20.8" font-family="Times,serif" font-size="14.00" fill="#000000">samples = 5</text>
<text text-anchor="middle" x="162.2686" y="-6.8" font-family="Times,serif" font-size="14.00" fill="#000000">value = [1, 4]</text>
</g>
<!-- 1&#45;&gt;4 -->
<g id="edge3" class="edge">
<title>1&#45;&gt;4</title>
<path fill="none" stroke="#000000" d="M124.8847,-85.9947C130.2949,-77.1676 136.1796,-67.5662 141.6449,-58.6491"/>
<polygon fill="#000000" stroke="#000000" points="144.6958,-60.369 146.9374,-50.014 138.7276,-56.7111 144.6958,-60.369"/>
</g>
</g>
</svg>
