<?xml version="1.0" encoding="UTF-8" standalone="no"?>
<!DOCTYPE svg PUBLIC "-//W3C//DTD SVG 1.1//EN"
 "http://www.w3.org/Graphics/SVG/1.1/DTD/svg11.dtd">
<!-- Generated by graphviz version 2.40.1 (20161225.0304)
 -->
<!-- Title: Tree Pages: 1 -->
<svg width="673pt" height="358pt"
 viewBox="0.00 0.00 672.54 358.00" xmlns="http://www.w3.org/2000/svg" xmlns:xlink="http://www.w3.org/1999/xlink">
<g id="graph0" class="graph" transform="scale(1 1) rotate(0) translate(4 354)">
<title>Tree</title>
<polygon fill="#ffffff" stroke="transparent" points="-4,4 -4,-354 668.5371,-354 668.5371,4 -4,4"/>
<!-- 0 -->
<g id="node1" class="node">
<title>0</title>
<polygon fill="none" stroke="#000000" points="289.8066,-350 177.7305,-350 177.7305,-286 289.8066,-286 289.8066,-350"/>
<text text-anchor="middle" x="233.7686" y="-334.8" font-family="Times,serif" font-size="14.00" fill="#000000">X[1] &lt;= 11.103</text>
<text text-anchor="middle" x="233.7686" y="-320.8" font-family="Times,serif" font-size="14.00" fill="#000000">gini = 0.099</text>
<text text-anchor="middle" x="233.7686" y="-306.8" font-family="Times,serif" font-size="14.00" fill="#000000">samples = 324</text>
<text text-anchor="middle" x="233.7686" y="-292.8" font-family="Times,serif" font-size="14.00" fill="#000000">value = [307, 17]</text>
</g>
<!-- 1 -->
<g id="node2" class="node">
<title>1</title>
<polygon fill="none" stroke="#000000" points="225.3067,-250 120.2304,-250 120.2304,-186 225.3067,-186 225.3067,-250"/>
<text text-anchor="middle" x="172.7686" y="-234.8" font-family="Times,serif" font-size="14.00" fill="#000000">X[8] &lt;= 6.326</text>
<text text-anchor="middle" x="172.7686" y="-220.8" font-family="Times,serif" font-size="14.00" fill="#000000">gini = 0.055</text>
<text text-anchor="middle" x="172.7686" y="-206.8" font-family="Times,serif" font-size="14.00" fill="#000000">samples = 214</text>
<text text-anchor="middle" x="172.7686" y="-192.8" font-family="Times,serif" font-size="14.00" fill="#000000">value = [208, 6]</text>
</g>
<!-- 0&#45;&gt;1 -->
<g id="edge1" class="edge">
<title>0&#45;&gt;1</title>
<path fill="none" stroke="#000000" d="M214.132,-285.8089C208.9077,-277.2445 203.1943,-267.8782 197.7267,-258.915"/>
<polygon fill="#000000" stroke="#000000" points="200.5639,-256.8451 192.3683,-250.1308 194.588,-260.4905 200.5639,-256.8451"/>
<text text-anchor="middle" x="186.4826" y="-270.2281" font-family="Times,serif" font-size="14.00" fill="#000000">True</text>
</g>
<!-- 2 -->
<g id="node7" class="node">
<title>2</title>
<polygon fill="none" stroke="#000000" points="395.293,-250 290.2441,-250 290.2441,-186 395.293,-186 395.293,-250"/>
<text text-anchor="middle" x="342.7686" y="-234.8" font-family="Times,serif" font-size="14.00" fill="#000000">X[10] &lt;= 0.78</text>
<text text-anchor="middle" x="342.7686" y="-220.8" font-family="Times,serif" font-size="14.00" fill="#000000">gini = 0.18</text>
<text text-anchor="middle" x="342.7686" y="-206.8" font-family="Times,serif" font-size="14.00" fill="#000000">samples = 110</text>
<text text-anchor="middle" x="342.7686" y="-192.8" font-family="Times,serif" font-size="14.00" fill="#000000">value = [99, 11]</text>
</g>
<!-- 0&#45;&gt;2 -->
<g id="edge6" class="edge">
<title>0&#45;&gt;2</title>
<path fill="none" stroke="#000000" d="M268.8568,-285.8089C278.8727,-276.62 289.8948,-266.508 300.3009,-256.9612"/>
<polygon fill="#000000" stroke="#000000" points="302.7434,-259.4702 307.746,-250.1308 298.0111,-254.312 302.7434,-259.4702"/>
<text text-anchor="middle" x="306.6705" y="-270.9076" font-family="Times,serif" font-size="14.00" fill="#000000">False</text>
</g>
<!-- 3 -->
<g id="node3" class="node">
<title>3</title>
<polygon fill="none" stroke="#000000" points="105.3067,-143 .2304,-143 .2304,-93 105.3067,-93 105.3067,-143"/>
<text text-anchor="middle" x="52.7686" y="-127.8" font-family="Times,serif" font-size="14.00" fill="#000000">gini = 0.0</text>
<text text-anchor="middle" x="52.7686" y="-113.8" font-family="Times,serif" font-size="14.00" fill="#000000">samples = 188</text>
<text text-anchor="middle" x="52.7686" y="-99.8" font-family="Times,serif" font-size="14.00" fill="#000000">value = [188, 0]</text>
</g>
<!-- 1&#45;&gt;3 -->
<g id="edge2" class="edge">
<title>1&#45;&gt;3</title>
<path fill="none" stroke="#000000" d="M134.1393,-185.8089C120.2788,-174.2586 104.6682,-161.2497 90.8542,-149.7381"/>
<polygon fill="#000000" stroke="#000000" points="92.8781,-146.8686 82.9552,-143.1555 88.3968,-152.2462 92.8781,-146.8686"/>
</g>
<!-- 4 -->
<g id="node4" class="node">
<title>4</title>
<polygon fill="none" stroke="#000000" points="221.8067,-150 123.7304,-150 123.7304,-86 221.8067,-86 221.8067,-150"/>
<text text-anchor="middle" x="172.7686" y="-134.8" font-family="Times,serif" font-size="14.00" fill="#000000">X[8] &lt;= 7.194</text>
<text text-anchor="middle" x="172.7686" y="-120.8" font-family="Times,serif" font-size="14.00" fill="#000000">gini = 0.355</text>
<text text-anchor="middle" x="172.7686" y="-106.8" font-family="Times,serif" font-size="14.00" fill="#000000">samples = 26</text>
<text text-anchor="middle" x="172.7686" y="-92.8" font-family="Times,serif" font-size="14.00" fill="#000000">value = [20, 6]</text>
</g>
<!-- 1&#45;&gt;4 -->
<g id="edge3" class="edge">
<title>1&#45;&gt;4</title>
<path fill="none" stroke="#000000" d="M172.7686,-185.8089C172.7686,-177.6906 172.7686,-168.8517 172.7686,-160.3186"/>
<polygon fill="#000000" stroke="#000000" points="176.2687,-160.1307 172.7686,-150.1308 169.2687,-160.1308 176.2687,-160.1307"/>
</g>
<!-- 5 -->
<g id="node5" class="node">
<title>5</title>
<polygon fill="none" stroke="#000000" points="108.8067,-50 10.7304,-50 10.7304,0 108.8067,0 108.8067,-50"/>
<text text-anchor="middle" x="59.7686" y="-34.8" font-family="Times,serif" font-size="14.00" fill="#000000">gini = 0.0</text>
<text text-anchor="middle" x="59.7686" y="-20.8" font-family="Times,serif" font-size="14.00" fill="#000000">samples = 20</text>
<text text-anchor="middle" x="59.7686" y="-6.8" font-family="Times,serif" font-size="14.00" fill="#000000">value = [20, 0]</text>
</g>
<!-- 4&#45;&gt;5 -->
<g id="edge4" class="edge">
<title>4&#45;&gt;5</title>
<path fill="none" stroke="#000000" d="M133.8804,-85.9947C122.2612,-76.432 109.5379,-65.9606 97.9636,-56.4349"/>
<polygon fill="#000000" stroke="#000000" points="100.1074,-53.6663 90.1619,-50.014 95.6591,-59.0712 100.1074,-53.6663"/>
</g>
<!-- 6 -->
<g id="node6" class="node">
<title>6</title>
<polygon fill="none" stroke="#000000" points="218.3068,-50 127.2303,-50 127.2303,0 218.3068,0 218.3068,-50"/>
<text text-anchor="middle" x="172.7686" y="-34.8" font-family="Times,serif" font-size="14.00" fill="#000000">gini = 0.0</text>
<text text-anchor="middle" x="172.7686" y="-20.8" font-family="Times,serif" font-size="14.00" fill="#000000">samples = 6</text>
<text text-anchor="middle" x="172.7686" y="-6.8" font-family="Times,serif" font-size="14.00" fill="#000000">value = [0, 6]</text>
</g>
<!-- 4&#45;&gt;6 -->
<g id="edge5" class="edge">
<title>4&#45;&gt;6</title>
<path fill="none" stroke="#000000" d="M172.7686,-85.9947C172.7686,-77.6273 172.7686,-68.5643 172.7686,-60.0478"/>
<polygon fill="#000000" stroke="#000000" points="176.2687,-60.014 172.7686,-50.014 169.2687,-60.0141 176.2687,-60.014"/>
</g>
<!-- 7 -->
<g id="node8" class="node">
<title>7</title>
<polygon fill="none" stroke="#000000" points="391.8067,-150 293.7304,-150 293.7304,-86 391.8067,-86 391.8067,-150"/>
<text text-anchor="middle" x="342.7686" y="-134.8" font-family="Times,serif" font-size="14.00" fill="#000000">X[8] &lt;= 7.663</text>
<text text-anchor="middle" x="342.7686" y="-120.8" font-family="Times,serif" font-size="14.00" fill="#000000">gini = 0.147</text>
<text text-anchor="middle" x="342.7686" y="-106.8" font-family="Times,serif" font-size="14.00" fill="#000000">samples = 100</text>
<text text-anchor="middle" x="342.7686" y="-92.8" font-family="Times,serif" font-size="14.00" fill="#000000">value = [92, 8]</text>
</g>
<!-- 2&#45;&gt;7 -->
<g id="edge7" class="edge">
<title>2&#45;&gt;7</title>
<path fill="none" stroke="#000000" d="M342.7686,-185.8089C342.7686,-177.6906 342.7686,-168.8517 342.7686,-160.3186"/>
<polygon fill="#000000" stroke="#000000" points="346.2687,-160.1307 342.7686,-150.1308 339.2687,-160.1308 346.2687,-160.1307"/>
</g>
<!-- 8 -->
<g id="node11" class="node">
<title>8</title>
<polygon fill="none" stroke="#000000" points="560.4945,-150 457.0426,-150 457.0426,-86 560.4945,-86 560.4945,-150"/>
<text text-anchor="middle" x="508.7686" y="-134.8" font-family="Times,serif" font-size="14.00" fill="#000000">X[12] &lt;= 1.994</text>
<text text-anchor="middle" x="508.7686" y="-120.8" font-family="Times,serif" font-size="14.00" fill="#000000">gini = 0.42</text>
<text text-anchor="middle" x="508.7686" y="-106.8" font-family="Times,serif" font-size="14.00" fill="#000000">samples = 10</text>
<text text-anchor="middle" x="508.7686" y="-92.8" font-family="Times,serif" font-size="14.00" fill="#000000">value = [7, 3]</text>
</g>
<!-- 2&#45;&gt;8 -->
<g id="edge10" class="edge">
<title>2&#45;&gt;8</title>
<path fill="none" stroke="#000000" d="M395.292,-186.3594C412.0355,-176.2729 430.7005,-165.0289 447.9793,-154.62"/>
<polygon fill="#000000" stroke="#000000" points="450.1114,-157.4217 456.8711,-149.2635 446.4992,-151.4256 450.1114,-157.4217"/>
</g>
<!-- 9 -->
<g id="node9" class="node">
<title>9</title>
<polygon fill="none" stroke="#000000" points="334.8067,-50 236.7304,-50 236.7304,0 334.8067,0 334.8067,-50"/>
<text text-anchor="middle" x="285.7686" y="-34.8" font-family="Times,serif" font-size="14.00" fill="#000000">gini = 0.0</text>
<text text-anchor="middle" x="285.7686" y="-20.8" font-family="Times,serif" font-size="14.00" fill="#000000">samples = 92</text>
<text text-anchor="middle" x="285.7686" y="-6.8" font-family="Times,serif" font-size="14.00" fill="#000000">value = [92, 0]</text>
</g>
<!-- 7&#45;&gt;9 -->
<g id="edge8" class="edge">
<title>7&#45;&gt;9</title>
<path fill="none" stroke="#000000" d="M323.1524,-85.9947C317.7422,-77.1676 311.8575,-67.5662 306.3922,-58.6491"/>
<polygon fill="#000000" stroke="#000000" points="309.3095,-56.7111 301.0997,-50.014 303.3413,-60.369 309.3095,-56.7111"/>
</g>
<!-- 10 -->
<g id="node10" class="node">
<title>10</title>
<polygon fill="none" stroke="#000000" points="444.3068,-50 353.2303,-50 353.2303,0 444.3068,0 444.3068,-50"/>
<text text-anchor="middle" x="398.7686" y="-34.8" font-family="Times,serif" font-size="14.00" fill="#000000">gini = 0.0</text>
<text text-anchor="middle" x="398.7686" y="-20.8" font-family="Times,serif" font-size="14.00" fill="#000000">samples = 8</text>
<text text-anchor="middle" x="398.7686" y="-6.8" font-family="Times,serif" font-size="14.00" fill="#000000">value = [0, 8]</text>
</g>
<!-- 7&#45;&gt;10 -->
<g id="edge9" class="edge">
<title>7&#45;&gt;10</title>
<path fill="none" stroke="#000000" d="M362.0406,-85.9947C367.3558,-77.1676 373.1373,-67.5662 378.5067,-58.6491"/>
<polygon fill="#000000" stroke="#000000" points="381.5462,-60.3863 383.7063,-50.014 375.5494,-56.7753 381.5462,-60.3863"/>
</g>
<!-- 11 -->
<g id="node12" class="node">
<title>11</title>
<polygon fill="none" stroke="#000000" points="554.3068,-50 463.2303,-50 463.2303,0 554.3068,0 554.3068,-50"/>
<text text-anchor="middle" x="508.7686" y="-34.8" font-family="Times,serif" font-size="14.00" fill="#000000">gini = 0.0</text>
<text text-anchor="middle" x="508.7686" y="-20.8" font-family="Times,serif" font-size="14.00" fill="#000000">samples = 5</text>
<text text-anchor="middle" x="508.7686" y="-6.8" font-family="Times,serif" font-size="14.00" fill="#000000">value = [5, 0]</text>
</g>
<!-- 8&#45;&gt;11 -->
<g id="edge11" class="edge">
<title>8&#45;&gt;11</title>
<path fill="none" stroke="#000000" d="M508.7686,-85.9947C508.7686,-77.6273 508.7686,-68.5643 508.7686,-60.0478"/>
<polygon fill="#000000" stroke="#000000" points="512.2687,-60.014 508.7686,-50.014 505.2687,-60.0141 512.2687,-60.014"/>
</g>
<!-- 12 -->
<g id="node13" class="node">
<title>12</title>
<polygon fill="none" stroke="#000000" points="664.3068,-50 573.2303,-50 573.2303,0 664.3068,0 664.3068,-50"/>
<text text-anchor="middle" x="618.7686" y="-34.8" font-family="Times,serif" font-size="14.00" fill="#000000">gini = 0.48</text>
<text text-anchor="middle" x="618.7686" y="-20.8" font-family="Times,serif" font-size="14.00" fill="#000000">samples = 5</text>
<text text-anchor="middle" x="618.7686" y="-6.8" font-family="Times,serif" font-size="14.00" fill="#000000">value = [2, 3]</text>
</g>
<!-- 8&#45;&gt;12 -->
<g id="edge12" class="edge">
<title>8&#45;&gt;12</title>
<path fill="none" stroke="#000000" d="M546.6243,-85.9947C557.8262,-76.524 570.0824,-66.1619 581.2622,-56.7099"/>
<polygon fill="#000000" stroke="#000000" points="583.8053,-59.1432 589.1821,-50.014 579.2858,-53.7976 583.8053,-59.1432"/>
</g>
</g>
</svg>
