<?xml version="1.0" encoding="UTF-8" standalone="no"?>
<!DOCTYPE svg PUBLIC "-//W3C//DTD SVG 1.1//EN"
 "http://www.w3.org/Graphics/SVG/1.1/DTD/svg11.dtd">
<!-- Generated by graphviz version 2.40.1 (20161225.0304)
 -->
<!-- Title: Tree Pages: 1 -->
<svg width="230pt" height="158pt"
 viewBox="0.00 0.00 230.04 158.00" xmlns="http://www.w3.org/2000/svg" xmlns:xlink="http://www.w3.org/1999/xlink">
<g id="graph0" class="graph" transform="scale(1 1) rotate(0) translate(4 154)">
<title>Tree</title>
<polygon fill="#ffffff" stroke="transparent" points="-4,4 -4,-154 226.0371,-154 226.0371,4 -4,4"/>
<!-- 0 -->
<g id="node1" class="node">
<title>0</title>
<polygon fill="none" stroke="#000000" points="168.8066,-150 56.7305,-150 56.7305,-86 168.8066,-86 168.8066,-150"/>
<text text-anchor="middle" x="112.7686" y="-134.8" font-family="Times,serif" font-size="14.00" fill="#000000">X[8] &lt;= 7.5</text>
<text text-anchor="middle" x="112.7686" y="-120.8" font-family="Times,serif" font-size="14.00" fill="#000000">gini = 0.099</text>
<text text-anchor="middle" x="112.7686" y="-106.8" font-family="Times,serif" font-size="14.00" fill="#000000">samples = 324</text>
<text text-anchor="middle" x="112.7686" y="-92.8" font-family="Times,serif" font-size="14.00" fill="#000000">value = [307, 17]</text>
</g>
<!-- 1 -->
<g id="node2" class="node">
<title>1</title>
<polygon fill="none" stroke="#000000" points="105.3067,-50 .2304,-50 .2304,0 105.3067,0 105.3067,-50"/>
<text text-anchor="middle" x="52.7686" y="-34.8" font-family="Times,serif" font-size="14.00" fill="#000000">gini = 0.0</text>
<text text-anchor="middle" x="52.7686" y="-20.8" font-family="Times,serif" font-size="14.00" fill="#000000">samples = 307</text>
<text text-anchor="middle" x="52.7686" y="-6.8" font-family="Times,serif" font-size="14.00" fill="#000000">value = [307, 0]</text>
</g>
<!-- 0&#45;&gt;1 -->
<g id="edge1" class="edge">
<title>0&#45;&gt;1</title>
<path fill="none" stroke="#000000" d="M92.12,-85.9947C86.4251,-77.1676 80.2306,-67.5662 74.4776,-58.6491"/>
<polygon fill="#000000" stroke="#000000" points="77.269,-56.5196 68.9066,-50.014 71.3869,-60.3145 77.269,-56.5196"/>
<text text-anchor="middle" x="63.6357" y="-70.2521" font-family="Times,serif" font-size="14.00" fill="#000000">True</text>
</g>
<!-- 2 -->
<g id="node3" class="node">
<title>2</title>
<polygon fill="none" stroke="#000000" points="221.8067,-50 123.7304,-50 123.7304,0 221.8067,0 221.8067,-50"/>
<text text-anchor="middle" x="172.7686" y="-34.8" font-family="Times,serif" font-size="14.00" fill="#000000">gini = 0.0</text>
<text text-anchor="middle" x="172.7686" y="-20.8" font-family="Times,serif" font-size="14.00" fill="#000000">samples = 17</text>
<text text-anchor="middle" x="172.7686" y="-6.8" font-family="Times,serif" font-size="14.00" fill="#000000">value = [0, 17]</text>
</g>
<!-- 0&#45;&gt;2 -->
<g id="edge2" class="edge">
<title>0&#45;&gt;2</title>
<path fill="none" stroke="#000000" d="M133.4172,-85.9947C139.112,-77.1676 145.3065,-67.5662 151.0595,-58.6491"/>
<polygon fill="#000000" stroke="#000000" points="154.1502,-60.3145 156.6305,-50.014 148.2681,-56.5196 154.1502,-60.3145"/>
<text text-anchor="middle" x="161.9014" y="-70.2521" font-family="Times,serif" font-size="14.00" fill="#000000">False</text>
</g>
</g>
</svg>
