<?xml version="1.0" encoding="UTF-8" standalone="no"?>
<!DOCTYPE svg PUBLIC "-//W3C//DTD SVG 1.1//EN"
 "http://www.w3.org/Graphics/SVG/1.1/DTD/svg11.dtd">
<!-- Generated by graphviz version 2.40.1 (20161225.0304)
 -->
<!-- Title: Tree Pages: 1 -->
<svg width="1205pt" height="458pt"
 viewBox="0.00 0.00 1204.54 458.00" xmlns="http://www.w3.org/2000/svg" xmlns:xlink="http://www.w3.org/1999/xlink">
<g id="graph0" class="graph" transform="scale(1 1) rotate(0) translate(4 454)">
<title>Tree</title>
<polygon fill="#ffffff" stroke="transparent" points="-4,4 -4,-454 1200.5371,-454 1200.5371,4 -4,4"/>
<!-- 0 -->
<g id="node1" class="node">
<title>0</title>
<polygon fill="none" stroke="#000000" points="696.8062,-450 514.7309,-450 514.7309,-386 696.8062,-386 696.8062,-450"/>
<text text-anchor="middle" x="605.7686" y="-434.8" font-family="Times,serif" font-size="14.00" fill="#000000">X[11] &lt;= 0.988</text>
<text text-anchor="middle" x="605.7686" y="-420.8" font-family="Times,serif" font-size="14.00" fill="#000000">gini = 0.669</text>
<text text-anchor="middle" x="605.7686" y="-406.8" font-family="Times,serif" font-size="14.00" fill="#000000">samples = 324</text>
<text text-anchor="middle" x="605.7686" y="-392.8" font-family="Times,serif" font-size="14.00" fill="#000000">value = [6, 95, 149, 57, 16, 1]</text>
</g>
<!-- 1 -->
<g id="node2" class="node">
<title>1</title>
<polygon fill="none" stroke="#000000" points="600.793,-350 418.7441,-350 418.7441,-286 600.793,-286 600.793,-350"/>
<text text-anchor="middle" x="509.7686" y="-334.8" font-family="Times,serif" font-size="14.00" fill="#000000">X[1] &lt;= 0.031</text>
<text text-anchor="middle" x="509.7686" y="-320.8" font-family="Times,serif" font-size="14.00" fill="#000000">gini = 0.675</text>
<text text-anchor="middle" x="509.7686" y="-306.8" font-family="Times,serif" font-size="14.00" fill="#000000">samples = 240</text>
<text text-anchor="middle" x="509.7686" y="-292.8" font-family="Times,serif" font-size="14.00" fill="#000000">value = [4, 59, 113, 47, 16, 1]</text>
</g>
<!-- 0&#45;&gt;1 -->
<g id="edge1" class="edge">
<title>0&#45;&gt;1</title>
<path fill="none" stroke="#000000" d="M574.8651,-385.8089C566.2151,-376.7985 556.7129,-366.9004 547.7058,-357.518"/>
<polygon fill="#000000" stroke="#000000" points="550.0643,-354.9208 540.6141,-350.1308 545.0146,-359.7685 550.0643,-354.9208"/>
<text text-anchor="middle" x="540.104" y="-370.9256" font-family="Times,serif" font-size="14.00" fill="#000000">True</text>
</g>
<!-- 2 -->
<g id="node13" class="node">
<title>2</title>
<polygon fill="none" stroke="#000000" points="786.8063,-350 618.7308,-350 618.7308,-286 786.8063,-286 786.8063,-350"/>
<text text-anchor="middle" x="702.7686" y="-334.8" font-family="Times,serif" font-size="14.00" fill="#000000">X[0] &lt;= 10.085</text>
<text text-anchor="middle" x="702.7686" y="-320.8" font-family="Times,serif" font-size="14.00" fill="#000000">gini = 0.618</text>
<text text-anchor="middle" x="702.7686" y="-306.8" font-family="Times,serif" font-size="14.00" fill="#000000">samples = 84</text>
<text text-anchor="middle" x="702.7686" y="-292.8" font-family="Times,serif" font-size="14.00" fill="#000000">value = [2, 36, 36, 10, 0, 0]</text>
</g>
<!-- 0&#45;&gt;2 -->
<g id="edge12" class="edge">
<title>0&#45;&gt;2</title>
<path fill="none" stroke="#000000" d="M636.9939,-385.8089C645.7341,-376.7985 655.3352,-366.9004 664.4361,-357.518"/>
<polygon fill="#000000" stroke="#000000" points="667.1514,-359.7456 671.6017,-350.1308 662.1268,-354.8718 667.1514,-359.7456"/>
<text text-anchor="middle" x="671.9824" y="-370.9279" font-family="Times,serif" font-size="14.00" fill="#000000">False</text>
</g>
<!-- 5 -->
<g id="node3" class="node">
<title>5</title>
<polygon fill="none" stroke="#000000" points="405.3063,-250 244.2308,-250 244.2308,-186 405.3063,-186 405.3063,-250"/>
<text text-anchor="middle" x="324.7686" y="-234.8" font-family="Times,serif" font-size="14.00" fill="#000000">X[0] &lt;= 11.926</text>
<text text-anchor="middle" x="324.7686" y="-220.8" font-family="Times,serif" font-size="14.00" fill="#000000">gini = 0.719</text>
<text text-anchor="middle" x="324.7686" y="-206.8" font-family="Times,serif" font-size="14.00" fill="#000000">samples = 41</text>
<text text-anchor="middle" x="324.7686" y="-192.8" font-family="Times,serif" font-size="14.00" fill="#000000">value = [0, 8, 14, 14, 4, 1]</text>
</g>
<!-- 1&#45;&gt;5 -->
<g id="edge2" class="edge">
<title>1&#45;&gt;5</title>
<path fill="none" stroke="#000000" d="M450.47,-285.9467C432.1313,-276.0339 411.785,-265.0359 392.8984,-254.8269"/>
<polygon fill="#000000" stroke="#000000" points="394.5101,-251.7195 384.0487,-250.0433 391.1814,-257.8775 394.5101,-251.7195"/>
</g>
<!-- 6 -->
<g id="node8" class="node">
<title>6</title>
<polygon fill="none" stroke="#000000" points="599.3063,-250 424.2308,-250 424.2308,-186 599.3063,-186 599.3063,-250"/>
<text text-anchor="middle" x="511.7686" y="-234.8" font-family="Times,serif" font-size="14.00" fill="#000000">X[3] &lt;= 0.991</text>
<text text-anchor="middle" x="511.7686" y="-220.8" font-family="Times,serif" font-size="14.00" fill="#000000">gini = 0.655</text>
<text text-anchor="middle" x="511.7686" y="-206.8" font-family="Times,serif" font-size="14.00" fill="#000000">samples = 199</text>
<text text-anchor="middle" x="511.7686" y="-192.8" font-family="Times,serif" font-size="14.00" fill="#000000">value = [4, 51, 99, 33, 12, 0]</text>
</g>
<!-- 1&#45;&gt;6 -->
<g id="edge7" class="edge">
<title>1&#45;&gt;6</title>
<path fill="none" stroke="#000000" d="M510.4124,-285.8089C510.5747,-277.6906 510.7515,-268.8517 510.9222,-260.3186"/>
<polygon fill="#000000" stroke="#000000" points="514.4252,-260.1988 511.1259,-250.1308 507.4266,-260.0587 514.4252,-260.1988"/>
</g>
<!-- 7 -->
<g id="node4" class="node">
<title>7</title>
<polygon fill="none" stroke="#000000" points="233.8064,-150 79.7308,-150 79.7308,-86 233.8064,-86 233.8064,-150"/>
<text text-anchor="middle" x="156.7686" y="-134.8" font-family="Times,serif" font-size="14.00" fill="#000000">X[6] &lt;= 3.288</text>
<text text-anchor="middle" x="156.7686" y="-120.8" font-family="Times,serif" font-size="14.00" fill="#000000">gini = 0.698</text>
<text text-anchor="middle" x="156.7686" y="-106.8" font-family="Times,serif" font-size="14.00" fill="#000000">samples = 24</text>
<text text-anchor="middle" x="156.7686" y="-92.8" font-family="Times,serif" font-size="14.00" fill="#000000">value = [0, 7, 10, 4, 3, 0]</text>
</g>
<!-- 5&#45;&gt;7 -->
<g id="edge3" class="edge">
<title>5&#45;&gt;7</title>
<path fill="none" stroke="#000000" d="M270.6876,-185.8089C254.3509,-176.0848 236.2776,-165.3268 219.4306,-155.2989"/>
<polygon fill="#000000" stroke="#000000" points="221.1314,-152.2381 210.7482,-150.1308 217.551,-158.2532 221.1314,-152.2381"/>
</g>
<!-- 8 -->
<g id="node7" class="node">
<title>8</title>
<polygon fill="none" stroke="#000000" points="406.8064,-143 252.7308,-143 252.7308,-93 406.8064,-93 406.8064,-143"/>
<text text-anchor="middle" x="329.7686" y="-127.8" font-family="Times,serif" font-size="14.00" fill="#000000">gini = 0.588</text>
<text text-anchor="middle" x="329.7686" y="-113.8" font-family="Times,serif" font-size="14.00" fill="#000000">samples = 17</text>
<text text-anchor="middle" x="329.7686" y="-99.8" font-family="Times,serif" font-size="14.00" fill="#000000">value = [0, 1, 4, 10, 1, 1]</text>
</g>
<!-- 5&#45;&gt;8 -->
<g id="edge6" class="edge">
<title>5&#45;&gt;8</title>
<path fill="none" stroke="#000000" d="M326.3781,-185.8089C326.8963,-175.446 327.4731,-163.909 328.0019,-153.3327"/>
<polygon fill="#000000" stroke="#000000" points="331.5069,-153.3179 328.5108,-143.1555 324.5157,-152.9683 331.5069,-153.3179"/>
</g>
<!-- 17 -->
<g id="node5" class="node">
<title>17</title>
<polygon fill="none" stroke="#000000" points="147.3064,-50 .2307,-50 .2307,0 147.3064,0 147.3064,-50"/>
<text text-anchor="middle" x="73.7686" y="-34.8" font-family="Times,serif" font-size="14.00" fill="#000000">gini = 0.648</text>
<text text-anchor="middle" x="73.7686" y="-20.8" font-family="Times,serif" font-size="14.00" fill="#000000">samples = 16</text>
<text text-anchor="middle" x="73.7686" y="-6.8" font-family="Times,serif" font-size="14.00" fill="#000000">value = [0, 7, 6, 2, 1, 0]</text>
</g>
<!-- 7&#45;&gt;17 -->
<g id="edge4" class="edge">
<title>7&#45;&gt;17</title>
<path fill="none" stroke="#000000" d="M128.2047,-85.9947C119.9985,-76.7998 111.0425,-66.7648 102.8079,-57.5381"/>
<polygon fill="#000000" stroke="#000000" points="105.3628,-55.1443 96.0929,-50.014 100.1402,-59.8054 105.3628,-55.1443"/>
</g>
<!-- 18 -->
<g id="node6" class="node">
<title>18</title>
<polygon fill="none" stroke="#000000" points="313.3064,-50 166.2307,-50 166.2307,0 313.3064,0 313.3064,-50"/>
<text text-anchor="middle" x="239.7686" y="-34.8" font-family="Times,serif" font-size="14.00" fill="#000000">gini = 0.625</text>
<text text-anchor="middle" x="239.7686" y="-20.8" font-family="Times,serif" font-size="14.00" fill="#000000">samples = 8</text>
<text text-anchor="middle" x="239.7686" y="-6.8" font-family="Times,serif" font-size="14.00" fill="#000000">value = [0, 0, 4, 2, 2, 0]</text>
</g>
<!-- 7&#45;&gt;18 -->
<g id="edge5" class="edge">
<title>7&#45;&gt;18</title>
<path fill="none" stroke="#000000" d="M185.3324,-85.9947C193.5386,-76.7998 202.4946,-66.7648 210.7292,-57.5381"/>
<polygon fill="#000000" stroke="#000000" points="213.3969,-59.8054 217.4442,-50.014 208.1743,-55.1443 213.3969,-59.8054"/>
</g>
<!-- 9 -->
<g id="node9" class="node">
<title>9</title>
<polygon fill="none" stroke="#000000" points="585.793,-150 431.7441,-150 431.7441,-86 585.793,-86 585.793,-150"/>
<text text-anchor="middle" x="508.7686" y="-134.8" font-family="Times,serif" font-size="14.00" fill="#000000">X[5] &lt;= 41.005</text>
<text text-anchor="middle" x="508.7686" y="-120.8" font-family="Times,serif" font-size="14.00" fill="#000000">gini = 0.735</text>
<text text-anchor="middle" x="508.7686" y="-106.8" font-family="Times,serif" font-size="14.00" fill="#000000">samples = 29</text>
<text text-anchor="middle" x="508.7686" y="-92.8" font-family="Times,serif" font-size="14.00" fill="#000000">value = [2, 3, 11, 8, 5, 0]</text>
</g>
<!-- 6&#45;&gt;9 -->
<g id="edge8" class="edge">
<title>6&#45;&gt;9</title>
<path fill="none" stroke="#000000" d="M510.8028,-185.8089C510.5593,-177.6906 510.2941,-168.8517 510.0381,-160.3186"/>
<polygon fill="#000000" stroke="#000000" points="513.5309,-160.0213 509.7325,-150.1308 506.534,-160.2312 513.5309,-160.0213"/>
</g>
<!-- 10 -->
<g id="node12" class="node">
<title>10</title>
<polygon fill="none" stroke="#000000" points="771.8063,-143 603.7308,-143 603.7308,-93 771.8063,-93 771.8063,-143"/>
<text text-anchor="middle" x="687.7686" y="-127.8" font-family="Times,serif" font-size="14.00" fill="#000000">gini = 0.629</text>
<text text-anchor="middle" x="687.7686" y="-113.8" font-family="Times,serif" font-size="14.00" fill="#000000">samples = 170</text>
<text text-anchor="middle" x="687.7686" y="-99.8" font-family="Times,serif" font-size="14.00" fill="#000000">value = [2, 48, 88, 25, 7, 0]</text>
</g>
<!-- 6&#45;&gt;10 -->
<g id="edge11" class="edge">
<title>6&#45;&gt;10</title>
<path fill="none" stroke="#000000" d="M568.4248,-185.8089C589.7034,-173.7188 613.7944,-160.0308 634.732,-148.1344"/>
<polygon fill="#000000" stroke="#000000" points="636.5293,-151.1388 643.4948,-143.1555 633.0712,-145.0526 636.5293,-151.1388"/>
</g>
<!-- 11 -->
<g id="node10" class="node">
<title>11</title>
<polygon fill="none" stroke="#000000" points="539.793,-50 385.7441,-50 385.7441,0 539.793,0 539.793,-50"/>
<text text-anchor="middle" x="462.7686" y="-34.8" font-family="Times,serif" font-size="14.00" fill="#000000">gini = 0.699</text>
<text text-anchor="middle" x="462.7686" y="-20.8" font-family="Times,serif" font-size="14.00" fill="#000000">samples = 23</text>
<text text-anchor="middle" x="462.7686" y="-6.8" font-family="Times,serif" font-size="14.00" fill="#000000">value = [2, 3, 11, 4, 3, 0]</text>
</g>
<!-- 9&#45;&gt;11 -->
<g id="edge9" class="edge">
<title>9&#45;&gt;11</title>
<path fill="none" stroke="#000000" d="M492.938,-85.9947C488.6628,-77.3515 484.0205,-67.966 479.6883,-59.2073"/>
<polygon fill="#000000" stroke="#000000" points="482.7119,-57.4257 475.1411,-50.014 476.4375,-60.5293 482.7119,-57.4257"/>
</g>
<!-- 12 -->
<g id="node11" class="node">
<title>12</title>
<polygon fill="none" stroke="#000000" points="705.3064,-50 558.2307,-50 558.2307,0 705.3064,0 705.3064,-50"/>
<text text-anchor="middle" x="631.7686" y="-34.8" font-family="Times,serif" font-size="14.00" fill="#000000">gini = 0.444</text>
<text text-anchor="middle" x="631.7686" y="-20.8" font-family="Times,serif" font-size="14.00" fill="#000000">samples = 6</text>
<text text-anchor="middle" x="631.7686" y="-6.8" font-family="Times,serif" font-size="14.00" fill="#000000">value = [0, 0, 0, 4, 2, 0]</text>
</g>
<!-- 9&#45;&gt;12 -->
<g id="edge10" class="edge">
<title>9&#45;&gt;12</title>
<path fill="none" stroke="#000000" d="M551.0982,-85.9947C563.8672,-76.3401 577.8613,-65.7592 590.5564,-56.1604"/>
<polygon fill="#000000" stroke="#000000" points="592.8198,-58.837 598.6855,-50.014 588.598,-53.2533 592.8198,-58.837"/>
</g>
<!-- 3 -->
<g id="node14" class="node">
<title>3</title>
<polygon fill="none" stroke="#000000" points="776.8064,-243 622.7308,-243 622.7308,-193 776.8064,-193 776.8064,-243"/>
<text text-anchor="middle" x="699.7686" y="-227.8" font-family="Times,serif" font-size="14.00" fill="#000000">gini = 0.387</text>
<text text-anchor="middle" x="699.7686" y="-213.8" font-family="Times,serif" font-size="14.00" fill="#000000">samples = 36</text>
<text text-anchor="middle" x="699.7686" y="-199.8" font-family="Times,serif" font-size="14.00" fill="#000000">value = [0, 27, 8, 1, 0, 0]</text>
</g>
<!-- 2&#45;&gt;3 -->
<g id="edge13" class="edge">
<title>2&#45;&gt;3</title>
<path fill="none" stroke="#000000" d="M701.8028,-285.8089C701.4919,-275.446 701.1458,-263.909 700.8285,-253.3327"/>
<polygon fill="#000000" stroke="#000000" points="704.3216,-253.0461 700.5232,-243.1555 697.3248,-253.256 704.3216,-253.0461"/>
</g>
<!-- 4 -->
<g id="node15" class="node">
<title>4</title>
<polygon fill="none" stroke="#000000" points="949.8064,-250 795.7308,-250 795.7308,-186 949.8064,-186 949.8064,-250"/>
<text text-anchor="middle" x="872.7686" y="-234.8" font-family="Times,serif" font-size="14.00" fill="#000000">X[0] &lt;= 11.804</text>
<text text-anchor="middle" x="872.7686" y="-220.8" font-family="Times,serif" font-size="14.00" fill="#000000">gini = 0.588</text>
<text text-anchor="middle" x="872.7686" y="-206.8" font-family="Times,serif" font-size="14.00" fill="#000000">samples = 48</text>
<text text-anchor="middle" x="872.7686" y="-192.8" font-family="Times,serif" font-size="14.00" fill="#000000">value = [2, 9, 28, 9, 0, 0]</text>
</g>
<!-- 2&#45;&gt;4 -->
<g id="edge14" class="edge">
<title>2&#45;&gt;4</title>
<path fill="none" stroke="#000000" d="M757.4934,-285.8089C774.0245,-276.0848 792.313,-265.3268 809.3605,-255.2989"/>
<polygon fill="#000000" stroke="#000000" points="811.3015,-258.2178 818.1463,-250.1308 807.7523,-252.1842 811.3015,-258.2178"/>
</g>
<!-- 13 -->
<g id="node16" class="node">
<title>13</title>
<polygon fill="none" stroke="#000000" points="947.8064,-143 793.7308,-143 793.7308,-93 947.8064,-93 947.8064,-143"/>
<text text-anchor="middle" x="870.7686" y="-127.8" font-family="Times,serif" font-size="14.00" fill="#000000">gini = 0.582</text>
<text text-anchor="middle" x="870.7686" y="-113.8" font-family="Times,serif" font-size="14.00" fill="#000000">samples = 36</text>
<text text-anchor="middle" x="870.7686" y="-99.8" font-family="Times,serif" font-size="14.00" fill="#000000">value = [2, 9, 21, 4, 0, 0]</text>
</g>
<!-- 4&#45;&gt;13 -->
<g id="edge15" class="edge">
<title>4&#45;&gt;13</title>
<path fill="none" stroke="#000000" d="M872.1247,-185.8089C871.9175,-175.446 871.6867,-163.909 871.4752,-153.3327"/>
<polygon fill="#000000" stroke="#000000" points="874.971,-153.0835 871.2717,-143.1555 867.9724,-153.2236 874.971,-153.0835"/>
</g>
<!-- 14 -->
<g id="node17" class="node">
<title>14</title>
<polygon fill="none" stroke="#000000" points="1113.3064,-150 966.2307,-150 966.2307,-86 1113.3064,-86 1113.3064,-150"/>
<text text-anchor="middle" x="1039.7686" y="-134.8" font-family="Times,serif" font-size="14.00" fill="#000000">X[0] &lt;= 12.24</text>
<text text-anchor="middle" x="1039.7686" y="-120.8" font-family="Times,serif" font-size="14.00" fill="#000000">gini = 0.486</text>
<text text-anchor="middle" x="1039.7686" y="-106.8" font-family="Times,serif" font-size="14.00" fill="#000000">samples = 12</text>
<text text-anchor="middle" x="1039.7686" y="-92.8" font-family="Times,serif" font-size="14.00" fill="#000000">value = [0, 0, 7, 5, 0, 0]</text>
</g>
<!-- 4&#45;&gt;14 -->
<g id="edge16" class="edge">
<title>4&#45;&gt;14</title>
<path fill="none" stroke="#000000" d="M926.5276,-185.8089C942.767,-176.0848 960.7328,-165.3268 977.4795,-155.2989"/>
<polygon fill="#000000" stroke="#000000" points="979.3288,-158.271 986.1102,-150.1308 975.7326,-152.2654 979.3288,-158.271"/>
</g>
<!-- 15 -->
<g id="node18" class="node">
<title>15</title>
<polygon fill="none" stroke="#000000" points="1030.3064,-50 883.2307,-50 883.2307,0 1030.3064,0 1030.3064,-50"/>
<text text-anchor="middle" x="956.7686" y="-34.8" font-family="Times,serif" font-size="14.00" fill="#000000">gini = 0.278</text>
<text text-anchor="middle" x="956.7686" y="-20.8" font-family="Times,serif" font-size="14.00" fill="#000000">samples = 6</text>
<text text-anchor="middle" x="956.7686" y="-6.8" font-family="Times,serif" font-size="14.00" fill="#000000">value = [0, 0, 5, 1, 0, 0]</text>
</g>
<!-- 14&#45;&gt;15 -->
<g id="edge17" class="edge">
<title>14&#45;&gt;15</title>
<path fill="none" stroke="#000000" d="M1011.2047,-85.9947C1002.9985,-76.7998 994.0425,-66.7648 985.8079,-57.5381"/>
<polygon fill="#000000" stroke="#000000" points="988.3628,-55.1443 979.0929,-50.014 983.1402,-59.8054 988.3628,-55.1443"/>
</g>
<!-- 16 -->
<g id="node19" class="node">
<title>16</title>
<polygon fill="none" stroke="#000000" points="1196.3064,-50 1049.2307,-50 1049.2307,0 1196.3064,0 1196.3064,-50"/>
<text text-anchor="middle" x="1122.7686" y="-34.8" font-family="Times,serif" font-size="14.00" fill="#000000">gini = 0.444</text>
<text text-anchor="middle" x="1122.7686" y="-20.8" font-family="Times,serif" font-size="14.00" fill="#000000">samples = 6</text>
<text text-anchor="middle" x="1122.7686" y="-6.8" font-family="Times,serif" font-size="14.00" fill="#000000">value = [0, 0, 2, 4, 0, 0]</text>
</g>
<!-- 14&#45;&gt;16 -->
<g id="edge18" class="edge">
<title>14&#45;&gt;16</title>
<path fill="none" stroke="#000000" d="M1068.3324,-85.9947C1076.5386,-76.7998 1085.4946,-66.7648 1093.7292,-57.5381"/>
<polygon fill="#000000" stroke="#000000" points="1096.3969,-59.8054 1100.4442,-50.014 1091.1743,-55.1443 1096.3969,-59.8054"/>
</g>
</g>
</svg>
