<?xml version="1.0" encoding="UTF-8" standalone="no"?>
<!DOCTYPE svg PUBLIC "-//W3C//DTD SVG 1.1//EN"
 "http://www.w3.org/Graphics/SVG/1.1/DTD/svg11.dtd">
<!-- Generated by graphviz version 2.40.1 (20161225.0304)
 -->
<!-- Title: Tree Pages: 1 -->
<svg width="222pt" height="158pt"
 viewBox="0.00 0.00 222.28 158.00" xmlns="http://www.w3.org/2000/svg" xmlns:xlink="http://www.w3.org/1999/xlink">
<g id="graph0" class="graph" transform="scale(1 1) rotate(0) translate(4 154)">
<title>Tree</title>
<polygon fill="#ffffff" stroke="transparent" points="-4,4 -4,-154 218.2808,-154 218.2808,4 -4,4"/>
<!-- 0 -->
<g id="node1" class="node">
<title>0</title>
<polygon fill="none" stroke="#000000" points="165.9816,-150 48.5555,-150 48.5555,-86 165.9816,-86 165.9816,-150"/>
<text text-anchor="middle" x="107.2686" y="-134.8" font-family="Times,serif" font-size="14.00" fill="#000000">X[26] &lt;= 114.777</text>
<text text-anchor="middle" x="107.2686" y="-120.8" font-family="Times,serif" font-size="14.00" fill="#000000">gini = 0.477</text>
<text text-anchor="middle" x="107.2686" y="-106.8" font-family="Times,serif" font-size="14.00" fill="#000000">samples = 28</text>
<text text-anchor="middle" x="107.2686" y="-92.8" font-family="Times,serif" font-size="14.00" fill="#000000">value = [11, 17]</text>
</g>
<!-- 1 -->
<g id="node2" class="node">
<title>1</title>
<polygon fill="none" stroke="#000000" points="98.3067,-50 .2304,-50 .2304,0 98.3067,0 98.3067,-50"/>
<text text-anchor="middle" x="49.2686" y="-34.8" font-family="Times,serif" font-size="14.00" fill="#000000">gini = 0.0</text>
<text text-anchor="middle" x="49.2686" y="-20.8" font-family="Times,serif" font-size="14.00" fill="#000000">samples = 17</text>
<text text-anchor="middle" x="49.2686" y="-6.8" font-family="Times,serif" font-size="14.00" fill="#000000">value = [0, 17]</text>
</g>
<!-- 0&#45;&gt;1 -->
<g id="edge1" class="edge">
<title>0&#45;&gt;1</title>
<path fill="none" stroke="#000000" d="M87.3082,-85.9947C81.8032,-77.1676 75.8152,-67.5662 70.254,-58.6491"/>
<polygon fill="#000000" stroke="#000000" points="73.1303,-56.647 64.8687,-50.014 67.1907,-60.3513 73.1303,-56.647"/>
<text text-anchor="middle" x="59.2237" y="-70.1684" font-family="Times,serif" font-size="14.00" fill="#000000">True</text>
</g>
<!-- 2 -->
<g id="node3" class="node">
<title>2</title>
<polygon fill="none" stroke="#000000" points="214.293,-50 116.2441,-50 116.2441,0 214.293,0 214.293,-50"/>
<text text-anchor="middle" x="165.2686" y="-34.8" font-family="Times,serif" font-size="14.00" fill="#000000">gini = 0.0</text>
<text text-anchor="middle" x="165.2686" y="-20.8" font-family="Times,serif" font-size="14.00" fill="#000000">samples = 11</text>
<text text-anchor="middle" x="165.2686" y="-6.8" font-family="Times,serif" font-size="14.00" fill="#000000">value = [11, 0]</text>
</g>
<!-- 0&#45;&gt;2 -->
<g id="edge2" class="edge">
<title>0&#45;&gt;2</title>
<path fill="none" stroke="#000000" d="M127.2289,-85.9947C132.7339,-77.1676 138.7219,-67.5662 144.2831,-58.6491"/>
<polygon fill="#000000" stroke="#000000" points="147.3464,-60.3513 149.6684,-50.014 141.4068,-56.647 147.3464,-60.3513"/>
<text text-anchor="middle" x="155.3135" y="-70.1684" font-family="Times,serif" font-size="14.00" fill="#000000">False</text>
</g>
</g>
</svg>
