<?xml version="1.0" encoding="UTF-8" standalone="no"?>
<!DOCTYPE svg PUBLIC "-//W3C//DTD SVG 1.1//EN"
 "http://www.w3.org/Graphics/SVG/1.1/DTD/svg11.dtd">
<!-- Generated by graphviz version 2.40.1 (20161225.0304)
 -->
<!-- Title: Tree Pages: 1 -->
<svg width="388pt" height="458pt"
 viewBox="0.00 0.00 387.54 458.00" xmlns="http://www.w3.org/2000/svg" xmlns:xlink="http://www.w3.org/1999/xlink">
<g id="graph0" class="graph" transform="scale(1 1) rotate(0) translate(4 454)">
<title>Tree</title>
<polygon fill="#ffffff" stroke="transparent" points="-4,4 -4,-454 383.5371,-454 383.5371,4 -4,4"/>
<!-- 0 -->
<g id="node1" class="node">
<title>0</title>
<polygon fill="none" stroke="#000000" points="258.8065,-450 132.7306,-450 132.7306,-386 258.8065,-386 258.8065,-450"/>
<text text-anchor="middle" x="195.7686" y="-434.8" font-family="Times,serif" font-size="14.00" fill="#000000">X[8] &lt;= 7.239</text>
<text text-anchor="middle" x="195.7686" y="-420.8" font-family="Times,serif" font-size="14.00" fill="#000000">gini = 0.089</text>
<text text-anchor="middle" x="195.7686" y="-406.8" font-family="Times,serif" font-size="14.00" fill="#000000">samples = 324</text>
<text text-anchor="middle" x="195.7686" y="-392.8" font-family="Times,serif" font-size="14.00" fill="#000000">value = [1, 309, 14]</text>
</g>
<!-- 1 -->
<g id="node2" class="node">
<title>1</title>
<polygon fill="none" stroke="#000000" points="188.3066,-350 69.2306,-350 69.2306,-286 188.3066,-286 188.3066,-350"/>
<text text-anchor="middle" x="128.7686" y="-334.8" font-family="Times,serif" font-size="14.00" fill="#000000">X[0] &lt;= 4270.034</text>
<text text-anchor="middle" x="128.7686" y="-320.8" font-family="Times,serif" font-size="14.00" fill="#000000">gini = 0.006</text>
<text text-anchor="middle" x="128.7686" y="-306.8" font-family="Times,serif" font-size="14.00" fill="#000000">samples = 310</text>
<text text-anchor="middle" x="128.7686" y="-292.8" font-family="Times,serif" font-size="14.00" fill="#000000">value = [1, 309, 0]</text>
</g>
<!-- 0&#45;&gt;1 -->
<g id="edge1" class="edge">
<title>0&#45;&gt;1</title>
<path fill="none" stroke="#000000" d="M174.2005,-385.8089C168.4026,-377.1553 162.0562,-367.683 155.994,-358.635"/>
<polygon fill="#000000" stroke="#000000" points="158.7701,-356.4903 150.2962,-350.1308 152.9547,-360.3866 158.7701,-356.4903"/>
<text text-anchor="middle" x="145.4498" y="-370.4565" font-family="Times,serif" font-size="14.00" fill="#000000">True</text>
</g>
<!-- 2 -->
<g id="node9" class="node">
<title>2</title>
<polygon fill="none" stroke="#000000" points="318.8066,-343 206.7305,-343 206.7305,-293 318.8066,-293 318.8066,-343"/>
<text text-anchor="middle" x="262.7686" y="-327.8" font-family="Times,serif" font-size="14.00" fill="#000000">gini = 0.0</text>
<text text-anchor="middle" x="262.7686" y="-313.8" font-family="Times,serif" font-size="14.00" fill="#000000">samples = 14</text>
<text text-anchor="middle" x="262.7686" y="-299.8" font-family="Times,serif" font-size="14.00" fill="#000000">value = [0, 0, 14]</text>
</g>
<!-- 0&#45;&gt;2 -->
<g id="edge8" class="edge">
<title>0&#45;&gt;2</title>
<path fill="none" stroke="#000000" d="M217.3366,-385.8089C224.6414,-374.9063 232.8168,-362.7041 240.1974,-351.6882"/>
<polygon fill="#000000" stroke="#000000" points="243.2558,-353.4114 245.9143,-343.1555 237.4404,-349.5151 243.2558,-353.4114"/>
<text text-anchor="middle" x="250.7607" y="-363.4813" font-family="Times,serif" font-size="14.00" fill="#000000">False</text>
</g>
<!-- 3 -->
<g id="node3" class="node">
<title>3</title>
<polygon fill="none" stroke="#000000" points="119.3066,-243 .2306,-243 .2306,-193 119.3066,-193 119.3066,-243"/>
<text text-anchor="middle" x="59.7686" y="-227.8" font-family="Times,serif" font-size="14.00" fill="#000000">gini = 0.0</text>
<text text-anchor="middle" x="59.7686" y="-213.8" font-family="Times,serif" font-size="14.00" fill="#000000">samples = 203</text>
<text text-anchor="middle" x="59.7686" y="-199.8" font-family="Times,serif" font-size="14.00" fill="#000000">value = [0, 203, 0]</text>
</g>
<!-- 1&#45;&gt;3 -->
<g id="edge2" class="edge">
<title>1&#45;&gt;3</title>
<path fill="none" stroke="#000000" d="M106.5567,-285.8089C99.0339,-274.9063 90.6144,-262.7041 83.0134,-251.6882"/>
<polygon fill="#000000" stroke="#000000" points="85.686,-249.3986 77.1259,-243.1555 79.9244,-253.3741 85.686,-249.3986"/>
</g>
<!-- 4 -->
<g id="node4" class="node">
<title>4</title>
<polygon fill="none" stroke="#000000" points="257.3066,-250 138.2306,-250 138.2306,-186 257.3066,-186 257.3066,-250"/>
<text text-anchor="middle" x="197.7686" y="-234.8" font-family="Times,serif" font-size="14.00" fill="#000000">X[7] &lt;= 3.223</text>
<text text-anchor="middle" x="197.7686" y="-220.8" font-family="Times,serif" font-size="14.00" fill="#000000">gini = 0.019</text>
<text text-anchor="middle" x="197.7686" y="-206.8" font-family="Times,serif" font-size="14.00" fill="#000000">samples = 107</text>
<text text-anchor="middle" x="197.7686" y="-192.8" font-family="Times,serif" font-size="14.00" fill="#000000">value = [1, 106, 0]</text>
</g>
<!-- 1&#45;&gt;4 -->
<g id="edge3" class="edge">
<title>1&#45;&gt;4</title>
<path fill="none" stroke="#000000" d="M150.9804,-285.8089C156.9514,-277.1553 163.4873,-267.683 169.7304,-258.635"/>
<polygon fill="#000000" stroke="#000000" points="172.7998,-260.3493 175.5983,-250.1308 167.0382,-256.3738 172.7998,-260.3493"/>
</g>
<!-- 5 -->
<g id="node5" class="node">
<title>5</title>
<polygon fill="none" stroke="#000000" points="186.8066,-143 74.7305,-143 74.7305,-93 186.8066,-93 186.8066,-143"/>
<text text-anchor="middle" x="130.7686" y="-127.8" font-family="Times,serif" font-size="14.00" fill="#000000">gini = 0.0</text>
<text text-anchor="middle" x="130.7686" y="-113.8" font-family="Times,serif" font-size="14.00" fill="#000000">samples = 78</text>
<text text-anchor="middle" x="130.7686" y="-99.8" font-family="Times,serif" font-size="14.00" fill="#000000">value = [0, 78, 0]</text>
</g>
<!-- 4&#45;&gt;5 -->
<g id="edge4" class="edge">
<title>4&#45;&gt;5</title>
<path fill="none" stroke="#000000" d="M176.2005,-185.8089C168.8957,-174.9063 160.7203,-162.7041 153.3397,-151.6882"/>
<polygon fill="#000000" stroke="#000000" points="156.0967,-149.5151 147.6228,-143.1555 150.2813,-153.4114 156.0967,-149.5151"/>
</g>
<!-- 6 -->
<g id="node6" class="node">
<title>6</title>
<polygon fill="none" stroke="#000000" points="322.4816,-150 205.0555,-150 205.0555,-86 322.4816,-86 322.4816,-150"/>
<text text-anchor="middle" x="263.7686" y="-134.8" font-family="Times,serif" font-size="14.00" fill="#000000">X[11] &lt;= 151.308</text>
<text text-anchor="middle" x="263.7686" y="-120.8" font-family="Times,serif" font-size="14.00" fill="#000000">gini = 0.067</text>
<text text-anchor="middle" x="263.7686" y="-106.8" font-family="Times,serif" font-size="14.00" fill="#000000">samples = 29</text>
<text text-anchor="middle" x="263.7686" y="-92.8" font-family="Times,serif" font-size="14.00" fill="#000000">value = [1, 28, 0]</text>
</g>
<!-- 4&#45;&gt;6 -->
<g id="edge5" class="edge">
<title>4&#45;&gt;6</title>
<path fill="none" stroke="#000000" d="M219.0147,-185.8089C224.7261,-177.1553 230.9778,-167.683 236.9494,-158.635"/>
<polygon fill="#000000" stroke="#000000" points="239.9749,-160.4048 242.5623,-150.1308 234.1326,-156.5489 239.9749,-160.4048"/>
</g>
<!-- 7 -->
<g id="node7" class="node">
<title>7</title>
<polygon fill="none" stroke="#000000" points="255.8066,-50 143.7305,-50 143.7305,0 255.8066,0 255.8066,-50"/>
<text text-anchor="middle" x="199.7686" y="-34.8" font-family="Times,serif" font-size="14.00" fill="#000000">gini = 0.0</text>
<text text-anchor="middle" x="199.7686" y="-20.8" font-family="Times,serif" font-size="14.00" fill="#000000">samples = 23</text>
<text text-anchor="middle" x="199.7686" y="-6.8" font-family="Times,serif" font-size="14.00" fill="#000000">value = [0, 23, 0]</text>
</g>
<!-- 6&#45;&gt;7 -->
<g id="edge6" class="edge">
<title>6&#45;&gt;7</title>
<path fill="none" stroke="#000000" d="M241.7434,-85.9947C235.6056,-77.0756 228.9237,-67.3661 222.7333,-58.3706"/>
<polygon fill="#000000" stroke="#000000" points="225.5348,-56.2677 216.9825,-50.014 219.7684,-60.2361 225.5348,-56.2677"/>
</g>
<!-- 8 -->
<g id="node8" class="node">
<title>8</title>
<polygon fill="none" stroke="#000000" points="379.3067,-50 274.2304,-50 274.2304,0 379.3067,0 379.3067,-50"/>
<text text-anchor="middle" x="326.7686" y="-34.8" font-family="Times,serif" font-size="14.00" fill="#000000">gini = 0.278</text>
<text text-anchor="middle" x="326.7686" y="-20.8" font-family="Times,serif" font-size="14.00" fill="#000000">samples = 6</text>
<text text-anchor="middle" x="326.7686" y="-6.8" font-family="Times,serif" font-size="14.00" fill="#000000">value = [1, 5, 0]</text>
</g>
<!-- 6&#45;&gt;8 -->
<g id="edge7" class="edge">
<title>6&#45;&gt;8</title>
<path fill="none" stroke="#000000" d="M285.4496,-85.9947C291.4915,-77.0756 298.0689,-67.3661 304.1626,-58.3706"/>
<polygon fill="#000000" stroke="#000000" points="307.1128,-60.2562 309.8236,-50.014 301.3173,-56.3303 307.1128,-60.2562"/>
</g>
</g>
</svg>
