<?xml version="1.0" encoding="UTF-8" standalone="no"?>
<!DOCTYPE svg PUBLIC "-//W3C//DTD SVG 1.1//EN"
 "http://www.w3.org/Graphics/SVG/1.1/DTD/svg11.dtd">
<!-- Generated by graphviz version 2.40.1 (20161225.0304)
 -->
<!-- Title: Tree Pages: 1 -->
<svg width="323pt" height="258pt"
 viewBox="0.00 0.00 323.04 258.00" xmlns="http://www.w3.org/2000/svg" xmlns:xlink="http://www.w3.org/1999/xlink">
<g id="graph0" class="graph" transform="scale(1 1) rotate(0) translate(4 254)">
<title>Tree</title>
<polygon fill="#ffffff" stroke="transparent" points="-4,4 -4,-254 319.0371,-254 319.0371,4 -4,4"/>
<!-- 0 -->
<g id="node1" class="node">
<title>0</title>
<polygon fill="none" stroke="#000000" points="254.8065,-250 128.7306,-250 128.7306,-186 254.8065,-186 254.8065,-250"/>
<text text-anchor="middle" x="191.7686" y="-234.8" font-family="Times,serif" font-size="14.00" fill="#000000">X[8] &lt;= 7.5</text>
<text text-anchor="middle" x="191.7686" y="-220.8" font-family="Times,serif" font-size="14.00" fill="#000000">gini = 0.089</text>
<text text-anchor="middle" x="191.7686" y="-206.8" font-family="Times,serif" font-size="14.00" fill="#000000">samples = 324</text>
<text text-anchor="middle" x="191.7686" y="-192.8" font-family="Times,serif" font-size="14.00" fill="#000000">value = [1, 309, 14]</text>
</g>
<!-- 1 -->
<g id="node2" class="node">
<title>1</title>
<polygon fill="none" stroke="#000000" points="184.3066,-150 65.2306,-150 65.2306,-86 184.3066,-86 184.3066,-150"/>
<text text-anchor="middle" x="124.7686" y="-134.8" font-family="Times,serif" font-size="14.00" fill="#000000">X[11] &lt;= 364.5</text>
<text text-anchor="middle" x="124.7686" y="-120.8" font-family="Times,serif" font-size="14.00" fill="#000000">gini = 0.006</text>
<text text-anchor="middle" x="124.7686" y="-106.8" font-family="Times,serif" font-size="14.00" fill="#000000">samples = 310</text>
<text text-anchor="middle" x="124.7686" y="-92.8" font-family="Times,serif" font-size="14.00" fill="#000000">value = [1, 309, 0]</text>
</g>
<!-- 0&#45;&gt;1 -->
<g id="edge1" class="edge">
<title>0&#45;&gt;1</title>
<path fill="none" stroke="#000000" d="M170.2005,-185.8089C164.4026,-177.1553 158.0562,-167.683 151.994,-158.635"/>
<polygon fill="#000000" stroke="#000000" points="154.7701,-156.4903 146.2962,-150.1308 148.9547,-160.3866 154.7701,-156.4903"/>
<text text-anchor="middle" x="141.4498" y="-170.4565" font-family="Times,serif" font-size="14.00" fill="#000000">True</text>
</g>
<!-- 4 -->
<g id="node5" class="node">
<title>4</title>
<polygon fill="none" stroke="#000000" points="314.8066,-143 202.7305,-143 202.7305,-93 314.8066,-93 314.8066,-143"/>
<text text-anchor="middle" x="258.7686" y="-127.8" font-family="Times,serif" font-size="14.00" fill="#000000">gini = 0.0</text>
<text text-anchor="middle" x="258.7686" y="-113.8" font-family="Times,serif" font-size="14.00" fill="#000000">samples = 14</text>
<text text-anchor="middle" x="258.7686" y="-99.8" font-family="Times,serif" font-size="14.00" fill="#000000">value = [0, 0, 14]</text>
</g>
<!-- 0&#45;&gt;4 -->
<g id="edge4" class="edge">
<title>0&#45;&gt;4</title>
<path fill="none" stroke="#000000" d="M213.3366,-185.8089C220.6414,-174.9063 228.8168,-162.7041 236.1974,-151.6882"/>
<polygon fill="#000000" stroke="#000000" points="239.2558,-153.4114 241.9143,-143.1555 233.4404,-149.5151 239.2558,-153.4114"/>
<text text-anchor="middle" x="246.7607" y="-163.4813" font-family="Times,serif" font-size="14.00" fill="#000000">False</text>
</g>
<!-- 2 -->
<g id="node3" class="node">
<title>2</title>
<polygon fill="none" stroke="#000000" points="119.3066,-50 .2306,-50 .2306,0 119.3066,0 119.3066,-50"/>
<text text-anchor="middle" x="59.7686" y="-34.8" font-family="Times,serif" font-size="14.00" fill="#000000">gini = 0.0</text>
<text text-anchor="middle" x="59.7686" y="-20.8" font-family="Times,serif" font-size="14.00" fill="#000000">samples = 309</text>
<text text-anchor="middle" x="59.7686" y="-6.8" font-family="Times,serif" font-size="14.00" fill="#000000">value = [0, 309, 0]</text>
</g>
<!-- 1&#45;&gt;2 -->
<g id="edge2" class="edge">
<title>1&#45;&gt;2</title>
<path fill="none" stroke="#000000" d="M102.3992,-85.9947C96.1655,-77.0756 89.3793,-67.3661 83.0921,-58.3706"/>
<polygon fill="#000000" stroke="#000000" points="85.849,-56.2054 77.2515,-50.014 80.1115,-60.2156 85.849,-56.2054"/>
</g>
<!-- 3 -->
<g id="node4" class="node">
<title>3</title>
<polygon fill="none" stroke="#000000" points="243.3067,-50 138.2304,-50 138.2304,0 243.3067,0 243.3067,-50"/>
<text text-anchor="middle" x="190.7686" y="-34.8" font-family="Times,serif" font-size="14.00" fill="#000000">gini = 0.0</text>
<text text-anchor="middle" x="190.7686" y="-20.8" font-family="Times,serif" font-size="14.00" fill="#000000">samples = 1</text>
<text text-anchor="middle" x="190.7686" y="-6.8" font-family="Times,serif" font-size="14.00" fill="#000000">value = [1, 0, 0]</text>
</g>
<!-- 1&#45;&gt;3 -->
<g id="edge3" class="edge">
<title>1&#45;&gt;3</title>
<path fill="none" stroke="#000000" d="M147.482,-85.9947C153.8116,-77.0756 160.7023,-67.3661 167.0862,-58.3706"/>
<polygon fill="#000000" stroke="#000000" points="170.0834,-60.1947 173.0167,-50.014 164.3749,-56.1435 170.0834,-60.1947"/>
</g>
</g>
</svg>
