<?xml version="1.0" encoding="UTF-8" standalone="no"?>
<!DOCTYPE svg PUBLIC "-//W3C//DTD SVG 1.1//EN"
 "http://www.w3.org/Graphics/SVG/1.1/DTD/svg11.dtd">
<!-- Generated by graphviz version 2.40.1 (20161225.0304)
 -->
<!-- Title: Tree Pages: 1 -->
<svg width="1165pt" height="458pt"
 viewBox="0.00 0.00 1165.04 458.00" xmlns="http://www.w3.org/2000/svg" xmlns:xlink="http://www.w3.org/1999/xlink">
<g id="graph0" class="graph" transform="scale(1 1) rotate(0) translate(4 454)">
<title>Tree</title>
<polygon fill="#ffffff" stroke="transparent" points="-4,4 -4,-454 1161.0371,-454 1161.0371,4 -4,4"/>
<!-- 0 -->
<g id="node1" class="node">
<title>0</title>
<polygon fill="none" stroke="#000000" points="621.3062,-450 425.2309,-450 425.2309,-386 621.3062,-386 621.3062,-450"/>
<text text-anchor="middle" x="523.2686" y="-434.8" font-family="Times,serif" font-size="14.00" fill="#000000">X[0] &lt;= 10.874</text>
<text text-anchor="middle" x="523.2686" y="-420.8" font-family="Times,serif" font-size="14.00" fill="#000000">gini = 0.682</text>
<text text-anchor="middle" x="523.2686" y="-406.8" font-family="Times,serif" font-size="14.00" fill="#000000">samples = 324</text>
<text text-anchor="middle" x="523.2686" y="-392.8" font-family="Times,serif" font-size="14.00" fill="#000000">value = [1, 10, 107, 136, 56, 14]</text>
</g>
<!-- 1 -->
<g id="node2" class="node">
<title>1</title>
<polygon fill="none" stroke="#000000" points="514.3063,-350 346.2308,-350 346.2308,-286 514.3063,-286 514.3063,-350"/>
<text text-anchor="middle" x="430.2686" y="-334.8" font-family="Times,serif" font-size="14.00" fill="#000000">X[13] &lt;= 0.464</text>
<text text-anchor="middle" x="430.2686" y="-320.8" font-family="Times,serif" font-size="14.00" fill="#000000">gini = 0.636</text>
<text text-anchor="middle" x="430.2686" y="-306.8" font-family="Times,serif" font-size="14.00" fill="#000000">samples = 214</text>
<text text-anchor="middle" x="430.2686" y="-292.8" font-family="Times,serif" font-size="14.00" fill="#000000">value = [1, 7, 97, 82, 22, 5]</text>
</g>
<!-- 0&#45;&gt;1 -->
<g id="edge1" class="edge">
<title>0&#45;&gt;1</title>
<path fill="none" stroke="#000000" d="M493.3309,-385.8089C484.9511,-376.7985 475.7459,-366.9004 467.0202,-357.518"/>
<polygon fill="#000000" stroke="#000000" points="469.5233,-355.0699 460.1502,-350.1308 464.3974,-359.8371 469.5233,-355.0699"/>
<text text-anchor="middle" x="459.244" y="-370.9143" font-family="Times,serif" font-size="14.00" fill="#000000">True</text>
</g>
<!-- 2 -->
<g id="node9" class="node">
<title>2</title>
<polygon fill="none" stroke="#000000" points="701.3063,-350 533.2308,-350 533.2308,-286 701.3063,-286 701.3063,-350"/>
<text text-anchor="middle" x="617.2686" y="-334.8" font-family="Times,serif" font-size="14.00" fill="#000000">X[2] &lt;= 0.274</text>
<text text-anchor="middle" x="617.2686" y="-320.8" font-family="Times,serif" font-size="14.00" fill="#000000">gini = 0.648</text>
<text text-anchor="middle" x="617.2686" y="-306.8" font-family="Times,serif" font-size="14.00" fill="#000000">samples = 110</text>
<text text-anchor="middle" x="617.2686" y="-292.8" font-family="Times,serif" font-size="14.00" fill="#000000">value = [0, 3, 10, 54, 34, 9]</text>
</g>
<!-- 0&#45;&gt;2 -->
<g id="edge8" class="edge">
<title>0&#45;&gt;2</title>
<path fill="none" stroke="#000000" d="M553.5282,-385.8089C561.998,-376.7985 571.3022,-366.9004 580.1217,-357.518"/>
<polygon fill="#000000" stroke="#000000" points="582.7667,-359.8143 587.0656,-350.1308 577.6663,-355.0199 582.7667,-359.8143"/>
<text text-anchor="middle" x="587.8385" y="-370.9188" font-family="Times,serif" font-size="14.00" fill="#000000">False</text>
</g>
<!-- 3 -->
<g id="node3" class="node">
<title>3</title>
<polygon fill="none" stroke="#000000" points="338.3063,-250 170.2308,-250 170.2308,-186 338.3063,-186 338.3063,-250"/>
<text text-anchor="middle" x="254.2686" y="-234.8" font-family="Times,serif" font-size="14.00" fill="#000000">X[13] &lt;= 0.336</text>
<text text-anchor="middle" x="254.2686" y="-220.8" font-family="Times,serif" font-size="14.00" fill="#000000">gini = 0.656</text>
<text text-anchor="middle" x="254.2686" y="-206.8" font-family="Times,serif" font-size="14.00" fill="#000000">samples = 171</text>
<text text-anchor="middle" x="254.2686" y="-192.8" font-family="Times,serif" font-size="14.00" fill="#000000">value = [1, 6, 65, 73, 21, 5]</text>
</g>
<!-- 1&#45;&gt;3 -->
<g id="edge2" class="edge">
<title>1&#45;&gt;3</title>
<path fill="none" stroke="#000000" d="M373.6123,-285.8089C356.4977,-276.0848 337.5638,-265.3268 319.9145,-255.2989"/>
<polygon fill="#000000" stroke="#000000" points="321.2423,-252.0278 310.8187,-250.1308 317.7842,-258.114 321.2423,-252.0278"/>
</g>
<!-- 4 -->
<g id="node8" class="node">
<title>4</title>
<polygon fill="none" stroke="#000000" points="511.3064,-243 357.2308,-243 357.2308,-193 511.3064,-193 511.3064,-243"/>
<text text-anchor="middle" x="434.2686" y="-227.8" font-family="Times,serif" font-size="14.00" fill="#000000">gini = 0.401</text>
<text text-anchor="middle" x="434.2686" y="-213.8" font-family="Times,serif" font-size="14.00" fill="#000000">samples = 43</text>
<text text-anchor="middle" x="434.2686" y="-199.8" font-family="Times,serif" font-size="14.00" fill="#000000">value = [0, 1, 32, 9, 1, 0]</text>
</g>
<!-- 1&#45;&gt;4 -->
<g id="edge7" class="edge">
<title>1&#45;&gt;4</title>
<path fill="none" stroke="#000000" d="M431.5562,-285.8089C431.9707,-275.446 432.4322,-263.909 432.8552,-253.3327"/>
<polygon fill="#000000" stroke="#000000" points="436.3598,-253.2875 433.2623,-243.1555 429.3654,-253.0076 436.3598,-253.2875"/>
</g>
<!-- 5 -->
<g id="node4" class="node">
<title>5</title>
<polygon fill="none" stroke="#000000" points="168.3063,-150 .2308,-150 .2308,-86 168.3063,-86 168.3063,-150"/>
<text text-anchor="middle" x="84.2686" y="-134.8" font-family="Times,serif" font-size="14.00" fill="#000000">X[13] &lt;= 0.205</text>
<text text-anchor="middle" x="84.2686" y="-120.8" font-family="Times,serif" font-size="14.00" fill="#000000">gini = 0.657</text>
<text text-anchor="middle" x="84.2686" y="-106.8" font-family="Times,serif" font-size="14.00" fill="#000000">samples = 139</text>
<text text-anchor="middle" x="84.2686" y="-92.8" font-family="Times,serif" font-size="14.00" fill="#000000">value = [1, 5, 41, 67, 20, 5]</text>
</g>
<!-- 3&#45;&gt;5 -->
<g id="edge3" class="edge">
<title>3&#45;&gt;5</title>
<path fill="none" stroke="#000000" d="M199.5437,-185.8089C183.0126,-176.0848 164.7242,-165.3268 147.6766,-155.2989"/>
<polygon fill="#000000" stroke="#000000" points="149.2848,-152.1842 138.8908,-150.1308 145.7356,-158.2178 149.2848,-152.1842"/>
</g>
<!-- 6 -->
<g id="node7" class="node">
<title>6</title>
<polygon fill="none" stroke="#000000" points="341.3064,-143 187.2308,-143 187.2308,-93 341.3064,-93 341.3064,-143"/>
<text text-anchor="middle" x="264.2686" y="-127.8" font-family="Times,serif" font-size="14.00" fill="#000000">gini = 0.4</text>
<text text-anchor="middle" x="264.2686" y="-113.8" font-family="Times,serif" font-size="14.00" fill="#000000">samples = 32</text>
<text text-anchor="middle" x="264.2686" y="-99.8" font-family="Times,serif" font-size="14.00" fill="#000000">value = [0, 1, 24, 6, 1, 0]</text>
</g>
<!-- 3&#45;&gt;6 -->
<g id="edge6" class="edge">
<title>3&#45;&gt;6</title>
<path fill="none" stroke="#000000" d="M257.4877,-185.8089C258.524,-175.446 259.6777,-163.909 260.7353,-153.3327"/>
<polygon fill="#000000" stroke="#000000" points="264.2405,-153.4542 261.753,-143.1555 257.2752,-152.7576 264.2405,-153.4542"/>
</g>
<!-- 7 -->
<g id="node5" class="node">
<title>7</title>
<polygon fill="none" stroke="#000000" points="161.8063,-50 .7308,-50 .7308,0 161.8063,0 161.8063,-50"/>
<text text-anchor="middle" x="81.2686" y="-34.8" font-family="Times,serif" font-size="14.00" fill="#000000">gini = 0.667</text>
<text text-anchor="middle" x="81.2686" y="-20.8" font-family="Times,serif" font-size="14.00" fill="#000000">samples = 47</text>
<text text-anchor="middle" x="81.2686" y="-6.8" font-family="Times,serif" font-size="14.00" fill="#000000">value = [0, 1, 6, 23, 12, 5]</text>
</g>
<!-- 5&#45;&gt;7 -->
<g id="edge4" class="edge">
<title>5&#45;&gt;7</title>
<path fill="none" stroke="#000000" d="M83.2361,-85.9947C82.9662,-77.6273 82.6739,-68.5643 82.3991,-60.0478"/>
<polygon fill="#000000" stroke="#000000" points="85.8961,-59.896 82.0755,-50.014 78.8998,-60.1217 85.8961,-59.896"/>
</g>
<!-- 8 -->
<g id="node6" class="node">
<title>8</title>
<polygon fill="none" stroke="#000000" points="341.8063,-50 180.7308,-50 180.7308,0 341.8063,0 341.8063,-50"/>
<text text-anchor="middle" x="261.2686" y="-34.8" font-family="Times,serif" font-size="14.00" fill="#000000">gini = 0.617</text>
<text text-anchor="middle" x="261.2686" y="-20.8" font-family="Times,serif" font-size="14.00" fill="#000000">samples = 92</text>
<text text-anchor="middle" x="261.2686" y="-6.8" font-family="Times,serif" font-size="14.00" fill="#000000">value = [1, 4, 35, 44, 8, 0]</text>
</g>
<!-- 5&#45;&gt;8 -->
<g id="edge5" class="edge">
<title>5&#45;&gt;8</title>
<path fill="none" stroke="#000000" d="M145.1819,-85.9947C164.4318,-75.8803 185.6165,-64.7494 204.56,-54.796"/>
<polygon fill="#000000" stroke="#000000" points="206.4367,-57.7637 213.6612,-50.014 203.1808,-51.567 206.4367,-57.7637"/>
</g>
<!-- 9 -->
<g id="node10" class="node">
<title>9</title>
<polygon fill="none" stroke="#000000" points="691.3064,-250 537.2308,-250 537.2308,-186 691.3064,-186 691.3064,-250"/>
<text text-anchor="middle" x="614.2686" y="-234.8" font-family="Times,serif" font-size="14.00" fill="#000000">X[8] &lt;= 0.457</text>
<text text-anchor="middle" x="614.2686" y="-220.8" font-family="Times,serif" font-size="14.00" fill="#000000">gini = 0.681</text>
<text text-anchor="middle" x="614.2686" y="-206.8" font-family="Times,serif" font-size="14.00" fill="#000000">samples = 28</text>
<text text-anchor="middle" x="614.2686" y="-192.8" font-family="Times,serif" font-size="14.00" fill="#000000">value = [0, 3, 5, 14, 4, 2]</text>
</g>
<!-- 2&#45;&gt;9 -->
<g id="edge9" class="edge">
<title>2&#45;&gt;9</title>
<path fill="none" stroke="#000000" d="M616.3028,-285.8089C616.0593,-277.6906 615.7941,-268.8517 615.5381,-260.3186"/>
<polygon fill="#000000" stroke="#000000" points="619.0309,-260.0213 615.2325,-250.1308 612.034,-260.2312 619.0309,-260.0213"/>
</g>
<!-- 10 -->
<g id="node15" class="node">
<title>10</title>
<polygon fill="none" stroke="#000000" points="870.8063,-250 709.7308,-250 709.7308,-186 870.8063,-186 870.8063,-250"/>
<text text-anchor="middle" x="790.2686" y="-234.8" font-family="Times,serif" font-size="14.00" fill="#000000">X[5] &lt;= 10.02</text>
<text text-anchor="middle" x="790.2686" y="-220.8" font-family="Times,serif" font-size="14.00" fill="#000000">gini = 0.617</text>
<text text-anchor="middle" x="790.2686" y="-206.8" font-family="Times,serif" font-size="14.00" fill="#000000">samples = 82</text>
<text text-anchor="middle" x="790.2686" y="-192.8" font-family="Times,serif" font-size="14.00" fill="#000000">value = [0, 0, 5, 40, 30, 7]</text>
</g>
<!-- 2&#45;&gt;10 -->
<g id="edge14" class="edge">
<title>2&#45;&gt;10</title>
<path fill="none" stroke="#000000" d="M672.9591,-285.8089C689.7819,-276.0848 708.3932,-265.3268 725.7415,-255.2989"/>
<polygon fill="#000000" stroke="#000000" points="727.7762,-258.1654 734.6823,-250.1308 724.2731,-252.1051 727.7762,-258.1654"/>
</g>
<!-- 11 -->
<g id="node11" class="node">
<title>11</title>
<polygon fill="none" stroke="#000000" points="520.8064,-143 373.7307,-143 373.7307,-93 520.8064,-93 520.8064,-143"/>
<text text-anchor="middle" x="447.2686" y="-127.8" font-family="Times,serif" font-size="14.00" fill="#000000">gini = 0.78</text>
<text text-anchor="middle" x="447.2686" y="-113.8" font-family="Times,serif" font-size="14.00" fill="#000000">samples = 10</text>
<text text-anchor="middle" x="447.2686" y="-99.8" font-family="Times,serif" font-size="14.00" fill="#000000">value = [0, 1, 2, 2, 3, 2]</text>
</g>
<!-- 9&#45;&gt;11 -->
<g id="edge10" class="edge">
<title>9&#45;&gt;11</title>
<path fill="none" stroke="#000000" d="M560.5095,-185.8089C540.4091,-173.7728 517.664,-160.1529 497.8593,-148.2938"/>
<polygon fill="#000000" stroke="#000000" points="499.6559,-145.2902 489.2783,-143.1555 496.0597,-151.2958 499.6559,-145.2902"/>
</g>
<!-- 12 -->
<g id="node12" class="node">
<title>12</title>
<polygon fill="none" stroke="#000000" points="693.3064,-150 539.2308,-150 539.2308,-86 693.3064,-86 693.3064,-150"/>
<text text-anchor="middle" x="616.2686" y="-134.8" font-family="Times,serif" font-size="14.00" fill="#000000">X[13] &lt;= 0.47</text>
<text text-anchor="middle" x="616.2686" y="-120.8" font-family="Times,serif" font-size="14.00" fill="#000000">gini = 0.512</text>
<text text-anchor="middle" x="616.2686" y="-106.8" font-family="Times,serif" font-size="14.00" fill="#000000">samples = 18</text>
<text text-anchor="middle" x="616.2686" y="-92.8" font-family="Times,serif" font-size="14.00" fill="#000000">value = [0, 2, 3, 12, 1, 0]</text>
</g>
<!-- 9&#45;&gt;12 -->
<g id="edge11" class="edge">
<title>9&#45;&gt;12</title>
<path fill="none" stroke="#000000" d="M614.9124,-185.8089C615.0747,-177.6906 615.2515,-168.8517 615.4222,-160.3186"/>
<polygon fill="#000000" stroke="#000000" points="618.9252,-160.1988 615.6259,-150.1308 611.9266,-160.0587 618.9252,-160.1988"/>
</g>
<!-- 13 -->
<g id="node13" class="node">
<title>13</title>
<polygon fill="none" stroke="#000000" points="596.3064,-50 442.2308,-50 442.2308,0 596.3064,0 596.3064,-50"/>
<text text-anchor="middle" x="519.2686" y="-34.8" font-family="Times,serif" font-size="14.00" fill="#000000">gini = 0.165</text>
<text text-anchor="middle" x="519.2686" y="-20.8" font-family="Times,serif" font-size="14.00" fill="#000000">samples = 11</text>
<text text-anchor="middle" x="519.2686" y="-6.8" font-family="Times,serif" font-size="14.00" fill="#000000">value = [0, 0, 0, 10, 1, 0]</text>
</g>
<!-- 12&#45;&gt;13 -->
<g id="edge12" class="edge">
<title>12&#45;&gt;13</title>
<path fill="none" stroke="#000000" d="M582.8867,-85.9947C573.1045,-76.6159 562.4106,-66.363 552.6298,-56.9855"/>
<polygon fill="#000000" stroke="#000000" points="554.9991,-54.4083 545.3585,-50.014 550.1546,-59.4612 554.9991,-54.4083"/>
</g>
<!-- 14 -->
<g id="node14" class="node">
<title>14</title>
<polygon fill="none" stroke="#000000" points="761.8064,-50 614.7307,-50 614.7307,0 761.8064,0 761.8064,-50"/>
<text text-anchor="middle" x="688.2686" y="-34.8" font-family="Times,serif" font-size="14.00" fill="#000000">gini = 0.653</text>
<text text-anchor="middle" x="688.2686" y="-20.8" font-family="Times,serif" font-size="14.00" fill="#000000">samples = 7</text>
<text text-anchor="middle" x="688.2686" y="-6.8" font-family="Times,serif" font-size="14.00" fill="#000000">value = [0, 2, 3, 2, 0, 0]</text>
</g>
<!-- 12&#45;&gt;14 -->
<g id="edge13" class="edge">
<title>12&#45;&gt;14</title>
<path fill="none" stroke="#000000" d="M641.0469,-85.9947C648.0231,-76.9837 655.624,-67.1658 662.6484,-58.0927"/>
<polygon fill="#000000" stroke="#000000" points="665.5486,-60.0639 668.9029,-50.014 660.0135,-55.7787 665.5486,-60.0639"/>
</g>
<!-- 15 -->
<g id="node16" class="node">
<title>15</title>
<polygon fill="none" stroke="#000000" points="861.8064,-143 714.7307,-143 714.7307,-93 861.8064,-93 861.8064,-143"/>
<text text-anchor="middle" x="788.2686" y="-127.8" font-family="Times,serif" font-size="14.00" fill="#000000">gini = 0.34</text>
<text text-anchor="middle" x="788.2686" y="-113.8" font-family="Times,serif" font-size="14.00" fill="#000000">samples = 10</text>
<text text-anchor="middle" x="788.2686" y="-99.8" font-family="Times,serif" font-size="14.00" fill="#000000">value = [0, 0, 1, 8, 1, 0]</text>
</g>
<!-- 10&#45;&gt;15 -->
<g id="edge15" class="edge">
<title>10&#45;&gt;15</title>
<path fill="none" stroke="#000000" d="M789.6247,-185.8089C789.4175,-175.446 789.1867,-163.909 788.9752,-153.3327"/>
<polygon fill="#000000" stroke="#000000" points="792.471,-153.0835 788.7717,-143.1555 785.4724,-153.2236 792.471,-153.0835"/>
</g>
<!-- 16 -->
<g id="node17" class="node">
<title>16</title>
<polygon fill="none" stroke="#000000" points="1041.8063,-150 880.7308,-150 880.7308,-86 1041.8063,-86 1041.8063,-150"/>
<text text-anchor="middle" x="961.2686" y="-134.8" font-family="Times,serif" font-size="14.00" fill="#000000">X[0] &lt;= 11.205</text>
<text text-anchor="middle" x="961.2686" y="-120.8" font-family="Times,serif" font-size="14.00" fill="#000000">gini = 0.628</text>
<text text-anchor="middle" x="961.2686" y="-106.8" font-family="Times,serif" font-size="14.00" fill="#000000">samples = 72</text>
<text text-anchor="middle" x="961.2686" y="-92.8" font-family="Times,serif" font-size="14.00" fill="#000000">value = [0, 0, 4, 32, 29, 7]</text>
</g>
<!-- 10&#45;&gt;16 -->
<g id="edge16" class="edge">
<title>10&#45;&gt;16</title>
<path fill="none" stroke="#000000" d="M845.3153,-185.8089C861.9436,-176.0848 880.3397,-165.3268 897.4875,-155.2989"/>
<polygon fill="#000000" stroke="#000000" points="899.4595,-158.2002 906.325,-150.1308 895.9258,-152.1576 899.4595,-158.2002"/>
</g>
<!-- 17 -->
<g id="node18" class="node">
<title>17</title>
<polygon fill="none" stroke="#000000" points="977.3064,-50 823.2308,-50 823.2308,0 977.3064,0 977.3064,-50"/>
<text text-anchor="middle" x="900.2686" y="-34.8" font-family="Times,serif" font-size="14.00" fill="#000000">gini = 0.554</text>
<text text-anchor="middle" x="900.2686" y="-20.8" font-family="Times,serif" font-size="14.00" fill="#000000">samples = 19</text>
<text text-anchor="middle" x="900.2686" y="-6.8" font-family="Times,serif" font-size="14.00" fill="#000000">value = [0, 0, 3, 12, 2, 2]</text>
</g>
<!-- 16&#45;&gt;17 -->
<g id="edge17" class="edge">
<title>16&#45;&gt;17</title>
<path fill="none" stroke="#000000" d="M940.2758,-85.9947C934.486,-77.1676 928.1883,-67.5662 922.3395,-58.6491"/>
<polygon fill="#000000" stroke="#000000" points="925.0869,-56.4562 916.6756,-50.014 919.2336,-60.2954 925.0869,-56.4562"/>
</g>
<!-- 18 -->
<g id="node19" class="node">
<title>18</title>
<polygon fill="none" stroke="#000000" points="1156.8063,-50 995.7308,-50 995.7308,0 1156.8063,0 1156.8063,-50"/>
<text text-anchor="middle" x="1076.2686" y="-34.8" font-family="Times,serif" font-size="14.00" fill="#000000">gini = 0.589</text>
<text text-anchor="middle" x="1076.2686" y="-20.8" font-family="Times,serif" font-size="14.00" fill="#000000">samples = 53</text>
<text text-anchor="middle" x="1076.2686" y="-6.8" font-family="Times,serif" font-size="14.00" fill="#000000">value = [0, 0, 1, 20, 27, 5]</text>
</g>
<!-- 16&#45;&gt;18 -->
<g id="edge18" class="edge">
<title>16&#45;&gt;18</title>
<path fill="none" stroke="#000000" d="M1000.845,-85.9947C1012.6698,-76.432 1025.6183,-65.9606 1037.3974,-56.4349"/>
<polygon fill="#000000" stroke="#000000" points="1039.7625,-59.0236 1045.3372,-50.014 1035.3608,-53.5807 1039.7625,-59.0236"/>
</g>
</g>
</svg>
