<?xml version="1.0" encoding="UTF-8" standalone="no"?>
<!DOCTYPE svg PUBLIC "-//W3C//DTD SVG 1.1//EN"
 "http://www.w3.org/Graphics/SVG/1.1/DTD/svg11.dtd">
<!-- Generated by graphviz version 2.40.1 (20161225.0304)
 -->
<!-- Title: Tree Pages: 1 -->
<svg width="275pt" height="358pt"
 viewBox="0.00 0.00 275.04 358.00" xmlns="http://www.w3.org/2000/svg" xmlns:xlink="http://www.w3.org/1999/xlink">
<g id="graph0" class="graph" transform="scale(1 1) rotate(0) translate(4 354)">
<title>Tree</title>
<polygon fill="#ffffff" stroke="transparent" points="-4,4 -4,-354 271.0371,-354 271.0371,4 -4,4"/>
<!-- 0 -->
<g id="node1" class="node">
<title>0</title>
<polygon fill="none" stroke="#000000" points="215.8067,-350 110.7304,-350 110.7304,-286 215.8067,-286 215.8067,-350"/>
<text text-anchor="middle" x="163.2686" y="-334.8" font-family="Times,serif" font-size="14.00" fill="#000000">X[3] &lt;= 0.05</text>
<text text-anchor="middle" x="163.2686" y="-320.8" font-family="Times,serif" font-size="14.00" fill="#000000">gini = 0.459</text>
<text text-anchor="middle" x="163.2686" y="-306.8" font-family="Times,serif" font-size="14.00" fill="#000000">samples = 28</text>
<text text-anchor="middle" x="163.2686" y="-292.8" font-family="Times,serif" font-size="14.00" fill="#000000">value = [10, 18]</text>
</g>
<!-- 1 -->
<g id="node2" class="node">
<title>1</title>
<polygon fill="none" stroke="#000000" points="156.9945,-250 53.5426,-250 53.5426,-186 156.9945,-186 156.9945,-250"/>
<text text-anchor="middle" x="105.2686" y="-234.8" font-family="Times,serif" font-size="14.00" fill="#000000">X[30] &lt;= 32.46</text>
<text text-anchor="middle" x="105.2686" y="-220.8" font-family="Times,serif" font-size="14.00" fill="#000000">gini = 0.1</text>
<text text-anchor="middle" x="105.2686" y="-206.8" font-family="Times,serif" font-size="14.00" fill="#000000">samples = 19</text>
<text text-anchor="middle" x="105.2686" y="-192.8" font-family="Times,serif" font-size="14.00" fill="#000000">value = [1, 18]</text>
</g>
<!-- 0&#45;&gt;1 -->
<g id="edge1" class="edge">
<title>0&#45;&gt;1</title>
<path fill="none" stroke="#000000" d="M144.5977,-285.8089C139.6304,-277.2445 134.1979,-267.8782 128.9993,-258.915"/>
<polygon fill="#000000" stroke="#000000" points="131.9492,-257.0251 123.9044,-250.1308 125.894,-260.5371 131.9492,-257.0251"/>
<text text-anchor="middle" x="117.4819" y="-270.0917" font-family="Times,serif" font-size="14.00" fill="#000000">True</text>
</g>
<!-- 6 -->
<g id="node7" class="node">
<title>6</title>
<polygon fill="none" stroke="#000000" points="266.8068,-243 175.7303,-243 175.7303,-193 266.8068,-193 266.8068,-243"/>
<text text-anchor="middle" x="221.2686" y="-227.8" font-family="Times,serif" font-size="14.00" fill="#000000">gini = 0.0</text>
<text text-anchor="middle" x="221.2686" y="-213.8" font-family="Times,serif" font-size="14.00" fill="#000000">samples = 9</text>
<text text-anchor="middle" x="221.2686" y="-199.8" font-family="Times,serif" font-size="14.00" fill="#000000">value = [9, 0]</text>
</g>
<!-- 0&#45;&gt;6 -->
<g id="edge6" class="edge">
<title>0&#45;&gt;6</title>
<path fill="none" stroke="#000000" d="M181.9394,-285.8089C188.2003,-275.0142 195.2001,-262.9456 201.5394,-252.0158"/>
<polygon fill="#000000" stroke="#000000" points="204.6887,-253.5619 206.6783,-243.1555 198.6335,-250.0498 204.6887,-253.5619"/>
<text text-anchor="middle" x="213.1009" y="-263.1165" font-family="Times,serif" font-size="14.00" fill="#000000">False</text>
</g>
<!-- 2 -->
<g id="node3" class="node">
<title>2</title>
<polygon fill="none" stroke="#000000" points="98.3067,-143 .2304,-143 .2304,-93 98.3067,-93 98.3067,-143"/>
<text text-anchor="middle" x="49.2686" y="-127.8" font-family="Times,serif" font-size="14.00" fill="#000000">gini = 0.0</text>
<text text-anchor="middle" x="49.2686" y="-113.8" font-family="Times,serif" font-size="14.00" fill="#000000">samples = 17</text>
<text text-anchor="middle" x="49.2686" y="-99.8" font-family="Times,serif" font-size="14.00" fill="#000000">value = [0, 17]</text>
</g>
<!-- 1&#45;&gt;2 -->
<g id="edge2" class="edge">
<title>1&#45;&gt;2</title>
<path fill="none" stroke="#000000" d="M87.2416,-185.8089C81.1965,-175.0142 74.4381,-162.9456 68.3174,-152.0158"/>
<polygon fill="#000000" stroke="#000000" points="71.2955,-150.1705 63.3557,-143.1555 65.188,-153.5907 71.2955,-150.1705"/>
</g>
<!-- 3 -->
<g id="node4" class="node">
<title>3</title>
<polygon fill="none" stroke="#000000" points="207.8068,-150 116.7303,-150 116.7303,-86 207.8068,-86 207.8068,-150"/>
<text text-anchor="middle" x="162.2686" y="-134.8" font-family="Times,serif" font-size="14.00" fill="#000000">X[5] &lt;= 0.06</text>
<text text-anchor="middle" x="162.2686" y="-120.8" font-family="Times,serif" font-size="14.00" fill="#000000">gini = 0.5</text>
<text text-anchor="middle" x="162.2686" y="-106.8" font-family="Times,serif" font-size="14.00" fill="#000000">samples = 2</text>
<text text-anchor="middle" x="162.2686" y="-92.8" font-family="Times,serif" font-size="14.00" fill="#000000">value = [1, 1]</text>
</g>
<!-- 1&#45;&gt;3 -->
<g id="edge3" class="edge">
<title>1&#45;&gt;3</title>
<path fill="none" stroke="#000000" d="M123.6175,-185.8089C128.4992,-177.2445 133.838,-167.8782 138.947,-158.915"/>
<polygon fill="#000000" stroke="#000000" points="142.0427,-160.5518 143.954,-150.1308 135.9612,-157.0853 142.0427,-160.5518"/>
</g>
<!-- 4 -->
<g id="node5" class="node">
<title>4</title>
<polygon fill="none" stroke="#000000" points="152.8068,-50 61.7303,-50 61.7303,0 152.8068,0 152.8068,-50"/>
<text text-anchor="middle" x="107.2686" y="-34.8" font-family="Times,serif" font-size="14.00" fill="#000000">gini = 0.0</text>
<text text-anchor="middle" x="107.2686" y="-20.8" font-family="Times,serif" font-size="14.00" fill="#000000">samples = 1</text>
<text text-anchor="middle" x="107.2686" y="-6.8" font-family="Times,serif" font-size="14.00" fill="#000000">value = [0, 1]</text>
</g>
<!-- 3&#45;&gt;4 -->
<g id="edge4" class="edge">
<title>3&#45;&gt;4</title>
<path fill="none" stroke="#000000" d="M143.3407,-85.9947C138.1204,-77.1676 132.4421,-67.5662 127.1686,-58.6491"/>
<polygon fill="#000000" stroke="#000000" points="130.1649,-56.8398 122.0618,-50.014 124.1397,-60.4031 130.1649,-56.8398"/>
</g>
<!-- 5 -->
<g id="node6" class="node">
<title>5</title>
<polygon fill="none" stroke="#000000" points="262.8068,-50 171.7303,-50 171.7303,0 262.8068,0 262.8068,-50"/>
<text text-anchor="middle" x="217.2686" y="-34.8" font-family="Times,serif" font-size="14.00" fill="#000000">gini = 0.0</text>
<text text-anchor="middle" x="217.2686" y="-20.8" font-family="Times,serif" font-size="14.00" fill="#000000">samples = 1</text>
<text text-anchor="middle" x="217.2686" y="-6.8" font-family="Times,serif" font-size="14.00" fill="#000000">value = [1, 0]</text>
</g>
<!-- 3&#45;&gt;5 -->
<g id="edge5" class="edge">
<title>3&#45;&gt;5</title>
<path fill="none" stroke="#000000" d="M181.1964,-85.9947C186.4168,-77.1676 192.095,-67.5662 197.3686,-58.6491"/>
<polygon fill="#000000" stroke="#000000" points="200.3975,-60.4031 202.4753,-50.014 194.3722,-56.8398 200.3975,-60.4031"/>
</g>
</g>
</svg>
