<?xml version="1.0" encoding="UTF-8" standalone="no"?>
<!DOCTYPE svg PUBLIC "-//W3C//DTD SVG 1.1//EN"
 "http://www.w3.org/Graphics/SVG/1.1/DTD/svg11.dtd">
<!-- Generated by graphviz version 2.40.1 (20161225.0304)
 -->
<!-- Title: Tree Pages: 1 -->
<svg width="336pt" height="358pt"
 viewBox="0.00 0.00 336.04 358.00" xmlns="http://www.w3.org/2000/svg" xmlns:xlink="http://www.w3.org/1999/xlink">
<g id="graph0" class="graph" transform="scale(1 1) rotate(0) translate(4 354)">
<title>Tree</title>
<polygon fill="#ffffff" stroke="transparent" points="-4,4 -4,-354 332.0371,-354 332.0371,4 -4,4"/>
<!-- 0 -->
<g id="node1" class="node">
<title>0</title>
<polygon fill="none" stroke="#000000" points="274.8067,-350 169.7304,-350 169.7304,-286 274.8067,-286 274.8067,-350"/>
<text text-anchor="middle" x="222.2686" y="-334.8" font-family="Times,serif" font-size="14.00" fill="#000000">X[23] &lt;= 0.18</text>
<text text-anchor="middle" x="222.2686" y="-320.8" font-family="Times,serif" font-size="14.00" fill="#000000">gini = 0.459</text>
<text text-anchor="middle" x="222.2686" y="-306.8" font-family="Times,serif" font-size="14.00" fill="#000000">samples = 28</text>
<text text-anchor="middle" x="222.2686" y="-292.8" font-family="Times,serif" font-size="14.00" fill="#000000">value = [10, 18]</text>
</g>
<!-- 1 -->
<g id="node2" class="node">
<title>1</title>
<polygon fill="none" stroke="#000000" points="218.4945,-250 108.0426,-250 108.0426,-186 218.4945,-186 218.4945,-250"/>
<text text-anchor="middle" x="163.2686" y="-234.8" font-family="Times,serif" font-size="14.00" fill="#000000">X[27] &lt;= 15.253</text>
<text text-anchor="middle" x="163.2686" y="-220.8" font-family="Times,serif" font-size="14.00" fill="#000000">gini = 0.298</text>
<text text-anchor="middle" x="163.2686" y="-206.8" font-family="Times,serif" font-size="14.00" fill="#000000">samples = 22</text>
<text text-anchor="middle" x="163.2686" y="-192.8" font-family="Times,serif" font-size="14.00" fill="#000000">value = [4, 18]</text>
</g>
<!-- 0&#45;&gt;1 -->
<g id="edge1" class="edge">
<title>0&#45;&gt;1</title>
<path fill="none" stroke="#000000" d="M203.2758,-285.8089C198.2228,-277.2445 192.6967,-267.8782 187.4084,-258.915"/>
<polygon fill="#000000" stroke="#000000" points="190.3217,-256.9649 182.2257,-250.1308 184.2928,-260.522 190.3217,-256.9649"/>
<text text-anchor="middle" x="175.9834" y="-270.1389" font-family="Times,serif" font-size="14.00" fill="#000000">True</text>
</g>
<!-- 2 -->
<g id="node7" class="node">
<title>2</title>
<polygon fill="none" stroke="#000000" points="327.8068,-243 236.7303,-243 236.7303,-193 327.8068,-193 327.8068,-243"/>
<text text-anchor="middle" x="282.2686" y="-227.8" font-family="Times,serif" font-size="14.00" fill="#000000">gini = 0.0</text>
<text text-anchor="middle" x="282.2686" y="-213.8" font-family="Times,serif" font-size="14.00" fill="#000000">samples = 6</text>
<text text-anchor="middle" x="282.2686" y="-199.8" font-family="Times,serif" font-size="14.00" fill="#000000">value = [6, 0]</text>
</g>
<!-- 0&#45;&gt;2 -->
<g id="edge6" class="edge">
<title>0&#45;&gt;2</title>
<path fill="none" stroke="#000000" d="M241.5832,-285.8089C248.06,-275.0142 255.3012,-262.9456 261.8591,-252.0158"/>
<polygon fill="#000000" stroke="#000000" points="265.0315,-253.5312 267.1752,-243.1555 259.029,-249.9297 265.0315,-253.5312"/>
<text text-anchor="middle" x="273.2386" y="-263.2091" font-family="Times,serif" font-size="14.00" fill="#000000">False</text>
</g>
<!-- 3 -->
<g id="node3" class="node">
<title>3</title>
<polygon fill="none" stroke="#000000" points="156.9945,-150 53.5426,-150 53.5426,-86 156.9945,-86 156.9945,-150"/>
<text text-anchor="middle" x="105.2686" y="-134.8" font-family="Times,serif" font-size="14.00" fill="#000000">X[25] &lt;= 0.079</text>
<text text-anchor="middle" x="105.2686" y="-120.8" font-family="Times,serif" font-size="14.00" fill="#000000">gini = 0.124</text>
<text text-anchor="middle" x="105.2686" y="-106.8" font-family="Times,serif" font-size="14.00" fill="#000000">samples = 15</text>
<text text-anchor="middle" x="105.2686" y="-92.8" font-family="Times,serif" font-size="14.00" fill="#000000">value = [1, 14]</text>
</g>
<!-- 1&#45;&gt;3 -->
<g id="edge2" class="edge">
<title>1&#45;&gt;3</title>
<path fill="none" stroke="#000000" d="M144.5977,-185.8089C139.6304,-177.2445 134.1979,-167.8782 128.9993,-158.915"/>
<polygon fill="#000000" stroke="#000000" points="131.9492,-157.0251 123.9044,-150.1308 125.894,-160.5371 131.9492,-157.0251"/>
</g>
<!-- 4 -->
<g id="node6" class="node">
<title>4</title>
<polygon fill="none" stroke="#000000" points="266.8068,-143 175.7303,-143 175.7303,-93 266.8068,-93 266.8068,-143"/>
<text text-anchor="middle" x="221.2686" y="-127.8" font-family="Times,serif" font-size="14.00" fill="#000000">gini = 0.49</text>
<text text-anchor="middle" x="221.2686" y="-113.8" font-family="Times,serif" font-size="14.00" fill="#000000">samples = 7</text>
<text text-anchor="middle" x="221.2686" y="-99.8" font-family="Times,serif" font-size="14.00" fill="#000000">value = [3, 4]</text>
</g>
<!-- 1&#45;&gt;4 -->
<g id="edge5" class="edge">
<title>1&#45;&gt;4</title>
<path fill="none" stroke="#000000" d="M181.9394,-185.8089C188.2003,-175.0142 195.2001,-162.9456 201.5394,-152.0158"/>
<polygon fill="#000000" stroke="#000000" points="204.6887,-153.5619 206.6783,-143.1555 198.6335,-150.0498 204.6887,-153.5619"/>
</g>
<!-- 5 -->
<g id="node4" class="node">
<title>5</title>
<polygon fill="none" stroke="#000000" points="98.3067,-50 .2304,-50 .2304,0 98.3067,0 98.3067,-50"/>
<text text-anchor="middle" x="49.2686" y="-34.8" font-family="Times,serif" font-size="14.00" fill="#000000">gini = 0.0</text>
<text text-anchor="middle" x="49.2686" y="-20.8" font-family="Times,serif" font-size="14.00" fill="#000000">samples = 10</text>
<text text-anchor="middle" x="49.2686" y="-6.8" font-family="Times,serif" font-size="14.00" fill="#000000">value = [0, 10]</text>
</g>
<!-- 3&#45;&gt;5 -->
<g id="edge3" class="edge">
<title>3&#45;&gt;5</title>
<path fill="none" stroke="#000000" d="M85.9965,-85.9947C80.6813,-77.1676 74.8998,-67.5662 69.5304,-58.6491"/>
<polygon fill="#000000" stroke="#000000" points="72.4877,-56.7753 64.3308,-50.014 66.4909,-60.3863 72.4877,-56.7753"/>
</g>
<!-- 6 -->
<g id="node5" class="node">
<title>6</title>
<polygon fill="none" stroke="#000000" points="207.8068,-50 116.7303,-50 116.7303,0 207.8068,0 207.8068,-50"/>
<text text-anchor="middle" x="162.2686" y="-34.8" font-family="Times,serif" font-size="14.00" fill="#000000">gini = 0.32</text>
<text text-anchor="middle" x="162.2686" y="-20.8" font-family="Times,serif" font-size="14.00" fill="#000000">samples = 5</text>
<text text-anchor="middle" x="162.2686" y="-6.8" font-family="Times,serif" font-size="14.00" fill="#000000">value = [1, 4]</text>
</g>
<!-- 3&#45;&gt;6 -->
<g id="edge4" class="edge">
<title>3&#45;&gt;6</title>
<path fill="none" stroke="#000000" d="M124.8847,-85.9947C130.2949,-77.1676 136.1796,-67.5662 141.6449,-58.6491"/>
<polygon fill="#000000" stroke="#000000" points="144.6958,-60.369 146.9374,-50.014 138.7276,-56.7111 144.6958,-60.369"/>
</g>
</g>
</svg>
