<?xml version="1.0" encoding="UTF-8" standalone="no"?>
<!DOCTYPE svg PUBLIC "-//W3C//DTD SVG 1.1//EN"
 "http://www.w3.org/Graphics/SVG/1.1/DTD/svg11.dtd">
<!-- Generated by graphviz version 2.40.1 (20161225.0304)
 -->
<!-- Title: Tree Pages: 1 -->
<svg width="655pt" height="458pt"
 viewBox="0.00 0.00 655.28 458.00" xmlns="http://www.w3.org/2000/svg" xmlns:xlink="http://www.w3.org/1999/xlink">
<g id="graph0" class="graph" transform="scale(1 1) rotate(0) translate(4 454)">
<title>Tree</title>
<polygon fill="#ffffff" stroke="transparent" points="-4,4 -4,-454 651.2808,-454 651.2808,4 -4,4"/>
<!-- 0 -->
<g id="node1" class="node">
<title>0</title>
<polygon fill="none" stroke="#000000" points="383.293,-450 257.2441,-450 257.2441,-386 383.293,-386 383.293,-450"/>
<text text-anchor="middle" x="320.2686" y="-434.8" font-family="Times,serif" font-size="14.00" fill="#000000">X[8] &lt;= 5.974</text>
<text text-anchor="middle" x="320.2686" y="-420.8" font-family="Times,serif" font-size="14.00" fill="#000000">gini = 0.072</text>
<text text-anchor="middle" x="320.2686" y="-406.8" font-family="Times,serif" font-size="14.00" fill="#000000">samples = 324</text>
<text text-anchor="middle" x="320.2686" y="-392.8" font-family="Times,serif" font-size="14.00" fill="#000000">value = [1, 312, 11]</text>
</g>
<!-- 1 -->
<g id="node2" class="node">
<title>1</title>
<polygon fill="none" stroke="#000000" points="309.793,-350 190.7441,-350 190.7441,-286 309.793,-286 309.793,-350"/>
<text text-anchor="middle" x="250.2686" y="-334.8" font-family="Times,serif" font-size="14.00" fill="#000000">X[12] &lt;= 1.374</text>
<text text-anchor="middle" x="250.2686" y="-320.8" font-family="Times,serif" font-size="14.00" fill="#000000">gini = 0.017</text>
<text text-anchor="middle" x="250.2686" y="-306.8" font-family="Times,serif" font-size="14.00" fill="#000000">samples = 115</text>
<text text-anchor="middle" x="250.2686" y="-292.8" font-family="Times,serif" font-size="14.00" fill="#000000">value = [1, 114, 0]</text>
</g>
<!-- 0&#45;&gt;1 -->
<g id="edge1" class="edge">
<title>0&#45;&gt;1</title>
<path fill="none" stroke="#000000" d="M297.7348,-385.8089C291.6148,-377.0661 284.9099,-367.4876 278.5173,-358.3553"/>
<polygon fill="#000000" stroke="#000000" points="281.3621,-356.316 272.7601,-350.1308 275.6274,-360.3302 281.3621,-356.316"/>
<text text-anchor="middle" x="268.4155" y="-370.5503" font-family="Times,serif" font-size="14.00" fill="#000000">True</text>
</g>
<!-- 2 -->
<g id="node9" class="node">
<title>2</title>
<polygon fill="none" stroke="#000000" points="454.293,-350 328.2441,-350 328.2441,-286 454.293,-286 454.293,-350"/>
<text text-anchor="middle" x="391.2686" y="-334.8" font-family="Times,serif" font-size="14.00" fill="#000000">X[8] &lt;= 6.913</text>
<text text-anchor="middle" x="391.2686" y="-320.8" font-family="Times,serif" font-size="14.00" fill="#000000">gini = 0.1</text>
<text text-anchor="middle" x="391.2686" y="-306.8" font-family="Times,serif" font-size="14.00" fill="#000000">samples = 209</text>
<text text-anchor="middle" x="391.2686" y="-292.8" font-family="Times,serif" font-size="14.00" fill="#000000">value = [0, 198, 11]</text>
</g>
<!-- 0&#45;&gt;2 -->
<g id="edge8" class="edge">
<title>0&#45;&gt;2</title>
<path fill="none" stroke="#000000" d="M343.1242,-385.8089C349.3316,-377.0661 356.1323,-367.4876 362.6163,-358.3553"/>
<polygon fill="#000000" stroke="#000000" points="365.5203,-360.3108 368.4557,-350.1308 359.8126,-356.2584 365.5203,-360.3108"/>
<text text-anchor="middle" x="372.6358" y="-370.5788" font-family="Times,serif" font-size="14.00" fill="#000000">False</text>
</g>
<!-- 7 -->
<g id="node3" class="node">
<title>7</title>
<polygon fill="none" stroke="#000000" points="177.3066,-250 65.2305,-250 65.2305,-186 177.3066,-186 177.3066,-250"/>
<text text-anchor="middle" x="121.2686" y="-234.8" font-family="Times,serif" font-size="14.00" fill="#000000">X[1] &lt;= 9.65</text>
<text text-anchor="middle" x="121.2686" y="-220.8" font-family="Times,serif" font-size="14.00" fill="#000000">gini = 0.069</text>
<text text-anchor="middle" x="121.2686" y="-206.8" font-family="Times,serif" font-size="14.00" fill="#000000">samples = 28</text>
<text text-anchor="middle" x="121.2686" y="-192.8" font-family="Times,serif" font-size="14.00" fill="#000000">value = [1, 27, 0]</text>
</g>
<!-- 1&#45;&gt;7 -->
<g id="edge2" class="edge">
<title>1&#45;&gt;7</title>
<path fill="none" stroke="#000000" d="M208.7421,-285.8089C196.6582,-276.4416 183.3369,-266.115 170.8119,-256.4057"/>
<polygon fill="#000000" stroke="#000000" points="172.765,-253.4913 162.7172,-250.1308 168.4763,-259.0237 172.765,-253.4913"/>
</g>
<!-- 8 -->
<g id="node8" class="node">
<title>8</title>
<polygon fill="none" stroke="#000000" points="308.3066,-243 196.2305,-243 196.2305,-193 308.3066,-193 308.3066,-243"/>
<text text-anchor="middle" x="252.2686" y="-227.8" font-family="Times,serif" font-size="14.00" fill="#000000">gini = 0.0</text>
<text text-anchor="middle" x="252.2686" y="-213.8" font-family="Times,serif" font-size="14.00" fill="#000000">samples = 87</text>
<text text-anchor="middle" x="252.2686" y="-199.8" font-family="Times,serif" font-size="14.00" fill="#000000">value = [0, 87, 0]</text>
</g>
<!-- 1&#45;&gt;8 -->
<g id="edge7" class="edge">
<title>1&#45;&gt;8</title>
<path fill="none" stroke="#000000" d="M250.9124,-285.8089C251.1196,-275.446 251.3504,-263.909 251.5619,-253.3327"/>
<polygon fill="#000000" stroke="#000000" points="255.0647,-253.2236 251.7654,-243.1555 248.0661,-253.0835 255.0647,-253.2236"/>
</g>
<!-- 9 -->
<g id="node4" class="node">
<title>9</title>
<polygon fill="none" stroke="#000000" points="112.3066,-143 .2305,-143 .2305,-93 112.3066,-93 112.3066,-143"/>
<text text-anchor="middle" x="56.2686" y="-127.8" font-family="Times,serif" font-size="14.00" fill="#000000">gini = 0.0</text>
<text text-anchor="middle" x="56.2686" y="-113.8" font-family="Times,serif" font-size="14.00" fill="#000000">samples = 17</text>
<text text-anchor="middle" x="56.2686" y="-99.8" font-family="Times,serif" font-size="14.00" fill="#000000">value = [0, 17, 0]</text>
</g>
<!-- 7&#45;&gt;9 -->
<g id="edge3" class="edge">
<title>7&#45;&gt;9</title>
<path fill="none" stroke="#000000" d="M100.3444,-185.8089C93.2576,-174.9063 85.3262,-162.7041 78.1659,-151.6882"/>
<polygon fill="#000000" stroke="#000000" points="81.0041,-149.6325 72.6197,-143.1555 75.135,-153.4475 81.0041,-149.6325"/>
</g>
<!-- 10 -->
<g id="node5" class="node">
<title>10</title>
<polygon fill="none" stroke="#000000" points="243.3066,-150 131.2305,-150 131.2305,-86 243.3066,-86 243.3066,-150"/>
<text text-anchor="middle" x="187.2686" y="-134.8" font-family="Times,serif" font-size="14.00" fill="#000000">X[3] &lt;= 0.378</text>
<text text-anchor="middle" x="187.2686" y="-120.8" font-family="Times,serif" font-size="14.00" fill="#000000">gini = 0.165</text>
<text text-anchor="middle" x="187.2686" y="-106.8" font-family="Times,serif" font-size="14.00" fill="#000000">samples = 11</text>
<text text-anchor="middle" x="187.2686" y="-92.8" font-family="Times,serif" font-size="14.00" fill="#000000">value = [1, 10, 0]</text>
</g>
<!-- 7&#45;&gt;10 -->
<g id="edge4" class="edge">
<title>7&#45;&gt;10</title>
<path fill="none" stroke="#000000" d="M142.5147,-185.8089C148.2261,-177.1553 154.4778,-167.683 160.4494,-158.635"/>
<polygon fill="#000000" stroke="#000000" points="163.4749,-160.4048 166.0623,-150.1308 157.6326,-156.5489 163.4749,-160.4048"/>
</g>
<!-- 11 -->
<g id="node6" class="node">
<title>11</title>
<polygon fill="none" stroke="#000000" points="177.8067,-50 72.7304,-50 72.7304,0 177.8067,0 177.8067,-50"/>
<text text-anchor="middle" x="125.2686" y="-34.8" font-family="Times,serif" font-size="14.00" fill="#000000">gini = 0.278</text>
<text text-anchor="middle" x="125.2686" y="-20.8" font-family="Times,serif" font-size="14.00" fill="#000000">samples = 6</text>
<text text-anchor="middle" x="125.2686" y="-6.8" font-family="Times,serif" font-size="14.00" fill="#000000">value = [1, 5, 0]</text>
</g>
<!-- 10&#45;&gt;11 -->
<g id="edge5" class="edge">
<title>10&#45;&gt;11</title>
<path fill="none" stroke="#000000" d="M165.9317,-85.9947C159.9857,-77.0756 153.5126,-67.3661 147.5157,-58.3706"/>
<polygon fill="#000000" stroke="#000000" points="150.4038,-56.3931 141.9446,-50.014 144.5794,-60.276 150.4038,-56.3931"/>
</g>
<!-- 12 -->
<g id="node7" class="node">
<title>12</title>
<polygon fill="none" stroke="#000000" points="301.8067,-50 196.7304,-50 196.7304,0 301.8067,0 301.8067,-50"/>
<text text-anchor="middle" x="249.2686" y="-34.8" font-family="Times,serif" font-size="14.00" fill="#000000">gini = 0.0</text>
<text text-anchor="middle" x="249.2686" y="-20.8" font-family="Times,serif" font-size="14.00" fill="#000000">samples = 5</text>
<text text-anchor="middle" x="249.2686" y="-6.8" font-family="Times,serif" font-size="14.00" fill="#000000">value = [0, 5, 0]</text>
</g>
<!-- 10&#45;&gt;12 -->
<g id="edge6" class="edge">
<title>10&#45;&gt;12</title>
<path fill="none" stroke="#000000" d="M208.6054,-85.9947C214.5515,-77.0756 221.0245,-67.3661 227.0215,-58.3706"/>
<polygon fill="#000000" stroke="#000000" points="229.9577,-60.276 232.5925,-50.014 224.1333,-56.3931 229.9577,-60.276"/>
</g>
<!-- 3 -->
<g id="node10" class="node">
<title>3</title>
<polygon fill="none" stroke="#000000" points="448.8066,-243 329.7306,-243 329.7306,-193 448.8066,-193 448.8066,-243"/>
<text text-anchor="middle" x="389.2686" y="-227.8" font-family="Times,serif" font-size="14.00" fill="#000000">gini = 0.0</text>
<text text-anchor="middle" x="389.2686" y="-213.8" font-family="Times,serif" font-size="14.00" fill="#000000">samples = 147</text>
<text text-anchor="middle" x="389.2686" y="-199.8" font-family="Times,serif" font-size="14.00" fill="#000000">value = [0, 147, 0]</text>
</g>
<!-- 2&#45;&gt;3 -->
<g id="edge9" class="edge">
<title>2&#45;&gt;3</title>
<path fill="none" stroke="#000000" d="M390.6247,-285.8089C390.4175,-275.446 390.1867,-263.909 389.9752,-253.3327"/>
<polygon fill="#000000" stroke="#000000" points="393.471,-253.0835 389.7717,-243.1555 386.4724,-253.2236 393.471,-253.0835"/>
</g>
<!-- 4 -->
<g id="node11" class="node">
<title>4</title>
<polygon fill="none" stroke="#000000" points="585.793,-250 466.7441,-250 466.7441,-186 585.793,-186 585.793,-250"/>
<text text-anchor="middle" x="526.2686" y="-234.8" font-family="Times,serif" font-size="14.00" fill="#000000">X[8] &lt;= 7.962</text>
<text text-anchor="middle" x="526.2686" y="-220.8" font-family="Times,serif" font-size="14.00" fill="#000000">gini = 0.292</text>
<text text-anchor="middle" x="526.2686" y="-206.8" font-family="Times,serif" font-size="14.00" fill="#000000">samples = 62</text>
<text text-anchor="middle" x="526.2686" y="-192.8" font-family="Times,serif" font-size="14.00" fill="#000000">value = [0, 51, 11]</text>
</g>
<!-- 2&#45;&gt;4 -->
<g id="edge10" class="edge">
<title>2&#45;&gt;4</title>
<path fill="none" stroke="#000000" d="M434.7265,-285.8089C447.4928,-276.3524 461.579,-265.9182 474.7951,-256.1285"/>
<polygon fill="#000000" stroke="#000000" points="476.9397,-258.8955 482.892,-250.1308 472.7731,-253.2706 476.9397,-258.8955"/>
</g>
<!-- 5 -->
<g id="node12" class="node">
<title>5</title>
<polygon fill="none" stroke="#000000" points="517.3066,-143 405.2305,-143 405.2305,-93 517.3066,-93 517.3066,-143"/>
<text text-anchor="middle" x="461.2686" y="-127.8" font-family="Times,serif" font-size="14.00" fill="#000000">gini = 0.0</text>
<text text-anchor="middle" x="461.2686" y="-113.8" font-family="Times,serif" font-size="14.00" fill="#000000">samples = 51</text>
<text text-anchor="middle" x="461.2686" y="-99.8" font-family="Times,serif" font-size="14.00" fill="#000000">value = [0, 51, 0]</text>
</g>
<!-- 4&#45;&gt;5 -->
<g id="edge11" class="edge">
<title>4&#45;&gt;5</title>
<path fill="none" stroke="#000000" d="M505.3444,-185.8089C498.2576,-174.9063 490.3262,-162.7041 483.1659,-151.6882"/>
<polygon fill="#000000" stroke="#000000" points="486.0041,-149.6325 477.6197,-143.1555 480.135,-153.4475 486.0041,-149.6325"/>
</g>
<!-- 6 -->
<g id="node13" class="node">
<title>6</title>
<polygon fill="none" stroke="#000000" points="647.293,-143 535.2441,-143 535.2441,-93 647.293,-93 647.293,-143"/>
<text text-anchor="middle" x="591.2686" y="-127.8" font-family="Times,serif" font-size="14.00" fill="#000000">gini = 0.0</text>
<text text-anchor="middle" x="591.2686" y="-113.8" font-family="Times,serif" font-size="14.00" fill="#000000">samples = 11</text>
<text text-anchor="middle" x="591.2686" y="-99.8" font-family="Times,serif" font-size="14.00" fill="#000000">value = [0, 0, 11]</text>
</g>
<!-- 4&#45;&gt;6 -->
<g id="edge12" class="edge">
<title>4&#45;&gt;6</title>
<path fill="none" stroke="#000000" d="M547.1928,-185.8089C554.2795,-174.9063 562.2109,-162.7041 569.3712,-151.6882"/>
<polygon fill="#000000" stroke="#000000" points="572.4021,-153.4475 574.9175,-143.1555 566.533,-149.6325 572.4021,-153.4475"/>
</g>
</g>
</svg>
