<?xml version="1.0" encoding="UTF-8" standalone="no"?>
<!DOCTYPE svg PUBLIC "-//W3C//DTD SVG 1.1//EN"
 "http://www.w3.org/Graphics/SVG/1.1/DTD/svg11.dtd">
<!-- Generated by graphviz version 2.40.1 (20161225.0304)
 -->
<!-- Title: Tree Pages: 1 -->
<svg width="1462pt" height="458pt"
 viewBox="0.00 0.00 1461.54 458.00" xmlns="http://www.w3.org/2000/svg" xmlns:xlink="http://www.w3.org/1999/xlink">
<g id="graph0" class="graph" transform="scale(1 1) rotate(0) translate(4 454)">
<title>Tree</title>
<polygon fill="#ffffff" stroke="transparent" points="-4,4 -4,-454 1457.5371,-454 1457.5371,4 -4,4"/>
<!-- 0 -->
<g id="node1" class="node">
<title>0</title>
<polygon fill="none" stroke="#000000" points="852.2809,-450 657.2562,-450 657.2562,-386 852.2809,-386 852.2809,-450"/>
<text text-anchor="middle" x="754.7686" y="-434.8" font-family="Times,serif" font-size="14.00" fill="#000000">X[0] &lt;= 10.131</text>
<text text-anchor="middle" x="754.7686" y="-420.8" font-family="Times,serif" font-size="14.00" fill="#000000">gini = 0.666</text>
<text text-anchor="middle" x="754.7686" y="-406.8" font-family="Times,serif" font-size="14.00" fill="#000000">samples = 324</text>
<text text-anchor="middle" x="754.7686" y="-392.8" font-family="Times,serif" font-size="14.00" fill="#000000">value = [1, 11, 103, 147, 51, 11]</text>
</g>
<!-- 1 -->
<g id="node2" class="node">
<title>1</title>
<polygon fill="none" stroke="#000000" points="668.3063,-350 507.2308,-350 507.2308,-286 668.3063,-286 668.3063,-350"/>
<text text-anchor="middle" x="587.7686" y="-334.8" font-family="Times,serif" font-size="14.00" fill="#000000">X[3] &lt;= 0.998</text>
<text text-anchor="middle" x="587.7686" y="-320.8" font-family="Times,serif" font-size="14.00" fill="#000000">gini = 0.57</text>
<text text-anchor="middle" x="587.7686" y="-306.8" font-family="Times,serif" font-size="14.00" fill="#000000">samples = 150</text>
<text text-anchor="middle" x="587.7686" y="-292.8" font-family="Times,serif" font-size="14.00" fill="#000000">value = [1, 5, 79, 58, 7, 0]</text>
</g>
<!-- 0&#45;&gt;1 -->
<g id="edge1" class="edge">
<title>0&#45;&gt;1</title>
<path fill="none" stroke="#000000" d="M701.0095,-385.8089C684.7701,-376.0848 666.8043,-365.3268 650.0576,-355.2989"/>
<polygon fill="#000000" stroke="#000000" points="651.8045,-352.2654 641.4269,-350.1308 648.2083,-358.271 651.8045,-352.2654"/>
<text text-anchor="middle" x="647.5117" y="-370.179" font-family="Times,serif" font-size="14.00" fill="#000000">True</text>
</g>
<!-- 2 -->
<g id="node11" class="node">
<title>2</title>
<polygon fill="none" stroke="#000000" points="1020.293,-350 845.2441,-350 845.2441,-286 1020.293,-286 1020.293,-350"/>
<text text-anchor="middle" x="932.7686" y="-334.8" font-family="Times,serif" font-size="14.00" fill="#000000">X[9] &lt;= 69.951</text>
<text text-anchor="middle" x="932.7686" y="-320.8" font-family="Times,serif" font-size="14.00" fill="#000000">gini = 0.65</text>
<text text-anchor="middle" x="932.7686" y="-306.8" font-family="Times,serif" font-size="14.00" fill="#000000">samples = 174</text>
<text text-anchor="middle" x="932.7686" y="-292.8" font-family="Times,serif" font-size="14.00" fill="#000000">value = [0, 6, 24, 89, 44, 11]</text>
</g>
<!-- 0&#45;&gt;2 -->
<g id="edge10" class="edge">
<title>0&#45;&gt;2</title>
<path fill="none" stroke="#000000" d="M812.0687,-385.8089C829.3777,-376.0848 848.5268,-365.3268 866.3766,-355.2989"/>
<polygon fill="#000000" stroke="#000000" points="868.5717,-358.0802 875.5758,-350.1308 865.1431,-351.9773 868.5717,-358.0802"/>
<text text-anchor="middle" x="868.8222" y="-370.0013" font-family="Times,serif" font-size="14.00" fill="#000000">False</text>
</g>
<!-- 3 -->
<g id="node3" class="node">
<title>3</title>
<polygon fill="none" stroke="#000000" points="418.3063,-250 257.2308,-250 257.2308,-186 418.3063,-186 418.3063,-250"/>
<text text-anchor="middle" x="337.7686" y="-234.8" font-family="Times,serif" font-size="14.00" fill="#000000">X[13] &lt;= 0.259</text>
<text text-anchor="middle" x="337.7686" y="-220.8" font-family="Times,serif" font-size="14.00" fill="#000000">gini = 0.534</text>
<text text-anchor="middle" x="337.7686" y="-206.8" font-family="Times,serif" font-size="14.00" fill="#000000">samples = 121</text>
<text text-anchor="middle" x="337.7686" y="-192.8" font-family="Times,serif" font-size="14.00" fill="#000000">value = [1, 3, 72, 40, 5, 0]</text>
</g>
<!-- 1&#45;&gt;3 -->
<g id="edge2" class="edge">
<title>1&#45;&gt;3</title>
<path fill="none" stroke="#000000" d="M507.6354,-285.9467C482.0684,-275.7199 453.6139,-264.3381 427.4167,-253.8593"/>
<polygon fill="#000000" stroke="#000000" points="428.4615,-250.5076 417.8768,-250.0433 425.8617,-257.0069 428.4615,-250.5076"/>
</g>
<!-- 4 -->
<g id="node8" class="node">
<title>4</title>
<polygon fill="none" stroke="#000000" points="664.8064,-250 510.7308,-250 510.7308,-186 664.8064,-186 664.8064,-250"/>
<text text-anchor="middle" x="587.7686" y="-234.8" font-family="Times,serif" font-size="14.00" fill="#000000">X[7] &lt;= 5.807</text>
<text text-anchor="middle" x="587.7686" y="-220.8" font-family="Times,serif" font-size="14.00" fill="#000000">gini = 0.547</text>
<text text-anchor="middle" x="587.7686" y="-206.8" font-family="Times,serif" font-size="14.00" fill="#000000">samples = 29</text>
<text text-anchor="middle" x="587.7686" y="-192.8" font-family="Times,serif" font-size="14.00" fill="#000000">value = [0, 2, 7, 18, 2, 0]</text>
</g>
<!-- 1&#45;&gt;4 -->
<g id="edge7" class="edge">
<title>1&#45;&gt;4</title>
<path fill="none" stroke="#000000" d="M587.7686,-285.8089C587.7686,-277.6906 587.7686,-268.8517 587.7686,-260.3186"/>
<polygon fill="#000000" stroke="#000000" points="591.2687,-260.1307 587.7686,-250.1308 584.2687,-260.1308 591.2687,-260.1307"/>
</g>
<!-- 5 -->
<g id="node4" class="node">
<title>5</title>
<polygon fill="none" stroke="#000000" points="238.3063,-150 77.2308,-150 77.2308,-86 238.3063,-86 238.3063,-150"/>
<text text-anchor="middle" x="157.7686" y="-134.8" font-family="Times,serif" font-size="14.00" fill="#000000">X[8] &lt;= 0.425</text>
<text text-anchor="middle" x="157.7686" y="-120.8" font-family="Times,serif" font-size="14.00" fill="#000000">gini = 0.608</text>
<text text-anchor="middle" x="157.7686" y="-106.8" font-family="Times,serif" font-size="14.00" fill="#000000">samples = 37</text>
<text text-anchor="middle" x="157.7686" y="-92.8" font-family="Times,serif" font-size="14.00" fill="#000000">value = [0, 1, 14, 18, 4, 0]</text>
</g>
<!-- 3&#45;&gt;5 -->
<g id="edge3" class="edge">
<title>3&#45;&gt;5</title>
<path fill="none" stroke="#000000" d="M279.8246,-185.8089C262.1605,-175.9955 242.6014,-165.1293 224.41,-155.023"/>
<polygon fill="#000000" stroke="#000000" points="226.0453,-151.9277 215.6039,-150.1308 222.6457,-158.0468 226.0453,-151.9277"/>
</g>
<!-- 6 -->
<g id="node7" class="node">
<title>6</title>
<polygon fill="none" stroke="#000000" points="418.3063,-143 257.2308,-143 257.2308,-93 418.3063,-93 418.3063,-143"/>
<text text-anchor="middle" x="337.7686" y="-127.8" font-family="Times,serif" font-size="14.00" fill="#000000">gini = 0.454</text>
<text text-anchor="middle" x="337.7686" y="-113.8" font-family="Times,serif" font-size="14.00" fill="#000000">samples = 84</text>
<text text-anchor="middle" x="337.7686" y="-99.8" font-family="Times,serif" font-size="14.00" fill="#000000">value = [1, 2, 58, 22, 1, 0]</text>
</g>
<!-- 3&#45;&gt;6 -->
<g id="edge6" class="edge">
<title>3&#45;&gt;6</title>
<path fill="none" stroke="#000000" d="M337.7686,-185.8089C337.7686,-175.446 337.7686,-163.909 337.7686,-153.3327"/>
<polygon fill="#000000" stroke="#000000" points="341.2687,-153.1555 337.7686,-143.1555 334.2687,-153.1556 341.2687,-153.1555"/>
</g>
<!-- 7 -->
<g id="node5" class="node">
<title>7</title>
<polygon fill="none" stroke="#000000" points="147.3064,-50 .2307,-50 .2307,0 147.3064,0 147.3064,-50"/>
<text text-anchor="middle" x="73.7686" y="-34.8" font-family="Times,serif" font-size="14.00" fill="#000000">gini = 0.46</text>
<text text-anchor="middle" x="73.7686" y="-20.8" font-family="Times,serif" font-size="14.00" fill="#000000">samples = 10</text>
<text text-anchor="middle" x="73.7686" y="-6.8" font-family="Times,serif" font-size="14.00" fill="#000000">value = [0, 0, 7, 2, 1, 0]</text>
</g>
<!-- 5&#45;&gt;7 -->
<g id="edge4" class="edge">
<title>5&#45;&gt;7</title>
<path fill="none" stroke="#000000" d="M128.8605,-85.9947C120.5555,-76.7998 111.4916,-66.7648 103.1578,-57.5381"/>
<polygon fill="#000000" stroke="#000000" points="105.6621,-55.0891 96.3619,-50.014 100.4674,-59.7811 105.6621,-55.0891"/>
</g>
<!-- 8 -->
<g id="node6" class="node">
<title>8</title>
<polygon fill="none" stroke="#000000" points="319.8064,-50 165.7308,-50 165.7308,0 319.8064,0 319.8064,-50"/>
<text text-anchor="middle" x="242.7686" y="-34.8" font-family="Times,serif" font-size="14.00" fill="#000000">gini = 0.568</text>
<text text-anchor="middle" x="242.7686" y="-20.8" font-family="Times,serif" font-size="14.00" fill="#000000">samples = 27</text>
<text text-anchor="middle" x="242.7686" y="-6.8" font-family="Times,serif" font-size="14.00" fill="#000000">value = [0, 1, 7, 16, 3, 0]</text>
</g>
<!-- 5&#45;&gt;8 -->
<g id="edge5" class="edge">
<title>5&#45;&gt;8</title>
<path fill="none" stroke="#000000" d="M187.0207,-85.9947C195.4247,-76.7998 204.5964,-66.7648 213.0294,-57.5381"/>
<polygon fill="#000000" stroke="#000000" points="215.7433,-59.7567 219.9063,-50.014 210.5763,-55.0342 215.7433,-59.7567"/>
</g>
<!-- 9 -->
<g id="node9" class="node">
<title>9</title>
<polygon fill="none" stroke="#000000" points="584.3064,-143 437.2307,-143 437.2307,-93 584.3064,-93 584.3064,-143"/>
<text text-anchor="middle" x="510.7686" y="-127.8" font-family="Times,serif" font-size="14.00" fill="#000000">gini = 0.49</text>
<text text-anchor="middle" x="510.7686" y="-113.8" font-family="Times,serif" font-size="14.00" fill="#000000">samples = 7</text>
<text text-anchor="middle" x="510.7686" y="-99.8" font-family="Times,serif" font-size="14.00" fill="#000000">value = [0, 0, 4, 3, 0, 0]</text>
</g>
<!-- 4&#45;&gt;9 -->
<g id="edge8" class="edge">
<title>4&#45;&gt;9</title>
<path fill="none" stroke="#000000" d="M562.9814,-185.8089C554.5033,-174.7983 545.0045,-162.4623 536.4568,-151.3614"/>
<polygon fill="#000000" stroke="#000000" points="539.0125,-148.9435 530.1383,-143.1555 533.4661,-153.2142 539.0125,-148.9435"/>
</g>
<!-- 10 -->
<g id="node10" class="node">
<title>10</title>
<polygon fill="none" stroke="#000000" points="756.8064,-143 602.7308,-143 602.7308,-93 756.8064,-93 756.8064,-143"/>
<text text-anchor="middle" x="679.7686" y="-127.8" font-family="Times,serif" font-size="14.00" fill="#000000">gini = 0.5</text>
<text text-anchor="middle" x="679.7686" y="-113.8" font-family="Times,serif" font-size="14.00" fill="#000000">samples = 22</text>
<text text-anchor="middle" x="679.7686" y="-99.8" font-family="Times,serif" font-size="14.00" fill="#000000">value = [0, 2, 3, 15, 2, 0]</text>
</g>
<!-- 4&#45;&gt;10 -->
<g id="edge9" class="edge">
<title>4&#45;&gt;10</title>
<path fill="none" stroke="#000000" d="M617.3843,-185.8089C627.7127,-174.5824 639.3088,-161.978 649.6755,-150.7098"/>
<polygon fill="#000000" stroke="#000000" points="652.4306,-152.8846 656.6255,-143.1555 647.2791,-148.1452 652.4306,-152.8846"/>
</g>
<!-- 11 -->
<g id="node12" class="node">
<title>11</title>
<polygon fill="none" stroke="#000000" points="1009.8064,-250 855.7308,-250 855.7308,-186 1009.8064,-186 1009.8064,-250"/>
<text text-anchor="middle" x="932.7686" y="-234.8" font-family="Times,serif" font-size="14.00" fill="#000000">X[5] &lt;= 12.173</text>
<text text-anchor="middle" x="932.7686" y="-220.8" font-family="Times,serif" font-size="14.00" fill="#000000">gini = 0.595</text>
<text text-anchor="middle" x="932.7686" y="-206.8" font-family="Times,serif" font-size="14.00" fill="#000000">samples = 37</text>
<text text-anchor="middle" x="932.7686" y="-192.8" font-family="Times,serif" font-size="14.00" fill="#000000">value = [0, 3, 6, 22, 5, 1]</text>
</g>
<!-- 2&#45;&gt;11 -->
<g id="edge11" class="edge">
<title>2&#45;&gt;11</title>
<path fill="none" stroke="#000000" d="M932.7686,-285.8089C932.7686,-277.6906 932.7686,-268.8517 932.7686,-260.3186"/>
<polygon fill="#000000" stroke="#000000" points="936.2687,-260.1307 932.7686,-250.1308 929.2687,-260.1308 936.2687,-260.1307"/>
</g>
<!-- 12 -->
<g id="node17" class="node">
<title>12</title>
<polygon fill="none" stroke="#000000" points="1288.3063,-250 1113.2308,-250 1113.2308,-186 1288.3063,-186 1288.3063,-250"/>
<text text-anchor="middle" x="1200.7686" y="-234.8" font-family="Times,serif" font-size="14.00" fill="#000000">X[4] &lt;= 7.468</text>
<text text-anchor="middle" x="1200.7686" y="-220.8" font-family="Times,serif" font-size="14.00" fill="#000000">gini = 0.657</text>
<text text-anchor="middle" x="1200.7686" y="-206.8" font-family="Times,serif" font-size="14.00" fill="#000000">samples = 137</text>
<text text-anchor="middle" x="1200.7686" y="-192.8" font-family="Times,serif" font-size="14.00" fill="#000000">value = [0, 3, 18, 67, 39, 10]</text>
</g>
<!-- 2&#45;&gt;12 -->
<g id="edge16" class="edge">
<title>2&#45;&gt;12</title>
<path fill="none" stroke="#000000" d="M1018.6713,-285.9467C1046.3196,-275.6302 1077.1177,-264.1384 1105.4042,-253.5837"/>
<polygon fill="#000000" stroke="#000000" points="1106.7471,-256.8184 1114.8925,-250.0433 1104.2999,-250.2601 1106.7471,-256.8184"/>
</g>
<!-- 13 -->
<g id="node13" class="node">
<title>13</title>
<polygon fill="none" stroke="#000000" points="922.3064,-150 775.2307,-150 775.2307,-86 922.3064,-86 922.3064,-150"/>
<text text-anchor="middle" x="848.7686" y="-134.8" font-family="Times,serif" font-size="14.00" fill="#000000">X[9] &lt;= 27.143</text>
<text text-anchor="middle" x="848.7686" y="-120.8" font-family="Times,serif" font-size="14.00" fill="#000000">gini = 0.722</text>
<text text-anchor="middle" x="848.7686" y="-106.8" font-family="Times,serif" font-size="14.00" fill="#000000">samples = 18</text>
<text text-anchor="middle" x="848.7686" y="-92.8" font-family="Times,serif" font-size="14.00" fill="#000000">value = [0, 3, 6, 6, 3, 0]</text>
</g>
<!-- 11&#45;&gt;13 -->
<g id="edge12" class="edge">
<title>11&#45;&gt;13</title>
<path fill="none" stroke="#000000" d="M905.7281,-185.8089C898.2342,-176.8877 890.0095,-167.0963 882.1979,-157.7968"/>
<polygon fill="#000000" stroke="#000000" points="884.8703,-155.5366 875.7584,-150.1308 879.5104,-160.039 884.8703,-155.5366"/>
</g>
<!-- 14 -->
<g id="node16" class="node">
<title>14</title>
<polygon fill="none" stroke="#000000" points="1094.8064,-143 940.7308,-143 940.7308,-93 1094.8064,-93 1094.8064,-143"/>
<text text-anchor="middle" x="1017.7686" y="-127.8" font-family="Times,serif" font-size="14.00" fill="#000000">gini = 0.277</text>
<text text-anchor="middle" x="1017.7686" y="-113.8" font-family="Times,serif" font-size="14.00" fill="#000000">samples = 19</text>
<text text-anchor="middle" x="1017.7686" y="-99.8" font-family="Times,serif" font-size="14.00" fill="#000000">value = [0, 0, 0, 16, 2, 1]</text>
</g>
<!-- 11&#45;&gt;14 -->
<g id="edge15" class="edge">
<title>11&#45;&gt;14</title>
<path fill="none" stroke="#000000" d="M960.131,-185.8089C969.5817,-174.6904 980.1813,-162.2203 989.6886,-151.0352"/>
<polygon fill="#000000" stroke="#000000" points="992.5766,-153.0417 996.3863,-143.1555 987.243,-148.5082 992.5766,-153.0417"/>
</g>
<!-- 17 -->
<g id="node14" class="node">
<title>17</title>
<polygon fill="none" stroke="#000000" points="839.3064,-50 692.2307,-50 692.2307,0 839.3064,0 839.3064,-50"/>
<text text-anchor="middle" x="765.7686" y="-34.8" font-family="Times,serif" font-size="14.00" fill="#000000">gini = 0.675</text>
<text text-anchor="middle" x="765.7686" y="-20.8" font-family="Times,serif" font-size="14.00" fill="#000000">samples = 13</text>
<text text-anchor="middle" x="765.7686" y="-6.8" font-family="Times,serif" font-size="14.00" fill="#000000">value = [0, 1, 6, 3, 3, 0]</text>
</g>
<!-- 13&#45;&gt;17 -->
<g id="edge13" class="edge">
<title>13&#45;&gt;17</title>
<path fill="none" stroke="#000000" d="M820.2047,-85.9947C811.9985,-76.7998 803.0425,-66.7648 794.8079,-57.5381"/>
<polygon fill="#000000" stroke="#000000" points="797.3628,-55.1443 788.0929,-50.014 792.1402,-59.8054 797.3628,-55.1443"/>
</g>
<!-- 18 -->
<g id="node15" class="node">
<title>18</title>
<polygon fill="none" stroke="#000000" points="1005.3064,-50 858.2307,-50 858.2307,0 1005.3064,0 1005.3064,-50"/>
<text text-anchor="middle" x="931.7686" y="-34.8" font-family="Times,serif" font-size="14.00" fill="#000000">gini = 0.48</text>
<text text-anchor="middle" x="931.7686" y="-20.8" font-family="Times,serif" font-size="14.00" fill="#000000">samples = 5</text>
<text text-anchor="middle" x="931.7686" y="-6.8" font-family="Times,serif" font-size="14.00" fill="#000000">value = [0, 2, 0, 3, 0, 0]</text>
</g>
<!-- 13&#45;&gt;18 -->
<g id="edge14" class="edge">
<title>13&#45;&gt;18</title>
<path fill="none" stroke="#000000" d="M877.3324,-85.9947C885.5386,-76.7998 894.4946,-66.7648 902.7292,-57.5381"/>
<polygon fill="#000000" stroke="#000000" points="905.3969,-59.8054 909.4442,-50.014 900.1743,-55.1443 905.3969,-59.8054"/>
</g>
<!-- 15 -->
<g id="node18" class="node">
<title>15</title>
<polygon fill="none" stroke="#000000" points="1288.293,-143 1113.2441,-143 1113.2441,-93 1288.293,-93 1288.293,-143"/>
<text text-anchor="middle" x="1200.7686" y="-127.8" font-family="Times,serif" font-size="14.00" fill="#000000">gini = 0.629</text>
<text text-anchor="middle" x="1200.7686" y="-113.8" font-family="Times,serif" font-size="14.00" fill="#000000">samples = 115</text>
<text text-anchor="middle" x="1200.7686" y="-99.8" font-family="Times,serif" font-size="14.00" fill="#000000">value = [0, 2, 11, 61, 31, 10]</text>
</g>
<!-- 12&#45;&gt;15 -->
<g id="edge17" class="edge">
<title>12&#45;&gt;15</title>
<path fill="none" stroke="#000000" d="M1200.7686,-185.8089C1200.7686,-175.446 1200.7686,-163.909 1200.7686,-153.3327"/>
<polygon fill="#000000" stroke="#000000" points="1204.2687,-153.1555 1200.7686,-143.1555 1197.2687,-153.1556 1204.2687,-153.1555"/>
</g>
<!-- 16 -->
<g id="node19" class="node">
<title>16</title>
<polygon fill="none" stroke="#000000" points="1453.3064,-143 1306.2307,-143 1306.2307,-93 1453.3064,-93 1453.3064,-143"/>
<text text-anchor="middle" x="1379.7686" y="-127.8" font-family="Times,serif" font-size="14.00" fill="#000000">gini = 0.69</text>
<text text-anchor="middle" x="1379.7686" y="-113.8" font-family="Times,serif" font-size="14.00" fill="#000000">samples = 22</text>
<text text-anchor="middle" x="1379.7686" y="-99.8" font-family="Times,serif" font-size="14.00" fill="#000000">value = [0, 1, 7, 6, 8, 0]</text>
</g>
<!-- 12&#45;&gt;16 -->
<g id="edge18" class="edge">
<title>12&#45;&gt;16</title>
<path fill="none" stroke="#000000" d="M1258.3906,-185.8089C1280.0318,-173.7188 1304.5335,-160.0308 1325.828,-148.1344"/>
<polygon fill="#000000" stroke="#000000" points="1327.7171,-151.0882 1334.7401,-143.1555 1324.3031,-144.9772 1327.7171,-151.0882"/>
</g>
</g>
</svg>
