<?xml version="1.0" encoding="UTF-8" standalone="no"?>
<!DOCTYPE svg PUBLIC "-//W3C//DTD SVG 1.1//EN"
 "http://www.w3.org/Graphics/SVG/1.1/DTD/svg11.dtd">
<!-- Generated by graphviz version 2.40.1 (20161225.0304)
 -->
<!-- Title: Tree Pages: 1 -->
<svg width="1484pt" height="758pt"
 viewBox="0.00 0.00 1483.54 758.00" xmlns="http://www.w3.org/2000/svg" xmlns:xlink="http://www.w3.org/1999/xlink">
<g id="graph0" class="graph" transform="scale(1 1) rotate(0) translate(4 754)">
<title>Tree</title>
<polygon fill="#ffffff" stroke="transparent" points="-4,4 -4,-754 1479.5371,-754 1479.5371,4 -4,4"/>
<!-- 0 -->
<g id="node1" class="node">
<title>0</title>
<polygon fill="none" stroke="#000000" points="885.3066,-750 766.2306,-750 766.2306,-686 885.3066,-686 885.3066,-750"/>
<text text-anchor="middle" x="825.7686" y="-734.8" font-family="Times,serif" font-size="14.00" fill="#000000">X[26] &lt;= 106.2</text>
<text text-anchor="middle" x="825.7686" y="-720.8" font-family="Times,serif" font-size="14.00" fill="#000000">gini = 0.468</text>
<text text-anchor="middle" x="825.7686" y="-706.8" font-family="Times,serif" font-size="14.00" fill="#000000">samples = 483</text>
<text text-anchor="middle" x="825.7686" y="-692.8" font-family="Times,serif" font-size="14.00" fill="#000000">value = [180, 303]</text>
</g>
<!-- 1 -->
<g id="node2" class="node">
<title>1</title>
<polygon fill="none" stroke="#000000" points="772.8066,-650 660.7305,-650 660.7305,-586 772.8066,-586 772.8066,-650"/>
<text text-anchor="middle" x="716.7686" y="-634.8" font-family="Times,serif" font-size="14.00" fill="#000000">X[23] &lt;= 0.172</text>
<text text-anchor="middle" x="716.7686" y="-620.8" font-family="Times,serif" font-size="14.00" fill="#000000">gini = 0.091</text>
<text text-anchor="middle" x="716.7686" y="-606.8" font-family="Times,serif" font-size="14.00" fill="#000000">samples = 294</text>
<text text-anchor="middle" x="716.7686" y="-592.8" font-family="Times,serif" font-size="14.00" fill="#000000">value = [14, 280]</text>
</g>
<!-- 0&#45;&gt;1 -->
<g id="edge1" class="edge">
<title>0&#45;&gt;1</title>
<path fill="none" stroke="#000000" d="M790.6803,-685.8089C780.6644,-676.62 769.6423,-666.508 759.2363,-656.9612"/>
<polygon fill="#000000" stroke="#000000" points="761.526,-654.312 751.7911,-650.1308 756.7937,-659.4702 761.526,-654.312"/>
<text text-anchor="middle" x="752.8666" y="-670.9076" font-family="Times,serif" font-size="14.00" fill="#000000">True</text>
</g>
<!-- 22 -->
<g id="node23" class="node">
<title>22</title>
<polygon fill="none" stroke="#000000" points="1047.8066,-650 935.7305,-650 935.7305,-586 1047.8066,-586 1047.8066,-650"/>
<text text-anchor="middle" x="991.7686" y="-634.8" font-family="Times,serif" font-size="14.00" fill="#000000">X[23] &lt;= 0.142</text>
<text text-anchor="middle" x="991.7686" y="-620.8" font-family="Times,serif" font-size="14.00" fill="#000000">gini = 0.214</text>
<text text-anchor="middle" x="991.7686" y="-606.8" font-family="Times,serif" font-size="14.00" fill="#000000">samples = 189</text>
<text text-anchor="middle" x="991.7686" y="-592.8" font-family="Times,serif" font-size="14.00" fill="#000000">value = [166, 23]</text>
</g>
<!-- 0&#45;&gt;22 -->
<g id="edge22" class="edge">
<title>0&#45;&gt;22</title>
<path fill="none" stroke="#000000" d="M879.2057,-685.8089C895.3479,-676.0848 913.206,-665.3268 929.8524,-655.2989"/>
<polygon fill="#000000" stroke="#000000" points="931.6717,-658.289 938.4315,-650.1308 928.0596,-652.2929 931.6717,-658.289"/>
<text text-anchor="middle" x="932.411" y="-670.195" font-family="Times,serif" font-size="14.00" fill="#000000">False</text>
</g>
<!-- 2 -->
<g id="node3" class="node">
<title>2</title>
<polygon fill="none" stroke="#000000" points="602.3067,-550 497.2304,-550 497.2304,-486 602.3067,-486 602.3067,-550"/>
<text text-anchor="middle" x="549.7686" y="-534.8" font-family="Times,serif" font-size="14.00" fill="#000000">X[23] &lt;= 0.135</text>
<text text-anchor="middle" x="549.7686" y="-520.8" font-family="Times,serif" font-size="14.00" fill="#000000">gini = 0.054</text>
<text text-anchor="middle" x="549.7686" y="-506.8" font-family="Times,serif" font-size="14.00" fill="#000000">samples = 287</text>
<text text-anchor="middle" x="549.7686" y="-492.8" font-family="Times,serif" font-size="14.00" fill="#000000">value = [8, 279]</text>
</g>
<!-- 1&#45;&gt;2 -->
<g id="edge2" class="edge">
<title>1&#45;&gt;2</title>
<path fill="none" stroke="#000000" d="M663.0095,-585.8089C646.5265,-575.9389 628.265,-565.0039 611.3049,-554.8481"/>
<polygon fill="#000000" stroke="#000000" points="612.9484,-551.7527 602.5708,-549.6181 609.3521,-557.7584 612.9484,-551.7527"/>
</g>
<!-- 19 -->
<g id="node20" class="node">
<title>19</title>
<polygon fill="none" stroke="#000000" points="768.4945,-550 665.0426,-550 665.0426,-486 768.4945,-486 768.4945,-550"/>
<text text-anchor="middle" x="716.7686" y="-534.8" font-family="Times,serif" font-size="14.00" fill="#000000">X[21] &lt;= 446.2</text>
<text text-anchor="middle" x="716.7686" y="-520.8" font-family="Times,serif" font-size="14.00" fill="#000000">gini = 0.245</text>
<text text-anchor="middle" x="716.7686" y="-506.8" font-family="Times,serif" font-size="14.00" fill="#000000">samples = 7</text>
<text text-anchor="middle" x="716.7686" y="-492.8" font-family="Times,serif" font-size="14.00" fill="#000000">value = [6, 1]</text>
</g>
<!-- 1&#45;&gt;19 -->
<g id="edge19" class="edge">
<title>1&#45;&gt;19</title>
<path fill="none" stroke="#000000" d="M716.7686,-585.8089C716.7686,-577.6906 716.7686,-568.8517 716.7686,-560.3186"/>
<polygon fill="#000000" stroke="#000000" points="720.2687,-560.1307 716.7686,-550.1308 713.2687,-560.1308 720.2687,-560.1307"/>
</g>
<!-- 3 -->
<g id="node4" class="node">
<title>3</title>
<polygon fill="none" stroke="#000000" points="452.9817,-450 342.5555,-450 342.5555,-386 452.9817,-386 452.9817,-450"/>
<text text-anchor="middle" x="397.7686" y="-434.8" font-family="Times,serif" font-size="14.00" fill="#000000">X[11] &lt;= 48.975</text>
<text text-anchor="middle" x="397.7686" y="-420.8" font-family="Times,serif" font-size="14.00" fill="#000000">gini = 0.029</text>
<text text-anchor="middle" x="397.7686" y="-406.8" font-family="Times,serif" font-size="14.00" fill="#000000">samples = 274</text>
<text text-anchor="middle" x="397.7686" y="-392.8" font-family="Times,serif" font-size="14.00" fill="#000000">value = [4, 270]</text>
</g>
<!-- 2&#45;&gt;3 -->
<g id="edge3" class="edge">
<title>2&#45;&gt;3</title>
<path fill="none" stroke="#000000" d="M500.8381,-485.8089C486.3286,-476.2632 470.3049,-465.7213 455.303,-455.8516"/>
<polygon fill="#000000" stroke="#000000" points="456.8852,-452.703 446.6073,-450.1308 453.0378,-458.5509 456.8852,-452.703"/>
</g>
<!-- 16 -->
<g id="node17" class="node">
<title>16</title>
<polygon fill="none" stroke="#000000" points="604.9945,-450 494.5426,-450 494.5426,-386 604.9945,-386 604.9945,-450"/>
<text text-anchor="middle" x="549.7686" y="-434.8" font-family="Times,serif" font-size="14.00" fill="#000000">X[30] &lt;= 29.455</text>
<text text-anchor="middle" x="549.7686" y="-420.8" font-family="Times,serif" font-size="14.00" fill="#000000">gini = 0.426</text>
<text text-anchor="middle" x="549.7686" y="-406.8" font-family="Times,serif" font-size="14.00" fill="#000000">samples = 13</text>
<text text-anchor="middle" x="549.7686" y="-392.8" font-family="Times,serif" font-size="14.00" fill="#000000">value = [4, 9]</text>
</g>
<!-- 2&#45;&gt;16 -->
<g id="edge16" class="edge">
<title>2&#45;&gt;16</title>
<path fill="none" stroke="#000000" d="M549.7686,-485.8089C549.7686,-477.6906 549.7686,-468.8517 549.7686,-460.3186"/>
<polygon fill="#000000" stroke="#000000" points="553.2687,-460.1307 549.7686,-450.1308 546.2687,-460.1308 553.2687,-460.1307"/>
</g>
<!-- 4 -->
<g id="node5" class="node">
<title>4</title>
<polygon fill="none" stroke="#000000" points="327.3067,-350 222.2304,-350 222.2304,-286 327.3067,-286 327.3067,-350"/>
<text text-anchor="middle" x="274.7686" y="-334.8" font-family="Times,serif" font-size="14.00" fill="#000000">X[18] &lt;= 0.003</text>
<text text-anchor="middle" x="274.7686" y="-320.8" font-family="Times,serif" font-size="14.00" fill="#000000">gini = 0.015</text>
<text text-anchor="middle" x="274.7686" y="-306.8" font-family="Times,serif" font-size="14.00" fill="#000000">samples = 271</text>
<text text-anchor="middle" x="274.7686" y="-292.8" font-family="Times,serif" font-size="14.00" fill="#000000">value = [2, 269]</text>
</g>
<!-- 3&#45;&gt;4 -->
<g id="edge4" class="edge">
<title>3&#45;&gt;4</title>
<path fill="none" stroke="#000000" d="M358.1735,-385.8089C346.7615,-376.5308 334.1918,-366.3116 322.349,-356.6833"/>
<polygon fill="#000000" stroke="#000000" points="324.2565,-353.7234 314.2894,-350.1308 319.8407,-359.1548 324.2565,-353.7234"/>
</g>
<!-- 13 -->
<g id="node14" class="node">
<title>13</title>
<polygon fill="none" stroke="#000000" points="449.4945,-350 346.0426,-350 346.0426,-286 449.4945,-286 449.4945,-350"/>
<text text-anchor="middle" x="397.7686" y="-334.8" font-family="Times,serif" font-size="14.00" fill="#000000">X[13] &lt;= 0.023</text>
<text text-anchor="middle" x="397.7686" y="-320.8" font-family="Times,serif" font-size="14.00" fill="#000000">gini = 0.444</text>
<text text-anchor="middle" x="397.7686" y="-306.8" font-family="Times,serif" font-size="14.00" fill="#000000">samples = 3</text>
<text text-anchor="middle" x="397.7686" y="-292.8" font-family="Times,serif" font-size="14.00" fill="#000000">value = [2, 1]</text>
</g>
<!-- 3&#45;&gt;13 -->
<g id="edge13" class="edge">
<title>3&#45;&gt;13</title>
<path fill="none" stroke="#000000" d="M397.7686,-385.8089C397.7686,-377.6906 397.7686,-368.8517 397.7686,-360.3186"/>
<polygon fill="#000000" stroke="#000000" points="401.2687,-360.1307 397.7686,-350.1308 394.2687,-360.1308 401.2687,-360.1307"/>
</g>
<!-- 5 -->
<g id="node6" class="node">
<title>5</title>
<polygon fill="none" stroke="#000000" points="205.4945,-250 102.0426,-250 102.0426,-186 205.4945,-186 205.4945,-250"/>
<text text-anchor="middle" x="153.7686" y="-234.8" font-family="Times,serif" font-size="14.00" fill="#000000">X[23] &lt;= 0.101</text>
<text text-anchor="middle" x="153.7686" y="-220.8" font-family="Times,serif" font-size="14.00" fill="#000000">gini = 0.245</text>
<text text-anchor="middle" x="153.7686" y="-206.8" font-family="Times,serif" font-size="14.00" fill="#000000">samples = 7</text>
<text text-anchor="middle" x="153.7686" y="-192.8" font-family="Times,serif" font-size="14.00" fill="#000000">value = [1, 6]</text>
</g>
<!-- 4&#45;&gt;5 -->
<g id="edge5" class="edge">
<title>4&#45;&gt;5</title>
<path fill="none" stroke="#000000" d="M235.8174,-285.8089C224.5908,-276.5308 212.2256,-266.3116 200.5753,-256.6833"/>
<polygon fill="#000000" stroke="#000000" points="202.5847,-253.8034 192.6468,-250.1308 198.1254,-259.1992 202.5847,-253.8034"/>
</g>
<!-- 8 -->
<g id="node9" class="node">
<title>8</title>
<polygon fill="none" stroke="#000000" points="329.3067,-250 224.2304,-250 224.2304,-186 329.3067,-186 329.3067,-250"/>
<text text-anchor="middle" x="276.7686" y="-234.8" font-family="Times,serif" font-size="14.00" fill="#000000">X[30] &lt;= 33.35</text>
<text text-anchor="middle" x="276.7686" y="-220.8" font-family="Times,serif" font-size="14.00" fill="#000000">gini = 0.008</text>
<text text-anchor="middle" x="276.7686" y="-206.8" font-family="Times,serif" font-size="14.00" fill="#000000">samples = 264</text>
<text text-anchor="middle" x="276.7686" y="-192.8" font-family="Times,serif" font-size="14.00" fill="#000000">value = [1, 263]</text>
</g>
<!-- 4&#45;&gt;8 -->
<g id="edge8" class="edge">
<title>4&#45;&gt;8</title>
<path fill="none" stroke="#000000" d="M275.4124,-285.8089C275.5747,-277.6906 275.7515,-268.8517 275.9222,-260.3186"/>
<polygon fill="#000000" stroke="#000000" points="279.4252,-260.1988 276.1259,-250.1308 272.4266,-260.0587 279.4252,-260.1988"/>
</g>
<!-- 6 -->
<g id="node7" class="node">
<title>6</title>
<polygon fill="none" stroke="#000000" points="91.3068,-143 .2303,-143 .2303,-93 91.3068,-93 91.3068,-143"/>
<text text-anchor="middle" x="45.7686" y="-127.8" font-family="Times,serif" font-size="14.00" fill="#000000">gini = 0.0</text>
<text text-anchor="middle" x="45.7686" y="-113.8" font-family="Times,serif" font-size="14.00" fill="#000000">samples = 6</text>
<text text-anchor="middle" x="45.7686" y="-99.8" font-family="Times,serif" font-size="14.00" fill="#000000">value = [0, 6]</text>
</g>
<!-- 5&#45;&gt;6 -->
<g id="edge6" class="edge">
<title>5&#45;&gt;6</title>
<path fill="none" stroke="#000000" d="M119.0022,-185.8089C106.6444,-174.3665 92.7407,-161.4928 80.3947,-150.0612"/>
<polygon fill="#000000" stroke="#000000" points="82.6521,-147.3815 72.9365,-143.1555 77.8962,-152.5178 82.6521,-147.3815"/>
</g>
<!-- 7 -->
<g id="node8" class="node">
<title>7</title>
<polygon fill="none" stroke="#000000" points="201.3068,-143 110.2303,-143 110.2303,-93 201.3068,-93 201.3068,-143"/>
<text text-anchor="middle" x="155.7686" y="-127.8" font-family="Times,serif" font-size="14.00" fill="#000000">gini = 0.0</text>
<text text-anchor="middle" x="155.7686" y="-113.8" font-family="Times,serif" font-size="14.00" fill="#000000">samples = 1</text>
<text text-anchor="middle" x="155.7686" y="-99.8" font-family="Times,serif" font-size="14.00" fill="#000000">value = [1, 0]</text>
</g>
<!-- 5&#45;&gt;7 -->
<g id="edge7" class="edge">
<title>5&#45;&gt;7</title>
<path fill="none" stroke="#000000" d="M154.4124,-185.8089C154.6196,-175.446 154.8504,-163.909 155.0619,-153.3327"/>
<polygon fill="#000000" stroke="#000000" points="158.5647,-153.2236 155.2654,-143.1555 151.5661,-153.0835 158.5647,-153.2236"/>
</g>
<!-- 9 -->
<g id="node10" class="node">
<title>9</title>
<polygon fill="none" stroke="#000000" points="328.3067,-143 223.2304,-143 223.2304,-93 328.3067,-93 328.3067,-143"/>
<text text-anchor="middle" x="275.7686" y="-127.8" font-family="Times,serif" font-size="14.00" fill="#000000">gini = 0.0</text>
<text text-anchor="middle" x="275.7686" y="-113.8" font-family="Times,serif" font-size="14.00" fill="#000000">samples = 247</text>
<text text-anchor="middle" x="275.7686" y="-99.8" font-family="Times,serif" font-size="14.00" fill="#000000">value = [0, 247]</text>
</g>
<!-- 8&#45;&gt;9 -->
<g id="edge9" class="edge">
<title>8&#45;&gt;9</title>
<path fill="none" stroke="#000000" d="M276.4466,-185.8089C276.343,-175.446 276.2276,-163.909 276.1219,-153.3327"/>
<polygon fill="#000000" stroke="#000000" points="279.62,-153.12 276.0201,-143.1555 272.6204,-153.1901 279.62,-153.12"/>
</g>
<!-- 10 -->
<g id="node11" class="node">
<title>10</title>
<polygon fill="none" stroke="#000000" points="464.4945,-150 347.0426,-150 347.0426,-86 464.4945,-86 464.4945,-150"/>
<text text-anchor="middle" x="405.7686" y="-134.8" font-family="Times,serif" font-size="14.00" fill="#000000">X[0] &lt;= 886852.0</text>
<text text-anchor="middle" x="405.7686" y="-120.8" font-family="Times,serif" font-size="14.00" fill="#000000">gini = 0.111</text>
<text text-anchor="middle" x="405.7686" y="-106.8" font-family="Times,serif" font-size="14.00" fill="#000000">samples = 17</text>
<text text-anchor="middle" x="405.7686" y="-92.8" font-family="Times,serif" font-size="14.00" fill="#000000">value = [1, 16]</text>
</g>
<!-- 8&#45;&gt;10 -->
<g id="edge10" class="edge">
<title>8&#45;&gt;10</title>
<path fill="none" stroke="#000000" d="M318.295,-185.8089C330.3789,-176.4416 343.7002,-166.115 356.2252,-156.4057"/>
<polygon fill="#000000" stroke="#000000" points="358.5608,-159.0237 364.3199,-150.1308 354.2721,-153.4913 358.5608,-159.0237"/>
</g>
<!-- 11 -->
<g id="node12" class="node">
<title>11</title>
<polygon fill="none" stroke="#000000" points="394.3068,-50 303.2303,-50 303.2303,0 394.3068,0 394.3068,-50"/>
<text text-anchor="middle" x="348.7686" y="-34.8" font-family="Times,serif" font-size="14.00" fill="#000000">gini = 0.0</text>
<text text-anchor="middle" x="348.7686" y="-20.8" font-family="Times,serif" font-size="14.00" fill="#000000">samples = 1</text>
<text text-anchor="middle" x="348.7686" y="-6.8" font-family="Times,serif" font-size="14.00" fill="#000000">value = [1, 0]</text>
</g>
<!-- 10&#45;&gt;11 -->
<g id="edge11" class="edge">
<title>10&#45;&gt;11</title>
<path fill="none" stroke="#000000" d="M386.1524,-85.9947C380.7422,-77.1676 374.8575,-67.5662 369.3922,-58.6491"/>
<polygon fill="#000000" stroke="#000000" points="372.3095,-56.7111 364.0997,-50.014 366.3413,-60.369 372.3095,-56.7111"/>
</g>
<!-- 12 -->
<g id="node13" class="node">
<title>12</title>
<polygon fill="none" stroke="#000000" points="510.8067,-50 412.7304,-50 412.7304,0 510.8067,0 510.8067,-50"/>
<text text-anchor="middle" x="461.7686" y="-34.8" font-family="Times,serif" font-size="14.00" fill="#000000">gini = 0.0</text>
<text text-anchor="middle" x="461.7686" y="-20.8" font-family="Times,serif" font-size="14.00" fill="#000000">samples = 16</text>
<text text-anchor="middle" x="461.7686" y="-6.8" font-family="Times,serif" font-size="14.00" fill="#000000">value = [0, 16]</text>
</g>
<!-- 10&#45;&gt;12 -->
<g id="edge12" class="edge">
<title>10&#45;&gt;12</title>
<path fill="none" stroke="#000000" d="M425.0406,-85.9947C430.3558,-77.1676 436.1373,-67.5662 441.5067,-58.6491"/>
<polygon fill="#000000" stroke="#000000" points="444.5462,-60.3863 446.7063,-50.014 438.5494,-56.7753 444.5462,-60.3863"/>
</g>
<!-- 14 -->
<g id="node15" class="node">
<title>14</title>
<polygon fill="none" stroke="#000000" points="442.3068,-243 351.2303,-243 351.2303,-193 442.3068,-193 442.3068,-243"/>
<text text-anchor="middle" x="396.7686" y="-227.8" font-family="Times,serif" font-size="14.00" fill="#000000">gini = 0.0</text>
<text text-anchor="middle" x="396.7686" y="-213.8" font-family="Times,serif" font-size="14.00" fill="#000000">samples = 2</text>
<text text-anchor="middle" x="396.7686" y="-199.8" font-family="Times,serif" font-size="14.00" fill="#000000">value = [2, 0]</text>
</g>
<!-- 13&#45;&gt;14 -->
<g id="edge14" class="edge">
<title>13&#45;&gt;14</title>
<path fill="none" stroke="#000000" d="M397.4466,-285.8089C397.343,-275.446 397.2276,-263.909 397.1219,-253.3327"/>
<polygon fill="#000000" stroke="#000000" points="400.62,-253.12 397.0201,-243.1555 393.6204,-253.1901 400.62,-253.12"/>
</g>
<!-- 15 -->
<g id="node16" class="node">
<title>15</title>
<polygon fill="none" stroke="#000000" points="552.3068,-243 461.2303,-243 461.2303,-193 552.3068,-193 552.3068,-243"/>
<text text-anchor="middle" x="506.7686" y="-227.8" font-family="Times,serif" font-size="14.00" fill="#000000">gini = 0.0</text>
<text text-anchor="middle" x="506.7686" y="-213.8" font-family="Times,serif" font-size="14.00" fill="#000000">samples = 1</text>
<text text-anchor="middle" x="506.7686" y="-199.8" font-family="Times,serif" font-size="14.00" fill="#000000">value = [0, 1]</text>
</g>
<!-- 13&#45;&gt;15 -->
<g id="edge15" class="edge">
<title>13&#45;&gt;15</title>
<path fill="none" stroke="#000000" d="M432.8568,-285.8089C445.329,-274.3665 459.3615,-261.4928 471.8218,-250.0612"/>
<polygon fill="#000000" stroke="#000000" points="474.3464,-252.4949 479.349,-243.1555 469.6141,-247.3368 474.3464,-252.4949"/>
</g>
<!-- 17 -->
<g id="node18" class="node">
<title>17</title>
<polygon fill="none" stroke="#000000" points="559.3068,-343 468.2303,-343 468.2303,-293 559.3068,-293 559.3068,-343"/>
<text text-anchor="middle" x="513.7686" y="-327.8" font-family="Times,serif" font-size="14.00" fill="#000000">gini = 0.0</text>
<text text-anchor="middle" x="513.7686" y="-313.8" font-family="Times,serif" font-size="14.00" fill="#000000">samples = 9</text>
<text text-anchor="middle" x="513.7686" y="-299.8" font-family="Times,serif" font-size="14.00" fill="#000000">value = [0, 9]</text>
</g>
<!-- 16&#45;&gt;17 -->
<g id="edge17" class="edge">
<title>16&#45;&gt;17</title>
<path fill="none" stroke="#000000" d="M538.1798,-385.8089C534.3714,-375.2301 530.1226,-363.4278 526.2508,-352.6729"/>
<polygon fill="#000000" stroke="#000000" points="529.5049,-351.3789 522.8246,-343.1555 522.9187,-353.75 529.5049,-351.3789"/>
</g>
<!-- 18 -->
<g id="node19" class="node">
<title>18</title>
<polygon fill="none" stroke="#000000" points="669.3068,-343 578.2303,-343 578.2303,-293 669.3068,-293 669.3068,-343"/>
<text text-anchor="middle" x="623.7686" y="-327.8" font-family="Times,serif" font-size="14.00" fill="#000000">gini = 0.0</text>
<text text-anchor="middle" x="623.7686" y="-313.8" font-family="Times,serif" font-size="14.00" fill="#000000">samples = 4</text>
<text text-anchor="middle" x="623.7686" y="-299.8" font-family="Times,serif" font-size="14.00" fill="#000000">value = [4, 0]</text>
</g>
<!-- 16&#45;&gt;18 -->
<g id="edge18" class="edge">
<title>16&#45;&gt;18</title>
<path fill="none" stroke="#000000" d="M573.5899,-385.8089C581.7378,-374.7983 590.8664,-362.4623 599.0811,-351.3614"/>
<polygon fill="#000000" stroke="#000000" points="602.0184,-353.2759 605.1535,-343.1555 596.3915,-349.112 602.0184,-353.2759"/>
</g>
<!-- 20 -->
<g id="node21" class="node">
<title>20</title>
<polygon fill="none" stroke="#000000" points="738.3068,-443 647.2303,-443 647.2303,-393 738.3068,-393 738.3068,-443"/>
<text text-anchor="middle" x="692.7686" y="-427.8" font-family="Times,serif" font-size="14.00" fill="#000000">gini = 0.0</text>
<text text-anchor="middle" x="692.7686" y="-413.8" font-family="Times,serif" font-size="14.00" fill="#000000">samples = 1</text>
<text text-anchor="middle" x="692.7686" y="-399.8" font-family="Times,serif" font-size="14.00" fill="#000000">value = [0, 1]</text>
</g>
<!-- 19&#45;&gt;20 -->
<g id="edge20" class="edge">
<title>19&#45;&gt;20</title>
<path fill="none" stroke="#000000" d="M709.0427,-485.8089C706.5297,-475.338 703.729,-463.6685 701.1691,-453.0025"/>
<polygon fill="#000000" stroke="#000000" points="704.543,-452.0626 698.8059,-443.1555 697.7363,-453.6963 704.543,-452.0626"/>
</g>
<!-- 21 -->
<g id="node22" class="node">
<title>21</title>
<polygon fill="none" stroke="#000000" points="848.3068,-443 757.2303,-443 757.2303,-393 848.3068,-393 848.3068,-443"/>
<text text-anchor="middle" x="802.7686" y="-427.8" font-family="Times,serif" font-size="14.00" fill="#000000">gini = 0.0</text>
<text text-anchor="middle" x="802.7686" y="-413.8" font-family="Times,serif" font-size="14.00" fill="#000000">samples = 6</text>
<text text-anchor="middle" x="802.7686" y="-399.8" font-family="Times,serif" font-size="14.00" fill="#000000">value = [6, 0]</text>
</g>
<!-- 19&#45;&gt;21 -->
<g id="edge21" class="edge">
<title>19&#45;&gt;21</title>
<path fill="none" stroke="#000000" d="M744.4529,-485.8089C754.0148,-474.6904 764.7391,-462.2203 774.3583,-451.0352"/>
<polygon fill="#000000" stroke="#000000" points="777.268,-453.0196 781.1348,-443.1555 771.9607,-448.4553 777.268,-453.0196"/>
</g>
<!-- 23 -->
<g id="node24" class="node">
<title>23</title>
<polygon fill="none" stroke="#000000" points="1046.9945,-550 936.5426,-550 936.5426,-486 1046.9945,-486 1046.9945,-550"/>
<text text-anchor="middle" x="991.7686" y="-534.8" font-family="Times,serif" font-size="14.00" fill="#000000">X[21] &lt;= 949.85</text>
<text text-anchor="middle" x="991.7686" y="-520.8" font-family="Times,serif" font-size="14.00" fill="#000000">gini = 0.499</text>
<text text-anchor="middle" x="991.7686" y="-506.8" font-family="Times,serif" font-size="14.00" fill="#000000">samples = 44</text>
<text text-anchor="middle" x="991.7686" y="-492.8" font-family="Times,serif" font-size="14.00" fill="#000000">value = [23, 21]</text>
</g>
<!-- 22&#45;&gt;23 -->
<g id="edge23" class="edge">
<title>22&#45;&gt;23</title>
<path fill="none" stroke="#000000" d="M991.7686,-585.8089C991.7686,-577.6906 991.7686,-568.8517 991.7686,-560.3186"/>
<polygon fill="#000000" stroke="#000000" points="995.2687,-560.1307 991.7686,-550.1308 988.2687,-560.1308 995.2687,-560.1307"/>
</g>
<!-- 36 -->
<g id="node37" class="node">
<title>36</title>
<polygon fill="none" stroke="#000000" points="1235.9817,-550 1125.5555,-550 1125.5555,-486 1235.9817,-486 1235.9817,-550"/>
<text text-anchor="middle" x="1180.7686" y="-534.8" font-family="Times,serif" font-size="14.00" fill="#000000">X[10] &lt;= 11.585</text>
<text text-anchor="middle" x="1180.7686" y="-520.8" font-family="Times,serif" font-size="14.00" fill="#000000">gini = 0.027</text>
<text text-anchor="middle" x="1180.7686" y="-506.8" font-family="Times,serif" font-size="14.00" fill="#000000">samples = 145</text>
<text text-anchor="middle" x="1180.7686" y="-492.8" font-family="Times,serif" font-size="14.00" fill="#000000">value = [143, 2]</text>
</g>
<!-- 22&#45;&gt;36 -->
<g id="edge36" class="edge">
<title>22&#45;&gt;36</title>
<path fill="none" stroke="#000000" d="M1047.9631,-588.2675C1069.4812,-576.8822 1094.189,-563.8093 1116.4124,-552.0509"/>
<polygon fill="#000000" stroke="#000000" points="1118.2396,-555.0439 1125.4418,-547.2734 1114.9659,-548.8565 1118.2396,-555.0439"/>
</g>
<!-- 24 -->
<g id="node25" class="node">
<title>24</title>
<polygon fill="none" stroke="#000000" points="980.8067,-450 882.7304,-450 882.7304,-386 980.8067,-386 980.8067,-450"/>
<text text-anchor="middle" x="931.7686" y="-434.8" font-family="Times,serif" font-size="14.00" fill="#000000">X[1] &lt;= 610.4</text>
<text text-anchor="middle" x="931.7686" y="-420.8" font-family="Times,serif" font-size="14.00" fill="#000000">gini = 0.34</text>
<text text-anchor="middle" x="931.7686" y="-406.8" font-family="Times,serif" font-size="14.00" fill="#000000">samples = 23</text>
<text text-anchor="middle" x="931.7686" y="-392.8" font-family="Times,serif" font-size="14.00" fill="#000000">value = [5, 18]</text>
</g>
<!-- 23&#45;&gt;24 -->
<g id="edge24" class="edge">
<title>23&#45;&gt;24</title>
<path fill="none" stroke="#000000" d="M972.4539,-485.8089C967.3153,-477.2445 961.6955,-467.8782 956.3176,-458.915"/>
<polygon fill="#000000" stroke="#000000" points="959.1932,-456.905 951.047,-450.1308 953.1908,-460.5065 959.1932,-456.905"/>
</g>
<!-- 31 -->
<g id="node32" class="node">
<title>31</title>
<polygon fill="none" stroke="#000000" points="1113.4945,-450 1010.0426,-450 1010.0426,-386 1113.4945,-386 1113.4945,-450"/>
<text text-anchor="middle" x="1061.7686" y="-434.8" font-family="Times,serif" font-size="14.00" fill="#000000">X[24] &lt;= 0.191</text>
<text text-anchor="middle" x="1061.7686" y="-420.8" font-family="Times,serif" font-size="14.00" fill="#000000">gini = 0.245</text>
<text text-anchor="middle" x="1061.7686" y="-406.8" font-family="Times,serif" font-size="14.00" fill="#000000">samples = 21</text>
<text text-anchor="middle" x="1061.7686" y="-392.8" font-family="Times,serif" font-size="14.00" fill="#000000">value = [18, 3]</text>
</g>
<!-- 23&#45;&gt;31 -->
<g id="edge31" class="edge">
<title>23&#45;&gt;31</title>
<path fill="none" stroke="#000000" d="M1014.3023,-485.8089C1020.4223,-477.0661 1027.1272,-467.4876 1033.5198,-458.3553"/>
<polygon fill="#000000" stroke="#000000" points="1036.4097,-460.3302 1039.277,-450.1308 1030.675,-456.316 1036.4097,-460.3302"/>
</g>
<!-- 25 -->
<g id="node26" class="node">
<title>25</title>
<polygon fill="none" stroke="#000000" points="783.9945,-350 687.5426,-350 687.5426,-286 783.9945,-286 783.9945,-350"/>
<text text-anchor="middle" x="735.7686" y="-334.8" font-family="Times,serif" font-size="14.00" fill="#000000">X[8] &lt;= 0.089</text>
<text text-anchor="middle" x="735.7686" y="-320.8" font-family="Times,serif" font-size="14.00" fill="#000000">gini = 0.375</text>
<text text-anchor="middle" x="735.7686" y="-306.8" font-family="Times,serif" font-size="14.00" fill="#000000">samples = 4</text>
<text text-anchor="middle" x="735.7686" y="-292.8" font-family="Times,serif" font-size="14.00" fill="#000000">value = [3, 1]</text>
</g>
<!-- 24&#45;&gt;25 -->
<g id="edge25" class="edge">
<title>24&#45;&gt;25</title>
<path fill="none" stroke="#000000" d="M882.5625,-392.8949C855.447,-379.0604 821.6405,-361.8122 793.3072,-347.3565"/>
<polygon fill="#000000" stroke="#000000" points="794.8141,-344.1961 784.3158,-342.769 791.6328,-350.4314 794.8141,-344.1961"/>
</g>
<!-- 28 -->
<g id="node29" class="node">
<title>28</title>
<polygon fill="none" stroke="#000000" points="983.4945,-350 880.0426,-350 880.0426,-286 983.4945,-286 983.4945,-350"/>
<text text-anchor="middle" x="931.7686" y="-334.8" font-family="Times,serif" font-size="14.00" fill="#000000">X[13] &lt;= 0.017</text>
<text text-anchor="middle" x="931.7686" y="-320.8" font-family="Times,serif" font-size="14.00" fill="#000000">gini = 0.188</text>
<text text-anchor="middle" x="931.7686" y="-306.8" font-family="Times,serif" font-size="14.00" fill="#000000">samples = 19</text>
<text text-anchor="middle" x="931.7686" y="-292.8" font-family="Times,serif" font-size="14.00" fill="#000000">value = [2, 17]</text>
</g>
<!-- 24&#45;&gt;28 -->
<g id="edge28" class="edge">
<title>24&#45;&gt;28</title>
<path fill="none" stroke="#000000" d="M931.7686,-385.8089C931.7686,-377.6906 931.7686,-368.8517 931.7686,-360.3186"/>
<polygon fill="#000000" stroke="#000000" points="935.2687,-360.1307 931.7686,-350.1308 928.2687,-360.1308 935.2687,-360.1307"/>
</g>
<!-- 26 -->
<g id="node27" class="node">
<title>26</title>
<polygon fill="none" stroke="#000000" points="666.3068,-243 575.2303,-243 575.2303,-193 666.3068,-193 666.3068,-243"/>
<text text-anchor="middle" x="620.7686" y="-227.8" font-family="Times,serif" font-size="14.00" fill="#000000">gini = 0.0</text>
<text text-anchor="middle" x="620.7686" y="-213.8" font-family="Times,serif" font-size="14.00" fill="#000000">samples = 1</text>
<text text-anchor="middle" x="620.7686" y="-199.8" font-family="Times,serif" font-size="14.00" fill="#000000">value = [0, 1]</text>
</g>
<!-- 25&#45;&gt;26 -->
<g id="edge26" class="edge">
<title>25&#45;&gt;26</title>
<path fill="none" stroke="#000000" d="M698.7488,-285.8089C685.4659,-274.2586 670.5057,-261.2497 657.2673,-249.7381"/>
<polygon fill="#000000" stroke="#000000" points="659.5401,-247.0762 649.6974,-243.1555 654.9469,-252.3585 659.5401,-247.0762"/>
</g>
<!-- 27 -->
<g id="node28" class="node">
<title>27</title>
<polygon fill="none" stroke="#000000" points="776.3068,-243 685.2303,-243 685.2303,-193 776.3068,-193 776.3068,-243"/>
<text text-anchor="middle" x="730.7686" y="-227.8" font-family="Times,serif" font-size="14.00" fill="#000000">gini = 0.0</text>
<text text-anchor="middle" x="730.7686" y="-213.8" font-family="Times,serif" font-size="14.00" fill="#000000">samples = 3</text>
<text text-anchor="middle" x="730.7686" y="-199.8" font-family="Times,serif" font-size="14.00" fill="#000000">value = [3, 0]</text>
</g>
<!-- 25&#45;&gt;27 -->
<g id="edge27" class="edge">
<title>25&#45;&gt;27</title>
<path fill="none" stroke="#000000" d="M734.159,-285.8089C733.6409,-275.446 733.064,-263.909 732.5352,-253.3327"/>
<polygon fill="#000000" stroke="#000000" points="736.0214,-252.9683 732.0263,-243.1555 729.0302,-253.3179 736.0214,-252.9683"/>
</g>
<!-- 29 -->
<g id="node30" class="node">
<title>29</title>
<polygon fill="none" stroke="#000000" points="892.8067,-243 794.7304,-243 794.7304,-193 892.8067,-193 892.8067,-243"/>
<text text-anchor="middle" x="843.7686" y="-227.8" font-family="Times,serif" font-size="14.00" fill="#000000">gini = 0.0</text>
<text text-anchor="middle" x="843.7686" y="-213.8" font-family="Times,serif" font-size="14.00" fill="#000000">samples = 17</text>
<text text-anchor="middle" x="843.7686" y="-199.8" font-family="Times,serif" font-size="14.00" fill="#000000">value = [0, 17]</text>
</g>
<!-- 28&#45;&gt;29 -->
<g id="edge29" class="edge">
<title>28&#45;&gt;29</title>
<path fill="none" stroke="#000000" d="M903.4404,-285.8089C893.5611,-274.5824 882.4692,-261.978 872.5532,-250.7098"/>
<polygon fill="#000000" stroke="#000000" points="875.1393,-248.3505 865.9054,-243.1555 869.8842,-252.9749 875.1393,-248.3505"/>
</g>
<!-- 30 -->
<g id="node31" class="node">
<title>30</title>
<polygon fill="none" stroke="#000000" points="1002.3068,-243 911.2303,-243 911.2303,-193 1002.3068,-193 1002.3068,-243"/>
<text text-anchor="middle" x="956.7686" y="-227.8" font-family="Times,serif" font-size="14.00" fill="#000000">gini = 0.0</text>
<text text-anchor="middle" x="956.7686" y="-213.8" font-family="Times,serif" font-size="14.00" fill="#000000">samples = 2</text>
<text text-anchor="middle" x="956.7686" y="-199.8" font-family="Times,serif" font-size="14.00" fill="#000000">value = [2, 0]</text>
</g>
<!-- 28&#45;&gt;30 -->
<g id="edge30" class="edge">
<title>28&#45;&gt;30</title>
<path fill="none" stroke="#000000" d="M939.8163,-285.8089C942.434,-275.338 945.3514,-263.6685 948.0179,-253.0025"/>
<polygon fill="#000000" stroke="#000000" points="951.4497,-253.7059 950.4797,-243.1555 944.6587,-252.0081 951.4497,-253.7059"/>
</g>
<!-- 32 -->
<g id="node33" class="node">
<title>32</title>
<polygon fill="none" stroke="#000000" points="1113.4945,-350 1010.0426,-350 1010.0426,-286 1113.4945,-286 1113.4945,-350"/>
<text text-anchor="middle" x="1061.7686" y="-334.8" font-family="Times,serif" font-size="14.00" fill="#000000">X[10] &lt;= 21.26</text>
<text text-anchor="middle" x="1061.7686" y="-320.8" font-family="Times,serif" font-size="14.00" fill="#000000">gini = 0.48</text>
<text text-anchor="middle" x="1061.7686" y="-306.8" font-family="Times,serif" font-size="14.00" fill="#000000">samples = 5</text>
<text text-anchor="middle" x="1061.7686" y="-292.8" font-family="Times,serif" font-size="14.00" fill="#000000">value = [2, 3]</text>
</g>
<!-- 31&#45;&gt;32 -->
<g id="edge32" class="edge">
<title>31&#45;&gt;32</title>
<path fill="none" stroke="#000000" d="M1061.7686,-385.8089C1061.7686,-377.6906 1061.7686,-368.8517 1061.7686,-360.3186"/>
<polygon fill="#000000" stroke="#000000" points="1065.2687,-360.1307 1061.7686,-350.1308 1058.2687,-360.1308 1065.2687,-360.1307"/>
</g>
<!-- 35 -->
<g id="node36" class="node">
<title>35</title>
<polygon fill="none" stroke="#000000" points="1229.8067,-343 1131.7304,-343 1131.7304,-293 1229.8067,-293 1229.8067,-343"/>
<text text-anchor="middle" x="1180.7686" y="-327.8" font-family="Times,serif" font-size="14.00" fill="#000000">gini = 0.0</text>
<text text-anchor="middle" x="1180.7686" y="-313.8" font-family="Times,serif" font-size="14.00" fill="#000000">samples = 16</text>
<text text-anchor="middle" x="1180.7686" y="-299.8" font-family="Times,serif" font-size="14.00" fill="#000000">value = [16, 0]</text>
</g>
<!-- 31&#45;&gt;35 -->
<g id="edge35" class="edge">
<title>31&#45;&gt;35</title>
<path fill="none" stroke="#000000" d="M1100.0759,-385.8089C1113.8209,-374.2586 1129.3014,-361.2497 1143.0002,-349.7381"/>
<polygon fill="#000000" stroke="#000000" points="1145.4294,-352.2685 1150.8335,-343.1555 1140.9259,-346.9095 1145.4294,-352.2685"/>
</g>
<!-- 33 -->
<g id="node34" class="node">
<title>33</title>
<polygon fill="none" stroke="#000000" points="1112.3068,-243 1021.2303,-243 1021.2303,-193 1112.3068,-193 1112.3068,-243"/>
<text text-anchor="middle" x="1066.7686" y="-227.8" font-family="Times,serif" font-size="14.00" fill="#000000">gini = 0.0</text>
<text text-anchor="middle" x="1066.7686" y="-213.8" font-family="Times,serif" font-size="14.00" fill="#000000">samples = 3</text>
<text text-anchor="middle" x="1066.7686" y="-199.8" font-family="Times,serif" font-size="14.00" fill="#000000">value = [0, 3]</text>
</g>
<!-- 32&#45;&gt;33 -->
<g id="edge33" class="edge">
<title>32&#45;&gt;33</title>
<path fill="none" stroke="#000000" d="M1063.3781,-285.8089C1063.8963,-275.446 1064.4731,-263.909 1065.0019,-253.3327"/>
<polygon fill="#000000" stroke="#000000" points="1068.5069,-253.3179 1065.5108,-243.1555 1061.5157,-252.9683 1068.5069,-253.3179"/>
</g>
<!-- 34 -->
<g id="node35" class="node">
<title>34</title>
<polygon fill="none" stroke="#000000" points="1222.3068,-243 1131.2303,-243 1131.2303,-193 1222.3068,-193 1222.3068,-243"/>
<text text-anchor="middle" x="1176.7686" y="-227.8" font-family="Times,serif" font-size="14.00" fill="#000000">gini = 0.0</text>
<text text-anchor="middle" x="1176.7686" y="-213.8" font-family="Times,serif" font-size="14.00" fill="#000000">samples = 2</text>
<text text-anchor="middle" x="1176.7686" y="-199.8" font-family="Times,serif" font-size="14.00" fill="#000000">value = [2, 0]</text>
</g>
<!-- 32&#45;&gt;34 -->
<g id="edge34" class="edge">
<title>32&#45;&gt;34</title>
<path fill="none" stroke="#000000" d="M1098.7883,-285.8089C1112.0712,-274.2586 1127.0314,-261.2497 1140.2698,-249.7381"/>
<polygon fill="#000000" stroke="#000000" points="1142.5902,-252.3585 1147.8397,-243.1555 1137.997,-247.0762 1142.5902,-252.3585"/>
</g>
<!-- 37 -->
<g id="node38" class="node">
<title>37</title>
<polygon fill="none" stroke="#000000" points="1226.3068,-443 1135.2303,-443 1135.2303,-393 1226.3068,-393 1226.3068,-443"/>
<text text-anchor="middle" x="1180.7686" y="-427.8" font-family="Times,serif" font-size="14.00" fill="#000000">gini = 0.0</text>
<text text-anchor="middle" x="1180.7686" y="-413.8" font-family="Times,serif" font-size="14.00" fill="#000000">samples = 1</text>
<text text-anchor="middle" x="1180.7686" y="-399.8" font-family="Times,serif" font-size="14.00" fill="#000000">value = [0, 1]</text>
</g>
<!-- 36&#45;&gt;37 -->
<g id="edge37" class="edge">
<title>36&#45;&gt;37</title>
<path fill="none" stroke="#000000" d="M1180.7686,-485.8089C1180.7686,-475.446 1180.7686,-463.909 1180.7686,-453.3327"/>
<polygon fill="#000000" stroke="#000000" points="1184.2687,-453.1555 1180.7686,-443.1555 1177.2687,-453.1556 1184.2687,-453.1555"/>
</g>
<!-- 38 -->
<g id="node39" class="node">
<title>38</title>
<polygon fill="none" stroke="#000000" points="1352.3067,-450 1247.2304,-450 1247.2304,-386 1352.3067,-386 1352.3067,-450"/>
<text text-anchor="middle" x="1299.7686" y="-434.8" font-family="Times,serif" font-size="14.00" fill="#000000">X[21] &lt;= 775.8</text>
<text text-anchor="middle" x="1299.7686" y="-420.8" font-family="Times,serif" font-size="14.00" fill="#000000">gini = 0.014</text>
<text text-anchor="middle" x="1299.7686" y="-406.8" font-family="Times,serif" font-size="14.00" fill="#000000">samples = 144</text>
<text text-anchor="middle" x="1299.7686" y="-392.8" font-family="Times,serif" font-size="14.00" fill="#000000">value = [143, 1]</text>
</g>
<!-- 36&#45;&gt;38 -->
<g id="edge38" class="edge">
<title>36&#45;&gt;38</title>
<path fill="none" stroke="#000000" d="M1219.0759,-485.8089C1230.1169,-476.5308 1242.2777,-466.3116 1253.7354,-456.6833"/>
<polygon fill="#000000" stroke="#000000" points="1256.1289,-459.2438 1261.533,-450.1308 1251.6254,-453.8847 1256.1289,-459.2438"/>
</g>
<!-- 39 -->
<g id="node40" class="node">
<title>39</title>
<polygon fill="none" stroke="#000000" points="1351.4945,-350 1248.0426,-350 1248.0426,-286 1351.4945,-286 1351.4945,-350"/>
<text text-anchor="middle" x="1299.7686" y="-334.8" font-family="Times,serif" font-size="14.00" fill="#000000">X[22] &lt;= 0.348</text>
<text text-anchor="middle" x="1299.7686" y="-320.8" font-family="Times,serif" font-size="14.00" fill="#000000">gini = 0.444</text>
<text text-anchor="middle" x="1299.7686" y="-306.8" font-family="Times,serif" font-size="14.00" fill="#000000">samples = 3</text>
<text text-anchor="middle" x="1299.7686" y="-292.8" font-family="Times,serif" font-size="14.00" fill="#000000">value = [2, 1]</text>
</g>
<!-- 38&#45;&gt;39 -->
<g id="edge39" class="edge">
<title>38&#45;&gt;39</title>
<path fill="none" stroke="#000000" d="M1299.7686,-385.8089C1299.7686,-377.6906 1299.7686,-368.8517 1299.7686,-360.3186"/>
<polygon fill="#000000" stroke="#000000" points="1303.2687,-360.1307 1299.7686,-350.1308 1296.2687,-360.1308 1303.2687,-360.1307"/>
</g>
<!-- 42 -->
<g id="node43" class="node">
<title>42</title>
<polygon fill="none" stroke="#000000" points="1475.3067,-343 1370.2304,-343 1370.2304,-293 1475.3067,-293 1475.3067,-343"/>
<text text-anchor="middle" x="1422.7686" y="-327.8" font-family="Times,serif" font-size="14.00" fill="#000000">gini = 0.0</text>
<text text-anchor="middle" x="1422.7686" y="-313.8" font-family="Times,serif" font-size="14.00" fill="#000000">samples = 141</text>
<text text-anchor="middle" x="1422.7686" y="-299.8" font-family="Times,serif" font-size="14.00" fill="#000000">value = [141, 0]</text>
</g>
<!-- 38&#45;&gt;42 -->
<g id="edge42" class="edge">
<title>38&#45;&gt;42</title>
<path fill="none" stroke="#000000" d="M1339.3636,-385.8089C1353.5705,-374.2586 1369.5714,-361.2497 1383.7307,-349.7381"/>
<polygon fill="#000000" stroke="#000000" points="1386.2759,-352.1796 1391.8272,-343.1555 1381.8601,-346.7481 1386.2759,-352.1796"/>
</g>
<!-- 40 -->
<g id="node41" class="node">
<title>40</title>
<polygon fill="none" stroke="#000000" points="1341.3068,-243 1250.2303,-243 1250.2303,-193 1341.3068,-193 1341.3068,-243"/>
<text text-anchor="middle" x="1295.7686" y="-227.8" font-family="Times,serif" font-size="14.00" fill="#000000">gini = 0.0</text>
<text text-anchor="middle" x="1295.7686" y="-213.8" font-family="Times,serif" font-size="14.00" fill="#000000">samples = 1</text>
<text text-anchor="middle" x="1295.7686" y="-199.8" font-family="Times,serif" font-size="14.00" fill="#000000">value = [0, 1]</text>
</g>
<!-- 39&#45;&gt;40 -->
<g id="edge40" class="edge">
<title>39&#45;&gt;40</title>
<path fill="none" stroke="#000000" d="M1298.4809,-285.8089C1298.0664,-275.446 1297.6049,-263.909 1297.1819,-253.3327"/>
<polygon fill="#000000" stroke="#000000" points="1300.6718,-253.0076 1296.7748,-243.1555 1293.6773,-253.2875 1300.6718,-253.0076"/>
</g>
<!-- 41 -->
<g id="node42" class="node">
<title>41</title>
<polygon fill="none" stroke="#000000" points="1451.3068,-243 1360.2303,-243 1360.2303,-193 1451.3068,-193 1451.3068,-243"/>
<text text-anchor="middle" x="1405.7686" y="-227.8" font-family="Times,serif" font-size="14.00" fill="#000000">gini = 0.0</text>
<text text-anchor="middle" x="1405.7686" y="-213.8" font-family="Times,serif" font-size="14.00" fill="#000000">samples = 2</text>
<text text-anchor="middle" x="1405.7686" y="-199.8" font-family="Times,serif" font-size="14.00" fill="#000000">value = [2, 0]</text>
</g>
<!-- 39&#45;&gt;41 -->
<g id="edge41" class="edge">
<title>39&#45;&gt;41</title>
<path fill="none" stroke="#000000" d="M1333.8911,-285.8089C1346.02,-274.3665 1359.6662,-261.4928 1371.7837,-250.0612"/>
<polygon fill="#000000" stroke="#000000" points="1374.2315,-252.5637 1379.1037,-243.1555 1369.4279,-247.4719 1374.2315,-252.5637"/>
</g>
</g>
</svg>
