<?xml version="1.0" encoding="UTF-8" standalone="no"?>
<!DOCTYPE svg PUBLIC "-//W3C//DTD SVG 1.1//EN"
 "http://www.w3.org/Graphics/SVG/1.1/DTD/svg11.dtd">
<!-- Generated by graphviz version 2.40.1 (20161225.0304)
 -->
<!-- Title: Tree Pages: 1 -->
<svg width="921pt" height="458pt"
 viewBox="0.00 0.00 921.04 458.00" xmlns="http://www.w3.org/2000/svg" xmlns:xlink="http://www.w3.org/1999/xlink">
<g id="graph0" class="graph" transform="scale(1 1) rotate(0) translate(4 454)">
<title>Tree</title>
<polygon fill="#ffffff" stroke="transparent" points="-4,4 -4,-454 917.0371,-454 917.0371,4 -4,4"/>
<!-- 0 -->
<g id="node1" class="node">
<title>0</title>
<polygon fill="none" stroke="#000000" points="519.3066,-450 400.2306,-450 400.2306,-386 519.3066,-386 519.3066,-450"/>
<text text-anchor="middle" x="459.7686" y="-434.8" font-family="Times,serif" font-size="14.00" fill="#000000">X[23] &lt;= 0.143</text>
<text text-anchor="middle" x="459.7686" y="-420.8" font-family="Times,serif" font-size="14.00" fill="#000000">gini = 0.468</text>
<text text-anchor="middle" x="459.7686" y="-406.8" font-family="Times,serif" font-size="14.00" fill="#000000">samples = 483</text>
<text text-anchor="middle" x="459.7686" y="-392.8" font-family="Times,serif" font-size="14.00" fill="#000000">value = [180, 303]</text>
</g>
<!-- 1 -->
<g id="node2" class="node">
<title>1</title>
<polygon fill="none" stroke="#000000" points="405.8066,-350 293.7305,-350 293.7305,-286 405.8066,-286 405.8066,-350"/>
<text text-anchor="middle" x="349.7686" y="-334.8" font-family="Times,serif" font-size="14.00" fill="#000000">X[7] &lt;= 14.833</text>
<text text-anchor="middle" x="349.7686" y="-320.8" font-family="Times,serif" font-size="14.00" fill="#000000">gini = 0.177</text>
<text text-anchor="middle" x="349.7686" y="-306.8" font-family="Times,serif" font-size="14.00" fill="#000000">samples = 327</text>
<text text-anchor="middle" x="349.7686" y="-292.8" font-family="Times,serif" font-size="14.00" fill="#000000">value = [32, 295]</text>
</g>
<!-- 0&#45;&gt;1 -->
<g id="edge1" class="edge">
<title>0&#45;&gt;1</title>
<path fill="none" stroke="#000000" d="M424.3584,-385.8089C414.2506,-376.62 403.1274,-366.508 392.6259,-356.9612"/>
<polygon fill="#000000" stroke="#000000" points="394.8662,-354.2677 385.1124,-350.1308 390.1575,-359.4473 394.8662,-354.2677"/>
<text text-anchor="middle" x="386.3015" y="-370.9025" font-family="Times,serif" font-size="14.00" fill="#000000">True</text>
</g>
<!-- 2 -->
<g id="node13" class="node">
<title>2</title>
<polygon fill="none" stroke="#000000" points="628.3067,-350 523.2304,-350 523.2304,-286 628.3067,-286 628.3067,-350"/>
<text text-anchor="middle" x="575.7686" y="-334.8" font-family="Times,serif" font-size="14.00" fill="#000000">X[7] &lt;= 13.16</text>
<text text-anchor="middle" x="575.7686" y="-320.8" font-family="Times,serif" font-size="14.00" fill="#000000">gini = 0.097</text>
<text text-anchor="middle" x="575.7686" y="-306.8" font-family="Times,serif" font-size="14.00" fill="#000000">samples = 156</text>
<text text-anchor="middle" x="575.7686" y="-292.8" font-family="Times,serif" font-size="14.00" fill="#000000">value = [148, 8]</text>
</g>
<!-- 0&#45;&gt;2 -->
<g id="edge12" class="edge">
<title>0&#45;&gt;2</title>
<path fill="none" stroke="#000000" d="M497.1102,-385.8089C507.8728,-376.5308 519.7271,-366.3116 530.8959,-356.6833"/>
<polygon fill="#000000" stroke="#000000" points="533.2081,-359.3111 538.4969,-350.1308 528.6374,-354.0092 533.2081,-359.3111"/>
<text text-anchor="middle" x="536.6501" y="-370.8625" font-family="Times,serif" font-size="14.00" fill="#000000">False</text>
</g>
<!-- 3 -->
<g id="node3" class="node">
<title>3</title>
<polygon fill="none" stroke="#000000" points="231.793,-250 119.7441,-250 119.7441,-186 231.793,-186 231.793,-250"/>
<text text-anchor="middle" x="175.7686" y="-234.8" font-family="Times,serif" font-size="14.00" fill="#000000">X[23] &lt;= 0.131</text>
<text text-anchor="middle" x="175.7686" y="-220.8" font-family="Times,serif" font-size="14.00" fill="#000000">gini = 0.073</text>
<text text-anchor="middle" x="175.7686" y="-206.8" font-family="Times,serif" font-size="14.00" fill="#000000">samples = 289</text>
<text text-anchor="middle" x="175.7686" y="-192.8" font-family="Times,serif" font-size="14.00" fill="#000000">value = [11, 278]</text>
</g>
<!-- 1&#45;&gt;3 -->
<g id="edge2" class="edge">
<title>1&#45;&gt;3</title>
<path fill="none" stroke="#000000" d="M293.7561,-285.8089C276.836,-276.0848 258.1172,-265.3268 240.6686,-255.2989"/>
<polygon fill="#000000" stroke="#000000" points="242.0902,-252.0791 231.6761,-250.1308 238.6022,-258.1482 242.0902,-252.0791"/>
</g>
<!-- 4 -->
<g id="node8" class="node">
<title>4</title>
<polygon fill="none" stroke="#000000" points="402.3067,-250 297.2304,-250 297.2304,-186 402.3067,-186 402.3067,-250"/>
<text text-anchor="middle" x="349.7686" y="-234.8" font-family="Times,serif" font-size="14.00" fill="#000000">X[30] &lt;= 20.18</text>
<text text-anchor="middle" x="349.7686" y="-220.8" font-family="Times,serif" font-size="14.00" fill="#000000">gini = 0.494</text>
<text text-anchor="middle" x="349.7686" y="-206.8" font-family="Times,serif" font-size="14.00" fill="#000000">samples = 38</text>
<text text-anchor="middle" x="349.7686" y="-192.8" font-family="Times,serif" font-size="14.00" fill="#000000">value = [21, 17]</text>
</g>
<!-- 1&#45;&gt;4 -->
<g id="edge7" class="edge">
<title>1&#45;&gt;4</title>
<path fill="none" stroke="#000000" d="M349.7686,-285.8089C349.7686,-277.6906 349.7686,-268.8517 349.7686,-260.3186"/>
<polygon fill="#000000" stroke="#000000" points="353.2687,-260.1307 349.7686,-250.1308 346.2687,-260.1308 353.2687,-260.1307"/>
</g>
<!-- 7 -->
<g id="node4" class="node">
<title>7</title>
<polygon fill="none" stroke="#000000" points="105.3067,-143 .2304,-143 .2304,-93 105.3067,-93 105.3067,-143"/>
<text text-anchor="middle" x="52.7686" y="-127.8" font-family="Times,serif" font-size="14.00" fill="#000000">gini = 0.043</text>
<text text-anchor="middle" x="52.7686" y="-113.8" font-family="Times,serif" font-size="14.00" fill="#000000">samples = 274</text>
<text text-anchor="middle" x="52.7686" y="-99.8" font-family="Times,serif" font-size="14.00" fill="#000000">value = [6, 268]</text>
</g>
<!-- 3&#45;&gt;7 -->
<g id="edge3" class="edge">
<title>3&#45;&gt;7</title>
<path fill="none" stroke="#000000" d="M136.1735,-185.8089C121.9666,-174.2586 105.9657,-161.2497 91.8064,-149.7381"/>
<polygon fill="#000000" stroke="#000000" points="93.677,-146.7481 83.7099,-143.1555 89.2612,-152.1796 93.677,-146.7481"/>
</g>
<!-- 8 -->
<g id="node5" class="node">
<title>8</title>
<polygon fill="none" stroke="#000000" points="227.4945,-150 124.0426,-150 124.0426,-86 227.4945,-86 227.4945,-150"/>
<text text-anchor="middle" x="175.7686" y="-134.8" font-family="Times,serif" font-size="14.00" fill="#000000">X[29] &lt;= 0.313</text>
<text text-anchor="middle" x="175.7686" y="-120.8" font-family="Times,serif" font-size="14.00" fill="#000000">gini = 0.444</text>
<text text-anchor="middle" x="175.7686" y="-106.8" font-family="Times,serif" font-size="14.00" fill="#000000">samples = 15</text>
<text text-anchor="middle" x="175.7686" y="-92.8" font-family="Times,serif" font-size="14.00" fill="#000000">value = [5, 10]</text>
</g>
<!-- 3&#45;&gt;8 -->
<g id="edge4" class="edge">
<title>3&#45;&gt;8</title>
<path fill="none" stroke="#000000" d="M175.7686,-185.8089C175.7686,-177.6906 175.7686,-168.8517 175.7686,-160.3186"/>
<polygon fill="#000000" stroke="#000000" points="179.2687,-160.1307 175.7686,-150.1308 172.2687,-160.1308 179.2687,-160.1307"/>
</g>
<!-- 15 -->
<g id="node6" class="node">
<title>15</title>
<polygon fill="none" stroke="#000000" points="168.3068,-50 77.2303,-50 77.2303,0 168.3068,0 168.3068,-50"/>
<text text-anchor="middle" x="122.7686" y="-34.8" font-family="Times,serif" font-size="14.00" fill="#000000">gini = 0.5</text>
<text text-anchor="middle" x="122.7686" y="-20.8" font-family="Times,serif" font-size="14.00" fill="#000000">samples = 10</text>
<text text-anchor="middle" x="122.7686" y="-6.8" font-family="Times,serif" font-size="14.00" fill="#000000">value = [5, 5]</text>
</g>
<!-- 8&#45;&gt;15 -->
<g id="edge5" class="edge">
<title>8&#45;&gt;15</title>
<path fill="none" stroke="#000000" d="M157.529,-85.9947C152.5509,-77.2595 147.1407,-67.7662 142.1038,-58.928"/>
<polygon fill="#000000" stroke="#000000" points="145.0161,-56.9692 137.0239,-50.014 138.9344,-60.4352 145.0161,-56.9692"/>
</g>
<!-- 16 -->
<g id="node7" class="node">
<title>16</title>
<polygon fill="none" stroke="#000000" points="278.3068,-50 187.2303,-50 187.2303,0 278.3068,0 278.3068,-50"/>
<text text-anchor="middle" x="232.7686" y="-34.8" font-family="Times,serif" font-size="14.00" fill="#000000">gini = 0.0</text>
<text text-anchor="middle" x="232.7686" y="-20.8" font-family="Times,serif" font-size="14.00" fill="#000000">samples = 5</text>
<text text-anchor="middle" x="232.7686" y="-6.8" font-family="Times,serif" font-size="14.00" fill="#000000">value = [0, 5]</text>
</g>
<!-- 8&#45;&gt;16 -->
<g id="edge6" class="edge">
<title>8&#45;&gt;16</title>
<path fill="none" stroke="#000000" d="M195.3847,-85.9947C200.7949,-77.1676 206.6796,-67.5662 212.1449,-58.6491"/>
<polygon fill="#000000" stroke="#000000" points="215.1958,-60.369 217.4374,-50.014 209.2276,-56.7111 215.1958,-60.369"/>
</g>
<!-- 5 -->
<g id="node9" class="node">
<title>5</title>
<polygon fill="none" stroke="#000000" points="337.3068,-143 246.2303,-143 246.2303,-93 337.3068,-93 337.3068,-143"/>
<text text-anchor="middle" x="291.7686" y="-127.8" font-family="Times,serif" font-size="14.00" fill="#000000">gini = 0.0</text>
<text text-anchor="middle" x="291.7686" y="-113.8" font-family="Times,serif" font-size="14.00" fill="#000000">samples = 9</text>
<text text-anchor="middle" x="291.7686" y="-99.8" font-family="Times,serif" font-size="14.00" fill="#000000">value = [0, 9]</text>
</g>
<!-- 4&#45;&gt;5 -->
<g id="edge8" class="edge">
<title>4&#45;&gt;5</title>
<path fill="none" stroke="#000000" d="M331.0977,-185.8089C324.8368,-175.0142 317.837,-162.9456 311.4977,-152.0158"/>
<polygon fill="#000000" stroke="#000000" points="314.4036,-150.0498 306.3588,-143.1555 308.3484,-153.5619 314.4036,-150.0498"/>
</g>
<!-- 6 -->
<g id="node10" class="node">
<title>6</title>
<polygon fill="none" stroke="#000000" points="459.4945,-150 356.0426,-150 356.0426,-86 459.4945,-86 459.4945,-150"/>
<text text-anchor="middle" x="407.7686" y="-134.8" font-family="Times,serif" font-size="14.00" fill="#000000">X[23] &lt;= 0.105</text>
<text text-anchor="middle" x="407.7686" y="-120.8" font-family="Times,serif" font-size="14.00" fill="#000000">gini = 0.4</text>
<text text-anchor="middle" x="407.7686" y="-106.8" font-family="Times,serif" font-size="14.00" fill="#000000">samples = 29</text>
<text text-anchor="middle" x="407.7686" y="-92.8" font-family="Times,serif" font-size="14.00" fill="#000000">value = [21, 8]</text>
</g>
<!-- 4&#45;&gt;6 -->
<g id="edge9" class="edge">
<title>4&#45;&gt;6</title>
<path fill="none" stroke="#000000" d="M368.4394,-185.8089C373.4067,-177.2445 378.8392,-167.8782 384.0379,-158.915"/>
<polygon fill="#000000" stroke="#000000" points="387.1431,-160.5371 389.1327,-150.1308 381.0879,-157.0251 387.1431,-160.5371"/>
</g>
<!-- 9 -->
<g id="node11" class="node">
<title>9</title>
<polygon fill="none" stroke="#000000" points="394.3068,-50 303.2303,-50 303.2303,0 394.3068,0 394.3068,-50"/>
<text text-anchor="middle" x="348.7686" y="-34.8" font-family="Times,serif" font-size="14.00" fill="#000000">gini = 0.5</text>
<text text-anchor="middle" x="348.7686" y="-20.8" font-family="Times,serif" font-size="14.00" fill="#000000">samples = 14</text>
<text text-anchor="middle" x="348.7686" y="-6.8" font-family="Times,serif" font-size="14.00" fill="#000000">value = [7, 7]</text>
</g>
<!-- 6&#45;&gt;9 -->
<g id="edge10" class="edge">
<title>6&#45;&gt;9</title>
<path fill="none" stroke="#000000" d="M387.4641,-85.9947C381.8641,-77.1676 375.7729,-67.5662 370.1158,-58.6491"/>
<polygon fill="#000000" stroke="#000000" points="372.9502,-56.5832 364.6377,-50.014 367.0393,-60.3331 372.9502,-56.5832"/>
</g>
<!-- 10 -->
<g id="node12" class="node">
<title>10</title>
<polygon fill="none" stroke="#000000" points="510.8067,-50 412.7304,-50 412.7304,0 510.8067,0 510.8067,-50"/>
<text text-anchor="middle" x="461.7686" y="-34.8" font-family="Times,serif" font-size="14.00" fill="#000000">gini = 0.124</text>
<text text-anchor="middle" x="461.7686" y="-20.8" font-family="Times,serif" font-size="14.00" fill="#000000">samples = 15</text>
<text text-anchor="middle" x="461.7686" y="-6.8" font-family="Times,serif" font-size="14.00" fill="#000000">value = [14, 1]</text>
</g>
<!-- 6&#45;&gt;10 -->
<g id="edge11" class="edge">
<title>6&#45;&gt;10</title>
<path fill="none" stroke="#000000" d="M426.3523,-85.9947C431.4243,-77.2595 436.9366,-67.7662 442.0684,-58.928"/>
<polygon fill="#000000" stroke="#000000" points="445.2496,-60.4194 447.2443,-50.014 439.1961,-56.9044 445.2496,-60.4194"/>
</g>
<!-- 11 -->
<g id="node14" class="node">
<title>11</title>
<polygon fill="none" stroke="#000000" points="623.9945,-250 527.5426,-250 527.5426,-186 623.9945,-186 623.9945,-250"/>
<text text-anchor="middle" x="575.7686" y="-234.8" font-family="Times,serif" font-size="14.00" fill="#000000">X[2] &lt;= 0.166</text>
<text text-anchor="middle" x="575.7686" y="-220.8" font-family="Times,serif" font-size="14.00" fill="#000000">gini = 0.426</text>
<text text-anchor="middle" x="575.7686" y="-206.8" font-family="Times,serif" font-size="14.00" fill="#000000">samples = 13</text>
<text text-anchor="middle" x="575.7686" y="-192.8" font-family="Times,serif" font-size="14.00" fill="#000000">value = [9, 4]</text>
</g>
<!-- 2&#45;&gt;11 -->
<g id="edge13" class="edge">
<title>2&#45;&gt;11</title>
<path fill="none" stroke="#000000" d="M575.7686,-285.8089C575.7686,-277.6906 575.7686,-268.8517 575.7686,-260.3186"/>
<polygon fill="#000000" stroke="#000000" points="579.2687,-260.1307 575.7686,-250.1308 572.2687,-260.1308 579.2687,-260.1307"/>
</g>
<!-- 12 -->
<g id="node17" class="node">
<title>12</title>
<polygon fill="none" stroke="#000000" points="799.3067,-250 694.2304,-250 694.2304,-186 799.3067,-186 799.3067,-250"/>
<text text-anchor="middle" x="746.7686" y="-234.8" font-family="Times,serif" font-size="14.00" fill="#000000">X[1] &lt;= 827.91</text>
<text text-anchor="middle" x="746.7686" y="-220.8" font-family="Times,serif" font-size="14.00" fill="#000000">gini = 0.054</text>
<text text-anchor="middle" x="746.7686" y="-206.8" font-family="Times,serif" font-size="14.00" fill="#000000">samples = 143</text>
<text text-anchor="middle" x="746.7686" y="-192.8" font-family="Times,serif" font-size="14.00" fill="#000000">value = [139, 4]</text>
</g>
<!-- 2&#45;&gt;12 -->
<g id="edge16" class="edge">
<title>2&#45;&gt;12</title>
<path fill="none" stroke="#000000" d="M628.4695,-287.1807C646.4293,-276.6779 666.6649,-264.8443 685.2545,-253.9731"/>
<polygon fill="#000000" stroke="#000000" points="687.0818,-256.9591 693.9473,-248.8896 683.5481,-250.9165 687.0818,-256.9591"/>
</g>
<!-- 13 -->
<g id="node15" class="node">
<title>13</title>
<polygon fill="none" stroke="#000000" points="569.3068,-143 478.2303,-143 478.2303,-93 569.3068,-93 569.3068,-143"/>
<text text-anchor="middle" x="523.7686" y="-127.8" font-family="Times,serif" font-size="14.00" fill="#000000">gini = 0.49</text>
<text text-anchor="middle" x="523.7686" y="-113.8" font-family="Times,serif" font-size="14.00" fill="#000000">samples = 7</text>
<text text-anchor="middle" x="523.7686" y="-99.8" font-family="Times,serif" font-size="14.00" fill="#000000">value = [3, 4]</text>
</g>
<!-- 11&#45;&gt;13 -->
<g id="edge14" class="edge">
<title>11&#45;&gt;13</title>
<path fill="none" stroke="#000000" d="M559.0292,-185.8089C553.4721,-175.1221 547.2657,-163.1868 541.6274,-152.344"/>
<polygon fill="#000000" stroke="#000000" points="544.5683,-150.413 536.8494,-143.1555 538.3578,-153.6425 544.5683,-150.413"/>
</g>
<!-- 14 -->
<g id="node16" class="node">
<title>14</title>
<polygon fill="none" stroke="#000000" points="679.3068,-143 588.2303,-143 588.2303,-93 679.3068,-93 679.3068,-143"/>
<text text-anchor="middle" x="633.7686" y="-127.8" font-family="Times,serif" font-size="14.00" fill="#000000">gini = 0.0</text>
<text text-anchor="middle" x="633.7686" y="-113.8" font-family="Times,serif" font-size="14.00" fill="#000000">samples = 6</text>
<text text-anchor="middle" x="633.7686" y="-99.8" font-family="Times,serif" font-size="14.00" fill="#000000">value = [6, 0]</text>
</g>
<!-- 11&#45;&gt;14 -->
<g id="edge15" class="edge">
<title>11&#45;&gt;14</title>
<path fill="none" stroke="#000000" d="M594.4394,-185.8089C600.7003,-175.0142 607.7001,-162.9456 614.0394,-152.0158"/>
<polygon fill="#000000" stroke="#000000" points="617.1887,-153.5619 619.1783,-143.1555 611.1335,-150.0498 617.1887,-153.5619"/>
</g>
<!-- 17 -->
<g id="node18" class="node">
<title>17</title>
<polygon fill="none" stroke="#000000" points="795.8067,-143 697.7304,-143 697.7304,-93 795.8067,-93 795.8067,-143"/>
<text text-anchor="middle" x="746.7686" y="-127.8" font-family="Times,serif" font-size="14.00" fill="#000000">gini = 0.147</text>
<text text-anchor="middle" x="746.7686" y="-113.8" font-family="Times,serif" font-size="14.00" fill="#000000">samples = 50</text>
<text text-anchor="middle" x="746.7686" y="-99.8" font-family="Times,serif" font-size="14.00" fill="#000000">value = [46, 4]</text>
</g>
<!-- 12&#45;&gt;17 -->
<g id="edge17" class="edge">
<title>12&#45;&gt;17</title>
<path fill="none" stroke="#000000" d="M746.7686,-185.8089C746.7686,-175.446 746.7686,-163.909 746.7686,-153.3327"/>
<polygon fill="#000000" stroke="#000000" points="750.2687,-153.1555 746.7686,-143.1555 743.2687,-153.1556 750.2687,-153.1555"/>
</g>
<!-- 18 -->
<g id="node19" class="node">
<title>18</title>
<polygon fill="none" stroke="#000000" points="912.8067,-143 814.7304,-143 814.7304,-93 912.8067,-93 912.8067,-143"/>
<text text-anchor="middle" x="863.7686" y="-127.8" font-family="Times,serif" font-size="14.00" fill="#000000">gini = 0.0</text>
<text text-anchor="middle" x="863.7686" y="-113.8" font-family="Times,serif" font-size="14.00" fill="#000000">samples = 93</text>
<text text-anchor="middle" x="863.7686" y="-99.8" font-family="Times,serif" font-size="14.00" fill="#000000">value = [93, 0]</text>
</g>
<!-- 12&#45;&gt;18 -->
<g id="edge18" class="edge">
<title>12&#45;&gt;18</title>
<path fill="none" stroke="#000000" d="M784.4321,-185.8089C797.946,-174.2586 813.1664,-161.2497 826.635,-149.7381"/>
<polygon fill="#000000" stroke="#000000" points="829.0088,-152.3134 834.3366,-143.1555 824.4608,-146.9922 829.0088,-152.3134"/>
</g>
</g>
</svg>
