<?xml version="1.0" encoding="UTF-8" standalone="no"?>
<!DOCTYPE svg PUBLIC "-//W3C//DTD SVG 1.1//EN"
 "http://www.w3.org/Graphics/SVG/1.1/DTD/svg11.dtd">
<!-- Generated by graphviz version 2.40.1 (20161225.0304)
 -->
<!-- Title: Tree Pages: 1 -->
<svg width="339pt" height="358pt"
 viewBox="0.00 0.00 339.04 358.00" xmlns="http://www.w3.org/2000/svg" xmlns:xlink="http://www.w3.org/1999/xlink">
<g id="graph0" class="graph" transform="scale(1 1) rotate(0) translate(4 354)">
<title>Tree</title>
<polygon fill="#ffffff" stroke="transparent" points="-4,4 -4,-354 335.0371,-354 335.0371,4 -4,4"/>
<!-- 0 -->
<g id="node1" class="node">
<title>0</title>
<polygon fill="none" stroke="#000000" points="272.3067,-350 167.2304,-350 167.2304,-286 272.3067,-286 272.3067,-350"/>
<text text-anchor="middle" x="219.7686" y="-334.8" font-family="Times,serif" font-size="14.00" fill="#000000">X[3] &lt;= 0.072</text>
<text text-anchor="middle" x="219.7686" y="-320.8" font-family="Times,serif" font-size="14.00" fill="#000000">gini = 0.5</text>
<text text-anchor="middle" x="219.7686" y="-306.8" font-family="Times,serif" font-size="14.00" fill="#000000">samples = 28</text>
<text text-anchor="middle" x="219.7686" y="-292.8" font-family="Times,serif" font-size="14.00" fill="#000000">value = [14, 14]</text>
</g>
<!-- 1 -->
<g id="node2" class="node">
<title>1</title>
<polygon fill="none" stroke="#000000" points="213.9945,-250 103.5426,-250 103.5426,-186 213.9945,-186 213.9945,-250"/>
<text text-anchor="middle" x="158.7686" y="-234.8" font-family="Times,serif" font-size="14.00" fill="#000000">X[10] &lt;= 18.155</text>
<text text-anchor="middle" x="158.7686" y="-220.8" font-family="Times,serif" font-size="14.00" fill="#000000">gini = 0.346</text>
<text text-anchor="middle" x="158.7686" y="-206.8" font-family="Times,serif" font-size="14.00" fill="#000000">samples = 18</text>
<text text-anchor="middle" x="158.7686" y="-192.8" font-family="Times,serif" font-size="14.00" fill="#000000">value = [4, 14]</text>
</g>
<!-- 0&#45;&gt;1 -->
<g id="edge1" class="edge">
<title>0&#45;&gt;1</title>
<path fill="none" stroke="#000000" d="M200.132,-285.8089C194.9077,-277.2445 189.1943,-267.8782 183.7267,-258.915"/>
<polygon fill="#000000" stroke="#000000" points="186.5639,-256.8451 178.3683,-250.1308 180.588,-260.4905 186.5639,-256.8451"/>
<text text-anchor="middle" x="172.4826" y="-270.2281" font-family="Times,serif" font-size="14.00" fill="#000000">True</text>
</g>
<!-- 2 -->
<g id="node7" class="node">
<title>2</title>
<polygon fill="none" stroke="#000000" points="330.8067,-243 232.7304,-243 232.7304,-193 330.8067,-193 330.8067,-243"/>
<text text-anchor="middle" x="281.7686" y="-227.8" font-family="Times,serif" font-size="14.00" fill="#000000">gini = 0.0</text>
<text text-anchor="middle" x="281.7686" y="-213.8" font-family="Times,serif" font-size="14.00" fill="#000000">samples = 10</text>
<text text-anchor="middle" x="281.7686" y="-199.8" font-family="Times,serif" font-size="14.00" fill="#000000">value = [10, 0]</text>
</g>
<!-- 0&#45;&gt;2 -->
<g id="edge6" class="edge">
<title>0&#45;&gt;2</title>
<path fill="none" stroke="#000000" d="M239.727,-285.8089C246.4867,-274.9063 254.052,-262.7041 260.8819,-251.6882"/>
<polygon fill="#000000" stroke="#000000" points="263.8773,-253.4989 266.1721,-243.1555 257.928,-249.8103 263.8773,-253.4989"/>
<text text-anchor="middle" x="271.8814" y="-263.2949" font-family="Times,serif" font-size="14.00" fill="#000000">False</text>
</g>
<!-- 3 -->
<g id="node3" class="node">
<title>3</title>
<polygon fill="none" stroke="#000000" points="152.4945,-150 49.0426,-150 49.0426,-86 152.4945,-86 152.4945,-150"/>
<text text-anchor="middle" x="100.7686" y="-134.8" font-family="Times,serif" font-size="14.00" fill="#000000">X[13] &lt;= 0.012</text>
<text text-anchor="middle" x="100.7686" y="-120.8" font-family="Times,serif" font-size="14.00" fill="#000000">gini = 0.165</text>
<text text-anchor="middle" x="100.7686" y="-106.8" font-family="Times,serif" font-size="14.00" fill="#000000">samples = 11</text>
<text text-anchor="middle" x="100.7686" y="-92.8" font-family="Times,serif" font-size="14.00" fill="#000000">value = [1, 10]</text>
</g>
<!-- 1&#45;&gt;3 -->
<g id="edge2" class="edge">
<title>1&#45;&gt;3</title>
<path fill="none" stroke="#000000" d="M140.0977,-185.8089C135.1304,-177.2445 129.6979,-167.8782 124.4993,-158.915"/>
<polygon fill="#000000" stroke="#000000" points="127.4492,-157.0251 119.4044,-150.1308 121.394,-160.5371 127.4492,-157.0251"/>
</g>
<!-- 4 -->
<g id="node6" class="node">
<title>4</title>
<polygon fill="none" stroke="#000000" points="262.3068,-143 171.2303,-143 171.2303,-93 262.3068,-93 262.3068,-143"/>
<text text-anchor="middle" x="216.7686" y="-127.8" font-family="Times,serif" font-size="14.00" fill="#000000">gini = 0.49</text>
<text text-anchor="middle" x="216.7686" y="-113.8" font-family="Times,serif" font-size="14.00" fill="#000000">samples = 7</text>
<text text-anchor="middle" x="216.7686" y="-99.8" font-family="Times,serif" font-size="14.00" fill="#000000">value = [3, 4]</text>
</g>
<!-- 1&#45;&gt;4 -->
<g id="edge5" class="edge">
<title>1&#45;&gt;4</title>
<path fill="none" stroke="#000000" d="M177.4394,-185.8089C183.7003,-175.0142 190.7001,-162.9456 197.0394,-152.0158"/>
<polygon fill="#000000" stroke="#000000" points="200.1887,-153.5619 202.1783,-143.1555 194.1335,-150.0498 200.1887,-153.5619"/>
</g>
<!-- 5 -->
<g id="node4" class="node">
<title>5</title>
<polygon fill="none" stroke="#000000" points="91.3068,-50 .2303,-50 .2303,0 91.3068,0 91.3068,-50"/>
<text text-anchor="middle" x="45.7686" y="-34.8" font-family="Times,serif" font-size="14.00" fill="#000000">gini = 0.0</text>
<text text-anchor="middle" x="45.7686" y="-20.8" font-family="Times,serif" font-size="14.00" fill="#000000">samples = 6</text>
<text text-anchor="middle" x="45.7686" y="-6.8" font-family="Times,serif" font-size="14.00" fill="#000000">value = [0, 6]</text>
</g>
<!-- 3&#45;&gt;5 -->
<g id="edge3" class="edge">
<title>3&#45;&gt;5</title>
<path fill="none" stroke="#000000" d="M81.8407,-85.9947C76.6204,-77.1676 70.9421,-67.5662 65.6686,-58.6491"/>
<polygon fill="#000000" stroke="#000000" points="68.6649,-56.8398 60.5618,-50.014 62.6397,-60.4031 68.6649,-56.8398"/>
</g>
<!-- 6 -->
<g id="node5" class="node">
<title>6</title>
<polygon fill="none" stroke="#000000" points="201.3068,-50 110.2303,-50 110.2303,0 201.3068,0 201.3068,-50"/>
<text text-anchor="middle" x="155.7686" y="-34.8" font-family="Times,serif" font-size="14.00" fill="#000000">gini = 0.32</text>
<text text-anchor="middle" x="155.7686" y="-20.8" font-family="Times,serif" font-size="14.00" fill="#000000">samples = 5</text>
<text text-anchor="middle" x="155.7686" y="-6.8" font-family="Times,serif" font-size="14.00" fill="#000000">value = [1, 4]</text>
</g>
<!-- 3&#45;&gt;6 -->
<g id="edge4" class="edge">
<title>3&#45;&gt;6</title>
<path fill="none" stroke="#000000" d="M119.6964,-85.9947C124.9168,-77.1676 130.595,-67.5662 135.8686,-58.6491"/>
<polygon fill="#000000" stroke="#000000" points="138.8975,-60.4031 140.9753,-50.014 132.8722,-56.8398 138.8975,-60.4031"/>
</g>
</g>
</svg>
