<?xml version="1.0" encoding="UTF-8" standalone="no"?>
<!DOCTYPE svg PUBLIC "-//W3C//DTD SVG 1.1//EN"
 "http://www.w3.org/Graphics/SVG/1.1/DTD/svg11.dtd">
<!-- Generated by graphviz version 2.40.1 (20161225.0304)
 -->
<!-- Title: Tree Pages: 1 -->
<svg width="449pt" height="258pt"
 viewBox="0.00 0.00 448.54 258.00" xmlns="http://www.w3.org/2000/svg" xmlns:xlink="http://www.w3.org/1999/xlink">
<g id="graph0" class="graph" transform="scale(1 1) rotate(0) translate(4 254)">
<title>Tree</title>
<polygon fill="#ffffff" stroke="transparent" points="-4,4 -4,-254 444.5371,-254 444.5371,4 -4,4"/>
<!-- 0 -->
<g id="node1" class="node">
<title>0</title>
<polygon fill="none" stroke="#000000" points="272.8067,-250 167.7304,-250 167.7304,-186 272.8067,-186 272.8067,-250"/>
<text text-anchor="middle" x="220.2686" y="-234.8" font-family="Times,serif" font-size="14.00" fill="#000000">X[3] &lt;= 0.064</text>
<text text-anchor="middle" x="220.2686" y="-220.8" font-family="Times,serif" font-size="14.00" fill="#000000">gini = 0.5</text>
<text text-anchor="middle" x="220.2686" y="-206.8" font-family="Times,serif" font-size="14.00" fill="#000000">samples = 28</text>
<text text-anchor="middle" x="220.2686" y="-192.8" font-family="Times,serif" font-size="14.00" fill="#000000">value = [14, 14]</text>
</g>
<!-- 1 -->
<g id="node2" class="node">
<title>1</title>
<polygon fill="none" stroke="#000000" points="210.9945,-150 107.5426,-150 107.5426,-86 210.9945,-86 210.9945,-150"/>
<text text-anchor="middle" x="159.2686" y="-134.8" font-family="Times,serif" font-size="14.00" fill="#000000">X[17] &lt;= 0.566</text>
<text text-anchor="middle" x="159.2686" y="-120.8" font-family="Times,serif" font-size="14.00" fill="#000000">gini = 0.231</text>
<text text-anchor="middle" x="159.2686" y="-106.8" font-family="Times,serif" font-size="14.00" fill="#000000">samples = 15</text>
<text text-anchor="middle" x="159.2686" y="-92.8" font-family="Times,serif" font-size="14.00" fill="#000000">value = [2, 13]</text>
</g>
<!-- 0&#45;&gt;1 -->
<g id="edge1" class="edge">
<title>0&#45;&gt;1</title>
<path fill="none" stroke="#000000" d="M200.632,-185.8089C195.4077,-177.2445 189.6943,-167.8782 184.2267,-158.915"/>
<polygon fill="#000000" stroke="#000000" points="187.0639,-156.8451 178.8683,-150.1308 181.088,-160.4905 187.0639,-156.8451"/>
<text text-anchor="middle" x="172.9826" y="-170.2281" font-family="Times,serif" font-size="14.00" fill="#000000">True</text>
</g>
<!-- 4 -->
<g id="node5" class="node">
<title>4</title>
<polygon fill="none" stroke="#000000" points="332.9945,-150 229.5426,-150 229.5426,-86 332.9945,-86 332.9945,-150"/>
<text text-anchor="middle" x="281.2686" y="-134.8" font-family="Times,serif" font-size="14.00" fill="#000000">X[21] &lt;= 656.3</text>
<text text-anchor="middle" x="281.2686" y="-120.8" font-family="Times,serif" font-size="14.00" fill="#000000">gini = 0.142</text>
<text text-anchor="middle" x="281.2686" y="-106.8" font-family="Times,serif" font-size="14.00" fill="#000000">samples = 13</text>
<text text-anchor="middle" x="281.2686" y="-92.8" font-family="Times,serif" font-size="14.00" fill="#000000">value = [12, 1]</text>
</g>
<!-- 0&#45;&gt;4 -->
<g id="edge4" class="edge">
<title>0&#45;&gt;4</title>
<path fill="none" stroke="#000000" d="M239.9051,-185.8089C245.1294,-177.2445 250.8428,-167.8782 256.3104,-158.915"/>
<polygon fill="#000000" stroke="#000000" points="259.4491,-160.4905 261.6688,-150.1308 253.4732,-156.8451 259.4491,-160.4905"/>
<text text-anchor="middle" x="267.5545" y="-170.2281" font-family="Times,serif" font-size="14.00" fill="#000000">False</text>
</g>
<!-- 2 -->
<g id="node3" class="node">
<title>2</title>
<polygon fill="none" stroke="#000000" points="98.3067,-50 .2304,-50 .2304,0 98.3067,0 98.3067,-50"/>
<text text-anchor="middle" x="49.2686" y="-34.8" font-family="Times,serif" font-size="14.00" fill="#000000">gini = 0.0</text>
<text text-anchor="middle" x="49.2686" y="-20.8" font-family="Times,serif" font-size="14.00" fill="#000000">samples = 13</text>
<text text-anchor="middle" x="49.2686" y="-6.8" font-family="Times,serif" font-size="14.00" fill="#000000">value = [0, 13]</text>
</g>
<!-- 1&#45;&gt;2 -->
<g id="edge2" class="edge">
<title>1&#45;&gt;2</title>
<path fill="none" stroke="#000000" d="M121.4128,-85.9947C110.2109,-76.524 97.9547,-66.1619 86.7749,-56.7099"/>
<polygon fill="#000000" stroke="#000000" points="88.7513,-53.7976 78.855,-50.014 84.2318,-59.1432 88.7513,-53.7976"/>
</g>
<!-- 3 -->
<g id="node4" class="node">
<title>3</title>
<polygon fill="none" stroke="#000000" points="207.8068,-50 116.7303,-50 116.7303,0 207.8068,0 207.8068,-50"/>
<text text-anchor="middle" x="162.2686" y="-34.8" font-family="Times,serif" font-size="14.00" fill="#000000">gini = 0.0</text>
<text text-anchor="middle" x="162.2686" y="-20.8" font-family="Times,serif" font-size="14.00" fill="#000000">samples = 2</text>
<text text-anchor="middle" x="162.2686" y="-6.8" font-family="Times,serif" font-size="14.00" fill="#000000">value = [2, 0]</text>
</g>
<!-- 1&#45;&gt;3 -->
<g id="edge3" class="edge">
<title>1&#45;&gt;3</title>
<path fill="none" stroke="#000000" d="M160.301,-85.9947C160.5709,-77.6273 160.8633,-68.5643 161.138,-60.0478"/>
<polygon fill="#000000" stroke="#000000" points="164.6373,-60.1217 161.4617,-50.014 157.641,-59.896 164.6373,-60.1217"/>
</g>
<!-- 5 -->
<g id="node6" class="node">
<title>5</title>
<polygon fill="none" stroke="#000000" points="323.8068,-50 232.7303,-50 232.7303,0 323.8068,0 323.8068,-50"/>
<text text-anchor="middle" x="278.2686" y="-34.8" font-family="Times,serif" font-size="14.00" fill="#000000">gini = 0.0</text>
<text text-anchor="middle" x="278.2686" y="-20.8" font-family="Times,serif" font-size="14.00" fill="#000000">samples = 1</text>
<text text-anchor="middle" x="278.2686" y="-6.8" font-family="Times,serif" font-size="14.00" fill="#000000">value = [0, 1]</text>
</g>
<!-- 4&#45;&gt;5 -->
<g id="edge5" class="edge">
<title>4&#45;&gt;5</title>
<path fill="none" stroke="#000000" d="M280.2361,-85.9947C279.9662,-77.6273 279.6739,-68.5643 279.3991,-60.0478"/>
<polygon fill="#000000" stroke="#000000" points="282.8961,-59.896 279.0755,-50.014 275.8998,-60.1217 282.8961,-59.896"/>
</g>
<!-- 6 -->
<g id="node7" class="node">
<title>6</title>
<polygon fill="none" stroke="#000000" points="440.3067,-50 342.2304,-50 342.2304,0 440.3067,0 440.3067,-50"/>
<text text-anchor="middle" x="391.2686" y="-34.8" font-family="Times,serif" font-size="14.00" fill="#000000">gini = 0.0</text>
<text text-anchor="middle" x="391.2686" y="-20.8" font-family="Times,serif" font-size="14.00" fill="#000000">samples = 12</text>
<text text-anchor="middle" x="391.2686" y="-6.8" font-family="Times,serif" font-size="14.00" fill="#000000">value = [12, 0]</text>
</g>
<!-- 4&#45;&gt;6 -->
<g id="edge6" class="edge">
<title>4&#45;&gt;6</title>
<path fill="none" stroke="#000000" d="M319.1243,-85.9947C330.3262,-76.524 342.5824,-66.1619 353.7622,-56.7099"/>
<polygon fill="#000000" stroke="#000000" points="356.3053,-59.1432 361.6821,-50.014 351.7858,-53.7976 356.3053,-59.1432"/>
</g>
</g>
</svg>
