<?xml version="1.0" encoding="UTF-8" standalone="no"?>
<!DOCTYPE svg PUBLIC "-//W3C//DTD SVG 1.1//EN"
 "http://www.w3.org/Graphics/SVG/1.1/DTD/svg11.dtd">
<!-- Generated by graphviz version 2.40.1 (20161225.0304)
 -->
<!-- Title: Tree Pages: 1 -->
<svg width="1015pt" height="458pt"
 viewBox="0.00 0.00 1014.54 458.00" xmlns="http://www.w3.org/2000/svg" xmlns:xlink="http://www.w3.org/1999/xlink">
<g id="graph0" class="graph" transform="scale(1 1) rotate(0) translate(4 454)">
<title>Tree</title>
<polygon fill="#ffffff" stroke="transparent" points="-4,4 -4,-454 1010.5371,-454 1010.5371,4 -4,4"/>
<!-- 0 -->
<g id="node1" class="node">
<title>0</title>
<polygon fill="none" stroke="#000000" points="455.8065,-450 329.7306,-450 329.7306,-386 455.8065,-386 455.8065,-450"/>
<text text-anchor="middle" x="392.7686" y="-434.8" font-family="Times,serif" font-size="14.00" fill="#000000">X[1] &lt;= 10.631</text>
<text text-anchor="middle" x="392.7686" y="-420.8" font-family="Times,serif" font-size="14.00" fill="#000000">gini = 0.095</text>
<text text-anchor="middle" x="392.7686" y="-406.8" font-family="Times,serif" font-size="14.00" fill="#000000">samples = 324</text>
<text text-anchor="middle" x="392.7686" y="-392.8" font-family="Times,serif" font-size="14.00" fill="#000000">value = [3, 308, 13]</text>
</g>
<!-- 1 -->
<g id="node2" class="node">
<title>1</title>
<polygon fill="none" stroke="#000000" points="382.3066,-350 263.2306,-350 263.2306,-286 382.3066,-286 382.3066,-350"/>
<text text-anchor="middle" x="322.7686" y="-334.8" font-family="Times,serif" font-size="14.00" fill="#000000">X[0] &lt;= 1936.989</text>
<text text-anchor="middle" x="322.7686" y="-320.8" font-family="Times,serif" font-size="14.00" fill="#000000">gini = 0.03</text>
<text text-anchor="middle" x="322.7686" y="-306.8" font-family="Times,serif" font-size="14.00" fill="#000000">samples = 195</text>
<text text-anchor="middle" x="322.7686" y="-292.8" font-family="Times,serif" font-size="14.00" fill="#000000">value = [2, 192, 1]</text>
</g>
<!-- 0&#45;&gt;1 -->
<g id="edge1" class="edge">
<title>0&#45;&gt;1</title>
<path fill="none" stroke="#000000" d="M370.2348,-385.8089C364.1148,-377.0661 357.4099,-367.4876 351.0173,-358.3553"/>
<polygon fill="#000000" stroke="#000000" points="353.8621,-356.316 345.2601,-350.1308 348.1274,-360.3302 353.8621,-356.316"/>
<text text-anchor="middle" x="340.9155" y="-370.5503" font-family="Times,serif" font-size="14.00" fill="#000000">True</text>
</g>
<!-- 2 -->
<g id="node11" class="node">
<title>2</title>
<polygon fill="none" stroke="#000000" points="541.793,-350 415.7441,-350 415.7441,-286 541.793,-286 541.793,-350"/>
<text text-anchor="middle" x="478.7686" y="-334.8" font-family="Times,serif" font-size="14.00" fill="#000000">X[10] &lt;= 0.323</text>
<text text-anchor="middle" x="478.7686" y="-320.8" font-family="Times,serif" font-size="14.00" fill="#000000">gini = 0.183</text>
<text text-anchor="middle" x="478.7686" y="-306.8" font-family="Times,serif" font-size="14.00" fill="#000000">samples = 129</text>
<text text-anchor="middle" x="478.7686" y="-292.8" font-family="Times,serif" font-size="14.00" fill="#000000">value = [1, 116, 12]</text>
</g>
<!-- 0&#45;&gt;2 -->
<g id="edge10" class="edge">
<title>0&#45;&gt;2</title>
<path fill="none" stroke="#000000" d="M420.4529,-385.8089C428.1252,-376.8877 436.5457,-367.0963 444.5433,-357.7968"/>
<polygon fill="#000000" stroke="#000000" points="447.2693,-359.9948 451.1361,-350.1308 441.962,-355.4305 447.2693,-359.9948"/>
<text text-anchor="middle" x="453.0125" y="-370.8602" font-family="Times,serif" font-size="14.00" fill="#000000">False</text>
</g>
<!-- 11 -->
<g id="node3" class="node">
<title>11</title>
<polygon fill="none" stroke="#000000" points="244.8066,-243 132.7305,-243 132.7305,-193 244.8066,-193 244.8066,-243"/>
<text text-anchor="middle" x="188.7686" y="-227.8" font-family="Times,serif" font-size="14.00" fill="#000000">gini = 0.0</text>
<text text-anchor="middle" x="188.7686" y="-213.8" font-family="Times,serif" font-size="14.00" fill="#000000">samples = 62</text>
<text text-anchor="middle" x="188.7686" y="-199.8" font-family="Times,serif" font-size="14.00" fill="#000000">value = [0, 62, 0]</text>
</g>
<!-- 1&#45;&gt;11 -->
<g id="edge2" class="edge">
<title>1&#45;&gt;11</title>
<path fill="none" stroke="#000000" d="M279.6325,-285.8089C264.0104,-274.1506 246.3972,-261.0064 230.8656,-249.4157"/>
<polygon fill="#000000" stroke="#000000" points="232.5846,-246.3314 222.477,-243.1555 228.398,-251.9414 232.5846,-246.3314"/>
</g>
<!-- 12 -->
<g id="node4" class="node">
<title>12</title>
<polygon fill="none" stroke="#000000" points="382.3066,-250 263.2306,-250 263.2306,-186 382.3066,-186 382.3066,-250"/>
<text text-anchor="middle" x="322.7686" y="-234.8" font-family="Times,serif" font-size="14.00" fill="#000000">X[8] &lt;= 4.816</text>
<text text-anchor="middle" x="322.7686" y="-220.8" font-family="Times,serif" font-size="14.00" fill="#000000">gini = 0.044</text>
<text text-anchor="middle" x="322.7686" y="-206.8" font-family="Times,serif" font-size="14.00" fill="#000000">samples = 133</text>
<text text-anchor="middle" x="322.7686" y="-192.8" font-family="Times,serif" font-size="14.00" fill="#000000">value = [2, 130, 1]</text>
</g>
<!-- 1&#45;&gt;12 -->
<g id="edge3" class="edge">
<title>1&#45;&gt;12</title>
<path fill="none" stroke="#000000" d="M322.7686,-285.8089C322.7686,-277.6906 322.7686,-268.8517 322.7686,-260.3186"/>
<polygon fill="#000000" stroke="#000000" points="326.2687,-260.1307 322.7686,-250.1308 319.2687,-260.1308 326.2687,-260.1307"/>
</g>
<!-- 13 -->
<g id="node5" class="node">
<title>13</title>
<polygon fill="none" stroke="#000000" points="229.3067,-150 124.2304,-150 124.2304,-86 229.3067,-86 229.3067,-150"/>
<text text-anchor="middle" x="176.7686" y="-134.8" font-family="Times,serif" font-size="14.00" fill="#000000">X[9] &lt;= 6.136</text>
<text text-anchor="middle" x="176.7686" y="-120.8" font-family="Times,serif" font-size="14.00" fill="#000000">gini = 0.32</text>
<text text-anchor="middle" x="176.7686" y="-106.8" font-family="Times,serif" font-size="14.00" fill="#000000">samples = 10</text>
<text text-anchor="middle" x="176.7686" y="-92.8" font-family="Times,serif" font-size="14.00" fill="#000000">value = [2, 8, 0]</text>
</g>
<!-- 12&#45;&gt;13 -->
<g id="edge4" class="edge">
<title>12&#45;&gt;13</title>
<path fill="none" stroke="#000000" d="M275.7696,-185.8089C261.8328,-176.2632 246.4416,-165.7213 232.0319,-155.8516"/>
<polygon fill="#000000" stroke="#000000" points="233.9076,-152.8941 223.6795,-150.1308 229.952,-158.6693 233.9076,-152.8941"/>
</g>
<!-- 14 -->
<g id="node8" class="node">
<title>14</title>
<polygon fill="none" stroke="#000000" points="382.3066,-150 263.2306,-150 263.2306,-86 382.3066,-86 382.3066,-150"/>
<text text-anchor="middle" x="322.7686" y="-134.8" font-family="Times,serif" font-size="14.00" fill="#000000">X[8] &lt;= 6.548</text>
<text text-anchor="middle" x="322.7686" y="-120.8" font-family="Times,serif" font-size="14.00" fill="#000000">gini = 0.016</text>
<text text-anchor="middle" x="322.7686" y="-106.8" font-family="Times,serif" font-size="14.00" fill="#000000">samples = 123</text>
<text text-anchor="middle" x="322.7686" y="-92.8" font-family="Times,serif" font-size="14.00" fill="#000000">value = [0, 122, 1]</text>
</g>
<!-- 12&#45;&gt;14 -->
<g id="edge7" class="edge">
<title>12&#45;&gt;14</title>
<path fill="none" stroke="#000000" d="M322.7686,-185.8089C322.7686,-177.6906 322.7686,-168.8517 322.7686,-160.3186"/>
<polygon fill="#000000" stroke="#000000" points="326.2687,-160.1307 322.7686,-150.1308 319.2687,-160.1308 326.2687,-160.1307"/>
</g>
<!-- 17 -->
<g id="node6" class="node">
<title>17</title>
<polygon fill="none" stroke="#000000" points="105.3067,-50 .2304,-50 .2304,0 105.3067,0 105.3067,-50"/>
<text text-anchor="middle" x="52.7686" y="-34.8" font-family="Times,serif" font-size="14.00" fill="#000000">gini = 0.32</text>
<text text-anchor="middle" x="52.7686" y="-20.8" font-family="Times,serif" font-size="14.00" fill="#000000">samples = 5</text>
<text text-anchor="middle" x="52.7686" y="-6.8" font-family="Times,serif" font-size="14.00" fill="#000000">value = [1, 4, 0]</text>
</g>
<!-- 13&#45;&gt;17 -->
<g id="edge5" class="edge">
<title>13&#45;&gt;17</title>
<path fill="none" stroke="#000000" d="M134.0948,-85.9947C121.222,-76.3401 107.1141,-65.7592 94.3157,-56.1604"/>
<polygon fill="#000000" stroke="#000000" points="96.2206,-53.2141 86.1206,-50.014 92.0206,-58.8141 96.2206,-53.2141"/>
</g>
<!-- 18 -->
<g id="node7" class="node">
<title>18</title>
<polygon fill="none" stroke="#000000" points="229.3067,-50 124.2304,-50 124.2304,0 229.3067,0 229.3067,-50"/>
<text text-anchor="middle" x="176.7686" y="-34.8" font-family="Times,serif" font-size="14.00" fill="#000000">gini = 0.32</text>
<text text-anchor="middle" x="176.7686" y="-20.8" font-family="Times,serif" font-size="14.00" fill="#000000">samples = 5</text>
<text text-anchor="middle" x="176.7686" y="-6.8" font-family="Times,serif" font-size="14.00" fill="#000000">value = [1, 4, 0]</text>
</g>
<!-- 13&#45;&gt;18 -->
<g id="edge6" class="edge">
<title>13&#45;&gt;18</title>
<path fill="none" stroke="#000000" d="M176.7686,-85.9947C176.7686,-77.6273 176.7686,-68.5643 176.7686,-60.0478"/>
<polygon fill="#000000" stroke="#000000" points="180.2687,-60.014 176.7686,-50.014 173.2687,-60.0141 180.2687,-60.014"/>
</g>
<!-- 15 -->
<g id="node9" class="node">
<title>15</title>
<polygon fill="none" stroke="#000000" points="366.293,-50 247.2441,-50 247.2441,0 366.293,0 366.293,-50"/>
<text text-anchor="middle" x="306.7686" y="-34.8" font-family="Times,serif" font-size="14.00" fill="#000000">gini = 0.0</text>
<text text-anchor="middle" x="306.7686" y="-20.8" font-family="Times,serif" font-size="14.00" fill="#000000">samples = 112</text>
<text text-anchor="middle" x="306.7686" y="-6.8" font-family="Times,serif" font-size="14.00" fill="#000000">value = [0, 112, 0]</text>
</g>
<!-- 14&#45;&gt;15 -->
<g id="edge8" class="edge">
<title>14&#45;&gt;15</title>
<path fill="none" stroke="#000000" d="M317.2623,-85.9947C315.8227,-77.6273 314.2635,-68.5643 312.7983,-60.0478"/>
<polygon fill="#000000" stroke="#000000" points="316.217,-59.2758 311.072,-50.014 309.3183,-60.4627 316.217,-59.2758"/>
</g>
<!-- 16 -->
<g id="node10" class="node">
<title>16</title>
<polygon fill="none" stroke="#000000" points="496.8066,-50 384.7305,-50 384.7305,0 496.8066,0 496.8066,-50"/>
<text text-anchor="middle" x="440.7686" y="-34.8" font-family="Times,serif" font-size="14.00" fill="#000000">gini = 0.165</text>
<text text-anchor="middle" x="440.7686" y="-20.8" font-family="Times,serif" font-size="14.00" fill="#000000">samples = 11</text>
<text text-anchor="middle" x="440.7686" y="-6.8" font-family="Times,serif" font-size="14.00" fill="#000000">value = [0, 10, 1]</text>
</g>
<!-- 14&#45;&gt;16 -->
<g id="edge9" class="edge">
<title>14&#45;&gt;16</title>
<path fill="none" stroke="#000000" d="M363.3775,-85.9947C375.5107,-76.432 388.797,-65.9606 400.8834,-56.4349"/>
<polygon fill="#000000" stroke="#000000" points="403.3429,-58.9529 409.0303,-50.014 399.0099,-53.4551 403.3429,-58.9529"/>
</g>
<!-- 3 -->
<g id="node12" class="node">
<title>3</title>
<polygon fill="none" stroke="#000000" points="531.3067,-243 426.2304,-243 426.2304,-193 531.3067,-193 531.3067,-243"/>
<text text-anchor="middle" x="478.7686" y="-227.8" font-family="Times,serif" font-size="14.00" fill="#000000">gini = 0.49</text>
<text text-anchor="middle" x="478.7686" y="-213.8" font-family="Times,serif" font-size="14.00" fill="#000000">samples = 7</text>
<text text-anchor="middle" x="478.7686" y="-199.8" font-family="Times,serif" font-size="14.00" fill="#000000">value = [0, 4, 3]</text>
</g>
<!-- 2&#45;&gt;3 -->
<g id="edge11" class="edge">
<title>2&#45;&gt;3</title>
<path fill="none" stroke="#000000" d="M478.7686,-285.8089C478.7686,-275.446 478.7686,-263.909 478.7686,-253.3327"/>
<polygon fill="#000000" stroke="#000000" points="482.2687,-253.1555 478.7686,-243.1555 475.2687,-253.1556 482.2687,-253.1555"/>
</g>
<!-- 4 -->
<g id="node13" class="node">
<title>4</title>
<polygon fill="none" stroke="#000000" points="697.293,-250 578.2441,-250 578.2441,-186 697.293,-186 697.293,-250"/>
<text text-anchor="middle" x="637.7686" y="-234.8" font-family="Times,serif" font-size="14.00" fill="#000000">X[1] &lt;= 12.654</text>
<text text-anchor="middle" x="637.7686" y="-220.8" font-family="Times,serif" font-size="14.00" fill="#000000">gini = 0.152</text>
<text text-anchor="middle" x="637.7686" y="-206.8" font-family="Times,serif" font-size="14.00" fill="#000000">samples = 122</text>
<text text-anchor="middle" x="637.7686" y="-192.8" font-family="Times,serif" font-size="14.00" fill="#000000">value = [1, 112, 9]</text>
</g>
<!-- 2&#45;&gt;4 -->
<g id="edge12" class="edge">
<title>2&#45;&gt;4</title>
<path fill="none" stroke="#000000" d="M529.9524,-285.8089C545.2719,-276.174 562.2052,-265.5241 578.0242,-255.575"/>
<polygon fill="#000000" stroke="#000000" points="580.079,-258.4175 586.6806,-250.1308 576.3523,-252.4919 580.079,-258.4175"/>
</g>
<!-- 5 -->
<g id="node14" class="node">
<title>5</title>
<polygon fill="none" stroke="#000000" points="697.3066,-150 578.2306,-150 578.2306,-86 697.3066,-86 697.3066,-150"/>
<text text-anchor="middle" x="637.7686" y="-134.8" font-family="Times,serif" font-size="14.00" fill="#000000">X[8] &lt;= 6.666</text>
<text text-anchor="middle" x="637.7686" y="-120.8" font-family="Times,serif" font-size="14.00" fill="#000000">gini = 0.123</text>
<text text-anchor="middle" x="637.7686" y="-106.8" font-family="Times,serif" font-size="14.00" fill="#000000">samples = 107</text>
<text text-anchor="middle" x="637.7686" y="-92.8" font-family="Times,serif" font-size="14.00" fill="#000000">value = [1, 100, 6]</text>
</g>
<!-- 4&#45;&gt;5 -->
<g id="edge13" class="edge">
<title>4&#45;&gt;5</title>
<path fill="none" stroke="#000000" d="M637.7686,-185.8089C637.7686,-177.6906 637.7686,-168.8517 637.7686,-160.3186"/>
<polygon fill="#000000" stroke="#000000" points="641.2687,-160.1307 637.7686,-150.1308 634.2687,-160.1308 641.2687,-160.1307"/>
</g>
<!-- 6 -->
<g id="node17" class="node">
<title>6</title>
<polygon fill="none" stroke="#000000" points="885.8066,-150 773.7305,-150 773.7305,-86 885.8066,-86 885.8066,-150"/>
<text text-anchor="middle" x="829.7686" y="-134.8" font-family="Times,serif" font-size="14.00" fill="#000000">X[2] &lt;= 0.042</text>
<text text-anchor="middle" x="829.7686" y="-120.8" font-family="Times,serif" font-size="14.00" fill="#000000">gini = 0.32</text>
<text text-anchor="middle" x="829.7686" y="-106.8" font-family="Times,serif" font-size="14.00" fill="#000000">samples = 15</text>
<text text-anchor="middle" x="829.7686" y="-92.8" font-family="Times,serif" font-size="14.00" fill="#000000">value = [0, 12, 3]</text>
</g>
<!-- 4&#45;&gt;6 -->
<g id="edge16" class="edge">
<title>4&#45;&gt;6</title>
<path fill="none" stroke="#000000" d="M697.4661,-186.9075C718.7532,-175.8205 742.8331,-163.2789 764.5597,-151.9629"/>
<polygon fill="#000000" stroke="#000000" points="766.4596,-154.9197 773.712,-147.1961 763.2261,-148.7113 766.4596,-154.9197"/>
</g>
<!-- 7 -->
<g id="node15" class="node">
<title>7</title>
<polygon fill="none" stroke="#000000" points="627.8066,-50 515.7305,-50 515.7305,0 627.8066,0 627.8066,-50"/>
<text text-anchor="middle" x="571.7686" y="-34.8" font-family="Times,serif" font-size="14.00" fill="#000000">gini = 0.03</text>
<text text-anchor="middle" x="571.7686" y="-20.8" font-family="Times,serif" font-size="14.00" fill="#000000">samples = 65</text>
<text text-anchor="middle" x="571.7686" y="-6.8" font-family="Times,serif" font-size="14.00" fill="#000000">value = [1, 64, 0]</text>
</g>
<!-- 5&#45;&gt;7 -->
<g id="edge14" class="edge">
<title>5&#45;&gt;7</title>
<path fill="none" stroke="#000000" d="M615.0551,-85.9947C608.7255,-77.0756 601.8348,-67.3661 595.451,-58.3706"/>
<polygon fill="#000000" stroke="#000000" points="598.1622,-56.1435 589.5204,-50.014 592.4537,-60.1947 598.1622,-56.1435"/>
</g>
<!-- 8 -->
<g id="node16" class="node">
<title>8</title>
<polygon fill="none" stroke="#000000" points="758.8066,-50 646.7305,-50 646.7305,0 758.8066,0 758.8066,-50"/>
<text text-anchor="middle" x="702.7686" y="-34.8" font-family="Times,serif" font-size="14.00" fill="#000000">gini = 0.245</text>
<text text-anchor="middle" x="702.7686" y="-20.8" font-family="Times,serif" font-size="14.00" fill="#000000">samples = 42</text>
<text text-anchor="middle" x="702.7686" y="-6.8" font-family="Times,serif" font-size="14.00" fill="#000000">value = [0, 36, 6]</text>
</g>
<!-- 5&#45;&gt;8 -->
<g id="edge15" class="edge">
<title>5&#45;&gt;8</title>
<path fill="none" stroke="#000000" d="M660.1379,-85.9947C666.3716,-77.0756 673.1578,-67.3661 679.445,-58.3706"/>
<polygon fill="#000000" stroke="#000000" points="682.4256,-60.2156 685.2856,-50.014 676.6881,-56.2054 682.4256,-60.2156"/>
</g>
<!-- 9 -->
<g id="node18" class="node">
<title>9</title>
<polygon fill="none" stroke="#000000" points="882.3067,-50 777.2304,-50 777.2304,0 882.3067,0 882.3067,-50"/>
<text text-anchor="middle" x="829.7686" y="-34.8" font-family="Times,serif" font-size="14.00" fill="#000000">gini = 0.0</text>
<text text-anchor="middle" x="829.7686" y="-20.8" font-family="Times,serif" font-size="14.00" fill="#000000">samples = 5</text>
<text text-anchor="middle" x="829.7686" y="-6.8" font-family="Times,serif" font-size="14.00" fill="#000000">value = [0, 5, 0]</text>
</g>
<!-- 6&#45;&gt;9 -->
<g id="edge17" class="edge">
<title>6&#45;&gt;9</title>
<path fill="none" stroke="#000000" d="M829.7686,-85.9947C829.7686,-77.6273 829.7686,-68.5643 829.7686,-60.0478"/>
<polygon fill="#000000" stroke="#000000" points="833.2687,-60.014 829.7686,-50.014 826.2687,-60.0141 833.2687,-60.014"/>
</g>
<!-- 10 -->
<g id="node19" class="node">
<title>10</title>
<polygon fill="none" stroke="#000000" points="1006.3067,-50 901.2304,-50 901.2304,0 1006.3067,0 1006.3067,-50"/>
<text text-anchor="middle" x="953.7686" y="-34.8" font-family="Times,serif" font-size="14.00" fill="#000000">gini = 0.42</text>
<text text-anchor="middle" x="953.7686" y="-20.8" font-family="Times,serif" font-size="14.00" fill="#000000">samples = 10</text>
<text text-anchor="middle" x="953.7686" y="-6.8" font-family="Times,serif" font-size="14.00" fill="#000000">value = [0, 7, 3]</text>
</g>
<!-- 6&#45;&gt;10 -->
<g id="edge18" class="edge">
<title>6&#45;&gt;10</title>
<path fill="none" stroke="#000000" d="M872.4423,-85.9947C885.3151,-76.3401 899.423,-65.7592 912.2214,-56.1604"/>
<polygon fill="#000000" stroke="#000000" points="914.5165,-58.8141 920.4165,-50.014 910.3165,-53.2141 914.5165,-58.8141"/>
</g>
</g>
</svg>
