<?xml version="1.0" encoding="UTF-8" standalone="no"?>
<!DOCTYPE svg PUBLIC "-//W3C//DTD SVG 1.1//EN"
 "http://www.w3.org/Graphics/SVG/1.1/DTD/svg11.dtd">
<!-- Generated by graphviz version 2.40.1 (20161225.0304)
 -->
<!-- Title: Tree Pages: 1 -->
<svg width="1212pt" height="458pt"
 viewBox="0.00 0.00 1211.54 458.00" xmlns="http://www.w3.org/2000/svg" xmlns:xlink="http://www.w3.org/1999/xlink">
<g id="graph0" class="graph" transform="scale(1 1) rotate(0) translate(4 454)">
<title>Tree</title>
<polygon fill="#ffffff" stroke="transparent" points="-4,4 -4,-454 1207.5371,-454 1207.5371,4 -4,4"/>
<!-- 0 -->
<g id="node1" class="node">
<title>0</title>
<polygon fill="none" stroke="#000000" points="801.793,-450 605.7441,-450 605.7441,-386 801.793,-386 801.793,-450"/>
<text text-anchor="middle" x="703.7686" y="-434.8" font-family="Times,serif" font-size="14.00" fill="#000000">X[0] &lt;= 12.485</text>
<text text-anchor="middle" x="703.7686" y="-420.8" font-family="Times,serif" font-size="14.00" fill="#000000">gini = 0.7</text>
<text text-anchor="middle" x="703.7686" y="-406.8" font-family="Times,serif" font-size="14.00" fill="#000000">samples = 324</text>
<text text-anchor="middle" x="703.7686" y="-392.8" font-family="Times,serif" font-size="14.00" fill="#000000">value = [3, 13, 114, 120, 61, 13]</text>
</g>
<!-- 1 -->
<g id="node2" class="node">
<title>1</title>
<polygon fill="none" stroke="#000000" points="705.2676,-350 510.2695,-350 510.2695,-286 705.2676,-286 705.2676,-350"/>
<text text-anchor="middle" x="607.7686" y="-334.8" font-family="Times,serif" font-size="14.00" fill="#000000">X[0] &lt;= 9.801</text>
<text text-anchor="middle" x="607.7686" y="-320.8" font-family="Times,serif" font-size="14.00" fill="#000000">gini = 0.69</text>
<text text-anchor="middle" x="607.7686" y="-306.8" font-family="Times,serif" font-size="14.00" fill="#000000">samples = 299</text>
<text text-anchor="middle" x="607.7686" y="-292.8" font-family="Times,serif" font-size="14.00" fill="#000000">value = [3, 12, 112, 111, 51, 10]</text>
</g>
<!-- 0&#45;&gt;1 -->
<g id="edge1" class="edge">
<title>0&#45;&gt;1</title>
<path fill="none" stroke="#000000" d="M672.8651,-385.8089C664.2151,-376.7985 654.7129,-366.9004 645.7058,-357.518"/>
<polygon fill="#000000" stroke="#000000" points="648.0643,-354.9208 638.6141,-350.1308 643.0146,-359.7685 648.0643,-354.9208"/>
<text text-anchor="middle" x="638.104" y="-370.9256" font-family="Times,serif" font-size="14.00" fill="#000000">True</text>
</g>
<!-- 2 -->
<g id="node15" class="node">
<title>2</title>
<polygon fill="none" stroke="#000000" points="877.8064,-350 723.7308,-350 723.7308,-286 877.8064,-286 877.8064,-350"/>
<text text-anchor="middle" x="800.7686" y="-334.8" font-family="Times,serif" font-size="14.00" fill="#000000">X[12] &lt;= 0.849</text>
<text text-anchor="middle" x="800.7686" y="-320.8" font-family="Times,serif" font-size="14.00" fill="#000000">gini = 0.688</text>
<text text-anchor="middle" x="800.7686" y="-306.8" font-family="Times,serif" font-size="14.00" fill="#000000">samples = 25</text>
<text text-anchor="middle" x="800.7686" y="-292.8" font-family="Times,serif" font-size="14.00" fill="#000000">value = [0, 1, 2, 9, 10, 3]</text>
</g>
<!-- 0&#45;&gt;2 -->
<g id="edge14" class="edge">
<title>0&#45;&gt;2</title>
<path fill="none" stroke="#000000" d="M734.9939,-385.8089C743.7341,-376.7985 753.3352,-366.9004 762.4361,-357.518"/>
<polygon fill="#000000" stroke="#000000" points="765.1514,-359.7456 769.6017,-350.1308 760.1268,-354.8718 765.1514,-359.7456"/>
<text text-anchor="middle" x="769.9824" y="-370.9279" font-family="Times,serif" font-size="14.00" fill="#000000">False</text>
</g>
<!-- 3 -->
<g id="node3" class="node">
<title>3</title>
<polygon fill="none" stroke="#000000" points="506.8063,-250 338.7308,-250 338.7308,-186 506.8063,-186 506.8063,-250"/>
<text text-anchor="middle" x="422.7686" y="-234.8" font-family="Times,serif" font-size="14.00" fill="#000000">X[2] &lt;= 0.56</text>
<text text-anchor="middle" x="422.7686" y="-220.8" font-family="Times,serif" font-size="14.00" fill="#000000">gini = 0.611</text>
<text text-anchor="middle" x="422.7686" y="-206.8" font-family="Times,serif" font-size="14.00" fill="#000000">samples = 124</text>
<text text-anchor="middle" x="422.7686" y="-192.8" font-family="Times,serif" font-size="14.00" fill="#000000">value = [1, 6, 66, 38, 12, 1]</text>
</g>
<!-- 1&#45;&gt;3 -->
<g id="edge2" class="edge">
<title>1&#45;&gt;3</title>
<path fill="none" stroke="#000000" d="M548.47,-285.9467C530.1313,-276.0339 509.785,-265.0359 490.8984,-254.8269"/>
<polygon fill="#000000" stroke="#000000" points="492.5101,-251.7195 482.0487,-250.0433 489.1814,-257.8775 492.5101,-251.7195"/>
</g>
<!-- 4 -->
<g id="node8" class="node">
<title>4</title>
<polygon fill="none" stroke="#000000" points="693.8063,-250 525.7308,-250 525.7308,-186 693.8063,-186 693.8063,-250"/>
<text text-anchor="middle" x="609.7686" y="-234.8" font-family="Times,serif" font-size="14.00" fill="#000000">X[0] &lt;= 11.334</text>
<text text-anchor="middle" x="609.7686" y="-220.8" font-family="Times,serif" font-size="14.00" fill="#000000">gini = 0.703</text>
<text text-anchor="middle" x="609.7686" y="-206.8" font-family="Times,serif" font-size="14.00" fill="#000000">samples = 175</text>
<text text-anchor="middle" x="609.7686" y="-192.8" font-family="Times,serif" font-size="14.00" fill="#000000">value = [2, 6, 46, 73, 39, 9]</text>
</g>
<!-- 1&#45;&gt;4 -->
<g id="edge7" class="edge">
<title>1&#45;&gt;4</title>
<path fill="none" stroke="#000000" d="M608.4124,-285.8089C608.5747,-277.6906 608.7515,-268.8517 608.9222,-260.3186"/>
<polygon fill="#000000" stroke="#000000" points="612.4252,-260.1988 609.1259,-250.1308 605.4266,-260.0587 612.4252,-260.1988"/>
</g>
<!-- 11 -->
<g id="node4" class="node">
<title>11</title>
<polygon fill="none" stroke="#000000" points="332.8063,-150 164.7308,-150 164.7308,-86 332.8063,-86 332.8063,-150"/>
<text text-anchor="middle" x="248.7686" y="-134.8" font-family="Times,serif" font-size="14.00" fill="#000000">X[13] &lt;= 0.179</text>
<text text-anchor="middle" x="248.7686" y="-120.8" font-family="Times,serif" font-size="14.00" fill="#000000">gini = 0.628</text>
<text text-anchor="middle" x="248.7686" y="-106.8" font-family="Times,serif" font-size="14.00" fill="#000000">samples = 115</text>
<text text-anchor="middle" x="248.7686" y="-92.8" font-family="Times,serif" font-size="14.00" fill="#000000">value = [1, 6, 58, 37, 12, 1]</text>
</g>
<!-- 3&#45;&gt;11 -->
<g id="edge3" class="edge">
<title>3&#45;&gt;11</title>
<path fill="none" stroke="#000000" d="M366.7561,-185.8089C349.836,-176.0848 331.1172,-165.3268 313.6686,-155.2989"/>
<polygon fill="#000000" stroke="#000000" points="315.0902,-152.0791 304.6761,-150.1308 311.6022,-158.1482 315.0902,-152.0791"/>
</g>
<!-- 12 -->
<g id="node7" class="node">
<title>12</title>
<polygon fill="none" stroke="#000000" points="498.3064,-143 351.2307,-143 351.2307,-93 498.3064,-93 498.3064,-143"/>
<text text-anchor="middle" x="424.7686" y="-127.8" font-family="Times,serif" font-size="14.00" fill="#000000">gini = 0.198</text>
<text text-anchor="middle" x="424.7686" y="-113.8" font-family="Times,serif" font-size="14.00" fill="#000000">samples = 9</text>
<text text-anchor="middle" x="424.7686" y="-99.8" font-family="Times,serif" font-size="14.00" fill="#000000">value = [0, 0, 8, 1, 0, 0]</text>
</g>
<!-- 3&#45;&gt;12 -->
<g id="edge6" class="edge">
<title>3&#45;&gt;12</title>
<path fill="none" stroke="#000000" d="M423.4124,-185.8089C423.6196,-175.446 423.8504,-163.909 424.0619,-153.3327"/>
<polygon fill="#000000" stroke="#000000" points="427.5647,-153.2236 424.2654,-143.1555 420.5661,-153.0835 427.5647,-153.2236"/>
</g>
<!-- 13 -->
<g id="node5" class="node">
<title>13</title>
<polygon fill="none" stroke="#000000" points="147.3064,-50 .2307,-50 .2307,0 147.3064,0 147.3064,-50"/>
<text text-anchor="middle" x="73.7686" y="-34.8" font-family="Times,serif" font-size="14.00" fill="#000000">gini = 0.611</text>
<text text-anchor="middle" x="73.7686" y="-20.8" font-family="Times,serif" font-size="14.00" fill="#000000">samples = 6</text>
<text text-anchor="middle" x="73.7686" y="-6.8" font-family="Times,serif" font-size="14.00" fill="#000000">value = [0, 0, 0, 3, 2, 1]</text>
</g>
<!-- 11&#45;&gt;13 -->
<g id="edge4" class="edge">
<title>11&#45;&gt;13</title>
<path fill="none" stroke="#000000" d="M188.5435,-85.9947C169.5111,-75.8803 148.5658,-64.7494 129.8363,-54.796"/>
<polygon fill="#000000" stroke="#000000" points="131.311,-51.6162 120.838,-50.014 128.026,-57.7975 131.311,-51.6162"/>
</g>
<!-- 14 -->
<g id="node6" class="node">
<title>14</title>
<polygon fill="none" stroke="#000000" points="333.8063,-50 165.7308,-50 165.7308,0 333.8063,0 333.8063,-50"/>
<text text-anchor="middle" x="249.7686" y="-34.8" font-family="Times,serif" font-size="14.00" fill="#000000">gini = 0.608</text>
<text text-anchor="middle" x="249.7686" y="-20.8" font-family="Times,serif" font-size="14.00" fill="#000000">samples = 109</text>
<text text-anchor="middle" x="249.7686" y="-6.8" font-family="Times,serif" font-size="14.00" fill="#000000">value = [1, 6, 58, 34, 10, 0]</text>
</g>
<!-- 11&#45;&gt;14 -->
<g id="edge5" class="edge">
<title>11&#45;&gt;14</title>
<path fill="none" stroke="#000000" d="M249.1127,-85.9947C249.2027,-77.6273 249.3001,-68.5643 249.3917,-60.0478"/>
<polygon fill="#000000" stroke="#000000" points="252.8918,-60.0511 249.4996,-50.014 245.8922,-59.9758 252.8918,-60.0511"/>
</g>
<!-- 5 -->
<g id="node9" class="node">
<title>5</title>
<polygon fill="none" stroke="#000000" points="690.8063,-150 522.7308,-150 522.7308,-86 690.8063,-86 690.8063,-150"/>
<text text-anchor="middle" x="606.7686" y="-134.8" font-family="Times,serif" font-size="14.00" fill="#000000">X[6] &lt;= 2.932</text>
<text text-anchor="middle" x="606.7686" y="-120.8" font-family="Times,serif" font-size="14.00" fill="#000000">gini = 0.685</text>
<text text-anchor="middle" x="606.7686" y="-106.8" font-family="Times,serif" font-size="14.00" fill="#000000">samples = 126</text>
<text text-anchor="middle" x="606.7686" y="-92.8" font-family="Times,serif" font-size="14.00" fill="#000000">value = [2, 5, 41, 52, 24, 2]</text>
</g>
<!-- 4&#45;&gt;5 -->
<g id="edge8" class="edge">
<title>4&#45;&gt;5</title>
<path fill="none" stroke="#000000" d="M608.8028,-185.8089C608.5593,-177.6906 608.2941,-168.8517 608.0381,-160.3186"/>
<polygon fill="#000000" stroke="#000000" points="611.5309,-160.0213 607.7325,-150.1308 604.534,-160.2312 611.5309,-160.0213"/>
</g>
<!-- 6 -->
<g id="node12" class="node">
<title>6</title>
<polygon fill="none" stroke="#000000" points="870.3063,-150 709.2308,-150 709.2308,-86 870.3063,-86 870.3063,-150"/>
<text text-anchor="middle" x="789.7686" y="-134.8" font-family="Times,serif" font-size="14.00" fill="#000000">X[5] &lt;= 36.797</text>
<text text-anchor="middle" x="789.7686" y="-120.8" font-family="Times,serif" font-size="14.00" fill="#000000">gini = 0.691</text>
<text text-anchor="middle" x="789.7686" y="-106.8" font-family="Times,serif" font-size="14.00" fill="#000000">samples = 49</text>
<text text-anchor="middle" x="789.7686" y="-92.8" font-family="Times,serif" font-size="14.00" fill="#000000">value = [0, 1, 5, 21, 15, 7]</text>
</g>
<!-- 4&#45;&gt;6 -->
<g id="edge11" class="edge">
<title>4&#45;&gt;6</title>
<path fill="none" stroke="#000000" d="M667.7125,-185.8089C685.3766,-175.9955 704.9357,-165.1293 723.1271,-155.023"/>
<polygon fill="#000000" stroke="#000000" points="724.8914,-158.0468 731.9332,-150.1308 721.4918,-151.9277 724.8914,-158.0468"/>
</g>
<!-- 7 -->
<g id="node10" class="node">
<title>7</title>
<polygon fill="none" stroke="#000000" points="504.3064,-50 357.2307,-50 357.2307,0 504.3064,0 504.3064,-50"/>
<text text-anchor="middle" x="430.7686" y="-34.8" font-family="Times,serif" font-size="14.00" fill="#000000">gini = 0.278</text>
<text text-anchor="middle" x="430.7686" y="-20.8" font-family="Times,serif" font-size="14.00" fill="#000000">samples = 6</text>
<text text-anchor="middle" x="430.7686" y="-6.8" font-family="Times,serif" font-size="14.00" fill="#000000">value = [0, 0, 5, 1, 0, 0]</text>
</g>
<!-- 5&#45;&gt;7 -->
<g id="edge9" class="edge">
<title>5&#45;&gt;7</title>
<path fill="none" stroke="#000000" d="M546.1993,-85.9947C527.0582,-75.8803 505.9932,-64.7494 487.1567,-54.796"/>
<polygon fill="#000000" stroke="#000000" points="488.5837,-51.5915 478.1069,-50.014 485.3133,-57.7806 488.5837,-51.5915"/>
</g>
<!-- 8 -->
<g id="node11" class="node">
<title>8</title>
<polygon fill="none" stroke="#000000" points="690.8063,-50 522.7308,-50 522.7308,0 690.8063,0 690.8063,-50"/>
<text text-anchor="middle" x="606.7686" y="-34.8" font-family="Times,serif" font-size="14.00" fill="#000000">gini = 0.687</text>
<text text-anchor="middle" x="606.7686" y="-20.8" font-family="Times,serif" font-size="14.00" fill="#000000">samples = 120</text>
<text text-anchor="middle" x="606.7686" y="-6.8" font-family="Times,serif" font-size="14.00" fill="#000000">value = [2, 5, 36, 51, 24, 2]</text>
</g>
<!-- 5&#45;&gt;8 -->
<g id="edge10" class="edge">
<title>5&#45;&gt;8</title>
<path fill="none" stroke="#000000" d="M606.7686,-85.9947C606.7686,-77.6273 606.7686,-68.5643 606.7686,-60.0478"/>
<polygon fill="#000000" stroke="#000000" points="610.2687,-60.014 606.7686,-50.014 603.2687,-60.0141 610.2687,-60.014"/>
</g>
<!-- 9 -->
<g id="node13" class="node">
<title>9</title>
<polygon fill="none" stroke="#000000" points="870.3063,-50 709.2308,-50 709.2308,0 870.3063,0 870.3063,-50"/>
<text text-anchor="middle" x="789.7686" y="-34.8" font-family="Times,serif" font-size="14.00" fill="#000000">gini = 0.646</text>
<text text-anchor="middle" x="789.7686" y="-20.8" font-family="Times,serif" font-size="14.00" fill="#000000">samples = 41</text>
<text text-anchor="middle" x="789.7686" y="-6.8" font-family="Times,serif" font-size="14.00" fill="#000000">value = [0, 1, 4, 20, 13, 3]</text>
</g>
<!-- 6&#45;&gt;9 -->
<g id="edge12" class="edge">
<title>6&#45;&gt;9</title>
<path fill="none" stroke="#000000" d="M789.7686,-85.9947C789.7686,-77.6273 789.7686,-68.5643 789.7686,-60.0478"/>
<polygon fill="#000000" stroke="#000000" points="793.2687,-60.014 789.7686,-50.014 786.2687,-60.0141 793.2687,-60.014"/>
</g>
<!-- 10 -->
<g id="node14" class="node">
<title>10</title>
<polygon fill="none" stroke="#000000" points="1036.3064,-50 889.2307,-50 889.2307,0 1036.3064,0 1036.3064,-50"/>
<text text-anchor="middle" x="962.7686" y="-34.8" font-family="Times,serif" font-size="14.00" fill="#000000">gini = 0.656</text>
<text text-anchor="middle" x="962.7686" y="-20.8" font-family="Times,serif" font-size="14.00" fill="#000000">samples = 8</text>
<text text-anchor="middle" x="962.7686" y="-6.8" font-family="Times,serif" font-size="14.00" fill="#000000">value = [0, 0, 1, 1, 2, 4]</text>
</g>
<!-- 6&#45;&gt;10 -->
<g id="edge13" class="edge">
<title>6&#45;&gt;10</title>
<path fill="none" stroke="#000000" d="M849.3053,-85.9947C868.1202,-75.8803 888.8262,-64.7494 907.3416,-54.796"/>
<polygon fill="#000000" stroke="#000000" points="909.0863,-57.8318 916.2371,-50.014 905.7718,-51.6662 909.0863,-57.8318"/>
</g>
<!-- 15 -->
<g id="node16" class="node">
<title>15</title>
<polygon fill="none" stroke="#000000" points="872.3064,-243 725.2307,-243 725.2307,-193 872.3064,-193 872.3064,-243"/>
<text text-anchor="middle" x="798.7686" y="-227.8" font-family="Times,serif" font-size="14.00" fill="#000000">gini = 0.656</text>
<text text-anchor="middle" x="798.7686" y="-213.8" font-family="Times,serif" font-size="14.00" fill="#000000">samples = 8</text>
<text text-anchor="middle" x="798.7686" y="-199.8" font-family="Times,serif" font-size="14.00" fill="#000000">value = [0, 0, 1, 1, 4, 2]</text>
</g>
<!-- 2&#45;&gt;15 -->
<g id="edge15" class="edge">
<title>2&#45;&gt;15</title>
<path fill="none" stroke="#000000" d="M800.1247,-285.8089C799.9175,-275.446 799.6867,-263.909 799.4752,-253.3327"/>
<polygon fill="#000000" stroke="#000000" points="802.971,-253.0835 799.2717,-243.1555 795.9724,-253.2236 802.971,-253.0835"/>
</g>
<!-- 16 -->
<g id="node17" class="node">
<title>16</title>
<polygon fill="none" stroke="#000000" points="1038.3064,-250 891.2307,-250 891.2307,-186 1038.3064,-186 1038.3064,-250"/>
<text text-anchor="middle" x="964.7686" y="-234.8" font-family="Times,serif" font-size="14.00" fill="#000000">X[8] &lt;= 0.484</text>
<text text-anchor="middle" x="964.7686" y="-220.8" font-family="Times,serif" font-size="14.00" fill="#000000">gini = 0.644</text>
<text text-anchor="middle" x="964.7686" y="-206.8" font-family="Times,serif" font-size="14.00" fill="#000000">samples = 17</text>
<text text-anchor="middle" x="964.7686" y="-192.8" font-family="Times,serif" font-size="14.00" fill="#000000">value = [0, 1, 1, 8, 6, 1]</text>
</g>
<!-- 2&#45;&gt;16 -->
<g id="edge16" class="edge">
<title>2&#45;&gt;16</title>
<path fill="none" stroke="#000000" d="M853.5619,-285.8089C869.3632,-276.174 886.829,-265.5241 903.1455,-255.575"/>
<polygon fill="#000000" stroke="#000000" points="905.3583,-258.3252 912.0741,-250.1308 901.714,-252.3486 905.3583,-258.3252"/>
</g>
<!-- 17 -->
<g id="node18" class="node">
<title>17</title>
<polygon fill="none" stroke="#000000" points="1037.3064,-143 890.2307,-143 890.2307,-93 1037.3064,-93 1037.3064,-143"/>
<text text-anchor="middle" x="963.7686" y="-127.8" font-family="Times,serif" font-size="14.00" fill="#000000">gini = 0.56</text>
<text text-anchor="middle" x="963.7686" y="-113.8" font-family="Times,serif" font-size="14.00" fill="#000000">samples = 5</text>
<text text-anchor="middle" x="963.7686" y="-99.8" font-family="Times,serif" font-size="14.00" fill="#000000">value = [0, 0, 1, 1, 3, 0]</text>
</g>
<!-- 16&#45;&gt;17 -->
<g id="edge17" class="edge">
<title>16&#45;&gt;17</title>
<path fill="none" stroke="#000000" d="M964.4466,-185.8089C964.343,-175.446 964.2276,-163.909 964.1219,-153.3327"/>
<polygon fill="#000000" stroke="#000000" points="967.62,-153.12 964.0201,-143.1555 960.6204,-153.1901 967.62,-153.12"/>
</g>
<!-- 18 -->
<g id="node19" class="node">
<title>18</title>
<polygon fill="none" stroke="#000000" points="1203.3064,-143 1056.2307,-143 1056.2307,-93 1203.3064,-93 1203.3064,-143"/>
<text text-anchor="middle" x="1129.7686" y="-127.8" font-family="Times,serif" font-size="14.00" fill="#000000">gini = 0.583</text>
<text text-anchor="middle" x="1129.7686" y="-113.8" font-family="Times,serif" font-size="14.00" fill="#000000">samples = 12</text>
<text text-anchor="middle" x="1129.7686" y="-99.8" font-family="Times,serif" font-size="14.00" fill="#000000">value = [0, 1, 0, 7, 3, 1]</text>
</g>
<!-- 16&#45;&gt;18 -->
<g id="edge18" class="edge">
<title>16&#45;&gt;18</title>
<path fill="none" stroke="#000000" d="M1017.8838,-185.8089C1037.6544,-173.8268 1060.0147,-160.2751 1079.5203,-148.4535"/>
<polygon fill="#000000" stroke="#000000" points="1081.524,-151.3318 1088.2619,-143.1555 1077.8958,-145.3454 1081.524,-151.3318"/>
</g>
</g>
</svg>
