<?xml version="1.0" encoding="UTF-8" standalone="no"?>
<!DOCTYPE svg PUBLIC "-//W3C//DTD SVG 1.1//EN"
 "http://www.w3.org/Graphics/SVG/1.1/DTD/svg11.dtd">
<!-- Generated by graphviz version 2.40.1 (20161225.0304)
 -->
<!-- Title: Tree Pages: 1 -->
<svg width="325pt" height="358pt"
 viewBox="0.00 0.00 325.04 358.00" xmlns="http://www.w3.org/2000/svg" xmlns:xlink="http://www.w3.org/1999/xlink">
<g id="graph0" class="graph" transform="scale(1 1) rotate(0) translate(4 354)">
<title>Tree</title>
<polygon fill="#ffffff" stroke="transparent" points="-4,4 -4,-354 321.0371,-354 321.0371,4 -4,4"/>
<!-- 0 -->
<g id="node1" class="node">
<title>0</title>
<polygon fill="none" stroke="#000000" points="256.8065,-350 130.7306,-350 130.7306,-286 256.8065,-286 256.8065,-350"/>
<text text-anchor="middle" x="193.7686" y="-334.8" font-family="Times,serif" font-size="14.00" fill="#000000">X[8] &lt;= 7.958</text>
<text text-anchor="middle" x="193.7686" y="-320.8" font-family="Times,serif" font-size="14.00" fill="#000000">gini = 0.1</text>
<text text-anchor="middle" x="193.7686" y="-306.8" font-family="Times,serif" font-size="14.00" fill="#000000">samples = 324</text>
<text text-anchor="middle" x="193.7686" y="-292.8" font-family="Times,serif" font-size="14.00" fill="#000000">value = [1, 307, 16]</text>
</g>
<!-- 1 -->
<g id="node2" class="node">
<title>1</title>
<polygon fill="none" stroke="#000000" points="186.3066,-250 67.2306,-250 67.2306,-186 186.3066,-186 186.3066,-250"/>
<text text-anchor="middle" x="126.7686" y="-234.8" font-family="Times,serif" font-size="14.00" fill="#000000">X[5] &lt;= 9.585</text>
<text text-anchor="middle" x="126.7686" y="-220.8" font-family="Times,serif" font-size="14.00" fill="#000000">gini = 0.006</text>
<text text-anchor="middle" x="126.7686" y="-206.8" font-family="Times,serif" font-size="14.00" fill="#000000">samples = 308</text>
<text text-anchor="middle" x="126.7686" y="-192.8" font-family="Times,serif" font-size="14.00" fill="#000000">value = [1, 307, 0]</text>
</g>
<!-- 0&#45;&gt;1 -->
<g id="edge1" class="edge">
<title>0&#45;&gt;1</title>
<path fill="none" stroke="#000000" d="M172.2005,-285.8089C166.4026,-277.1553 160.0562,-267.683 153.994,-258.635"/>
<polygon fill="#000000" stroke="#000000" points="156.7701,-256.4903 148.2962,-250.1308 150.9547,-260.3866 156.7701,-256.4903"/>
<text text-anchor="middle" x="143.4498" y="-270.4565" font-family="Times,serif" font-size="14.00" fill="#000000">True</text>
</g>
<!-- 2 -->
<g id="node7" class="node">
<title>2</title>
<polygon fill="none" stroke="#000000" points="316.8066,-243 204.7305,-243 204.7305,-193 316.8066,-193 316.8066,-243"/>
<text text-anchor="middle" x="260.7686" y="-227.8" font-family="Times,serif" font-size="14.00" fill="#000000">gini = 0.0</text>
<text text-anchor="middle" x="260.7686" y="-213.8" font-family="Times,serif" font-size="14.00" fill="#000000">samples = 16</text>
<text text-anchor="middle" x="260.7686" y="-199.8" font-family="Times,serif" font-size="14.00" fill="#000000">value = [0, 0, 16]</text>
</g>
<!-- 0&#45;&gt;2 -->
<g id="edge6" class="edge">
<title>0&#45;&gt;2</title>
<path fill="none" stroke="#000000" d="M215.3366,-285.8089C222.6414,-274.9063 230.8168,-262.7041 238.1974,-251.6882"/>
<polygon fill="#000000" stroke="#000000" points="241.2558,-253.4114 243.9143,-243.1555 235.4404,-249.5151 241.2558,-253.4114"/>
<text text-anchor="middle" x="248.7607" y="-263.4813" font-family="Times,serif" font-size="14.00" fill="#000000">False</text>
</g>
<!-- 3 -->
<g id="node3" class="node">
<title>3</title>
<polygon fill="none" stroke="#000000" points="119.3066,-143 .2306,-143 .2306,-93 119.3066,-93 119.3066,-143"/>
<text text-anchor="middle" x="59.7686" y="-127.8" font-family="Times,serif" font-size="14.00" fill="#000000">gini = 0.0</text>
<text text-anchor="middle" x="59.7686" y="-113.8" font-family="Times,serif" font-size="14.00" fill="#000000">samples = 289</text>
<text text-anchor="middle" x="59.7686" y="-99.8" font-family="Times,serif" font-size="14.00" fill="#000000">value = [0, 289, 0]</text>
</g>
<!-- 1&#45;&gt;3 -->
<g id="edge2" class="edge">
<title>1&#45;&gt;3</title>
<path fill="none" stroke="#000000" d="M105.2005,-185.8089C97.8957,-174.9063 89.7203,-162.7041 82.3397,-151.6882"/>
<polygon fill="#000000" stroke="#000000" points="85.0967,-149.5151 76.6228,-143.1555 79.2813,-153.4114 85.0967,-149.5151"/>
</g>
<!-- 4 -->
<g id="node4" class="node">
<title>4</title>
<polygon fill="none" stroke="#000000" points="249.8066,-150 137.7305,-150 137.7305,-86 249.8066,-86 249.8066,-150"/>
<text text-anchor="middle" x="193.7686" y="-134.8" font-family="Times,serif" font-size="14.00" fill="#000000">X[6] &lt;= 7.851</text>
<text text-anchor="middle" x="193.7686" y="-120.8" font-family="Times,serif" font-size="14.00" fill="#000000">gini = 0.1</text>
<text text-anchor="middle" x="193.7686" y="-106.8" font-family="Times,serif" font-size="14.00" fill="#000000">samples = 19</text>
<text text-anchor="middle" x="193.7686" y="-92.8" font-family="Times,serif" font-size="14.00" fill="#000000">value = [1, 18, 0]</text>
</g>
<!-- 1&#45;&gt;4 -->
<g id="edge3" class="edge">
<title>1&#45;&gt;4</title>
<path fill="none" stroke="#000000" d="M148.3366,-185.8089C154.1345,-177.1553 160.4809,-167.683 166.5431,-158.635"/>
<polygon fill="#000000" stroke="#000000" points="169.5824,-160.3866 172.2409,-150.1308 163.767,-156.4903 169.5824,-160.3866"/>
</g>
<!-- 5 -->
<g id="node5" class="node">
<title>5</title>
<polygon fill="none" stroke="#000000" points="182.3067,-50 77.2304,-50 77.2304,0 182.3067,0 182.3067,-50"/>
<text text-anchor="middle" x="129.7686" y="-34.8" font-family="Times,serif" font-size="14.00" fill="#000000">gini = 0.278</text>
<text text-anchor="middle" x="129.7686" y="-20.8" font-family="Times,serif" font-size="14.00" fill="#000000">samples = 6</text>
<text text-anchor="middle" x="129.7686" y="-6.8" font-family="Times,serif" font-size="14.00" fill="#000000">value = [1, 5, 0]</text>
</g>
<!-- 4&#45;&gt;5 -->
<g id="edge4" class="edge">
<title>4&#45;&gt;5</title>
<path fill="none" stroke="#000000" d="M171.7434,-85.9947C165.6056,-77.0756 158.9237,-67.3661 152.7333,-58.3706"/>
<polygon fill="#000000" stroke="#000000" points="155.5348,-56.2677 146.9825,-50.014 149.7684,-60.2361 155.5348,-56.2677"/>
</g>
<!-- 6 -->
<g id="node6" class="node">
<title>6</title>
<polygon fill="none" stroke="#000000" points="312.8066,-50 200.7305,-50 200.7305,0 312.8066,0 312.8066,-50"/>
<text text-anchor="middle" x="256.7686" y="-34.8" font-family="Times,serif" font-size="14.00" fill="#000000">gini = 0.0</text>
<text text-anchor="middle" x="256.7686" y="-20.8" font-family="Times,serif" font-size="14.00" fill="#000000">samples = 13</text>
<text text-anchor="middle" x="256.7686" y="-6.8" font-family="Times,serif" font-size="14.00" fill="#000000">value = [0, 13, 0]</text>
</g>
<!-- 4&#45;&gt;6 -->
<g id="edge5" class="edge">
<title>4&#45;&gt;6</title>
<path fill="none" stroke="#000000" d="M215.4496,-85.9947C221.4915,-77.0756 228.0689,-67.3661 234.1626,-58.3706"/>
<polygon fill="#000000" stroke="#000000" points="237.1128,-60.2562 239.8236,-50.014 231.3173,-56.3303 237.1128,-60.2562"/>
</g>
</g>
</svg>
