<?xml version="1.0" encoding="UTF-8" standalone="no"?>
<!DOCTYPE svg PUBLIC "-//W3C//DTD SVG 1.1//EN"
 "http://www.w3.org/Graphics/SVG/1.1/DTD/svg11.dtd">
<!-- Generated by graphviz version 2.40.1 (20161225.0304)
 -->
<!-- Title: Tree Pages: 1 -->
<svg width="1489pt" height="458pt"
 viewBox="0.00 0.00 1488.54 458.00" xmlns="http://www.w3.org/2000/svg" xmlns:xlink="http://www.w3.org/1999/xlink">
<g id="graph0" class="graph" transform="scale(1 1) rotate(0) translate(4 454)">
<title>Tree</title>
<polygon fill="#ffffff" stroke="transparent" points="-4,4 -4,-454 1484.5371,-454 1484.5371,4 -4,4"/>
<!-- 0 -->
<g id="node1" class="node">
<title>0</title>
<polygon fill="none" stroke="#000000" points="936.3062,-450 733.2309,-450 733.2309,-386 936.3062,-386 936.3062,-450"/>
<text text-anchor="middle" x="834.7686" y="-434.8" font-family="Times,serif" font-size="14.00" fill="#000000">X[1] &lt;= 0.049</text>
<text text-anchor="middle" x="834.7686" y="-420.8" font-family="Times,serif" font-size="14.00" fill="#000000">gini = 0.684</text>
<text text-anchor="middle" x="834.7686" y="-406.8" font-family="Times,serif" font-size="14.00" fill="#000000">samples = 324</text>
<text text-anchor="middle" x="834.7686" y="-392.8" font-family="Times,serif" font-size="14.00" fill="#000000">value = [1, 10, 91, 144, 62, 15, 1]</text>
</g>
<!-- 1 -->
<g id="node2" class="node">
<title>1</title>
<polygon fill="none" stroke="#000000" points="652.293,-350 463.2441,-350 463.2441,-286 652.293,-286 652.293,-350"/>
<text text-anchor="middle" x="557.7686" y="-334.8" font-family="Times,serif" font-size="14.00" fill="#000000">X[3] &lt;= 0.992</text>
<text text-anchor="middle" x="557.7686" y="-320.8" font-family="Times,serif" font-size="14.00" fill="#000000">gini = 0.677</text>
<text text-anchor="middle" x="557.7686" y="-306.8" font-family="Times,serif" font-size="14.00" fill="#000000">samples = 180</text>
<text text-anchor="middle" x="557.7686" y="-292.8" font-family="Times,serif" font-size="14.00" fill="#000000">value = [1, 2, 34, 83, 48, 11, 1]</text>
</g>
<!-- 0&#45;&gt;1 -->
<g id="edge1" class="edge">
<title>0&#45;&gt;1</title>
<path fill="none" stroke="#000000" d="M745.981,-385.9467C717.28,-375.5854 685.295,-364.0384 655.9543,-353.4461"/>
<polygon fill="#000000" stroke="#000000" points="657.1228,-350.1469 646.5285,-350.0433 654.7458,-356.731 657.1228,-350.1469"/>
<text text-anchor="middle" x="657.1532" y="-368.4733" font-family="Times,serif" font-size="14.00" fill="#000000">True</text>
</g>
<!-- 2 -->
<g id="node11" class="node">
<title>2</title>
<polygon fill="none" stroke="#000000" points="1024.8062,-350 842.7309,-350 842.7309,-286 1024.8062,-286 1024.8062,-350"/>
<text text-anchor="middle" x="933.7686" y="-334.8" font-family="Times,serif" font-size="14.00" fill="#000000">X[8] &lt;= 0.689</text>
<text text-anchor="middle" x="933.7686" y="-320.8" font-family="Times,serif" font-size="14.00" fill="#000000">gini = 0.651</text>
<text text-anchor="middle" x="933.7686" y="-306.8" font-family="Times,serif" font-size="14.00" fill="#000000">samples = 144</text>
<text text-anchor="middle" x="933.7686" y="-292.8" font-family="Times,serif" font-size="14.00" fill="#000000">value = [0, 8, 57, 61, 14, 4, 0]</text>
</g>
<!-- 0&#45;&gt;2 -->
<g id="edge10" class="edge">
<title>0&#45;&gt;2</title>
<path fill="none" stroke="#000000" d="M866.6377,-385.8089C875.6464,-376.7092 885.5513,-366.7043 894.9215,-357.2394"/>
<polygon fill="#000000" stroke="#000000" points="897.4109,-359.6997 901.9591,-350.1308 892.4363,-354.7749 897.4109,-359.6997"/>
<text text-anchor="middle" x="902.0847" y="-370.9304" font-family="Times,serif" font-size="14.00" fill="#000000">False</text>
</g>
<!-- 3 -->
<g id="node3" class="node">
<title>3</title>
<polygon fill="none" stroke="#000000" points="355.3063,-250 180.2308,-250 180.2308,-186 355.3063,-186 355.3063,-250"/>
<text text-anchor="middle" x="267.7686" y="-234.8" font-family="Times,serif" font-size="14.00" fill="#000000">X[4] &lt;= 5.537</text>
<text text-anchor="middle" x="267.7686" y="-220.8" font-family="Times,serif" font-size="14.00" fill="#000000">gini = 0.65</text>
<text text-anchor="middle" x="267.7686" y="-206.8" font-family="Times,serif" font-size="14.00" fill="#000000">samples = 73</text>
<text text-anchor="middle" x="267.7686" y="-192.8" font-family="Times,serif" font-size="14.00" fill="#000000">value = [0, 0, 7, 25, 34, 6, 1]</text>
</g>
<!-- 1&#45;&gt;3 -->
<g id="edge2" class="edge">
<title>1&#45;&gt;3</title>
<path fill="none" stroke="#000000" d="M464.8141,-285.9467C433.1346,-275.0228 397.6336,-262.781 365.5842,-251.7295"/>
<polygon fill="#000000" stroke="#000000" points="366.3515,-248.2919 355.7567,-248.3408 364.0695,-254.9095 366.3515,-248.2919"/>
</g>
<!-- 4 -->
<g id="node6" class="node">
<title>4</title>
<polygon fill="none" stroke="#000000" points="648.8062,-250 466.7309,-250 466.7309,-186 648.8062,-186 648.8062,-250"/>
<text text-anchor="middle" x="557.7686" y="-234.8" font-family="Times,serif" font-size="14.00" fill="#000000">X[5] &lt;= 17.998</text>
<text text-anchor="middle" x="557.7686" y="-220.8" font-family="Times,serif" font-size="14.00" fill="#000000">gini = 0.623</text>
<text text-anchor="middle" x="557.7686" y="-206.8" font-family="Times,serif" font-size="14.00" fill="#000000">samples = 107</text>
<text text-anchor="middle" x="557.7686" y="-192.8" font-family="Times,serif" font-size="14.00" fill="#000000">value = [1, 2, 27, 58, 14, 5, 0]</text>
</g>
<!-- 1&#45;&gt;4 -->
<g id="edge5" class="edge">
<title>1&#45;&gt;4</title>
<path fill="none" stroke="#000000" d="M557.7686,-285.8089C557.7686,-277.6906 557.7686,-268.8517 557.7686,-260.3186"/>
<polygon fill="#000000" stroke="#000000" points="561.2687,-260.1307 557.7686,-250.1308 554.2687,-260.1308 561.2687,-260.1307"/>
</g>
<!-- 17 -->
<g id="node4" class="node">
<title>17</title>
<polygon fill="none" stroke="#000000" points="161.3063,-143 .2308,-143 .2308,-93 161.3063,-93 161.3063,-143"/>
<text text-anchor="middle" x="80.7686" y="-127.8" font-family="Times,serif" font-size="14.00" fill="#000000">gini = 0.735</text>
<text text-anchor="middle" x="80.7686" y="-113.8" font-family="Times,serif" font-size="14.00" fill="#000000">samples = 7</text>
<text text-anchor="middle" x="80.7686" y="-99.8" font-family="Times,serif" font-size="14.00" fill="#000000">value = [0, 0, 2, 2, 1, 2, 0]</text>
</g>
<!-- 3&#45;&gt;17 -->
<g id="edge3" class="edge">
<title>3&#45;&gt;17</title>
<path fill="none" stroke="#000000" d="M207.829,-185.9467C185.0129,-173.7457 159.1228,-159.9007 136.6932,-147.9062"/>
<polygon fill="#000000" stroke="#000000" points="138.1053,-144.6924 127.6365,-143.0631 134.8043,-150.8652 138.1053,-144.6924"/>
</g>
<!-- 18 -->
<g id="node5" class="node">
<title>18</title>
<polygon fill="none" stroke="#000000" points="355.3063,-143 180.2308,-143 180.2308,-93 355.3063,-93 355.3063,-143"/>
<text text-anchor="middle" x="267.7686" y="-127.8" font-family="Times,serif" font-size="14.00" fill="#000000">gini = 0.619</text>
<text text-anchor="middle" x="267.7686" y="-113.8" font-family="Times,serif" font-size="14.00" fill="#000000">samples = 66</text>
<text text-anchor="middle" x="267.7686" y="-99.8" font-family="Times,serif" font-size="14.00" fill="#000000">value = [0, 0, 5, 23, 33, 4, 1]</text>
</g>
<!-- 3&#45;&gt;18 -->
<g id="edge4" class="edge">
<title>3&#45;&gt;18</title>
<path fill="none" stroke="#000000" d="M267.7686,-185.8089C267.7686,-175.446 267.7686,-163.909 267.7686,-153.3327"/>
<polygon fill="#000000" stroke="#000000" points="271.2687,-153.1555 267.7686,-143.1555 264.2687,-153.1556 271.2687,-153.1555"/>
</g>
<!-- 9 -->
<g id="node7" class="node">
<title>9</title>
<polygon fill="none" stroke="#000000" points="541.8063,-143 373.7308,-143 373.7308,-93 541.8063,-93 541.8063,-143"/>
<text text-anchor="middle" x="457.7686" y="-127.8" font-family="Times,serif" font-size="14.00" fill="#000000">gini = 0.599</text>
<text text-anchor="middle" x="457.7686" y="-113.8" font-family="Times,serif" font-size="14.00" fill="#000000">samples = 18</text>
<text text-anchor="middle" x="457.7686" y="-99.8" font-family="Times,serif" font-size="14.00" fill="#000000">value = [1, 0, 10, 5, 2, 0, 0]</text>
</g>
<!-- 4&#45;&gt;9 -->
<g id="edge6" class="edge">
<title>4&#45;&gt;9</title>
<path fill="none" stroke="#000000" d="M525.5775,-185.8089C514.243,-174.4745 501.5041,-161.7355 490.1537,-150.3851"/>
<polygon fill="#000000" stroke="#000000" points="492.4701,-147.7518 482.9241,-143.1555 487.5203,-152.7015 492.4701,-147.7518"/>
</g>
<!-- 10 -->
<g id="node8" class="node">
<title>10</title>
<polygon fill="none" stroke="#000000" points="742.8062,-150 560.7309,-150 560.7309,-86 742.8062,-86 742.8062,-150"/>
<text text-anchor="middle" x="651.7686" y="-134.8" font-family="Times,serif" font-size="14.00" fill="#000000">X[4] &lt;= 7.333</text>
<text text-anchor="middle" x="651.7686" y="-120.8" font-family="Times,serif" font-size="14.00" fill="#000000">gini = 0.587</text>
<text text-anchor="middle" x="651.7686" y="-106.8" font-family="Times,serif" font-size="14.00" fill="#000000">samples = 89</text>
<text text-anchor="middle" x="651.7686" y="-92.8" font-family="Times,serif" font-size="14.00" fill="#000000">value = [0, 2, 17, 53, 12, 5, 0]</text>
</g>
<!-- 4&#45;&gt;10 -->
<g id="edge7" class="edge">
<title>4&#45;&gt;10</title>
<path fill="none" stroke="#000000" d="M588.0282,-185.8089C596.498,-176.7985 605.8022,-166.9004 614.6217,-157.518"/>
<polygon fill="#000000" stroke="#000000" points="617.2667,-159.8143 621.5656,-150.1308 612.1663,-155.0199 617.2667,-159.8143"/>
</g>
<!-- 11 -->
<g id="node9" class="node">
<title>11</title>
<polygon fill="none" stroke="#000000" points="552.8062,-50 370.7309,-50 370.7309,0 552.8062,0 552.8062,-50"/>
<text text-anchor="middle" x="461.7686" y="-34.8" font-family="Times,serif" font-size="14.00" fill="#000000">gini = 0.549</text>
<text text-anchor="middle" x="461.7686" y="-20.8" font-family="Times,serif" font-size="14.00" fill="#000000">samples = 72</text>
<text text-anchor="middle" x="461.7686" y="-6.8" font-family="Times,serif" font-size="14.00" fill="#000000">value = [0, 2, 10, 46, 10, 4, 0]</text>
</g>
<!-- 10&#45;&gt;11 -->
<g id="edge8" class="edge">
<title>10&#45;&gt;11</title>
<path fill="none" stroke="#000000" d="M586.3813,-85.9947C565.5297,-75.7884 542.5633,-64.5469 522.0881,-54.5249"/>
<polygon fill="#000000" stroke="#000000" points="523.393,-51.2668 512.8725,-50.014 520.3155,-57.554 523.393,-51.2668"/>
</g>
<!-- 12 -->
<g id="node10" class="node">
<title>12</title>
<polygon fill="none" stroke="#000000" points="732.3063,-50 571.2308,-50 571.2308,0 732.3063,0 732.3063,-50"/>
<text text-anchor="middle" x="651.7686" y="-34.8" font-family="Times,serif" font-size="14.00" fill="#000000">gini = 0.644</text>
<text text-anchor="middle" x="651.7686" y="-20.8" font-family="Times,serif" font-size="14.00" fill="#000000">samples = 17</text>
<text text-anchor="middle" x="651.7686" y="-6.8" font-family="Times,serif" font-size="14.00" fill="#000000">value = [0, 0, 7, 7, 2, 1, 0]</text>
</g>
<!-- 10&#45;&gt;12 -->
<g id="edge9" class="edge">
<title>10&#45;&gt;12</title>
<path fill="none" stroke="#000000" d="M651.7686,-85.9947C651.7686,-77.6273 651.7686,-68.5643 651.7686,-60.0478"/>
<polygon fill="#000000" stroke="#000000" points="655.2687,-60.014 651.7686,-50.014 648.2687,-60.0141 655.2687,-60.014"/>
</g>
<!-- 5 -->
<g id="node12" class="node">
<title>5</title>
<polygon fill="none" stroke="#000000" points="1021.3063,-250 846.2308,-250 846.2308,-186 1021.3063,-186 1021.3063,-250"/>
<text text-anchor="middle" x="933.7686" y="-234.8" font-family="Times,serif" font-size="14.00" fill="#000000">X[0] &lt;= 10.031</text>
<text text-anchor="middle" x="933.7686" y="-220.8" font-family="Times,serif" font-size="14.00" fill="#000000">gini = 0.635</text>
<text text-anchor="middle" x="933.7686" y="-206.8" font-family="Times,serif" font-size="14.00" fill="#000000">samples = 112</text>
<text text-anchor="middle" x="933.7686" y="-192.8" font-family="Times,serif" font-size="14.00" fill="#000000">value = [0, 8, 54, 39, 8, 3, 0]</text>
</g>
<!-- 2&#45;&gt;5 -->
<g id="edge11" class="edge">
<title>2&#45;&gt;5</title>
<path fill="none" stroke="#000000" d="M933.7686,-285.8089C933.7686,-277.6906 933.7686,-268.8517 933.7686,-260.3186"/>
<polygon fill="#000000" stroke="#000000" points="937.2687,-260.1307 933.7686,-250.1308 930.2687,-260.1308 937.2687,-260.1307"/>
</g>
<!-- 6 -->
<g id="node19" class="node">
<title>6</title>
<polygon fill="none" stroke="#000000" points="1207.8063,-243 1039.7308,-243 1039.7308,-193 1207.8063,-193 1207.8063,-243"/>
<text text-anchor="middle" x="1123.7686" y="-227.8" font-family="Times,serif" font-size="14.00" fill="#000000">gini = 0.482</text>
<text text-anchor="middle" x="1123.7686" y="-213.8" font-family="Times,serif" font-size="14.00" fill="#000000">samples = 32</text>
<text text-anchor="middle" x="1123.7686" y="-199.8" font-family="Times,serif" font-size="14.00" fill="#000000">value = [0, 0, 3, 22, 6, 1, 0]</text>
</g>
<!-- 2&#45;&gt;6 -->
<g id="edge18" class="edge">
<title>2&#45;&gt;6</title>
<path fill="none" stroke="#000000" d="M994.6697,-285.9467C1017.9548,-273.6914 1044.3912,-259.7776 1067.2503,-247.7464"/>
<polygon fill="#000000" stroke="#000000" points="1068.9296,-250.8178 1076.1487,-243.0631 1065.6694,-244.6234 1068.9296,-250.8178"/>
</g>
<!-- 7 -->
<g id="node13" class="node">
<title>7</title>
<polygon fill="none" stroke="#000000" points="1021.3063,-150 846.2308,-150 846.2308,-86 1021.3063,-86 1021.3063,-150"/>
<text text-anchor="middle" x="933.7686" y="-134.8" font-family="Times,serif" font-size="14.00" fill="#000000">X[0] &lt;= 8.902</text>
<text text-anchor="middle" x="933.7686" y="-120.8" font-family="Times,serif" font-size="14.00" fill="#000000">gini = 0.576</text>
<text text-anchor="middle" x="933.7686" y="-106.8" font-family="Times,serif" font-size="14.00" fill="#000000">samples = 72</text>
<text text-anchor="middle" x="933.7686" y="-92.8" font-family="Times,serif" font-size="14.00" fill="#000000">value = [0, 7, 43, 17, 2, 3, 0]</text>
</g>
<!-- 5&#45;&gt;7 -->
<g id="edge12" class="edge">
<title>5&#45;&gt;7</title>
<path fill="none" stroke="#000000" d="M933.7686,-185.8089C933.7686,-177.6906 933.7686,-168.8517 933.7686,-160.3186"/>
<polygon fill="#000000" stroke="#000000" points="937.2687,-160.1307 933.7686,-150.1308 930.2687,-160.1308 937.2687,-160.1307"/>
</g>
<!-- 8 -->
<g id="node16" class="node">
<title>8</title>
<polygon fill="none" stroke="#000000" points="1300.293,-150 1125.2441,-150 1125.2441,-86 1300.293,-86 1300.293,-150"/>
<text text-anchor="middle" x="1212.7686" y="-134.8" font-family="Times,serif" font-size="14.00" fill="#000000">X[0] &lt;= 11.34</text>
<text text-anchor="middle" x="1212.7686" y="-120.8" font-family="Times,serif" font-size="14.00" fill="#000000">gini = 0.599</text>
<text text-anchor="middle" x="1212.7686" y="-106.8" font-family="Times,serif" font-size="14.00" fill="#000000">samples = 40</text>
<text text-anchor="middle" x="1212.7686" y="-92.8" font-family="Times,serif" font-size="14.00" fill="#000000">value = [0, 1, 11, 22, 6, 0, 0]</text>
</g>
<!-- 5&#45;&gt;8 -->
<g id="edge15" class="edge">
<title>5&#45;&gt;8</title>
<path fill="none" stroke="#000000" d="M1021.663,-186.4966C1051.3535,-175.8549 1084.6747,-163.9118 1115.0768,-153.015"/>
<polygon fill="#000000" stroke="#000000" points="1116.6041,-156.1856 1124.8368,-149.5168 1114.2422,-149.5961 1116.6041,-156.1856"/>
</g>
<!-- 15 -->
<g id="node14" class="node">
<title>15</title>
<polygon fill="none" stroke="#000000" points="912.3063,-50 751.2308,-50 751.2308,0 912.3063,0 912.3063,-50"/>
<text text-anchor="middle" x="831.7686" y="-34.8" font-family="Times,serif" font-size="14.00" fill="#000000">gini = 0.612</text>
<text text-anchor="middle" x="831.7686" y="-20.8" font-family="Times,serif" font-size="14.00" fill="#000000">samples = 7</text>
<text text-anchor="middle" x="831.7686" y="-6.8" font-family="Times,serif" font-size="14.00" fill="#000000">value = [0, 0, 3, 1, 0, 3, 0]</text>
</g>
<!-- 7&#45;&gt;15 -->
<g id="edge13" class="edge">
<title>7&#45;&gt;15</title>
<path fill="none" stroke="#000000" d="M898.6659,-85.9947C888.3795,-76.6159 877.1345,-66.363 866.8494,-56.9855"/>
<polygon fill="#000000" stroke="#000000" points="868.951,-54.1652 859.2033,-50.014 864.2347,-59.338 868.951,-54.1652"/>
</g>
<!-- 16 -->
<g id="node15" class="node">
<title>16</title>
<polygon fill="none" stroke="#000000" points="1106.3063,-50 931.2308,-50 931.2308,0 1106.3063,0 1106.3063,-50"/>
<text text-anchor="middle" x="1018.7686" y="-34.8" font-family="Times,serif" font-size="14.00" fill="#000000">gini = 0.548</text>
<text text-anchor="middle" x="1018.7686" y="-20.8" font-family="Times,serif" font-size="14.00" fill="#000000">samples = 65</text>
<text text-anchor="middle" x="1018.7686" y="-6.8" font-family="Times,serif" font-size="14.00" fill="#000000">value = [0, 7, 40, 16, 2, 0, 0]</text>
</g>
<!-- 7&#45;&gt;16 -->
<g id="edge14" class="edge">
<title>7&#45;&gt;16</title>
<path fill="none" stroke="#000000" d="M963.0207,-85.9947C971.4247,-76.7998 980.5964,-66.7648 989.0294,-57.5381"/>
<polygon fill="#000000" stroke="#000000" points="991.7433,-59.7567 995.9063,-50.014 986.5763,-55.0342 991.7433,-59.7567"/>
</g>
<!-- 13 -->
<g id="node17" class="node">
<title>13</title>
<polygon fill="none" stroke="#000000" points="1300.3063,-50 1125.2308,-50 1125.2308,0 1300.3063,0 1300.3063,-50"/>
<text text-anchor="middle" x="1212.7686" y="-34.8" font-family="Times,serif" font-size="14.00" fill="#000000">gini = 0.649</text>
<text text-anchor="middle" x="1212.7686" y="-20.8" font-family="Times,serif" font-size="14.00" fill="#000000">samples = 29</text>
<text text-anchor="middle" x="1212.7686" y="-6.8" font-family="Times,serif" font-size="14.00" fill="#000000">value = [0, 1, 10, 13, 5, 0, 0]</text>
</g>
<!-- 8&#45;&gt;13 -->
<g id="edge16" class="edge">
<title>8&#45;&gt;13</title>
<path fill="none" stroke="#000000" d="M1212.7686,-85.9947C1212.7686,-77.6273 1212.7686,-68.5643 1212.7686,-60.0478"/>
<polygon fill="#000000" stroke="#000000" points="1216.2687,-60.014 1212.7686,-50.014 1209.2687,-60.0141 1216.2687,-60.014"/>
</g>
<!-- 14 -->
<g id="node18" class="node">
<title>14</title>
<polygon fill="none" stroke="#000000" points="1480.3063,-50 1319.2308,-50 1319.2308,0 1480.3063,0 1480.3063,-50"/>
<text text-anchor="middle" x="1399.7686" y="-34.8" font-family="Times,serif" font-size="14.00" fill="#000000">gini = 0.314</text>
<text text-anchor="middle" x="1399.7686" y="-20.8" font-family="Times,serif" font-size="14.00" fill="#000000">samples = 11</text>
<text text-anchor="middle" x="1399.7686" y="-6.8" font-family="Times,serif" font-size="14.00" fill="#000000">value = [0, 0, 1, 9, 1, 0, 0]</text>
</g>
<!-- 8&#45;&gt;14 -->
<g id="edge17" class="edge">
<title>8&#45;&gt;14</title>
<path fill="none" stroke="#000000" d="M1277.1233,-85.9947C1297.6457,-75.7884 1320.2495,-64.5469 1340.4014,-54.5249"/>
<polygon fill="#000000" stroke="#000000" points="1342.0762,-57.6009 1349.4715,-50.014 1338.9591,-51.3332 1342.0762,-57.6009"/>
</g>
</g>
</svg>
