<?xml version="1.0" encoding="UTF-8" standalone="no"?>
<!DOCTYPE svg PUBLIC "-//W3C//DTD SVG 1.1//EN"
 "http://www.w3.org/Graphics/SVG/1.1/DTD/svg11.dtd">
<!-- Generated by graphviz version 2.40.1 (20161225.0304)
 -->
<!-- Title: Tree Pages: 1 -->
<svg width="216pt" height="158pt"
 viewBox="0.00 0.00 216.04 158.00" xmlns="http://www.w3.org/2000/svg" xmlns:xlink="http://www.w3.org/1999/xlink">
<g id="graph0" class="graph" transform="scale(1 1) rotate(0) translate(4 154)">
<title>Tree</title>
<polygon fill="#ffffff" stroke="transparent" points="-4,4 -4,-154 212.0371,-154 212.0371,4 -4,4"/>
<!-- 0 -->
<g id="node1" class="node">
<title>0</title>
<polygon fill="none" stroke="#000000" points="160.4945,-150 50.0426,-150 50.0426,-86 160.4945,-86 160.4945,-150"/>
<text text-anchor="middle" x="105.2686" y="-134.8" font-family="Times,serif" font-size="14.00" fill="#000000">X[21] &lt;= 1091.0</text>
<text text-anchor="middle" x="105.2686" y="-120.8" font-family="Times,serif" font-size="14.00" fill="#000000">gini = 0.408</text>
<text text-anchor="middle" x="105.2686" y="-106.8" font-family="Times,serif" font-size="14.00" fill="#000000">samples = 28</text>
<text text-anchor="middle" x="105.2686" y="-92.8" font-family="Times,serif" font-size="14.00" fill="#000000">value = [8, 20]</text>
</g>
<!-- 1 -->
<g id="node2" class="node">
<title>1</title>
<polygon fill="none" stroke="#000000" points="98.3067,-50 .2304,-50 .2304,0 98.3067,0 98.3067,-50"/>
<text text-anchor="middle" x="49.2686" y="-34.8" font-family="Times,serif" font-size="14.00" fill="#000000">gini = 0.0</text>
<text text-anchor="middle" x="49.2686" y="-20.8" font-family="Times,serif" font-size="14.00" fill="#000000">samples = 20</text>
<text text-anchor="middle" x="49.2686" y="-6.8" font-family="Times,serif" font-size="14.00" fill="#000000">value = [0, 20]</text>
</g>
<!-- 0&#45;&gt;1 -->
<g id="edge1" class="edge">
<title>0&#45;&gt;1</title>
<path fill="none" stroke="#000000" d="M85.9965,-85.9947C80.6813,-77.1676 74.8998,-67.5662 69.5304,-58.6491"/>
<polygon fill="#000000" stroke="#000000" points="72.4877,-56.7753 64.3308,-50.014 66.4909,-60.3863 72.4877,-56.7753"/>
<text text-anchor="middle" x="58.3057" y="-70.0771" font-family="Times,serif" font-size="14.00" fill="#000000">True</text>
</g>
<!-- 2 -->
<g id="node3" class="node">
<title>2</title>
<polygon fill="none" stroke="#000000" points="207.8068,-50 116.7303,-50 116.7303,0 207.8068,0 207.8068,-50"/>
<text text-anchor="middle" x="162.2686" y="-34.8" font-family="Times,serif" font-size="14.00" fill="#000000">gini = 0.0</text>
<text text-anchor="middle" x="162.2686" y="-20.8" font-family="Times,serif" font-size="14.00" fill="#000000">samples = 8</text>
<text text-anchor="middle" x="162.2686" y="-6.8" font-family="Times,serif" font-size="14.00" fill="#000000">value = [8, 0]</text>
</g>
<!-- 0&#45;&gt;2 -->
<g id="edge2" class="edge">
<title>0&#45;&gt;2</title>
<path fill="none" stroke="#000000" d="M124.8847,-85.9947C130.2949,-77.1676 136.1796,-67.5662 141.6449,-58.6491"/>
<polygon fill="#000000" stroke="#000000" points="144.6958,-60.369 146.9374,-50.014 138.7276,-56.7111 144.6958,-60.369"/>
<text text-anchor="middle" x="152.7717" y="-70.1237" font-family="Times,serif" font-size="14.00" fill="#000000">False</text>
</g>
</g>
</svg>
