<?xml version="1.0" encoding="UTF-8" standalone="no"?>
<!DOCTYPE svg PUBLIC "-//W3C//DTD SVG 1.1//EN"
 "http://www.w3.org/Graphics/SVG/1.1/DTD/svg11.dtd">
<!-- Generated by graphviz version 2.40.1 (20161225.0304)
 -->
<!-- Title: Tree Pages: 1 -->
<svg width="439pt" height="258pt"
 viewBox="0.00 0.00 439.04 258.00" xmlns="http://www.w3.org/2000/svg" xmlns:xlink="http://www.w3.org/1999/xlink">
<g id="graph0" class="graph" transform="scale(1 1) rotate(0) translate(4 254)">
<title>Tree</title>
<polygon fill="#ffffff" stroke="transparent" points="-4,4 -4,-254 435.0371,-254 435.0371,4 -4,4"/>
<!-- 0 -->
<g id="node1" class="node">
<title>0</title>
<polygon fill="none" stroke="#000000" points="270.793,-250 165.7441,-250 165.7441,-186 270.793,-186 270.793,-250"/>
<text text-anchor="middle" x="218.2686" y="-234.8" font-family="Times,serif" font-size="14.00" fill="#000000">X[3] &lt;= 0.052</text>
<text text-anchor="middle" x="218.2686" y="-220.8" font-family="Times,serif" font-size="14.00" fill="#000000">gini = 0.477</text>
<text text-anchor="middle" x="218.2686" y="-206.8" font-family="Times,serif" font-size="14.00" fill="#000000">samples = 28</text>
<text text-anchor="middle" x="218.2686" y="-192.8" font-family="Times,serif" font-size="14.00" fill="#000000">value = [11, 17]</text>
</g>
<!-- 1 -->
<g id="node2" class="node">
<title>1</title>
<polygon fill="none" stroke="#000000" points="209.3067,-150 111.2304,-150 111.2304,-86 209.3067,-86 209.3067,-150"/>
<text text-anchor="middle" x="160.2686" y="-134.8" font-family="Times,serif" font-size="14.00" fill="#000000">X[2] &lt;= 0.108</text>
<text text-anchor="middle" x="160.2686" y="-120.8" font-family="Times,serif" font-size="14.00" fill="#000000">gini = 0.111</text>
<text text-anchor="middle" x="160.2686" y="-106.8" font-family="Times,serif" font-size="14.00" fill="#000000">samples = 17</text>
<text text-anchor="middle" x="160.2686" y="-92.8" font-family="Times,serif" font-size="14.00" fill="#000000">value = [1, 16]</text>
</g>
<!-- 0&#45;&gt;1 -->
<g id="edge1" class="edge">
<title>0&#45;&gt;1</title>
<path fill="none" stroke="#000000" d="M199.5977,-185.8089C194.6304,-177.2445 189.1979,-167.8782 183.9993,-158.915"/>
<polygon fill="#000000" stroke="#000000" points="186.9492,-157.0251 178.9044,-150.1308 180.894,-160.5371 186.9492,-157.0251"/>
<text text-anchor="middle" x="172.4819" y="-170.0917" font-family="Times,serif" font-size="14.00" fill="#000000">True</text>
</g>
<!-- 2 -->
<g id="node5" class="node">
<title>2</title>
<polygon fill="none" stroke="#000000" points="326.3067,-150 228.2304,-150 228.2304,-86 326.3067,-86 326.3067,-150"/>
<text text-anchor="middle" x="277.2686" y="-134.8" font-family="Times,serif" font-size="14.00" fill="#000000">X[4] &lt;= 0.111</text>
<text text-anchor="middle" x="277.2686" y="-120.8" font-family="Times,serif" font-size="14.00" fill="#000000">gini = 0.165</text>
<text text-anchor="middle" x="277.2686" y="-106.8" font-family="Times,serif" font-size="14.00" fill="#000000">samples = 11</text>
<text text-anchor="middle" x="277.2686" y="-92.8" font-family="Times,serif" font-size="14.00" fill="#000000">value = [10, 1]</text>
</g>
<!-- 0&#45;&gt;2 -->
<g id="edge4" class="edge">
<title>0&#45;&gt;2</title>
<path fill="none" stroke="#000000" d="M237.2613,-185.8089C242.3143,-177.2445 247.8404,-167.8782 253.1287,-158.915"/>
<polygon fill="#000000" stroke="#000000" points="256.2443,-160.522 258.3114,-150.1308 250.2154,-156.9649 256.2443,-160.522"/>
<text text-anchor="middle" x="264.5538" y="-170.1389" font-family="Times,serif" font-size="14.00" fill="#000000">False</text>
</g>
<!-- 3 -->
<g id="node3" class="node">
<title>3</title>
<polygon fill="none" stroke="#000000" points="98.3067,-50 .2304,-50 .2304,0 98.3067,0 98.3067,-50"/>
<text text-anchor="middle" x="49.2686" y="-34.8" font-family="Times,serif" font-size="14.00" fill="#000000">gini = 0.0</text>
<text text-anchor="middle" x="49.2686" y="-20.8" font-family="Times,serif" font-size="14.00" fill="#000000">samples = 12</text>
<text text-anchor="middle" x="49.2686" y="-6.8" font-family="Times,serif" font-size="14.00" fill="#000000">value = [0, 12]</text>
</g>
<!-- 1&#45;&gt;3 -->
<g id="edge2" class="edge">
<title>1&#45;&gt;3</title>
<path fill="none" stroke="#000000" d="M122.0687,-85.9947C110.7649,-76.524 98.3973,-66.1619 87.1159,-56.7099"/>
<polygon fill="#000000" stroke="#000000" points="89.037,-53.7534 79.124,-50.014 84.5415,-59.1191 89.037,-53.7534"/>
</g>
<!-- 4 -->
<g id="node4" class="node">
<title>4</title>
<polygon fill="none" stroke="#000000" points="207.8068,-50 116.7303,-50 116.7303,0 207.8068,0 207.8068,-50"/>
<text text-anchor="middle" x="162.2686" y="-34.8" font-family="Times,serif" font-size="14.00" fill="#000000">gini = 0.32</text>
<text text-anchor="middle" x="162.2686" y="-20.8" font-family="Times,serif" font-size="14.00" fill="#000000">samples = 5</text>
<text text-anchor="middle" x="162.2686" y="-6.8" font-family="Times,serif" font-size="14.00" fill="#000000">value = [1, 4]</text>
</g>
<!-- 1&#45;&gt;4 -->
<g id="edge3" class="edge">
<title>1&#45;&gt;4</title>
<path fill="none" stroke="#000000" d="M160.9568,-85.9947C161.1368,-77.6273 161.3317,-68.5643 161.5148,-60.0478"/>
<polygon fill="#000000" stroke="#000000" points="165.0147,-60.087 161.7306,-50.014 158.0163,-59.9364 165.0147,-60.087"/>
</g>
<!-- 5 -->
<g id="node6" class="node">
<title>5</title>
<polygon fill="none" stroke="#000000" points="320.8068,-50 229.7303,-50 229.7303,0 320.8068,0 320.8068,-50"/>
<text text-anchor="middle" x="275.2686" y="-34.8" font-family="Times,serif" font-size="14.00" fill="#000000">gini = 0.0</text>
<text text-anchor="middle" x="275.2686" y="-20.8" font-family="Times,serif" font-size="14.00" fill="#000000">samples = 5</text>
<text text-anchor="middle" x="275.2686" y="-6.8" font-family="Times,serif" font-size="14.00" fill="#000000">value = [5, 0]</text>
</g>
<!-- 2&#45;&gt;5 -->
<g id="edge5" class="edge">
<title>2&#45;&gt;5</title>
<path fill="none" stroke="#000000" d="M276.5803,-85.9947C276.4003,-77.6273 276.2054,-68.5643 276.0223,-60.0478"/>
<polygon fill="#000000" stroke="#000000" points="279.5208,-59.9364 275.8065,-50.014 272.5224,-60.087 279.5208,-59.9364"/>
</g>
<!-- 6 -->
<g id="node7" class="node">
<title>6</title>
<polygon fill="none" stroke="#000000" points="430.8068,-50 339.7303,-50 339.7303,0 430.8068,0 430.8068,-50"/>
<text text-anchor="middle" x="385.2686" y="-34.8" font-family="Times,serif" font-size="14.00" fill="#000000">gini = 0.278</text>
<text text-anchor="middle" x="385.2686" y="-20.8" font-family="Times,serif" font-size="14.00" fill="#000000">samples = 6</text>
<text text-anchor="middle" x="385.2686" y="-6.8" font-family="Times,serif" font-size="14.00" fill="#000000">value = [5, 1]</text>
</g>
<!-- 2&#45;&gt;6 -->
<g id="edge6" class="edge">
<title>2&#45;&gt;6</title>
<path fill="none" stroke="#000000" d="M314.436,-85.9947C325.4343,-76.524 337.4676,-66.1619 348.4441,-56.7099"/>
<polygon fill="#000000" stroke="#000000" points="350.9261,-59.1915 356.22,-50.014 346.3584,-53.8871 350.9261,-59.1915"/>
</g>
</g>
</svg>
