<?xml version="1.0" encoding="UTF-8" standalone="no"?>
<!DOCTYPE svg PUBLIC "-//W3C//DTD SVG 1.1//EN"
 "http://www.w3.org/Graphics/SVG/1.1/DTD/svg11.dtd">
<!-- Generated by graphviz version 2.40.1 (20161225.0304)
 -->
<!-- Title: Tree Pages: 1 -->
<svg width="278pt" height="258pt"
 viewBox="0.00 0.00 278.04 258.00" xmlns="http://www.w3.org/2000/svg" xmlns:xlink="http://www.w3.org/1999/xlink">
<g id="graph0" class="graph" transform="scale(1 1) rotate(0) translate(4 254)">
<title>Tree</title>
<polygon fill="#ffffff" stroke="transparent" points="-4,4 -4,-254 274.0371,-254 274.0371,4 -4,4"/>
<!-- 0 -->
<g id="node1" class="node">
<title>0</title>
<polygon fill="none" stroke="#000000" points="160.793,-250 55.7441,-250 55.7441,-186 160.793,-186 160.793,-250"/>
<text text-anchor="middle" x="108.2686" y="-234.8" font-family="Times,serif" font-size="14.00" fill="#000000">X[3] &lt;= 0.05</text>
<text text-anchor="middle" x="108.2686" y="-220.8" font-family="Times,serif" font-size="14.00" fill="#000000">gini = 0.477</text>
<text text-anchor="middle" x="108.2686" y="-206.8" font-family="Times,serif" font-size="14.00" fill="#000000">samples = 28</text>
<text text-anchor="middle" x="108.2686" y="-192.8" font-family="Times,serif" font-size="14.00" fill="#000000">value = [11, 17]</text>
</g>
<!-- 1 -->
<g id="node2" class="node">
<title>1</title>
<polygon fill="none" stroke="#000000" points="98.3067,-143 .2304,-143 .2304,-93 98.3067,-93 98.3067,-143"/>
<text text-anchor="middle" x="49.2686" y="-127.8" font-family="Times,serif" font-size="14.00" fill="#000000">gini = 0.0</text>
<text text-anchor="middle" x="49.2686" y="-113.8" font-family="Times,serif" font-size="14.00" fill="#000000">samples = 16</text>
<text text-anchor="middle" x="49.2686" y="-99.8" font-family="Times,serif" font-size="14.00" fill="#000000">value = [0, 16]</text>
</g>
<!-- 0&#45;&gt;1 -->
<g id="edge1" class="edge">
<title>0&#45;&gt;1</title>
<path fill="none" stroke="#000000" d="M89.2758,-185.8089C82.9069,-175.0142 75.7864,-162.9456 69.3379,-152.0158"/>
<polygon fill="#000000" stroke="#000000" points="72.2063,-149.9897 64.1103,-143.1555 66.1774,-153.5468 72.2063,-149.9897"/>
<text text-anchor="middle" x="57.868" y="-163.1637" font-family="Times,serif" font-size="14.00" fill="#000000">True</text>
</g>
<!-- 2 -->
<g id="node3" class="node">
<title>2</title>
<polygon fill="none" stroke="#000000" points="219.9945,-150 116.5426,-150 116.5426,-86 219.9945,-86 219.9945,-150"/>
<text text-anchor="middle" x="168.2686" y="-134.8" font-family="Times,serif" font-size="14.00" fill="#000000">X[19] &lt;= 0.024</text>
<text text-anchor="middle" x="168.2686" y="-120.8" font-family="Times,serif" font-size="14.00" fill="#000000">gini = 0.153</text>
<text text-anchor="middle" x="168.2686" y="-106.8" font-family="Times,serif" font-size="14.00" fill="#000000">samples = 12</text>
<text text-anchor="middle" x="168.2686" y="-92.8" font-family="Times,serif" font-size="14.00" fill="#000000">value = [11, 1]</text>
</g>
<!-- 0&#45;&gt;2 -->
<g id="edge2" class="edge">
<title>0&#45;&gt;2</title>
<path fill="none" stroke="#000000" d="M127.5832,-185.8089C132.7218,-177.2445 138.3416,-167.8782 143.7196,-158.915"/>
<polygon fill="#000000" stroke="#000000" points="146.8463,-160.5065 148.9901,-150.1308 140.8439,-156.905 146.8463,-160.5065"/>
<text text-anchor="middle" x="155.0535" y="-170.1843" font-family="Times,serif" font-size="14.00" fill="#000000">False</text>
</g>
<!-- 3 -->
<g id="node4" class="node">
<title>3</title>
<polygon fill="none" stroke="#000000" points="160.293,-50 62.2441,-50 62.2441,0 160.293,0 160.293,-50"/>
<text text-anchor="middle" x="111.2686" y="-34.8" font-family="Times,serif" font-size="14.00" fill="#000000">gini = 0.0</text>
<text text-anchor="middle" x="111.2686" y="-20.8" font-family="Times,serif" font-size="14.00" fill="#000000">samples = 11</text>
<text text-anchor="middle" x="111.2686" y="-6.8" font-family="Times,serif" font-size="14.00" fill="#000000">value = [11, 0]</text>
</g>
<!-- 2&#45;&gt;3 -->
<g id="edge3" class="edge">
<title>2&#45;&gt;3</title>
<path fill="none" stroke="#000000" d="M148.6524,-85.9947C143.2422,-77.1676 137.3575,-67.5662 131.8922,-58.6491"/>
<polygon fill="#000000" stroke="#000000" points="134.8095,-56.7111 126.5997,-50.014 128.8413,-60.369 134.8095,-56.7111"/>
</g>
<!-- 4 -->
<g id="node5" class="node">
<title>4</title>
<polygon fill="none" stroke="#000000" points="269.8068,-50 178.7303,-50 178.7303,0 269.8068,0 269.8068,-50"/>
<text text-anchor="middle" x="224.2686" y="-34.8" font-family="Times,serif" font-size="14.00" fill="#000000">gini = 0.0</text>
<text text-anchor="middle" x="224.2686" y="-20.8" font-family="Times,serif" font-size="14.00" fill="#000000">samples = 1</text>
<text text-anchor="middle" x="224.2686" y="-6.8" font-family="Times,serif" font-size="14.00" fill="#000000">value = [0, 1]</text>
</g>
<!-- 2&#45;&gt;4 -->
<g id="edge4" class="edge">
<title>2&#45;&gt;4</title>
<path fill="none" stroke="#000000" d="M187.5406,-85.9947C192.8558,-77.1676 198.6373,-67.5662 204.0067,-58.6491"/>
<polygon fill="#000000" stroke="#000000" points="207.0462,-60.3863 209.2063,-50.014 201.0494,-56.7753 207.0462,-60.3863"/>
</g>
</g>
</svg>
