<?xml version="1.0" encoding="UTF-8" standalone="no"?>
<!DOCTYPE svg PUBLIC "-//W3C//DTD SVG 1.1//EN"
 "http://www.w3.org/Graphics/SVG/1.1/DTD/svg11.dtd">
<!-- Generated by graphviz version 2.40.1 (20161225.0304)
 -->
<!-- Title: Tree Pages: 1 -->
<svg width="385pt" height="458pt"
 viewBox="0.00 0.00 384.54 458.00" xmlns="http://www.w3.org/2000/svg" xmlns:xlink="http://www.w3.org/1999/xlink">
<g id="graph0" class="graph" transform="scale(1 1) rotate(0) translate(4 454)">
<title>Tree</title>
<polygon fill="#ffffff" stroke="transparent" points="-4,4 -4,-454 380.5371,-454 380.5371,4 -4,4"/>
<!-- 0 -->
<g id="node1" class="node">
<title>0</title>
<polygon fill="none" stroke="#000000" points="317.3066,-450 198.2306,-450 198.2306,-386 317.3066,-386 317.3066,-450"/>
<text text-anchor="middle" x="257.7686" y="-434.8" font-family="Times,serif" font-size="14.00" fill="#000000">X[8] &lt;= 7.937</text>
<text text-anchor="middle" x="257.7686" y="-420.8" font-family="Times,serif" font-size="14.00" fill="#000000">gini = 0.054</text>
<text text-anchor="middle" x="257.7686" y="-406.8" font-family="Times,serif" font-size="14.00" fill="#000000">samples = 324</text>
<text text-anchor="middle" x="257.7686" y="-392.8" font-family="Times,serif" font-size="14.00" fill="#000000">value = [1, 315, 8]</text>
</g>
<!-- 1 -->
<g id="node2" class="node">
<title>1</title>
<polygon fill="none" stroke="#000000" points="252.3066,-350 133.2306,-350 133.2306,-286 252.3066,-286 252.3066,-350"/>
<text text-anchor="middle" x="192.7686" y="-334.8" font-family="Times,serif" font-size="14.00" fill="#000000">X[8] &lt;= 5.684</text>
<text text-anchor="middle" x="192.7686" y="-320.8" font-family="Times,serif" font-size="14.00" fill="#000000">gini = 0.006</text>
<text text-anchor="middle" x="192.7686" y="-306.8" font-family="Times,serif" font-size="14.00" fill="#000000">samples = 316</text>
<text text-anchor="middle" x="192.7686" y="-292.8" font-family="Times,serif" font-size="14.00" fill="#000000">value = [1, 315, 0]</text>
</g>
<!-- 0&#45;&gt;1 -->
<g id="edge1" class="edge">
<title>0&#45;&gt;1</title>
<path fill="none" stroke="#000000" d="M236.8444,-385.8089C231.2195,-377.1553 225.0625,-367.683 219.1813,-358.635"/>
<polygon fill="#000000" stroke="#000000" points="222.038,-356.6077 213.6535,-350.1308 216.1689,-360.4227 222.038,-356.6077"/>
<text text-anchor="middle" x="208.4659" y="-370.3866" font-family="Times,serif" font-size="14.00" fill="#000000">True</text>
</g>
<!-- 2 -->
<g id="node9" class="node">
<title>2</title>
<polygon fill="none" stroke="#000000" points="376.3067,-343 271.2304,-343 271.2304,-293 376.3067,-293 376.3067,-343"/>
<text text-anchor="middle" x="323.7686" y="-327.8" font-family="Times,serif" font-size="14.00" fill="#000000">gini = 0.0</text>
<text text-anchor="middle" x="323.7686" y="-313.8" font-family="Times,serif" font-size="14.00" fill="#000000">samples = 8</text>
<text text-anchor="middle" x="323.7686" y="-299.8" font-family="Times,serif" font-size="14.00" fill="#000000">value = [0, 0, 8]</text>
</g>
<!-- 0&#45;&gt;2 -->
<g id="edge8" class="edge">
<title>0&#45;&gt;2</title>
<path fill="none" stroke="#000000" d="M279.0147,-385.8089C286.2104,-374.9063 294.2639,-362.7041 301.5343,-351.6882"/>
<polygon fill="#000000" stroke="#000000" points="304.5786,-353.4296 307.1659,-343.1555 298.7363,-349.5737 304.5786,-353.4296"/>
<text text-anchor="middle" x="312.1822" y="-363.4471" font-family="Times,serif" font-size="14.00" fill="#000000">False</text>
</g>
<!-- 3 -->
<g id="node3" class="node">
<title>3</title>
<polygon fill="none" stroke="#000000" points="184.293,-250 65.2441,-250 65.2441,-186 184.293,-186 184.293,-250"/>
<text text-anchor="middle" x="124.7686" y="-234.8" font-family="Times,serif" font-size="14.00" fill="#000000">X[6] &lt;= 59.036</text>
<text text-anchor="middle" x="124.7686" y="-220.8" font-family="Times,serif" font-size="14.00" fill="#000000">gini = 0.017</text>
<text text-anchor="middle" x="124.7686" y="-206.8" font-family="Times,serif" font-size="14.00" fill="#000000">samples = 116</text>
<text text-anchor="middle" x="124.7686" y="-192.8" font-family="Times,serif" font-size="14.00" fill="#000000">value = [1, 115, 0]</text>
</g>
<!-- 1&#45;&gt;3 -->
<g id="edge2" class="edge">
<title>1&#45;&gt;3</title>
<path fill="none" stroke="#000000" d="M170.8786,-285.8089C164.9942,-277.1553 158.553,-267.683 152.4004,-258.635"/>
<polygon fill="#000000" stroke="#000000" points="155.1349,-256.4319 146.6175,-250.1308 149.3464,-260.3681 155.1349,-256.4319"/>
</g>
<!-- 4 -->
<g id="node8" class="node">
<title>4</title>
<polygon fill="none" stroke="#000000" points="321.3066,-243 202.2306,-243 202.2306,-193 321.3066,-193 321.3066,-243"/>
<text text-anchor="middle" x="261.7686" y="-227.8" font-family="Times,serif" font-size="14.00" fill="#000000">gini = 0.0</text>
<text text-anchor="middle" x="261.7686" y="-213.8" font-family="Times,serif" font-size="14.00" fill="#000000">samples = 200</text>
<text text-anchor="middle" x="261.7686" y="-199.8" font-family="Times,serif" font-size="14.00" fill="#000000">value = [0, 200, 0]</text>
</g>
<!-- 1&#45;&gt;4 -->
<g id="edge7" class="edge">
<title>1&#45;&gt;4</title>
<path fill="none" stroke="#000000" d="M214.9804,-285.8089C222.5032,-274.9063 230.9227,-262.7041 238.5237,-251.6882"/>
<polygon fill="#000000" stroke="#000000" points="241.6127,-253.3741 244.4112,-243.1555 235.8511,-249.3986 241.6127,-253.3741"/>
</g>
<!-- 5 -->
<g id="node4" class="node">
<title>5</title>
<polygon fill="none" stroke="#000000" points="119.3066,-143 .2306,-143 .2306,-93 119.3066,-93 119.3066,-143"/>
<text text-anchor="middle" x="59.7686" y="-127.8" font-family="Times,serif" font-size="14.00" fill="#000000">gini = 0.0</text>
<text text-anchor="middle" x="59.7686" y="-113.8" font-family="Times,serif" font-size="14.00" fill="#000000">samples = 106</text>
<text text-anchor="middle" x="59.7686" y="-99.8" font-family="Times,serif" font-size="14.00" fill="#000000">value = [0, 106, 0]</text>
</g>
<!-- 3&#45;&gt;5 -->
<g id="edge3" class="edge">
<title>3&#45;&gt;5</title>
<path fill="none" stroke="#000000" d="M103.8444,-185.8089C96.7576,-174.9063 88.8262,-162.7041 81.6659,-151.6882"/>
<polygon fill="#000000" stroke="#000000" points="84.5041,-149.6325 76.1197,-143.1555 78.635,-153.4475 84.5041,-149.6325"/>
</g>
<!-- 6 -->
<g id="node5" class="node">
<title>6</title>
<polygon fill="none" stroke="#000000" points="243.3067,-150 138.2304,-150 138.2304,-86 243.3067,-86 243.3067,-150"/>
<text text-anchor="middle" x="190.7686" y="-134.8" font-family="Times,serif" font-size="14.00" fill="#000000">X[5] &lt;= 6.508</text>
<text text-anchor="middle" x="190.7686" y="-120.8" font-family="Times,serif" font-size="14.00" fill="#000000">gini = 0.18</text>
<text text-anchor="middle" x="190.7686" y="-106.8" font-family="Times,serif" font-size="14.00" fill="#000000">samples = 10</text>
<text text-anchor="middle" x="190.7686" y="-92.8" font-family="Times,serif" font-size="14.00" fill="#000000">value = [1, 9, 0]</text>
</g>
<!-- 3&#45;&gt;6 -->
<g id="edge4" class="edge">
<title>3&#45;&gt;6</title>
<path fill="none" stroke="#000000" d="M146.0147,-185.8089C151.7261,-177.1553 157.9778,-167.683 163.9494,-158.635"/>
<polygon fill="#000000" stroke="#000000" points="166.9749,-160.4048 169.5623,-150.1308 161.1326,-156.5489 166.9749,-160.4048"/>
</g>
<!-- 7 -->
<g id="node6" class="node">
<title>7</title>
<polygon fill="none" stroke="#000000" points="181.3067,-50 76.2304,-50 76.2304,0 181.3067,0 181.3067,-50"/>
<text text-anchor="middle" x="128.7686" y="-34.8" font-family="Times,serif" font-size="14.00" fill="#000000">gini = 0.0</text>
<text text-anchor="middle" x="128.7686" y="-20.8" font-family="Times,serif" font-size="14.00" fill="#000000">samples = 5</text>
<text text-anchor="middle" x="128.7686" y="-6.8" font-family="Times,serif" font-size="14.00" fill="#000000">value = [0, 5, 0]</text>
</g>
<!-- 6&#45;&gt;7 -->
<g id="edge5" class="edge">
<title>6&#45;&gt;7</title>
<path fill="none" stroke="#000000" d="M169.4317,-85.9947C163.4857,-77.0756 157.0126,-67.3661 151.0157,-58.3706"/>
<polygon fill="#000000" stroke="#000000" points="153.9038,-56.3931 145.4446,-50.014 148.0794,-60.276 153.9038,-56.3931"/>
</g>
<!-- 8 -->
<g id="node7" class="node">
<title>8</title>
<polygon fill="none" stroke="#000000" points="305.3067,-50 200.2304,-50 200.2304,0 305.3067,0 305.3067,-50"/>
<text text-anchor="middle" x="252.7686" y="-34.8" font-family="Times,serif" font-size="14.00" fill="#000000">gini = 0.32</text>
<text text-anchor="middle" x="252.7686" y="-20.8" font-family="Times,serif" font-size="14.00" fill="#000000">samples = 5</text>
<text text-anchor="middle" x="252.7686" y="-6.8" font-family="Times,serif" font-size="14.00" fill="#000000">value = [1, 4, 0]</text>
</g>
<!-- 6&#45;&gt;8 -->
<g id="edge6" class="edge">
<title>6&#45;&gt;8</title>
<path fill="none" stroke="#000000" d="M212.1054,-85.9947C218.0515,-77.0756 224.5245,-67.3661 230.5215,-58.3706"/>
<polygon fill="#000000" stroke="#000000" points="233.4577,-60.276 236.0925,-50.014 227.6333,-56.3931 233.4577,-60.276"/>
</g>
</g>
</svg>
