<?xml version="1.0" encoding="UTF-8" standalone="no"?>
<!DOCTYPE svg PUBLIC "-//W3C//DTD SVG 1.1//EN"
 "http://www.w3.org/Graphics/SVG/1.1/DTD/svg11.dtd">
<!-- Generated by graphviz version 2.40.1 (20161225.0304)
 -->
<!-- Title: Tree Pages: 1 -->
<svg width="1386pt" height="458pt"
 viewBox="0.00 0.00 1386.04 458.00" xmlns="http://www.w3.org/2000/svg" xmlns:xlink="http://www.w3.org/1999/xlink">
<g id="graph0" class="graph" transform="scale(1 1) rotate(0) translate(4 454)">
<title>Tree</title>
<polygon fill="#ffffff" stroke="transparent" points="-4,4 -4,-454 1382.0371,-454 1382.0371,4 -4,4"/>
<!-- 0 -->
<g id="node1" class="node">
<title>0</title>
<polygon fill="none" stroke="#000000" points="781.8062,-450 599.7309,-450 599.7309,-386 781.8062,-386 781.8062,-450"/>
<text text-anchor="middle" x="690.7686" y="-434.8" font-family="Times,serif" font-size="14.00" fill="#000000">X[0] &lt;= 11.321</text>
<text text-anchor="middle" x="690.7686" y="-420.8" font-family="Times,serif" font-size="14.00" fill="#000000">gini = 0.664</text>
<text text-anchor="middle" x="690.7686" y="-406.8" font-family="Times,serif" font-size="14.00" fill="#000000">samples = 324</text>
<text text-anchor="middle" x="690.7686" y="-392.8" font-family="Times,serif" font-size="14.00" fill="#000000">value = [1, 9, 106, 144, 56, 8]</text>
</g>
<!-- 1 -->
<g id="node2" class="node">
<title>1</title>
<polygon fill="none" stroke="#000000" points="610.793,-350 428.7441,-350 428.7441,-286 610.793,-286 610.793,-350"/>
<text text-anchor="middle" x="519.7686" y="-334.8" font-family="Times,serif" font-size="14.00" fill="#000000">X[0] &lt;= 9.643</text>
<text text-anchor="middle" x="519.7686" y="-320.8" font-family="Times,serif" font-size="14.00" fill="#000000">gini = 0.619</text>
<text text-anchor="middle" x="519.7686" y="-306.8" font-family="Times,serif" font-size="14.00" fill="#000000">samples = 252</text>
<text text-anchor="middle" x="519.7686" y="-292.8" font-family="Times,serif" font-size="14.00" fill="#000000">value = [1, 5, 102, 114, 27, 3]</text>
</g>
<!-- 0&#45;&gt;1 -->
<g id="edge1" class="edge">
<title>0&#45;&gt;1</title>
<path fill="none" stroke="#000000" d="M635.7218,-385.8089C619.0935,-376.0848 600.6974,-365.3268 583.5496,-355.2989"/>
<polygon fill="#000000" stroke="#000000" points="585.1113,-352.1576 574.7122,-350.1308 581.5776,-358.2002 585.1113,-352.1576"/>
<text text-anchor="middle" x="581.0481" y="-370.1145" font-family="Times,serif" font-size="14.00" fill="#000000">True</text>
</g>
<!-- 2 -->
<g id="node11" class="node">
<title>2</title>
<polygon fill="none" stroke="#000000" points="949.3063,-350 788.2308,-350 788.2308,-286 949.3063,-286 949.3063,-350"/>
<text text-anchor="middle" x="868.7686" y="-334.8" font-family="Times,serif" font-size="14.00" fill="#000000">X[5] &lt;= 12.749</text>
<text text-anchor="middle" x="868.7686" y="-320.8" font-family="Times,serif" font-size="14.00" fill="#000000">gini = 0.653</text>
<text text-anchor="middle" x="868.7686" y="-306.8" font-family="Times,serif" font-size="14.00" fill="#000000">samples = 72</text>
<text text-anchor="middle" x="868.7686" y="-292.8" font-family="Times,serif" font-size="14.00" fill="#000000">value = [0, 4, 4, 30, 29, 5]</text>
</g>
<!-- 0&#45;&gt;2 -->
<g id="edge10" class="edge">
<title>0&#45;&gt;2</title>
<path fill="none" stroke="#000000" d="M748.0687,-385.8089C765.3777,-376.0848 784.5268,-365.3268 802.3766,-355.2989"/>
<polygon fill="#000000" stroke="#000000" points="804.5717,-358.0802 811.5758,-350.1308 801.1431,-351.9773 804.5717,-358.0802"/>
<text text-anchor="middle" x="804.8222" y="-370.0013" font-family="Times,serif" font-size="14.00" fill="#000000">False</text>
</g>
<!-- 3 -->
<g id="node3" class="node">
<title>3</title>
<polygon fill="none" stroke="#000000" points="341.3063,-250 180.2308,-250 180.2308,-186 341.3063,-186 341.3063,-250"/>
<text text-anchor="middle" x="260.7686" y="-234.8" font-family="Times,serif" font-size="14.00" fill="#000000">X[5] &lt;= 39.964</text>
<text text-anchor="middle" x="260.7686" y="-220.8" font-family="Times,serif" font-size="14.00" fill="#000000">gini = 0.565</text>
<text text-anchor="middle" x="260.7686" y="-206.8" font-family="Times,serif" font-size="14.00" fill="#000000">samples = 101</text>
<text text-anchor="middle" x="260.7686" y="-192.8" font-family="Times,serif" font-size="14.00" fill="#000000">value = [1, 3, 57, 34, 5, 1]</text>
</g>
<!-- 1&#45;&gt;3 -->
<g id="edge2" class="edge">
<title>1&#45;&gt;3</title>
<path fill="none" stroke="#000000" d="M436.7506,-285.9467C409.3661,-275.3736 378.7843,-263.5659 350.8949,-252.7978"/>
<polygon fill="#000000" stroke="#000000" points="352.138,-249.526 341.5485,-249.1892 349.6167,-256.0562 352.138,-249.526"/>
</g>
<!-- 4 -->
<g id="node6" class="node">
<title>4</title>
<polygon fill="none" stroke="#000000" points="603.8063,-250 435.7308,-250 435.7308,-186 603.8063,-186 603.8063,-250"/>
<text text-anchor="middle" x="519.7686" y="-234.8" font-family="Times,serif" font-size="14.00" fill="#000000">X[5] &lt;= 6.421</text>
<text text-anchor="middle" x="519.7686" y="-220.8" font-family="Times,serif" font-size="14.00" fill="#000000">gini = 0.609</text>
<text text-anchor="middle" x="519.7686" y="-206.8" font-family="Times,serif" font-size="14.00" fill="#000000">samples = 151</text>
<text text-anchor="middle" x="519.7686" y="-192.8" font-family="Times,serif" font-size="14.00" fill="#000000">value = [0, 2, 45, 80, 22, 2]</text>
</g>
<!-- 1&#45;&gt;4 -->
<g id="edge5" class="edge">
<title>1&#45;&gt;4</title>
<path fill="none" stroke="#000000" d="M519.7686,-285.8089C519.7686,-277.6906 519.7686,-268.8517 519.7686,-260.3186"/>
<polygon fill="#000000" stroke="#000000" points="523.2687,-260.1307 519.7686,-250.1308 516.2687,-260.1308 523.2687,-260.1307"/>
</g>
<!-- 17 -->
<g id="node4" class="node">
<title>17</title>
<polygon fill="none" stroke="#000000" points="161.3063,-143 .2308,-143 .2308,-93 161.3063,-93 161.3063,-143"/>
<text text-anchor="middle" x="80.7686" y="-127.8" font-family="Times,serif" font-size="14.00" fill="#000000">gini = 0.61</text>
<text text-anchor="middle" x="80.7686" y="-113.8" font-family="Times,serif" font-size="14.00" fill="#000000">samples = 59</text>
<text text-anchor="middle" x="80.7686" y="-99.8" font-family="Times,serif" font-size="14.00" fill="#000000">value = [0, 3, 29, 22, 5, 0]</text>
</g>
<!-- 3&#45;&gt;17 -->
<g id="edge3" class="edge">
<title>3&#45;&gt;17</title>
<path fill="none" stroke="#000000" d="M202.8246,-185.8089C181.0625,-173.7188 156.4239,-160.0308 135.0105,-148.1344"/>
<polygon fill="#000000" stroke="#000000" points="136.4899,-144.9525 126.0485,-143.1555 133.0903,-151.0716 136.4899,-144.9525"/>
</g>
<!-- 18 -->
<g id="node5" class="node">
<title>18</title>
<polygon fill="none" stroke="#000000" points="341.3063,-143 180.2308,-143 180.2308,-93 341.3063,-93 341.3063,-143"/>
<text text-anchor="middle" x="260.7686" y="-127.8" font-family="Times,serif" font-size="14.00" fill="#000000">gini = 0.473</text>
<text text-anchor="middle" x="260.7686" y="-113.8" font-family="Times,serif" font-size="14.00" fill="#000000">samples = 42</text>
<text text-anchor="middle" x="260.7686" y="-99.8" font-family="Times,serif" font-size="14.00" fill="#000000">value = [1, 0, 28, 12, 0, 1]</text>
</g>
<!-- 3&#45;&gt;18 -->
<g id="edge4" class="edge">
<title>3&#45;&gt;18</title>
<path fill="none" stroke="#000000" d="M260.7686,-185.8089C260.7686,-175.446 260.7686,-163.909 260.7686,-153.3327"/>
<polygon fill="#000000" stroke="#000000" points="264.2687,-153.1555 260.7686,-143.1555 257.2687,-153.1556 264.2687,-153.1555"/>
</g>
<!-- 5 -->
<g id="node7" class="node">
<title>5</title>
<polygon fill="none" stroke="#000000" points="507.3064,-143 360.2307,-143 360.2307,-93 507.3064,-93 507.3064,-143"/>
<text text-anchor="middle" x="433.7686" y="-127.8" font-family="Times,serif" font-size="14.00" fill="#000000">gini = 0.628</text>
<text text-anchor="middle" x="433.7686" y="-113.8" font-family="Times,serif" font-size="14.00" fill="#000000">samples = 11</text>
<text text-anchor="middle" x="433.7686" y="-99.8" font-family="Times,serif" font-size="14.00" fill="#000000">value = [0, 0, 6, 2, 2, 1]</text>
</g>
<!-- 4&#45;&gt;5 -->
<g id="edge6" class="edge">
<title>4&#45;&gt;5</title>
<path fill="none" stroke="#000000" d="M492.0842,-185.8089C482.5223,-174.6904 471.798,-162.2203 462.1788,-151.0352"/>
<polygon fill="#000000" stroke="#000000" points="464.5764,-148.4553 455.4023,-143.1555 459.2691,-153.0196 464.5764,-148.4553"/>
</g>
<!-- 6 -->
<g id="node8" class="node">
<title>6</title>
<polygon fill="none" stroke="#000000" points="693.8063,-150 525.7308,-150 525.7308,-86 693.8063,-86 693.8063,-150"/>
<text text-anchor="middle" x="609.7686" y="-134.8" font-family="Times,serif" font-size="14.00" fill="#000000">X[8] &lt;= 0.688</text>
<text text-anchor="middle" x="609.7686" y="-120.8" font-family="Times,serif" font-size="14.00" fill="#000000">gini = 0.591</text>
<text text-anchor="middle" x="609.7686" y="-106.8" font-family="Times,serif" font-size="14.00" fill="#000000">samples = 140</text>
<text text-anchor="middle" x="609.7686" y="-92.8" font-family="Times,serif" font-size="14.00" fill="#000000">value = [0, 2, 39, 78, 20, 1]</text>
</g>
<!-- 4&#45;&gt;6 -->
<g id="edge7" class="edge">
<title>4&#45;&gt;6</title>
<path fill="none" stroke="#000000" d="M548.7405,-185.8089C556.7697,-176.8877 565.5819,-167.0963 573.9514,-157.7968"/>
<polygon fill="#000000" stroke="#000000" points="576.7627,-159.9051 580.8509,-150.1308 571.5597,-155.2223 576.7627,-159.9051"/>
</g>
<!-- 7 -->
<g id="node9" class="node">
<title>7</title>
<polygon fill="none" stroke="#000000" points="603.8063,-50 435.7308,-50 435.7308,0 603.8063,0 603.8063,-50"/>
<text text-anchor="middle" x="519.7686" y="-34.8" font-family="Times,serif" font-size="14.00" fill="#000000">gini = 0.579</text>
<text text-anchor="middle" x="519.7686" y="-20.8" font-family="Times,serif" font-size="14.00" fill="#000000">samples = 121</text>
<text text-anchor="middle" x="519.7686" y="-6.8" font-family="Times,serif" font-size="14.00" fill="#000000">value = [0, 2, 37, 68, 13, 1]</text>
</g>
<!-- 6&#45;&gt;7 -->
<g id="edge8" class="edge">
<title>6&#45;&gt;7</title>
<path fill="none" stroke="#000000" d="M578.7957,-85.9947C569.8084,-76.7079 559.9918,-66.564 550.9894,-57.2616"/>
<polygon fill="#000000" stroke="#000000" points="553.445,-54.7661 543.9757,-50.014 548.4148,-59.6341 553.445,-54.7661"/>
</g>
<!-- 8 -->
<g id="node10" class="node">
<title>8</title>
<polygon fill="none" stroke="#000000" points="776.8064,-50 622.7308,-50 622.7308,0 776.8064,0 776.8064,-50"/>
<text text-anchor="middle" x="699.7686" y="-34.8" font-family="Times,serif" font-size="14.00" fill="#000000">gini = 0.576</text>
<text text-anchor="middle" x="699.7686" y="-20.8" font-family="Times,serif" font-size="14.00" fill="#000000">samples = 19</text>
<text text-anchor="middle" x="699.7686" y="-6.8" font-family="Times,serif" font-size="14.00" fill="#000000">value = [0, 0, 2, 10, 7, 0]</text>
</g>
<!-- 6&#45;&gt;8 -->
<g id="edge9" class="edge">
<title>6&#45;&gt;8</title>
<path fill="none" stroke="#000000" d="M640.7414,-85.9947C649.7287,-76.7079 659.5453,-66.564 668.5477,-57.2616"/>
<polygon fill="#000000" stroke="#000000" points="671.1223,-59.6341 675.5614,-50.014 666.0921,-54.7661 671.1223,-59.6341"/>
</g>
<!-- 9 -->
<g id="node12" class="node">
<title>9</title>
<polygon fill="none" stroke="#000000" points="942.3064,-250 795.2307,-250 795.2307,-186 942.3064,-186 942.3064,-250"/>
<text text-anchor="middle" x="868.7686" y="-234.8" font-family="Times,serif" font-size="14.00" fill="#000000">X[5] &lt;= 6.109</text>
<text text-anchor="middle" x="868.7686" y="-220.8" font-family="Times,serif" font-size="14.00" fill="#000000">gini = 0.667</text>
<text text-anchor="middle" x="868.7686" y="-206.8" font-family="Times,serif" font-size="14.00" fill="#000000">samples = 12</text>
<text text-anchor="middle" x="868.7686" y="-192.8" font-family="Times,serif" font-size="14.00" fill="#000000">value = [0, 4, 0, 4, 4, 0]</text>
</g>
<!-- 2&#45;&gt;9 -->
<g id="edge11" class="edge">
<title>2&#45;&gt;9</title>
<path fill="none" stroke="#000000" d="M868.7686,-285.8089C868.7686,-277.6906 868.7686,-268.8517 868.7686,-260.3186"/>
<polygon fill="#000000" stroke="#000000" points="872.2687,-260.1307 868.7686,-250.1308 865.2687,-260.1308 872.2687,-260.1307"/>
</g>
<!-- 10 -->
<g id="node15" class="node">
<title>10</title>
<polygon fill="none" stroke="#000000" points="1205.3063,-250 1044.2308,-250 1044.2308,-186 1205.3063,-186 1205.3063,-250"/>
<text text-anchor="middle" x="1124.7686" y="-234.8" font-family="Times,serif" font-size="14.00" fill="#000000">X[4] &lt;= 6.975</text>
<text text-anchor="middle" x="1124.7686" y="-220.8" font-family="Times,serif" font-size="14.00" fill="#000000">gini = 0.627</text>
<text text-anchor="middle" x="1124.7686" y="-206.8" font-family="Times,serif" font-size="14.00" fill="#000000">samples = 60</text>
<text text-anchor="middle" x="1124.7686" y="-192.8" font-family="Times,serif" font-size="14.00" fill="#000000">value = [0, 0, 4, 26, 25, 5]</text>
</g>
<!-- 2&#45;&gt;10 -->
<g id="edge14" class="edge">
<title>2&#45;&gt;10</title>
<path fill="none" stroke="#000000" d="M949.4172,-286.4966C976.5422,-275.9009 1006.9697,-264.0152 1034.7678,-253.1565"/>
<polygon fill="#000000" stroke="#000000" points="1036.0446,-256.4154 1044.0856,-249.5168 1033.4976,-249.8952 1036.0446,-256.4154"/>
</g>
<!-- 13 -->
<g id="node13" class="node">
<title>13</title>
<polygon fill="none" stroke="#000000" points="859.3064,-143 712.2307,-143 712.2307,-93 859.3064,-93 859.3064,-143"/>
<text text-anchor="middle" x="785.7686" y="-127.8" font-family="Times,serif" font-size="14.00" fill="#000000">gini = 0.571</text>
<text text-anchor="middle" x="785.7686" y="-113.8" font-family="Times,serif" font-size="14.00" fill="#000000">samples = 7</text>
<text text-anchor="middle" x="785.7686" y="-99.8" font-family="Times,serif" font-size="14.00" fill="#000000">value = [0, 4, 0, 1, 2, 0]</text>
</g>
<!-- 9&#45;&gt;13 -->
<g id="edge12" class="edge">
<title>9&#45;&gt;13</title>
<path fill="none" stroke="#000000" d="M842.05,-185.8089C832.8216,-174.6904 822.4714,-162.2203 813.1878,-151.0352"/>
<polygon fill="#000000" stroke="#000000" points="815.7276,-148.615 806.6477,-143.1555 810.3412,-153.0857 815.7276,-148.615"/>
</g>
<!-- 14 -->
<g id="node14" class="node">
<title>14</title>
<polygon fill="none" stroke="#000000" points="1025.3064,-143 878.2307,-143 878.2307,-93 1025.3064,-93 1025.3064,-143"/>
<text text-anchor="middle" x="951.7686" y="-127.8" font-family="Times,serif" font-size="14.00" fill="#000000">gini = 0.48</text>
<text text-anchor="middle" x="951.7686" y="-113.8" font-family="Times,serif" font-size="14.00" fill="#000000">samples = 5</text>
<text text-anchor="middle" x="951.7686" y="-99.8" font-family="Times,serif" font-size="14.00" fill="#000000">value = [0, 0, 0, 3, 2, 0]</text>
</g>
<!-- 9&#45;&gt;14 -->
<g id="edge13" class="edge">
<title>9&#45;&gt;14</title>
<path fill="none" stroke="#000000" d="M895.4871,-185.8089C904.7156,-174.6904 915.0657,-162.2203 924.3493,-151.0352"/>
<polygon fill="#000000" stroke="#000000" points="927.1959,-153.0857 930.8895,-143.1555 921.8095,-148.615 927.1959,-153.0857"/>
</g>
<!-- 11 -->
<g id="node16" class="node">
<title>11</title>
<polygon fill="none" stroke="#000000" points="1205.3063,-150 1044.2308,-150 1044.2308,-86 1205.3063,-86 1205.3063,-150"/>
<text text-anchor="middle" x="1124.7686" y="-134.8" font-family="Times,serif" font-size="14.00" fill="#000000">X[0] &lt;= 11.638</text>
<text text-anchor="middle" x="1124.7686" y="-120.8" font-family="Times,serif" font-size="14.00" fill="#000000">gini = 0.583</text>
<text text-anchor="middle" x="1124.7686" y="-106.8" font-family="Times,serif" font-size="14.00" fill="#000000">samples = 41</text>
<text text-anchor="middle" x="1124.7686" y="-92.8" font-family="Times,serif" font-size="14.00" fill="#000000">value = [0, 0, 3, 10, 24, 4]</text>
</g>
<!-- 10&#45;&gt;11 -->
<g id="edge15" class="edge">
<title>10&#45;&gt;11</title>
<path fill="none" stroke="#000000" d="M1124.7686,-185.8089C1124.7686,-177.6906 1124.7686,-168.8517 1124.7686,-160.3186"/>
<polygon fill="#000000" stroke="#000000" points="1128.2687,-160.1307 1124.7686,-150.1308 1121.2687,-160.1308 1128.2687,-160.1307"/>
</g>
<!-- 12 -->
<g id="node19" class="node">
<title>12</title>
<polygon fill="none" stroke="#000000" points="1377.8064,-143 1223.7308,-143 1223.7308,-93 1377.8064,-93 1377.8064,-143"/>
<text text-anchor="middle" x="1300.7686" y="-127.8" font-family="Times,serif" font-size="14.00" fill="#000000">gini = 0.283</text>
<text text-anchor="middle" x="1300.7686" y="-113.8" font-family="Times,serif" font-size="14.00" fill="#000000">samples = 19</text>
<text text-anchor="middle" x="1300.7686" y="-99.8" font-family="Times,serif" font-size="14.00" fill="#000000">value = [0, 0, 1, 16, 1, 1]</text>
</g>
<!-- 10&#45;&gt;12 -->
<g id="edge18" class="edge">
<title>10&#45;&gt;12</title>
<path fill="none" stroke="#000000" d="M1181.4248,-185.8089C1202.7034,-173.7188 1226.7944,-160.0308 1247.732,-148.1344"/>
<polygon fill="#000000" stroke="#000000" points="1249.5293,-151.1388 1256.4948,-143.1555 1246.0712,-145.0526 1249.5293,-151.1388"/>
</g>
<!-- 15 -->
<g id="node17" class="node">
<title>15</title>
<polygon fill="none" stroke="#000000" points="1113.3064,-50 966.2307,-50 966.2307,0 1113.3064,0 1113.3064,-50"/>
<text text-anchor="middle" x="1039.7686" y="-34.8" font-family="Times,serif" font-size="14.00" fill="#000000">gini = 0.735</text>
<text text-anchor="middle" x="1039.7686" y="-20.8" font-family="Times,serif" font-size="14.00" fill="#000000">samples = 7</text>
<text text-anchor="middle" x="1039.7686" y="-6.8" font-family="Times,serif" font-size="14.00" fill="#000000">value = [0, 0, 2, 1, 2, 2]</text>
</g>
<!-- 11&#45;&gt;15 -->
<g id="edge16" class="edge">
<title>11&#45;&gt;15</title>
<path fill="none" stroke="#000000" d="M1095.5164,-85.9947C1087.1125,-76.7998 1077.9407,-66.7648 1069.5077,-57.5381"/>
<polygon fill="#000000" stroke="#000000" points="1071.9608,-55.0342 1062.6308,-50.014 1066.7938,-59.7567 1071.9608,-55.0342"/>
</g>
<!-- 16 -->
<g id="node18" class="node">
<title>16</title>
<polygon fill="none" stroke="#000000" points="1285.8064,-50 1131.7308,-50 1131.7308,0 1285.8064,0 1285.8064,-50"/>
<text text-anchor="middle" x="1208.7686" y="-34.8" font-family="Times,serif" font-size="14.00" fill="#000000">gini = 0.507</text>
<text text-anchor="middle" x="1208.7686" y="-20.8" font-family="Times,serif" font-size="14.00" fill="#000000">samples = 34</text>
<text text-anchor="middle" x="1208.7686" y="-6.8" font-family="Times,serif" font-size="14.00" fill="#000000">value = [0, 0, 1, 9, 22, 2]</text>
</g>
<!-- 11&#45;&gt;16 -->
<g id="edge17" class="edge">
<title>11&#45;&gt;16</title>
<path fill="none" stroke="#000000" d="M1153.6766,-85.9947C1161.9816,-76.7998 1171.0455,-66.7648 1179.3793,-57.5381"/>
<polygon fill="#000000" stroke="#000000" points="1182.0697,-59.7811 1186.1752,-50.014 1176.875,-55.0891 1182.0697,-59.7811"/>
</g>
</g>
</svg>
