<?xml version="1.0" encoding="UTF-8" standalone="no"?>
<!DOCTYPE svg PUBLIC "-//W3C//DTD SVG 1.1//EN"
 "http://www.w3.org/Graphics/SVG/1.1/DTD/svg11.dtd">
<!-- Generated by graphviz version 2.40.1 (20161225.0304)
 -->
<!-- Title: Tree Pages: 1 -->
<svg width="449pt" height="258pt"
 viewBox="0.00 0.00 449.28 258.00" xmlns="http://www.w3.org/2000/svg" xmlns:xlink="http://www.w3.org/1999/xlink">
<g id="graph0" class="graph" transform="scale(1 1) rotate(0) translate(4 254)">
<title>Tree</title>
<polygon fill="#ffffff" stroke="transparent" points="-4,4 -4,-254 445.2808,-254 445.2808,4 -4,4"/>
<!-- 0 -->
<g id="node1" class="node">
<title>0</title>
<polygon fill="none" stroke="#000000" points="272.5503,-250 167.4741,-250 167.4741,-186 272.5503,-186 272.5503,-250"/>
<text text-anchor="middle" x="220.0122" y="-234.8" font-family="Times,serif" font-size="14.00" fill="#000000">X[24] &lt;= 0.218</text>
<text text-anchor="middle" x="220.0122" y="-220.8" font-family="Times,serif" font-size="14.00" fill="#000000">gini = 0.49</text>
<text text-anchor="middle" x="220.0122" y="-206.8" font-family="Times,serif" font-size="14.00" fill="#000000">samples = 28</text>
<text text-anchor="middle" x="220.0122" y="-192.8" font-family="Times,serif" font-size="14.00" fill="#000000">value = [16, 12]</text>
</g>
<!-- 1 -->
<g id="node2" class="node">
<title>1</title>
<polygon fill="none" stroke="#000000" points="209.7253,-150 106.2991,-150 106.2991,-86 209.7253,-86 209.7253,-150"/>
<text text-anchor="middle" x="158.0122" y="-134.8" font-family="Times,serif" font-size="14.00" fill="#000000">X[30] &lt;= 30.11</text>
<text text-anchor="middle" x="158.0122" y="-120.8" font-family="Times,serif" font-size="14.00" fill="#000000">gini = 0.153</text>
<text text-anchor="middle" x="158.0122" y="-106.8" font-family="Times,serif" font-size="14.00" fill="#000000">samples = 12</text>
<text text-anchor="middle" x="158.0122" y="-92.8" font-family="Times,serif" font-size="14.00" fill="#000000">value = [1, 11]</text>
</g>
<!-- 0&#45;&gt;1 -->
<g id="edge1" class="edge">
<title>0&#45;&gt;1</title>
<path fill="none" stroke="#000000" d="M200.0537,-185.8089C194.6885,-177.1553 188.8157,-167.683 183.2059,-158.635"/>
<polygon fill="#000000" stroke="#000000" points="186.1774,-156.7855 177.9333,-150.1308 180.2281,-160.4741 186.1774,-156.7855"/>
<text text-anchor="middle" x="172.224" y="-170.2701" font-family="Times,serif" font-size="14.00" fill="#000000">True</text>
</g>
<!-- 4 -->
<g id="node5" class="node">
<title>4</title>
<polygon fill="none" stroke="#000000" points="338.2381,-150 227.7863,-150 227.7863,-86 338.2381,-86 338.2381,-150"/>
<text text-anchor="middle" x="283.0122" y="-134.8" font-family="Times,serif" font-size="14.00" fill="#000000">X[30] &lt;= 20.325</text>
<text text-anchor="middle" x="283.0122" y="-120.8" font-family="Times,serif" font-size="14.00" fill="#000000">gini = 0.117</text>
<text text-anchor="middle" x="283.0122" y="-106.8" font-family="Times,serif" font-size="14.00" fill="#000000">samples = 16</text>
<text text-anchor="middle" x="283.0122" y="-92.8" font-family="Times,serif" font-size="14.00" fill="#000000">value = [15, 1]</text>
</g>
<!-- 0&#45;&gt;4 -->
<g id="edge4" class="edge">
<title>0&#45;&gt;4</title>
<path fill="none" stroke="#000000" d="M240.2926,-185.8089C245.7444,-177.1553 251.7119,-167.683 257.4121,-158.635"/>
<polygon fill="#000000" stroke="#000000" points="260.4007,-160.4573 262.7698,-150.1308 254.4781,-156.726 260.4007,-160.4573"/>
<text text-anchor="middle" x="268.3039" y="-170.3105" font-family="Times,serif" font-size="14.00" fill="#000000">False</text>
</g>
<!-- 2 -->
<g id="node3" class="node">
<title>2</title>
<polygon fill="none" stroke="#000000" points="98.0366,-50 -.0122,-50 -.0122,0 98.0366,0 98.0366,-50"/>
<text text-anchor="middle" x="49.0122" y="-34.8" font-family="Times,serif" font-size="14.00" fill="#000000">gini = 0.0</text>
<text text-anchor="middle" x="49.0122" y="-20.8" font-family="Times,serif" font-size="14.00" fill="#000000">samples = 11</text>
<text text-anchor="middle" x="49.0122" y="-6.8" font-family="Times,serif" font-size="14.00" fill="#000000">value = [0, 11]</text>
</g>
<!-- 1&#45;&gt;2 -->
<g id="edge2" class="edge">
<title>1&#45;&gt;2</title>
<path fill="none" stroke="#000000" d="M120.5006,-85.9947C109.4005,-76.524 97.2557,-66.1619 86.1776,-56.7099"/>
<polygon fill="#000000" stroke="#000000" points="88.2088,-53.8421 78.3297,-50.014 83.6653,-59.1673 88.2088,-53.8421"/>
</g>
<!-- 3 -->
<g id="node4" class="node">
<title>3</title>
<polygon fill="none" stroke="#000000" points="207.5505,-50 116.4739,-50 116.4739,0 207.5505,0 207.5505,-50"/>
<text text-anchor="middle" x="162.0122" y="-34.8" font-family="Times,serif" font-size="14.00" fill="#000000">gini = 0.0</text>
<text text-anchor="middle" x="162.0122" y="-20.8" font-family="Times,serif" font-size="14.00" fill="#000000">samples = 1</text>
<text text-anchor="middle" x="162.0122" y="-6.8" font-family="Times,serif" font-size="14.00" fill="#000000">value = [1, 0]</text>
</g>
<!-- 1&#45;&gt;3 -->
<g id="edge3" class="edge">
<title>1&#45;&gt;3</title>
<path fill="none" stroke="#000000" d="M159.3888,-85.9947C159.7487,-77.6273 160.1385,-68.5643 160.5048,-60.0478"/>
<polygon fill="#000000" stroke="#000000" points="164.0033,-60.1552 160.9363,-50.014 157.0098,-59.8544 164.0033,-60.1552"/>
</g>
<!-- 5 -->
<g id="node6" class="node">
<title>5</title>
<polygon fill="none" stroke="#000000" points="324.5505,-50 233.4739,-50 233.4739,0 324.5505,0 324.5505,-50"/>
<text text-anchor="middle" x="279.0122" y="-34.8" font-family="Times,serif" font-size="14.00" fill="#000000">gini = 0.0</text>
<text text-anchor="middle" x="279.0122" y="-20.8" font-family="Times,serif" font-size="14.00" fill="#000000">samples = 1</text>
<text text-anchor="middle" x="279.0122" y="-6.8" font-family="Times,serif" font-size="14.00" fill="#000000">value = [0, 1]</text>
</g>
<!-- 4&#45;&gt;5 -->
<g id="edge5" class="edge">
<title>4&#45;&gt;5</title>
<path fill="none" stroke="#000000" d="M281.6356,-85.9947C281.2757,-77.6273 280.8859,-68.5643 280.5196,-60.0478"/>
<polygon fill="#000000" stroke="#000000" points="284.0147,-59.8544 280.0881,-50.014 277.0211,-60.1552 284.0147,-59.8544"/>
</g>
<!-- 6 -->
<g id="node7" class="node">
<title>6</title>
<polygon fill="none" stroke="#000000" points="441.0504,-50 342.974,-50 342.974,0 441.0504,0 441.0504,-50"/>
<text text-anchor="middle" x="392.0122" y="-34.8" font-family="Times,serif" font-size="14.00" fill="#000000">gini = 0.0</text>
<text text-anchor="middle" x="392.0122" y="-20.8" font-family="Times,serif" font-size="14.00" fill="#000000">samples = 15</text>
<text text-anchor="middle" x="392.0122" y="-6.8" font-family="Times,serif" font-size="14.00" fill="#000000">value = [15, 0]</text>
</g>
<!-- 4&#45;&gt;6 -->
<g id="edge6" class="edge">
<title>4&#45;&gt;6</title>
<path fill="none" stroke="#000000" d="M320.5238,-85.9947C331.6239,-76.524 343.7687,-66.1619 354.8468,-56.7099"/>
<polygon fill="#000000" stroke="#000000" points="357.3591,-59.1673 362.6947,-50.014 352.8156,-53.8421 357.3591,-59.1673"/>
</g>
</g>
</svg>
