<?xml version="1.0" encoding="UTF-8" standalone="no"?>
<!DOCTYPE svg PUBLIC "-//W3C//DTD SVG 1.1//EN"
 "http://www.w3.org/Graphics/SVG/1.1/DTD/svg11.dtd">
<!-- Generated by graphviz version 2.40.1 (20161225.0304)
 -->
<!-- Title: Tree Pages: 1 -->
<svg width="440pt" height="258pt"
 viewBox="0.00 0.00 439.78 258.00" xmlns="http://www.w3.org/2000/svg" xmlns:xlink="http://www.w3.org/1999/xlink">
<g id="graph0" class="graph" transform="scale(1 1) rotate(0) translate(4 254)">
<title>Tree</title>
<polygon fill="#ffffff" stroke="transparent" points="-4,4 -4,-254 435.7808,-254 435.7808,4 -4,4"/>
<!-- 0 -->
<g id="node1" class="node">
<title>0</title>
<polygon fill="none" stroke="#000000" points="264.3067,-250 159.2304,-250 159.2304,-186 264.3067,-186 264.3067,-250"/>
<text text-anchor="middle" x="211.7686" y="-234.8" font-family="Times,serif" font-size="14.00" fill="#000000">X[24] &lt;= 0.204</text>
<text text-anchor="middle" x="211.7686" y="-220.8" font-family="Times,serif" font-size="14.00" fill="#000000">gini = 0.49</text>
<text text-anchor="middle" x="211.7686" y="-206.8" font-family="Times,serif" font-size="14.00" fill="#000000">samples = 28</text>
<text text-anchor="middle" x="211.7686" y="-192.8" font-family="Times,serif" font-size="14.00" fill="#000000">value = [16, 12]</text>
</g>
<!-- 1 -->
<g id="node2" class="node">
<title>1</title>
<polygon fill="none" stroke="#000000" points="204.4817,-150 101.0554,-150 101.0554,-86 204.4817,-86 204.4817,-150"/>
<text text-anchor="middle" x="152.7686" y="-134.8" font-family="Times,serif" font-size="14.00" fill="#000000">X[28] &lt;= 0.117</text>
<text text-anchor="middle" x="152.7686" y="-120.8" font-family="Times,serif" font-size="14.00" fill="#000000">gini = 0.165</text>
<text text-anchor="middle" x="152.7686" y="-106.8" font-family="Times,serif" font-size="14.00" fill="#000000">samples = 11</text>
<text text-anchor="middle" x="152.7686" y="-92.8" font-family="Times,serif" font-size="14.00" fill="#000000">value = [1, 10]</text>
</g>
<!-- 0&#45;&gt;1 -->
<g id="edge1" class="edge">
<title>0&#45;&gt;1</title>
<path fill="none" stroke="#000000" d="M192.7758,-185.8089C187.7228,-177.2445 182.1967,-167.8782 176.9084,-158.915"/>
<polygon fill="#000000" stroke="#000000" points="179.8217,-156.9649 171.7257,-150.1308 173.7928,-160.522 179.8217,-156.9649"/>
<text text-anchor="middle" x="165.4834" y="-170.1389" font-family="Times,serif" font-size="14.00" fill="#000000">True</text>
</g>
<!-- 2 -->
<g id="node5" class="node">
<title>2</title>
<polygon fill="none" stroke="#000000" points="320.8067,-150 222.7304,-150 222.7304,-86 320.8067,-86 320.8067,-150"/>
<text text-anchor="middle" x="271.7686" y="-134.8" font-family="Times,serif" font-size="14.00" fill="#000000">X[9] &lt;= 0.178</text>
<text text-anchor="middle" x="271.7686" y="-120.8" font-family="Times,serif" font-size="14.00" fill="#000000">gini = 0.208</text>
<text text-anchor="middle" x="271.7686" y="-106.8" font-family="Times,serif" font-size="14.00" fill="#000000">samples = 17</text>
<text text-anchor="middle" x="271.7686" y="-92.8" font-family="Times,serif" font-size="14.00" fill="#000000">value = [15, 2]</text>
</g>
<!-- 0&#45;&gt;2 -->
<g id="edge4" class="edge">
<title>0&#45;&gt;2</title>
<path fill="none" stroke="#000000" d="M231.0832,-185.8089C236.2218,-177.2445 241.8416,-167.8782 247.2196,-158.915"/>
<polygon fill="#000000" stroke="#000000" points="250.3463,-160.5065 252.4901,-150.1308 244.3439,-156.905 250.3463,-160.5065"/>
<text text-anchor="middle" x="258.5535" y="-170.1843" font-family="Times,serif" font-size="14.00" fill="#000000">False</text>
</g>
<!-- 5 -->
<g id="node3" class="node">
<title>5</title>
<polygon fill="none" stroke="#000000" points="91.3068,-50 .2303,-50 .2303,0 91.3068,0 91.3068,-50"/>
<text text-anchor="middle" x="45.7686" y="-34.8" font-family="Times,serif" font-size="14.00" fill="#000000">gini = 0.0</text>
<text text-anchor="middle" x="45.7686" y="-20.8" font-family="Times,serif" font-size="14.00" fill="#000000">samples = 6</text>
<text text-anchor="middle" x="45.7686" y="-6.8" font-family="Times,serif" font-size="14.00" fill="#000000">value = [0, 6]</text>
</g>
<!-- 1&#45;&gt;5 -->
<g id="edge2" class="edge">
<title>1&#45;&gt;5</title>
<path fill="none" stroke="#000000" d="M115.9452,-85.9947C105.0488,-76.524 93.1269,-66.1619 82.252,-56.7099"/>
<polygon fill="#000000" stroke="#000000" points="84.3918,-53.9324 74.5481,-50.014 79.7997,-59.2158 84.3918,-53.9324"/>
</g>
<!-- 6 -->
<g id="node4" class="node">
<title>6</title>
<polygon fill="none" stroke="#000000" points="201.3068,-50 110.2303,-50 110.2303,0 201.3068,0 201.3068,-50"/>
<text text-anchor="middle" x="155.7686" y="-34.8" font-family="Times,serif" font-size="14.00" fill="#000000">gini = 0.32</text>
<text text-anchor="middle" x="155.7686" y="-20.8" font-family="Times,serif" font-size="14.00" fill="#000000">samples = 5</text>
<text text-anchor="middle" x="155.7686" y="-6.8" font-family="Times,serif" font-size="14.00" fill="#000000">value = [1, 4]</text>
</g>
<!-- 1&#45;&gt;6 -->
<g id="edge3" class="edge">
<title>1&#45;&gt;6</title>
<path fill="none" stroke="#000000" d="M153.801,-85.9947C154.0709,-77.6273 154.3633,-68.5643 154.638,-60.0478"/>
<polygon fill="#000000" stroke="#000000" points="158.1373,-60.1217 154.9617,-50.014 151.141,-59.896 158.1373,-60.1217"/>
</g>
<!-- 3 -->
<g id="node6" class="node">
<title>3</title>
<polygon fill="none" stroke="#000000" points="315.3068,-50 224.2303,-50 224.2303,0 315.3068,0 315.3068,-50"/>
<text text-anchor="middle" x="269.7686" y="-34.8" font-family="Times,serif" font-size="14.00" fill="#000000">gini = 0.444</text>
<text text-anchor="middle" x="269.7686" y="-20.8" font-family="Times,serif" font-size="14.00" fill="#000000">samples = 6</text>
<text text-anchor="middle" x="269.7686" y="-6.8" font-family="Times,serif" font-size="14.00" fill="#000000">value = [4, 2]</text>
</g>
<!-- 2&#45;&gt;3 -->
<g id="edge5" class="edge">
<title>2&#45;&gt;3</title>
<path fill="none" stroke="#000000" d="M271.0803,-85.9947C270.9003,-77.6273 270.7054,-68.5643 270.5223,-60.0478"/>
<polygon fill="#000000" stroke="#000000" points="274.0208,-59.9364 270.3065,-50.014 267.0224,-60.087 274.0208,-59.9364"/>
</g>
<!-- 4 -->
<g id="node7" class="node">
<title>4</title>
<polygon fill="none" stroke="#000000" points="431.793,-50 333.7441,-50 333.7441,0 431.793,0 431.793,-50"/>
<text text-anchor="middle" x="382.7686" y="-34.8" font-family="Times,serif" font-size="14.00" fill="#000000">gini = 0.0</text>
<text text-anchor="middle" x="382.7686" y="-20.8" font-family="Times,serif" font-size="14.00" fill="#000000">samples = 11</text>
<text text-anchor="middle" x="382.7686" y="-6.8" font-family="Times,serif" font-size="14.00" fill="#000000">value = [11, 0]</text>
</g>
<!-- 2&#45;&gt;4 -->
<g id="edge6" class="edge">
<title>2&#45;&gt;4</title>
<path fill="none" stroke="#000000" d="M309.9685,-85.9947C321.2722,-76.524 333.6398,-66.1619 344.9212,-56.7099"/>
<polygon fill="#000000" stroke="#000000" points="347.4957,-59.1191 352.9131,-50.014 343.0001,-53.7534 347.4957,-59.1191"/>
</g>
</g>
</svg>
