<?xml version="1.0" encoding="UTF-8" standalone="no"?>
<!DOCTYPE svg PUBLIC "-//W3C//DTD SVG 1.1//EN"
 "http://www.w3.org/Graphics/SVG/1.1/DTD/svg11.dtd">
<!-- Generated by graphviz version 2.40.1 (20161225.0304)
 -->
<!-- Title: Tree Pages: 1 -->
<svg width="274pt" height="258pt"
 viewBox="0.00 0.00 274.04 258.00" xmlns="http://www.w3.org/2000/svg" xmlns:xlink="http://www.w3.org/1999/xlink">
<g id="graph0" class="graph" transform="scale(1 1) rotate(0) translate(4 254)">
<title>Tree</title>
<polygon fill="#ffffff" stroke="transparent" points="-4,4 -4,-254 270.0371,-254 270.0371,4 -4,4"/>
<!-- 0 -->
<g id="node1" class="node">
<title>0</title>
<polygon fill="none" stroke="#000000" points="156.3067,-250 58.2304,-250 58.2304,-186 156.3067,-186 156.3067,-250"/>
<text text-anchor="middle" x="107.2686" y="-234.8" font-family="Times,serif" font-size="14.00" fill="#000000">X[7] &lt;= 13.72</text>
<text text-anchor="middle" x="107.2686" y="-220.8" font-family="Times,serif" font-size="14.00" fill="#000000">gini = 0.436</text>
<text text-anchor="middle" x="107.2686" y="-206.8" font-family="Times,serif" font-size="14.00" fill="#000000">samples = 28</text>
<text text-anchor="middle" x="107.2686" y="-192.8" font-family="Times,serif" font-size="14.00" fill="#000000">value = [9, 19]</text>
</g>
<!-- 1 -->
<g id="node2" class="node">
<title>1</title>
<polygon fill="none" stroke="#000000" points="98.3067,-143 .2304,-143 .2304,-93 98.3067,-93 98.3067,-143"/>
<text text-anchor="middle" x="49.2686" y="-127.8" font-family="Times,serif" font-size="14.00" fill="#000000">gini = 0.0</text>
<text text-anchor="middle" x="49.2686" y="-113.8" font-family="Times,serif" font-size="14.00" fill="#000000">samples = 17</text>
<text text-anchor="middle" x="49.2686" y="-99.8" font-family="Times,serif" font-size="14.00" fill="#000000">value = [0, 17]</text>
</g>
<!-- 0&#45;&gt;1 -->
<g id="edge1" class="edge">
<title>0&#45;&gt;1</title>
<path fill="none" stroke="#000000" d="M88.5977,-185.8089C82.3368,-175.0142 75.337,-162.9456 68.9977,-152.0158"/>
<polygon fill="#000000" stroke="#000000" points="71.9036,-150.0498 63.8588,-143.1555 65.8484,-153.5619 71.9036,-150.0498"/>
<text text-anchor="middle" x="57.4362" y="-163.1165" font-family="Times,serif" font-size="14.00" fill="#000000">True</text>
</g>
<!-- 2 -->
<g id="node3" class="node">
<title>2</title>
<polygon fill="none" stroke="#000000" points="213.4945,-150 117.0426,-150 117.0426,-86 213.4945,-86 213.4945,-150"/>
<text text-anchor="middle" x="165.2686" y="-134.8" font-family="Times,serif" font-size="14.00" fill="#000000">X[3] &lt;= 0.072</text>
<text text-anchor="middle" x="165.2686" y="-120.8" font-family="Times,serif" font-size="14.00" fill="#000000">gini = 0.298</text>
<text text-anchor="middle" x="165.2686" y="-106.8" font-family="Times,serif" font-size="14.00" fill="#000000">samples = 11</text>
<text text-anchor="middle" x="165.2686" y="-92.8" font-family="Times,serif" font-size="14.00" fill="#000000">value = [9, 2]</text>
</g>
<!-- 0&#45;&gt;2 -->
<g id="edge2" class="edge">
<title>0&#45;&gt;2</title>
<path fill="none" stroke="#000000" d="M125.9394,-185.8089C130.9067,-177.2445 136.3392,-167.8782 141.5379,-158.915"/>
<polygon fill="#000000" stroke="#000000" points="144.6431,-160.5371 146.6327,-150.1308 138.5879,-157.0251 144.6431,-160.5371"/>
<text text-anchor="middle" x="153.0552" y="-170.0917" font-family="Times,serif" font-size="14.00" fill="#000000">False</text>
</g>
<!-- 3 -->
<g id="node4" class="node">
<title>3</title>
<polygon fill="none" stroke="#000000" points="155.8068,-50 64.7303,-50 64.7303,0 155.8068,0 155.8068,-50"/>
<text text-anchor="middle" x="110.2686" y="-34.8" font-family="Times,serif" font-size="14.00" fill="#000000">gini = 0.48</text>
<text text-anchor="middle" x="110.2686" y="-20.8" font-family="Times,serif" font-size="14.00" fill="#000000">samples = 5</text>
<text text-anchor="middle" x="110.2686" y="-6.8" font-family="Times,serif" font-size="14.00" fill="#000000">value = [3, 2]</text>
</g>
<!-- 2&#45;&gt;3 -->
<g id="edge3" class="edge">
<title>2&#45;&gt;3</title>
<path fill="none" stroke="#000000" d="M146.3407,-85.9947C141.1204,-77.1676 135.4421,-67.5662 130.1686,-58.6491"/>
<polygon fill="#000000" stroke="#000000" points="133.1649,-56.8398 125.0618,-50.014 127.1397,-60.4031 133.1649,-56.8398"/>
</g>
<!-- 4 -->
<g id="node5" class="node">
<title>4</title>
<polygon fill="none" stroke="#000000" points="265.8068,-50 174.7303,-50 174.7303,0 265.8068,0 265.8068,-50"/>
<text text-anchor="middle" x="220.2686" y="-34.8" font-family="Times,serif" font-size="14.00" fill="#000000">gini = 0.0</text>
<text text-anchor="middle" x="220.2686" y="-20.8" font-family="Times,serif" font-size="14.00" fill="#000000">samples = 6</text>
<text text-anchor="middle" x="220.2686" y="-6.8" font-family="Times,serif" font-size="14.00" fill="#000000">value = [6, 0]</text>
</g>
<!-- 2&#45;&gt;4 -->
<g id="edge4" class="edge">
<title>2&#45;&gt;4</title>
<path fill="none" stroke="#000000" d="M184.1964,-85.9947C189.4168,-77.1676 195.095,-67.5662 200.3686,-58.6491"/>
<polygon fill="#000000" stroke="#000000" points="203.3975,-60.4031 205.4753,-50.014 197.3722,-56.8398 203.3975,-60.4031"/>
</g>
</g>
</svg>
