<?xml version="1.0" encoding="UTF-8" standalone="no"?>
<!DOCTYPE svg PUBLIC "-//W3C//DTD SVG 1.1//EN"
 "http://www.w3.org/Graphics/SVG/1.1/DTD/svg11.dtd">
<!-- Generated by graphviz version 2.40.1 (20161225.0304)
 -->
<!-- Title: Tree Pages: 1 -->
<svg width="501pt" height="458pt"
 viewBox="0.00 0.00 500.54 458.00" xmlns="http://www.w3.org/2000/svg" xmlns:xlink="http://www.w3.org/1999/xlink">
<g id="graph0" class="graph" transform="scale(1 1) rotate(0) translate(4 454)">
<title>Tree</title>
<polygon fill="#ffffff" stroke="transparent" points="-4,4 -4,-454 496.5371,-454 496.5371,4 -4,4"/>
<!-- 0 -->
<g id="node1" class="node">
<title>0</title>
<polygon fill="none" stroke="#000000" points="367.3066,-450 248.2306,-450 248.2306,-386 367.3066,-386 367.3066,-450"/>
<text text-anchor="middle" x="307.7686" y="-434.8" font-family="Times,serif" font-size="14.00" fill="#000000">X[2] &lt;= 0.161</text>
<text text-anchor="middle" x="307.7686" y="-420.8" font-family="Times,serif" font-size="14.00" fill="#000000">gini = 0.072</text>
<text text-anchor="middle" x="307.7686" y="-406.8" font-family="Times,serif" font-size="14.00" fill="#000000">samples = 324</text>
<text text-anchor="middle" x="307.7686" y="-392.8" font-family="Times,serif" font-size="14.00" fill="#000000">value = [4, 312, 8]</text>
</g>
<!-- 1 -->
<g id="node2" class="node">
<title>1</title>
<polygon fill="none" stroke="#000000" points="302.3066,-350 183.2306,-350 183.2306,-286 302.3066,-286 302.3066,-350"/>
<text text-anchor="middle" x="242.7686" y="-334.8" font-family="Times,serif" font-size="14.00" fill="#000000">X[8] &lt;= 4.581</text>
<text text-anchor="middle" x="242.7686" y="-320.8" font-family="Times,serif" font-size="14.00" fill="#000000">gini = 0.067</text>
<text text-anchor="middle" x="242.7686" y="-306.8" font-family="Times,serif" font-size="14.00" fill="#000000">samples = 318</text>
<text text-anchor="middle" x="242.7686" y="-292.8" font-family="Times,serif" font-size="14.00" fill="#000000">value = [3, 307, 8]</text>
</g>
<!-- 0&#45;&gt;1 -->
<g id="edge1" class="edge">
<title>0&#45;&gt;1</title>
<path fill="none" stroke="#000000" d="M286.8444,-385.8089C281.2195,-377.1553 275.0625,-367.683 269.1813,-358.635"/>
<polygon fill="#000000" stroke="#000000" points="272.038,-356.6077 263.6535,-350.1308 266.1689,-360.4227 272.038,-356.6077"/>
<text text-anchor="middle" x="258.4659" y="-370.3866" font-family="Times,serif" font-size="14.00" fill="#000000">True</text>
</g>
<!-- 2 -->
<g id="node11" class="node">
<title>2</title>
<polygon fill="none" stroke="#000000" points="426.3067,-343 321.2304,-343 321.2304,-293 426.3067,-293 426.3067,-343"/>
<text text-anchor="middle" x="373.7686" y="-327.8" font-family="Times,serif" font-size="14.00" fill="#000000">gini = 0.278</text>
<text text-anchor="middle" x="373.7686" y="-313.8" font-family="Times,serif" font-size="14.00" fill="#000000">samples = 6</text>
<text text-anchor="middle" x="373.7686" y="-299.8" font-family="Times,serif" font-size="14.00" fill="#000000">value = [1, 5, 0]</text>
</g>
<!-- 0&#45;&gt;2 -->
<g id="edge10" class="edge">
<title>0&#45;&gt;2</title>
<path fill="none" stroke="#000000" d="M329.0147,-385.8089C336.2104,-374.9063 344.2639,-362.7041 351.5343,-351.6882"/>
<polygon fill="#000000" stroke="#000000" points="354.5786,-353.4296 357.1659,-343.1555 348.7363,-349.5737 354.5786,-353.4296"/>
<text text-anchor="middle" x="362.1822" y="-363.4471" font-family="Times,serif" font-size="14.00" fill="#000000">False</text>
</g>
<!-- 3 -->
<g id="node3" class="node">
<title>3</title>
<polygon fill="none" stroke="#000000" points="231.8066,-250 119.7305,-250 119.7305,-186 231.8066,-186 231.8066,-250"/>
<text text-anchor="middle" x="175.7686" y="-234.8" font-family="Times,serif" font-size="14.00" fill="#000000">X[10] &lt;= 0.43</text>
<text text-anchor="middle" x="175.7686" y="-220.8" font-family="Times,serif" font-size="14.00" fill="#000000">gini = 0.291</text>
<text text-anchor="middle" x="175.7686" y="-206.8" font-family="Times,serif" font-size="14.00" fill="#000000">samples = 17</text>
<text text-anchor="middle" x="175.7686" y="-192.8" font-family="Times,serif" font-size="14.00" fill="#000000">value = [3, 14, 0]</text>
</g>
<!-- 1&#45;&gt;3 -->
<g id="edge2" class="edge">
<title>1&#45;&gt;3</title>
<path fill="none" stroke="#000000" d="M221.2005,-285.8089C215.4026,-277.1553 209.0562,-267.683 202.994,-258.635"/>
<polygon fill="#000000" stroke="#000000" points="205.7701,-256.4903 197.2962,-250.1308 199.9547,-260.3866 205.7701,-256.4903"/>
</g>
<!-- 4 -->
<g id="node8" class="node">
<title>4</title>
<polygon fill="none" stroke="#000000" points="369.3066,-250 250.2306,-250 250.2306,-186 369.3066,-186 369.3066,-250"/>
<text text-anchor="middle" x="309.7686" y="-234.8" font-family="Times,serif" font-size="14.00" fill="#000000">X[8] &lt;= 7.341</text>
<text text-anchor="middle" x="309.7686" y="-220.8" font-family="Times,serif" font-size="14.00" fill="#000000">gini = 0.052</text>
<text text-anchor="middle" x="309.7686" y="-206.8" font-family="Times,serif" font-size="14.00" fill="#000000">samples = 301</text>
<text text-anchor="middle" x="309.7686" y="-192.8" font-family="Times,serif" font-size="14.00" fill="#000000">value = [0, 293, 8]</text>
</g>
<!-- 1&#45;&gt;4 -->
<g id="edge7" class="edge">
<title>1&#45;&gt;4</title>
<path fill="none" stroke="#000000" d="M264.3366,-285.8089C270.1345,-277.1553 276.4809,-267.683 282.5431,-258.635"/>
<polygon fill="#000000" stroke="#000000" points="285.5824,-260.3866 288.2409,-250.1308 279.767,-256.4903 285.5824,-260.3866"/>
</g>
<!-- 7 -->
<g id="node4" class="node">
<title>7</title>
<polygon fill="none" stroke="#000000" points="105.3067,-143 .2304,-143 .2304,-93 105.3067,-93 105.3067,-143"/>
<text text-anchor="middle" x="52.7686" y="-127.8" font-family="Times,serif" font-size="14.00" fill="#000000">gini = 0.0</text>
<text text-anchor="middle" x="52.7686" y="-113.8" font-family="Times,serif" font-size="14.00" fill="#000000">samples = 5</text>
<text text-anchor="middle" x="52.7686" y="-99.8" font-family="Times,serif" font-size="14.00" fill="#000000">value = [0, 5, 0]</text>
</g>
<!-- 3&#45;&gt;7 -->
<g id="edge3" class="edge">
<title>3&#45;&gt;7</title>
<path fill="none" stroke="#000000" d="M136.1735,-185.8089C121.9666,-174.2586 105.9657,-161.2497 91.8064,-149.7381"/>
<polygon fill="#000000" stroke="#000000" points="93.677,-146.7481 83.7099,-143.1555 89.2612,-152.1796 93.677,-146.7481"/>
</g>
<!-- 8 -->
<g id="node5" class="node">
<title>8</title>
<polygon fill="none" stroke="#000000" points="229.3067,-150 124.2304,-150 124.2304,-86 229.3067,-86 229.3067,-150"/>
<text text-anchor="middle" x="176.7686" y="-134.8" font-family="Times,serif" font-size="14.00" fill="#000000">X[4] &lt;= 0.996</text>
<text text-anchor="middle" x="176.7686" y="-120.8" font-family="Times,serif" font-size="14.00" fill="#000000">gini = 0.375</text>
<text text-anchor="middle" x="176.7686" y="-106.8" font-family="Times,serif" font-size="14.00" fill="#000000">samples = 12</text>
<text text-anchor="middle" x="176.7686" y="-92.8" font-family="Times,serif" font-size="14.00" fill="#000000">value = [3, 9, 0]</text>
</g>
<!-- 3&#45;&gt;8 -->
<g id="edge4" class="edge">
<title>3&#45;&gt;8</title>
<path fill="none" stroke="#000000" d="M176.0905,-185.8089C176.1716,-177.6906 176.26,-168.8517 176.3454,-160.3186"/>
<polygon fill="#000000" stroke="#000000" points="179.847,-160.1653 176.4472,-150.1308 172.8473,-160.0952 179.847,-160.1653"/>
</g>
<!-- 9 -->
<g id="node6" class="node">
<title>9</title>
<polygon fill="none" stroke="#000000" points="167.3067,-50 62.2304,-50 62.2304,0 167.3067,0 167.3067,-50"/>
<text text-anchor="middle" x="114.7686" y="-34.8" font-family="Times,serif" font-size="14.00" fill="#000000">gini = 0.0</text>
<text text-anchor="middle" x="114.7686" y="-20.8" font-family="Times,serif" font-size="14.00" fill="#000000">samples = 7</text>
<text text-anchor="middle" x="114.7686" y="-6.8" font-family="Times,serif" font-size="14.00" fill="#000000">value = [0, 7, 0]</text>
</g>
<!-- 8&#45;&gt;9 -->
<g id="edge5" class="edge">
<title>8&#45;&gt;9</title>
<path fill="none" stroke="#000000" d="M155.4317,-85.9947C149.4857,-77.0756 143.0126,-67.3661 137.0157,-58.3706"/>
<polygon fill="#000000" stroke="#000000" points="139.9038,-56.3931 131.4446,-50.014 134.0794,-60.276 139.9038,-56.3931"/>
</g>
<!-- 10 -->
<g id="node7" class="node">
<title>10</title>
<polygon fill="none" stroke="#000000" points="291.3067,-50 186.2304,-50 186.2304,0 291.3067,0 291.3067,-50"/>
<text text-anchor="middle" x="238.7686" y="-34.8" font-family="Times,serif" font-size="14.00" fill="#000000">gini = 0.48</text>
<text text-anchor="middle" x="238.7686" y="-20.8" font-family="Times,serif" font-size="14.00" fill="#000000">samples = 5</text>
<text text-anchor="middle" x="238.7686" y="-6.8" font-family="Times,serif" font-size="14.00" fill="#000000">value = [3, 2, 0]</text>
</g>
<!-- 8&#45;&gt;10 -->
<g id="edge6" class="edge">
<title>8&#45;&gt;10</title>
<path fill="none" stroke="#000000" d="M198.1054,-85.9947C204.0515,-77.0756 210.5245,-67.3661 216.5215,-58.3706"/>
<polygon fill="#000000" stroke="#000000" points="219.4577,-60.276 222.0925,-50.014 213.6333,-56.3931 219.4577,-60.276"/>
</g>
<!-- 5 -->
<g id="node9" class="node">
<title>5</title>
<polygon fill="none" stroke="#000000" points="368.3066,-143 249.2306,-143 249.2306,-93 368.3066,-93 368.3066,-143"/>
<text text-anchor="middle" x="308.7686" y="-127.8" font-family="Times,serif" font-size="14.00" fill="#000000">gini = 0.0</text>
<text text-anchor="middle" x="308.7686" y="-113.8" font-family="Times,serif" font-size="14.00" fill="#000000">samples = 293</text>
<text text-anchor="middle" x="308.7686" y="-99.8" font-family="Times,serif" font-size="14.00" fill="#000000">value = [0, 293, 0]</text>
</g>
<!-- 4&#45;&gt;5 -->
<g id="edge8" class="edge">
<title>4&#45;&gt;5</title>
<path fill="none" stroke="#000000" d="M309.4466,-185.8089C309.343,-175.446 309.2276,-163.909 309.1219,-153.3327"/>
<polygon fill="#000000" stroke="#000000" points="312.62,-153.12 309.0201,-143.1555 305.6204,-153.1901 312.62,-153.12"/>
</g>
<!-- 6 -->
<g id="node10" class="node">
<title>6</title>
<polygon fill="none" stroke="#000000" points="492.3067,-143 387.2304,-143 387.2304,-93 492.3067,-93 492.3067,-143"/>
<text text-anchor="middle" x="439.7686" y="-127.8" font-family="Times,serif" font-size="14.00" fill="#000000">gini = 0.0</text>
<text text-anchor="middle" x="439.7686" y="-113.8" font-family="Times,serif" font-size="14.00" fill="#000000">samples = 8</text>
<text text-anchor="middle" x="439.7686" y="-99.8" font-family="Times,serif" font-size="14.00" fill="#000000">value = [0, 0, 8]</text>
</g>
<!-- 4&#45;&gt;6 -->
<g id="edge9" class="edge">
<title>4&#45;&gt;6</title>
<path fill="none" stroke="#000000" d="M351.617,-185.8089C366.7727,-174.1506 383.8602,-161.0064 398.9281,-149.4157"/>
<polygon fill="#000000" stroke="#000000" points="401.2741,-152.0269 407.0663,-143.1555 397.0061,-146.4785 401.2741,-152.0269"/>
</g>
</g>
</svg>
