<?xml version="1.0" encoding="UTF-8" standalone="no"?>
<!DOCTYPE svg PUBLIC "-//W3C//DTD SVG 1.1//EN"
 "http://www.w3.org/Graphics/SVG/1.1/DTD/svg11.dtd">
<!-- Generated by graphviz version 2.40.1 (20161225.0304)
 -->
<!-- Title: Tree Pages: 1 -->
<svg width="310pt" height="258pt"
 viewBox="0.00 0.00 309.54 258.00" xmlns="http://www.w3.org/2000/svg" xmlns:xlink="http://www.w3.org/1999/xlink">
<g id="graph0" class="graph" transform="scale(1 1) rotate(0) translate(4 254)">
<title>Tree</title>
<polygon fill="#ffffff" stroke="transparent" points="-4,4 -4,-254 305.5371,-254 305.5371,4 -4,4"/>
<!-- 0 -->
<g id="node1" class="node">
<title>0</title>
<polygon fill="none" stroke="#000000" points="242.3066,-250 123.2306,-250 123.2306,-186 242.3066,-186 242.3066,-250"/>
<text text-anchor="middle" x="182.7686" y="-234.8" font-family="Times,serif" font-size="14.00" fill="#000000">X[8] &lt;= 7.5</text>
<text text-anchor="middle" x="182.7686" y="-220.8" font-family="Times,serif" font-size="14.00" fill="#000000">gini = 0.072</text>
<text text-anchor="middle" x="182.7686" y="-206.8" font-family="Times,serif" font-size="14.00" fill="#000000">samples = 324</text>
<text text-anchor="middle" x="182.7686" y="-192.8" font-family="Times,serif" font-size="14.00" fill="#000000">value = [4, 312, 8]</text>
</g>
<!-- 1 -->
<g id="node2" class="node">
<title>1</title>
<polygon fill="none" stroke="#000000" points="177.3066,-150 58.2306,-150 58.2306,-86 177.3066,-86 177.3066,-150"/>
<text text-anchor="middle" x="117.7686" y="-134.8" font-family="Times,serif" font-size="14.00" fill="#000000">X[8] &lt;= 3.5</text>
<text text-anchor="middle" x="117.7686" y="-120.8" font-family="Times,serif" font-size="14.00" fill="#000000">gini = 0.025</text>
<text text-anchor="middle" x="117.7686" y="-106.8" font-family="Times,serif" font-size="14.00" fill="#000000">samples = 316</text>
<text text-anchor="middle" x="117.7686" y="-92.8" font-family="Times,serif" font-size="14.00" fill="#000000">value = [4, 312, 0]</text>
</g>
<!-- 0&#45;&gt;1 -->
<g id="edge1" class="edge">
<title>0&#45;&gt;1</title>
<path fill="none" stroke="#000000" d="M161.8444,-185.8089C156.2195,-177.1553 150.0625,-167.683 144.1813,-158.635"/>
<polygon fill="#000000" stroke="#000000" points="147.038,-156.6077 138.6535,-150.1308 141.1689,-160.4227 147.038,-156.6077"/>
<text text-anchor="middle" x="133.4659" y="-170.3866" font-family="Times,serif" font-size="14.00" fill="#000000">True</text>
</g>
<!-- 4 -->
<g id="node5" class="node">
<title>4</title>
<polygon fill="none" stroke="#000000" points="301.3067,-143 196.2304,-143 196.2304,-93 301.3067,-93 301.3067,-143"/>
<text text-anchor="middle" x="248.7686" y="-127.8" font-family="Times,serif" font-size="14.00" fill="#000000">gini = 0.0</text>
<text text-anchor="middle" x="248.7686" y="-113.8" font-family="Times,serif" font-size="14.00" fill="#000000">samples = 8</text>
<text text-anchor="middle" x="248.7686" y="-99.8" font-family="Times,serif" font-size="14.00" fill="#000000">value = [0, 0, 8]</text>
</g>
<!-- 0&#45;&gt;4 -->
<g id="edge4" class="edge">
<title>0&#45;&gt;4</title>
<path fill="none" stroke="#000000" d="M204.0147,-185.8089C211.2104,-174.9063 219.2639,-162.7041 226.5343,-151.6882"/>
<polygon fill="#000000" stroke="#000000" points="229.5786,-153.4296 232.1659,-143.1555 223.7363,-149.5737 229.5786,-153.4296"/>
<text text-anchor="middle" x="237.1822" y="-163.4471" font-family="Times,serif" font-size="14.00" fill="#000000">False</text>
</g>
<!-- 2 -->
<g id="node3" class="node">
<title>2</title>
<polygon fill="none" stroke="#000000" points="105.3067,-50 .2304,-50 .2304,0 105.3067,0 105.3067,-50"/>
<text text-anchor="middle" x="52.7686" y="-34.8" font-family="Times,serif" font-size="14.00" fill="#000000">gini = 0.0</text>
<text text-anchor="middle" x="52.7686" y="-20.8" font-family="Times,serif" font-size="14.00" fill="#000000">samples = 4</text>
<text text-anchor="middle" x="52.7686" y="-6.8" font-family="Times,serif" font-size="14.00" fill="#000000">value = [4, 0, 0]</text>
</g>
<!-- 1&#45;&gt;2 -->
<g id="edge2" class="edge">
<title>1&#45;&gt;2</title>
<path fill="none" stroke="#000000" d="M95.3992,-85.9947C89.1655,-77.0756 82.3793,-67.3661 76.0921,-58.3706"/>
<polygon fill="#000000" stroke="#000000" points="78.849,-56.2054 70.2515,-50.014 73.1115,-60.2156 78.849,-56.2054"/>
</g>
<!-- 3 -->
<g id="node4" class="node">
<title>3</title>
<polygon fill="none" stroke="#000000" points="243.3066,-50 124.2306,-50 124.2306,0 243.3066,0 243.3066,-50"/>
<text text-anchor="middle" x="183.7686" y="-34.8" font-family="Times,serif" font-size="14.00" fill="#000000">gini = 0.0</text>
<text text-anchor="middle" x="183.7686" y="-20.8" font-family="Times,serif" font-size="14.00" fill="#000000">samples = 312</text>
<text text-anchor="middle" x="183.7686" y="-6.8" font-family="Times,serif" font-size="14.00" fill="#000000">value = [0, 312, 0]</text>
</g>
<!-- 1&#45;&gt;3 -->
<g id="edge3" class="edge">
<title>1&#45;&gt;3</title>
<path fill="none" stroke="#000000" d="M140.482,-85.9947C146.8116,-77.0756 153.7023,-67.3661 160.0862,-58.3706"/>
<polygon fill="#000000" stroke="#000000" points="163.0834,-60.1947 166.0167,-50.014 157.3749,-56.1435 163.0834,-60.1947"/>
</g>
</g>
</svg>
