<?xml version="1.0" encoding="UTF-8" standalone="no"?>
<!DOCTYPE svg PUBLIC "-//W3C//DTD SVG 1.1//EN"
 "http://www.w3.org/Graphics/SVG/1.1/DTD/svg11.dtd">
<!-- Generated by graphviz version 2.40.1 (20161225.0304)
 -->
<!-- Title: Tree Pages: 1 -->
<svg width="1359pt" height="458pt"
 viewBox="0.00 0.00 1358.54 458.00" xmlns="http://www.w3.org/2000/svg" xmlns:xlink="http://www.w3.org/1999/xlink">
<g id="graph0" class="graph" transform="scale(1 1) rotate(0) translate(4 454)">
<title>Tree</title>
<polygon fill="#ffffff" stroke="transparent" points="-4,4 -4,-454 1354.5371,-454 1354.5371,4 -4,4"/>
<!-- 0 -->
<g id="node1" class="node">
<title>0</title>
<polygon fill="none" stroke="#000000" points="1047.3062,-450 858.2309,-450 858.2309,-386 1047.3062,-386 1047.3062,-450"/>
<text text-anchor="middle" x="952.7686" y="-434.8" font-family="Times,serif" font-size="14.00" fill="#000000">X[0] &lt;= 10.977</text>
<text text-anchor="middle" x="952.7686" y="-420.8" font-family="Times,serif" font-size="14.00" fill="#000000">gini = 0.67</text>
<text text-anchor="middle" x="952.7686" y="-406.8" font-family="Times,serif" font-size="14.00" fill="#000000">samples = 324</text>
<text text-anchor="middle" x="952.7686" y="-392.8" font-family="Times,serif" font-size="14.00" fill="#000000">value = [4, 14, 123, 132, 43, 8]</text>
</g>
<!-- 1 -->
<g id="node2" class="node">
<title>1</title>
<polygon fill="none" stroke="#000000" points="948.793,-350 766.7441,-350 766.7441,-286 948.793,-286 948.793,-350"/>
<text text-anchor="middle" x="857.7686" y="-334.8" font-family="Times,serif" font-size="14.00" fill="#000000">X[8] &lt;= 0.715</text>
<text text-anchor="middle" x="857.7686" y="-320.8" font-family="Times,serif" font-size="14.00" fill="#000000">gini = 0.594</text>
<text text-anchor="middle" x="857.7686" y="-306.8" font-family="Times,serif" font-size="14.00" fill="#000000">samples = 214</text>
<text text-anchor="middle" x="857.7686" y="-292.8" font-family="Times,serif" font-size="14.00" fill="#000000">value = [4, 10, 114, 73, 12, 1]</text>
</g>
<!-- 0&#45;&gt;1 -->
<g id="edge1" class="edge">
<title>0&#45;&gt;1</title>
<path fill="none" stroke="#000000" d="M922.187,-385.8089C913.6271,-376.7985 904.2239,-366.9004 895.3106,-357.518"/>
<polygon fill="#000000" stroke="#000000" points="897.7178,-354.9701 888.2928,-350.1308 892.6428,-359.7914 897.7178,-354.9701"/>
<text text-anchor="middle" x="887.652" y="-370.9225" font-family="Times,serif" font-size="14.00" fill="#000000">True</text>
</g>
<!-- 2 -->
<g id="node17" class="node">
<title>2</title>
<polygon fill="none" stroke="#000000" points="1128.3063,-350 967.2308,-350 967.2308,-286 1128.3063,-286 1128.3063,-350"/>
<text text-anchor="middle" x="1047.7686" y="-334.8" font-family="Times,serif" font-size="14.00" fill="#000000">X[0] &lt;= 13.153</text>
<text text-anchor="middle" x="1047.7686" y="-320.8" font-family="Times,serif" font-size="14.00" fill="#000000">gini = 0.621</text>
<text text-anchor="middle" x="1047.7686" y="-306.8" font-family="Times,serif" font-size="14.00" fill="#000000">samples = 110</text>
<text text-anchor="middle" x="1047.7686" y="-292.8" font-family="Times,serif" font-size="14.00" fill="#000000">value = [0, 4, 9, 59, 31, 7]</text>
</g>
<!-- 0&#45;&gt;2 -->
<g id="edge16" class="edge">
<title>0&#45;&gt;2</title>
<path fill="none" stroke="#000000" d="M983.3501,-385.8089C991.91,-376.7985 1001.3132,-366.9004 1010.2265,-357.518"/>
<polygon fill="#000000" stroke="#000000" points="1012.8943,-359.7914 1017.2443,-350.1308 1007.8193,-354.9701 1012.8943,-359.7914"/>
<text text-anchor="middle" x="1017.8851" y="-370.9225" font-family="Times,serif" font-size="14.00" fill="#000000">False</text>
</g>
<!-- 3 -->
<g id="node3" class="node">
<title>3</title>
<polygon fill="none" stroke="#000000" points="603.3063,-250 428.2308,-250 428.2308,-186 603.3063,-186 603.3063,-250"/>
<text text-anchor="middle" x="515.7686" y="-234.8" font-family="Times,serif" font-size="14.00" fill="#000000">X[0] &lt;= 9.672</text>
<text text-anchor="middle" x="515.7686" y="-220.8" font-family="Times,serif" font-size="14.00" fill="#000000">gini = 0.582</text>
<text text-anchor="middle" x="515.7686" y="-206.8" font-family="Times,serif" font-size="14.00" fill="#000000">samples = 189</text>
<text text-anchor="middle" x="515.7686" y="-192.8" font-family="Times,serif" font-size="14.00" fill="#000000">value = [4, 10, 105, 61, 8, 1]</text>
</g>
<!-- 1&#45;&gt;3 -->
<g id="edge2" class="edge">
<title>1&#45;&gt;3</title>
<path fill="none" stroke="#000000" d="M766.5681,-291.3332C719.2694,-277.5032 661.4706,-260.6029 613.285,-246.5136"/>
<polygon fill="#000000" stroke="#000000" points="614.0499,-243.0907 603.4695,-243.6435 612.0853,-249.8094 614.0499,-243.0907"/>
</g>
<!-- 4 -->
<g id="node10" class="node">
<title>4</title>
<polygon fill="none" stroke="#000000" points="938.8064,-250 784.7308,-250 784.7308,-186 938.8064,-186 938.8064,-250"/>
<text text-anchor="middle" x="861.7686" y="-234.8" font-family="Times,serif" font-size="14.00" fill="#000000">X[3] &lt;= 0.997</text>
<text text-anchor="middle" x="861.7686" y="-220.8" font-family="Times,serif" font-size="14.00" fill="#000000">gini = 0.614</text>
<text text-anchor="middle" x="861.7686" y="-206.8" font-family="Times,serif" font-size="14.00" fill="#000000">samples = 25</text>
<text text-anchor="middle" x="861.7686" y="-192.8" font-family="Times,serif" font-size="14.00" fill="#000000">value = [0, 0, 9, 12, 4, 0]</text>
</g>
<!-- 1&#45;&gt;4 -->
<g id="edge9" class="edge">
<title>1&#45;&gt;4</title>
<path fill="none" stroke="#000000" d="M859.0562,-285.8089C859.3809,-277.6906 859.7345,-268.8517 860.0758,-260.3186"/>
<polygon fill="#000000" stroke="#000000" points="863.5808,-260.2627 860.4833,-250.1308 856.5863,-259.9828 863.5808,-260.2627"/>
</g>
<!-- 5 -->
<g id="node4" class="node">
<title>5</title>
<polygon fill="none" stroke="#000000" points="337.3063,-150 176.2308,-150 176.2308,-86 337.3063,-86 337.3063,-150"/>
<text text-anchor="middle" x="256.7686" y="-134.8" font-family="Times,serif" font-size="14.00" fill="#000000">X[0] &lt;= 9.576</text>
<text text-anchor="middle" x="256.7686" y="-120.8" font-family="Times,serif" font-size="14.00" fill="#000000">gini = 0.51</text>
<text text-anchor="middle" x="256.7686" y="-106.8" font-family="Times,serif" font-size="14.00" fill="#000000">samples = 105</text>
<text text-anchor="middle" x="256.7686" y="-92.8" font-family="Times,serif" font-size="14.00" fill="#000000">value = [2, 5, 70, 21, 6, 1]</text>
</g>
<!-- 3&#45;&gt;5 -->
<g id="edge3" class="edge">
<title>3&#45;&gt;5</title>
<path fill="none" stroke="#000000" d="M432.7506,-185.9467C405.3661,-175.3736 374.7843,-163.5659 346.8949,-152.7978"/>
<polygon fill="#000000" stroke="#000000" points="348.138,-149.526 337.5485,-149.1892 345.6167,-156.0562 348.138,-149.526"/>
</g>
<!-- 6 -->
<g id="node7" class="node">
<title>6</title>
<polygon fill="none" stroke="#000000" points="596.3063,-150 435.2308,-150 435.2308,-86 596.3063,-86 596.3063,-150"/>
<text text-anchor="middle" x="515.7686" y="-134.8" font-family="Times,serif" font-size="14.00" fill="#000000">X[0] &lt;= 10.009</text>
<text text-anchor="middle" x="515.7686" y="-120.8" font-family="Times,serif" font-size="14.00" fill="#000000">gini = 0.595</text>
<text text-anchor="middle" x="515.7686" y="-106.8" font-family="Times,serif" font-size="14.00" fill="#000000">samples = 84</text>
<text text-anchor="middle" x="515.7686" y="-92.8" font-family="Times,serif" font-size="14.00" fill="#000000">value = [2, 5, 35, 40, 2, 0]</text>
</g>
<!-- 3&#45;&gt;6 -->
<g id="edge6" class="edge">
<title>3&#45;&gt;6</title>
<path fill="none" stroke="#000000" d="M515.7686,-185.8089C515.7686,-177.6906 515.7686,-168.8517 515.7686,-160.3186"/>
<polygon fill="#000000" stroke="#000000" points="519.2687,-160.1307 515.7686,-150.1308 512.2687,-160.1308 519.2687,-160.1307"/>
</g>
<!-- 13 -->
<g id="node5" class="node">
<title>13</title>
<polygon fill="none" stroke="#000000" points="161.3063,-50 .2308,-50 .2308,0 161.3063,0 161.3063,-50"/>
<text text-anchor="middle" x="80.7686" y="-34.8" font-family="Times,serif" font-size="14.00" fill="#000000">gini = 0.536</text>
<text text-anchor="middle" x="80.7686" y="-20.8" font-family="Times,serif" font-size="14.00" fill="#000000">samples = 94</text>
<text text-anchor="middle" x="80.7686" y="-6.8" font-family="Times,serif" font-size="14.00" fill="#000000">value = [2, 4, 60, 21, 6, 1]</text>
</g>
<!-- 5&#45;&gt;13 -->
<g id="edge4" class="edge">
<title>5&#45;&gt;13</title>
<path fill="none" stroke="#000000" d="M196.1993,-85.9947C177.0582,-75.8803 155.9932,-64.7494 137.1567,-54.796"/>
<polygon fill="#000000" stroke="#000000" points="138.5837,-51.5915 128.1069,-50.014 135.3133,-57.7806 138.5837,-51.5915"/>
</g>
<!-- 14 -->
<g id="node6" class="node">
<title>14</title>
<polygon fill="none" stroke="#000000" points="333.8064,-50 179.7308,-50 179.7308,0 333.8064,0 333.8064,-50"/>
<text text-anchor="middle" x="256.7686" y="-34.8" font-family="Times,serif" font-size="14.00" fill="#000000">gini = 0.165</text>
<text text-anchor="middle" x="256.7686" y="-20.8" font-family="Times,serif" font-size="14.00" fill="#000000">samples = 11</text>
<text text-anchor="middle" x="256.7686" y="-6.8" font-family="Times,serif" font-size="14.00" fill="#000000">value = [0, 1, 10, 0, 0, 0]</text>
</g>
<!-- 5&#45;&gt;14 -->
<g id="edge5" class="edge">
<title>5&#45;&gt;14</title>
<path fill="none" stroke="#000000" d="M256.7686,-85.9947C256.7686,-77.6273 256.7686,-68.5643 256.7686,-60.0478"/>
<polygon fill="#000000" stroke="#000000" points="260.2687,-60.014 256.7686,-50.014 253.2687,-60.0141 260.2687,-60.014"/>
</g>
<!-- 7 -->
<g id="node8" class="node">
<title>7</title>
<polygon fill="none" stroke="#000000" points="506.8064,-50 352.7308,-50 352.7308,0 506.8064,0 506.8064,-50"/>
<text text-anchor="middle" x="429.7686" y="-34.8" font-family="Times,serif" font-size="14.00" fill="#000000">gini = 0.601</text>
<text text-anchor="middle" x="429.7686" y="-20.8" font-family="Times,serif" font-size="14.00" fill="#000000">samples = 31</text>
<text text-anchor="middle" x="429.7686" y="-6.8" font-family="Times,serif" font-size="14.00" fill="#000000">value = [2, 3, 17, 9, 0, 0]</text>
</g>
<!-- 6&#45;&gt;7 -->
<g id="edge7" class="edge">
<title>6&#45;&gt;7</title>
<path fill="none" stroke="#000000" d="M486.1722,-85.9947C477.6694,-76.7998 468.3897,-66.7648 459.8576,-57.5381"/>
<polygon fill="#000000" stroke="#000000" points="462.2589,-54.9797 452.8998,-50.014 457.1195,-59.7323 462.2589,-54.9797"/>
</g>
<!-- 8 -->
<g id="node9" class="node">
<title>8</title>
<polygon fill="none" stroke="#000000" points="686.3063,-50 525.2308,-50 525.2308,0 686.3063,0 686.3063,-50"/>
<text text-anchor="middle" x="605.7686" y="-34.8" font-family="Times,serif" font-size="14.00" fill="#000000">gini = 0.54</text>
<text text-anchor="middle" x="605.7686" y="-20.8" font-family="Times,serif" font-size="14.00" fill="#000000">samples = 53</text>
<text text-anchor="middle" x="605.7686" y="-6.8" font-family="Times,serif" font-size="14.00" fill="#000000">value = [0, 2, 18, 31, 2, 0]</text>
</g>
<!-- 6&#45;&gt;8 -->
<g id="edge8" class="edge">
<title>6&#45;&gt;8</title>
<path fill="none" stroke="#000000" d="M546.7414,-85.9947C555.7287,-76.7079 565.5453,-66.564 574.5477,-57.2616"/>
<polygon fill="#000000" stroke="#000000" points="577.1223,-59.6341 581.5614,-50.014 572.0921,-54.7661 577.1223,-59.6341"/>
</g>
<!-- 9 -->
<g id="node11" class="node">
<title>9</title>
<polygon fill="none" stroke="#000000" points="935.3064,-150 788.2307,-150 788.2307,-86 935.3064,-86 935.3064,-150"/>
<text text-anchor="middle" x="861.7686" y="-134.8" font-family="Times,serif" font-size="14.00" fill="#000000">X[5] &lt;= 15.141</text>
<text text-anchor="middle" x="861.7686" y="-120.8" font-family="Times,serif" font-size="14.00" fill="#000000">gini = 0.42</text>
<text text-anchor="middle" x="861.7686" y="-106.8" font-family="Times,serif" font-size="14.00" fill="#000000">samples = 10</text>
<text text-anchor="middle" x="861.7686" y="-92.8" font-family="Times,serif" font-size="14.00" fill="#000000">value = [0, 0, 3, 7, 0, 0]</text>
</g>
<!-- 4&#45;&gt;9 -->
<g id="edge10" class="edge">
<title>4&#45;&gt;9</title>
<path fill="none" stroke="#000000" d="M861.7686,-185.8089C861.7686,-177.6906 861.7686,-168.8517 861.7686,-160.3186"/>
<polygon fill="#000000" stroke="#000000" points="865.2687,-160.1307 861.7686,-150.1308 858.2687,-160.1308 865.2687,-160.1307"/>
</g>
<!-- 10 -->
<g id="node14" class="node">
<title>10</title>
<polygon fill="none" stroke="#000000" points="1184.3064,-150 1037.2307,-150 1037.2307,-86 1184.3064,-86 1184.3064,-150"/>
<text text-anchor="middle" x="1110.7686" y="-134.8" font-family="Times,serif" font-size="14.00" fill="#000000">X[3] &lt;= 0.998</text>
<text text-anchor="middle" x="1110.7686" y="-120.8" font-family="Times,serif" font-size="14.00" fill="#000000">gini = 0.658</text>
<text text-anchor="middle" x="1110.7686" y="-106.8" font-family="Times,serif" font-size="14.00" fill="#000000">samples = 15</text>
<text text-anchor="middle" x="1110.7686" y="-92.8" font-family="Times,serif" font-size="14.00" fill="#000000">value = [0, 0, 6, 5, 4, 0]</text>
</g>
<!-- 4&#45;&gt;10 -->
<g id="edge13" class="edge">
<title>4&#45;&gt;10</title>
<path fill="none" stroke="#000000" d="M938.8485,-187.0442C966.9513,-175.7579 998.844,-162.9496 1027.4635,-151.4558"/>
<polygon fill="#000000" stroke="#000000" points="1029.0583,-154.5871 1037.0336,-147.6124 1026.4496,-148.0914 1029.0583,-154.5871"/>
</g>
<!-- 11 -->
<g id="node12" class="node">
<title>11</title>
<polygon fill="none" stroke="#000000" points="852.3064,-50 705.2307,-50 705.2307,0 852.3064,0 852.3064,-50"/>
<text text-anchor="middle" x="778.7686" y="-34.8" font-family="Times,serif" font-size="14.00" fill="#000000">gini = 0.48</text>
<text text-anchor="middle" x="778.7686" y="-20.8" font-family="Times,serif" font-size="14.00" fill="#000000">samples = 5</text>
<text text-anchor="middle" x="778.7686" y="-6.8" font-family="Times,serif" font-size="14.00" fill="#000000">value = [0, 0, 3, 2, 0, 0]</text>
</g>
<!-- 9&#45;&gt;11 -->
<g id="edge11" class="edge">
<title>9&#45;&gt;11</title>
<path fill="none" stroke="#000000" d="M833.2047,-85.9947C824.9985,-76.7998 816.0425,-66.7648 807.8079,-57.5381"/>
<polygon fill="#000000" stroke="#000000" points="810.3628,-55.1443 801.0929,-50.014 805.1402,-59.8054 810.3628,-55.1443"/>
</g>
<!-- 12 -->
<g id="node13" class="node">
<title>12</title>
<polygon fill="none" stroke="#000000" points="1018.3064,-50 871.2307,-50 871.2307,0 1018.3064,0 1018.3064,-50"/>
<text text-anchor="middle" x="944.7686" y="-34.8" font-family="Times,serif" font-size="14.00" fill="#000000">gini = 0.0</text>
<text text-anchor="middle" x="944.7686" y="-20.8" font-family="Times,serif" font-size="14.00" fill="#000000">samples = 5</text>
<text text-anchor="middle" x="944.7686" y="-6.8" font-family="Times,serif" font-size="14.00" fill="#000000">value = [0, 0, 0, 5, 0, 0]</text>
</g>
<!-- 9&#45;&gt;12 -->
<g id="edge12" class="edge">
<title>9&#45;&gt;12</title>
<path fill="none" stroke="#000000" d="M890.3324,-85.9947C898.5386,-76.7998 907.4946,-66.7648 915.7292,-57.5381"/>
<polygon fill="#000000" stroke="#000000" points="918.3969,-59.8054 922.4442,-50.014 913.1743,-55.1443 918.3969,-59.8054"/>
</g>
<!-- 15 -->
<g id="node15" class="node">
<title>15</title>
<polygon fill="none" stroke="#000000" points="1184.3064,-50 1037.2307,-50 1037.2307,0 1184.3064,0 1184.3064,-50"/>
<text text-anchor="middle" x="1110.7686" y="-34.8" font-family="Times,serif" font-size="14.00" fill="#000000">gini = 0.66</text>
<text text-anchor="middle" x="1110.7686" y="-20.8" font-family="Times,serif" font-size="14.00" fill="#000000">samples = 10</text>
<text text-anchor="middle" x="1110.7686" y="-6.8" font-family="Times,serif" font-size="14.00" fill="#000000">value = [0, 0, 3, 3, 4, 0]</text>
</g>
<!-- 10&#45;&gt;15 -->
<g id="edge14" class="edge">
<title>10&#45;&gt;15</title>
<path fill="none" stroke="#000000" d="M1110.7686,-85.9947C1110.7686,-77.6273 1110.7686,-68.5643 1110.7686,-60.0478"/>
<polygon fill="#000000" stroke="#000000" points="1114.2687,-60.014 1110.7686,-50.014 1107.2687,-60.0141 1114.2687,-60.014"/>
</g>
<!-- 16 -->
<g id="node16" class="node">
<title>16</title>
<polygon fill="none" stroke="#000000" points="1350.3064,-50 1203.2307,-50 1203.2307,0 1350.3064,0 1350.3064,-50"/>
<text text-anchor="middle" x="1276.7686" y="-34.8" font-family="Times,serif" font-size="14.00" fill="#000000">gini = 0.48</text>
<text text-anchor="middle" x="1276.7686" y="-20.8" font-family="Times,serif" font-size="14.00" fill="#000000">samples = 5</text>
<text text-anchor="middle" x="1276.7686" y="-6.8" font-family="Times,serif" font-size="14.00" fill="#000000">value = [0, 0, 3, 2, 0, 0]</text>
</g>
<!-- 10&#45;&gt;16 -->
<g id="edge15" class="edge">
<title>10&#45;&gt;16</title>
<path fill="none" stroke="#000000" d="M1167.8963,-85.9947C1185.7858,-75.9723 1205.457,-64.9517 1223.0992,-55.0678"/>
<polygon fill="#000000" stroke="#000000" points="1225.1064,-57.9552 1232.1199,-50.014 1221.685,-51.8483 1225.1064,-57.9552"/>
</g>
<!-- 17 -->
<g id="node18" class="node">
<title>17</title>
<polygon fill="none" stroke="#000000" points="1125.3063,-243 964.2308,-243 964.2308,-193 1125.3063,-193 1125.3063,-243"/>
<text text-anchor="middle" x="1044.7686" y="-227.8" font-family="Times,serif" font-size="14.00" fill="#000000">gini = 0.622</text>
<text text-anchor="middle" x="1044.7686" y="-213.8" font-family="Times,serif" font-size="14.00" fill="#000000">samples = 103</text>
<text text-anchor="middle" x="1044.7686" y="-199.8" font-family="Times,serif" font-size="14.00" fill="#000000">value = [0, 4, 9, 56, 27, 7]</text>
</g>
<!-- 2&#45;&gt;17 -->
<g id="edge17" class="edge">
<title>2&#45;&gt;17</title>
<path fill="none" stroke="#000000" d="M1046.8028,-285.8089C1046.4919,-275.446 1046.1458,-263.909 1045.8285,-253.3327"/>
<polygon fill="#000000" stroke="#000000" points="1049.3216,-253.0461 1045.5232,-243.1555 1042.3248,-253.256 1049.3216,-253.0461"/>
</g>
<!-- 18 -->
<g id="node19" class="node">
<title>18</title>
<polygon fill="none" stroke="#000000" points="1291.3064,-243 1144.2307,-243 1144.2307,-193 1291.3064,-193 1291.3064,-243"/>
<text text-anchor="middle" x="1217.7686" y="-227.8" font-family="Times,serif" font-size="14.00" fill="#000000">gini = 0.49</text>
<text text-anchor="middle" x="1217.7686" y="-213.8" font-family="Times,serif" font-size="14.00" fill="#000000">samples = 7</text>
<text text-anchor="middle" x="1217.7686" y="-199.8" font-family="Times,serif" font-size="14.00" fill="#000000">value = [0, 0, 0, 3, 4, 0]</text>
</g>
<!-- 2&#45;&gt;18 -->
<g id="edge18" class="edge">
<title>2&#45;&gt;18</title>
<path fill="none" stroke="#000000" d="M1102.4934,-285.8089C1122.9548,-273.7728 1146.1086,-260.1529 1166.269,-248.2938"/>
<polygon fill="#000000" stroke="#000000" points="1168.1594,-251.2426 1175.0041,-243.1555 1164.6102,-245.209 1168.1594,-251.2426"/>
</g>
</g>
</svg>
