<?xml version="1.0" encoding="UTF-8" standalone="no"?>
<!DOCTYPE svg PUBLIC "-//W3C//DTD SVG 1.1//EN"
 "http://www.w3.org/Graphics/SVG/1.1/DTD/svg11.dtd">
<!-- Generated by graphviz version 2.40.1 (20161225.0304)
 -->
<!-- Title: Tree Pages: 1 -->
<svg width="523pt" height="458pt"
 viewBox="0.00 0.00 523.04 458.00" xmlns="http://www.w3.org/2000/svg" xmlns:xlink="http://www.w3.org/1999/xlink">
<g id="graph0" class="graph" transform="scale(1 1) rotate(0) translate(4 454)">
<title>Tree</title>
<polygon fill="#ffffff" stroke="transparent" points="-4,4 -4,-454 519.0371,-454 519.0371,4 -4,4"/>
<!-- 0 -->
<g id="node1" class="node">
<title>0</title>
<polygon fill="none" stroke="#000000" points="323.8065,-450 197.7306,-450 197.7306,-386 323.8065,-386 323.8065,-450"/>
<text text-anchor="middle" x="260.7686" y="-434.8" font-family="Times,serif" font-size="14.00" fill="#000000">X[8] &lt;= 6.337</text>
<text text-anchor="middle" x="260.7686" y="-420.8" font-family="Times,serif" font-size="14.00" fill="#000000">gini = 0.083</text>
<text text-anchor="middle" x="260.7686" y="-406.8" font-family="Times,serif" font-size="14.00" fill="#000000">samples = 324</text>
<text text-anchor="middle" x="260.7686" y="-392.8" font-family="Times,serif" font-size="14.00" fill="#000000">value = [1, 310, 13]</text>
</g>
<!-- 1 -->
<g id="node2" class="node">
<title>1</title>
<polygon fill="none" stroke="#000000" points="251.3066,-350 132.2306,-350 132.2306,-286 251.3066,-286 251.3066,-350"/>
<text text-anchor="middle" x="191.7686" y="-334.8" font-family="Times,serif" font-size="14.00" fill="#000000">X[2] &lt;= 0.079</text>
<text text-anchor="middle" x="191.7686" y="-320.8" font-family="Times,serif" font-size="14.00" fill="#000000">gini = 0.007</text>
<text text-anchor="middle" x="191.7686" y="-306.8" font-family="Times,serif" font-size="14.00" fill="#000000">samples = 267</text>
<text text-anchor="middle" x="191.7686" y="-292.8" font-family="Times,serif" font-size="14.00" fill="#000000">value = [1, 266, 0]</text>
</g>
<!-- 0&#45;&gt;1 -->
<g id="edge1" class="edge">
<title>0&#45;&gt;1</title>
<path fill="none" stroke="#000000" d="M238.5567,-385.8089C232.5857,-377.1553 226.0498,-367.683 219.8067,-358.635"/>
<polygon fill="#000000" stroke="#000000" points="222.4989,-356.3738 213.9388,-350.1308 216.7373,-360.3493 222.4989,-356.3738"/>
<text text-anchor="middle" x="209.4282" y="-370.5205" font-family="Times,serif" font-size="14.00" fill="#000000">True</text>
</g>
<!-- 2 -->
<g id="node9" class="node">
<title>2</title>
<polygon fill="none" stroke="#000000" points="389.3066,-350 270.2306,-350 270.2306,-286 389.3066,-286 389.3066,-350"/>
<text text-anchor="middle" x="329.7686" y="-334.8" font-family="Times,serif" font-size="14.00" fill="#000000">X[8] &lt;= 7.925</text>
<text text-anchor="middle" x="329.7686" y="-320.8" font-family="Times,serif" font-size="14.00" fill="#000000">gini = 0.352</text>
<text text-anchor="middle" x="329.7686" y="-306.8" font-family="Times,serif" font-size="14.00" fill="#000000">samples = 57</text>
<text text-anchor="middle" x="329.7686" y="-292.8" font-family="Times,serif" font-size="14.00" fill="#000000">value = [0, 44, 13]</text>
</g>
<!-- 0&#45;&gt;2 -->
<g id="edge8" class="edge">
<title>0&#45;&gt;2</title>
<path fill="none" stroke="#000000" d="M282.9804,-385.8089C288.9514,-377.1553 295.4873,-367.683 301.7304,-358.635"/>
<polygon fill="#000000" stroke="#000000" points="304.7998,-360.3493 307.5983,-350.1308 299.0382,-356.3738 304.7998,-360.3493"/>
<text text-anchor="middle" x="312.1089" y="-370.5205" font-family="Times,serif" font-size="14.00" fill="#000000">False</text>
</g>
<!-- 5 -->
<g id="node3" class="node">
<title>5</title>
<polygon fill="none" stroke="#000000" points="119.3066,-243 .2306,-243 .2306,-193 119.3066,-193 119.3066,-243"/>
<text text-anchor="middle" x="59.7686" y="-227.8" font-family="Times,serif" font-size="14.00" fill="#000000">gini = 0.0</text>
<text text-anchor="middle" x="59.7686" y="-213.8" font-family="Times,serif" font-size="14.00" fill="#000000">samples = 233</text>
<text text-anchor="middle" x="59.7686" y="-199.8" font-family="Times,serif" font-size="14.00" fill="#000000">value = [0, 233, 0]</text>
</g>
<!-- 1&#45;&gt;5 -->
<g id="edge2" class="edge">
<title>1&#45;&gt;5</title>
<path fill="none" stroke="#000000" d="M149.2763,-285.8089C133.8874,-274.1506 116.5371,-261.0064 101.2373,-249.4157"/>
<polygon fill="#000000" stroke="#000000" points="103.0583,-246.4043 92.9739,-243.1555 98.8313,-251.984 103.0583,-246.4043"/>
</g>
<!-- 6 -->
<g id="node4" class="node">
<title>6</title>
<polygon fill="none" stroke="#000000" points="249.8066,-250 137.7305,-250 137.7305,-186 249.8066,-186 249.8066,-250"/>
<text text-anchor="middle" x="193.7686" y="-234.8" font-family="Times,serif" font-size="14.00" fill="#000000">X[3] &lt;= 0.171</text>
<text text-anchor="middle" x="193.7686" y="-220.8" font-family="Times,serif" font-size="14.00" fill="#000000">gini = 0.057</text>
<text text-anchor="middle" x="193.7686" y="-206.8" font-family="Times,serif" font-size="14.00" fill="#000000">samples = 34</text>
<text text-anchor="middle" x="193.7686" y="-192.8" font-family="Times,serif" font-size="14.00" fill="#000000">value = [1, 33, 0]</text>
</g>
<!-- 1&#45;&gt;6 -->
<g id="edge3" class="edge">
<title>1&#45;&gt;6</title>
<path fill="none" stroke="#000000" d="M192.4124,-285.8089C192.5747,-277.6906 192.7515,-268.8517 192.9222,-260.3186"/>
<polygon fill="#000000" stroke="#000000" points="196.4252,-260.1988 193.1259,-250.1308 189.4266,-260.0587 196.4252,-260.1988"/>
</g>
<!-- 7 -->
<g id="node5" class="node">
<title>7</title>
<polygon fill="none" stroke="#000000" points="184.8066,-150 72.7305,-150 72.7305,-86 184.8066,-86 184.8066,-150"/>
<text text-anchor="middle" x="128.7686" y="-134.8" font-family="Times,serif" font-size="14.00" fill="#000000">X[7] &lt;= 3.408</text>
<text text-anchor="middle" x="128.7686" y="-120.8" font-family="Times,serif" font-size="14.00" fill="#000000">gini = 0.142</text>
<text text-anchor="middle" x="128.7686" y="-106.8" font-family="Times,serif" font-size="14.00" fill="#000000">samples = 13</text>
<text text-anchor="middle" x="128.7686" y="-92.8" font-family="Times,serif" font-size="14.00" fill="#000000">value = [1, 12, 0]</text>
</g>
<!-- 6&#45;&gt;7 -->
<g id="edge4" class="edge">
<title>6&#45;&gt;7</title>
<path fill="none" stroke="#000000" d="M172.8444,-185.8089C167.2195,-177.1553 161.0625,-167.683 155.1813,-158.635"/>
<polygon fill="#000000" stroke="#000000" points="158.038,-156.6077 149.6535,-150.1308 152.1689,-160.4227 158.038,-156.6077"/>
</g>
<!-- 8 -->
<g id="node8" class="node">
<title>8</title>
<polygon fill="none" stroke="#000000" points="315.8066,-143 203.7305,-143 203.7305,-93 315.8066,-93 315.8066,-143"/>
<text text-anchor="middle" x="259.7686" y="-127.8" font-family="Times,serif" font-size="14.00" fill="#000000">gini = 0.0</text>
<text text-anchor="middle" x="259.7686" y="-113.8" font-family="Times,serif" font-size="14.00" fill="#000000">samples = 21</text>
<text text-anchor="middle" x="259.7686" y="-99.8" font-family="Times,serif" font-size="14.00" fill="#000000">value = [0, 21, 0]</text>
</g>
<!-- 6&#45;&gt;8 -->
<g id="edge7" class="edge">
<title>6&#45;&gt;8</title>
<path fill="none" stroke="#000000" d="M215.0147,-185.8089C222.2104,-174.9063 230.2639,-162.7041 237.5343,-151.6882"/>
<polygon fill="#000000" stroke="#000000" points="240.5786,-153.4296 243.1659,-143.1555 234.7363,-149.5737 240.5786,-153.4296"/>
</g>
<!-- 9 -->
<g id="node6" class="node">
<title>9</title>
<polygon fill="none" stroke="#000000" points="119.3067,-50 14.2304,-50 14.2304,0 119.3067,0 119.3067,-50"/>
<text text-anchor="middle" x="66.7686" y="-34.8" font-family="Times,serif" font-size="14.00" fill="#000000">gini = 0.0</text>
<text text-anchor="middle" x="66.7686" y="-20.8" font-family="Times,serif" font-size="14.00" fill="#000000">samples = 8</text>
<text text-anchor="middle" x="66.7686" y="-6.8" font-family="Times,serif" font-size="14.00" fill="#000000">value = [0, 8, 0]</text>
</g>
<!-- 7&#45;&gt;9 -->
<g id="edge5" class="edge">
<title>7&#45;&gt;9</title>
<path fill="none" stroke="#000000" d="M107.4317,-85.9947C101.4857,-77.0756 95.0126,-67.3661 89.0157,-58.3706"/>
<polygon fill="#000000" stroke="#000000" points="91.9038,-56.3931 83.4446,-50.014 86.0794,-60.276 91.9038,-56.3931"/>
</g>
<!-- 10 -->
<g id="node7" class="node">
<title>10</title>
<polygon fill="none" stroke="#000000" points="243.3067,-50 138.2304,-50 138.2304,0 243.3067,0 243.3067,-50"/>
<text text-anchor="middle" x="190.7686" y="-34.8" font-family="Times,serif" font-size="14.00" fill="#000000">gini = 0.32</text>
<text text-anchor="middle" x="190.7686" y="-20.8" font-family="Times,serif" font-size="14.00" fill="#000000">samples = 5</text>
<text text-anchor="middle" x="190.7686" y="-6.8" font-family="Times,serif" font-size="14.00" fill="#000000">value = [1, 4, 0]</text>
</g>
<!-- 7&#45;&gt;10 -->
<g id="edge6" class="edge">
<title>7&#45;&gt;10</title>
<path fill="none" stroke="#000000" d="M150.1054,-85.9947C156.0515,-77.0756 162.5245,-67.3661 168.5215,-58.3706"/>
<polygon fill="#000000" stroke="#000000" points="171.4577,-60.276 174.0925,-50.014 165.6333,-56.3931 171.4577,-60.276"/>
</g>
<!-- 3 -->
<g id="node10" class="node">
<title>3</title>
<polygon fill="none" stroke="#000000" points="383.8066,-243 271.7305,-243 271.7305,-193 383.8066,-193 383.8066,-243"/>
<text text-anchor="middle" x="327.7686" y="-227.8" font-family="Times,serif" font-size="14.00" fill="#000000">gini = 0.0</text>
<text text-anchor="middle" x="327.7686" y="-213.8" font-family="Times,serif" font-size="14.00" fill="#000000">samples = 44</text>
<text text-anchor="middle" x="327.7686" y="-199.8" font-family="Times,serif" font-size="14.00" fill="#000000">value = [0, 44, 0]</text>
</g>
<!-- 2&#45;&gt;3 -->
<g id="edge9" class="edge">
<title>2&#45;&gt;3</title>
<path fill="none" stroke="#000000" d="M329.1247,-285.8089C328.9175,-275.446 328.6867,-263.909 328.4752,-253.3327"/>
<polygon fill="#000000" stroke="#000000" points="331.971,-253.0835 328.2717,-243.1555 324.9724,-253.2236 331.971,-253.0835"/>
</g>
<!-- 4 -->
<g id="node11" class="node">
<title>4</title>
<polygon fill="none" stroke="#000000" points="514.8066,-243 402.7305,-243 402.7305,-193 514.8066,-193 514.8066,-243"/>
<text text-anchor="middle" x="458.7686" y="-227.8" font-family="Times,serif" font-size="14.00" fill="#000000">gini = 0.0</text>
<text text-anchor="middle" x="458.7686" y="-213.8" font-family="Times,serif" font-size="14.00" fill="#000000">samples = 13</text>
<text text-anchor="middle" x="458.7686" y="-199.8" font-family="Times,serif" font-size="14.00" fill="#000000">value = [0, 0, 13]</text>
</g>
<!-- 2&#45;&gt;4 -->
<g id="edge10" class="edge">
<title>2&#45;&gt;4</title>
<path fill="none" stroke="#000000" d="M371.295,-285.8089C386.3342,-274.1506 403.2902,-261.0064 418.2423,-249.4157"/>
<polygon fill="#000000" stroke="#000000" points="420.5588,-252.0485 426.3179,-243.1555 416.2701,-246.5161 420.5588,-252.0485"/>
</g>
</g>
</svg>
