<?xml version="1.0" encoding="UTF-8" standalone="no"?>
<!DOCTYPE svg PUBLIC "-//W3C//DTD SVG 1.1//EN"
 "http://www.w3.org/Graphics/SVG/1.1/DTD/svg11.dtd">
<!-- Generated by graphviz version 2.40.1 (20161225.0304)
 -->
<!-- Title: Tree Pages: 1 -->
<svg width="1272pt" height="458pt"
 viewBox="0.00 0.00 1271.54 458.00" xmlns="http://www.w3.org/2000/svg" xmlns:xlink="http://www.w3.org/1999/xlink">
<g id="graph0" class="graph" transform="scale(1 1) rotate(0) translate(4 454)">
<title>Tree</title>
<polygon fill="#ffffff" stroke="transparent" points="-4,4 -4,-454 1267.5371,-454 1267.5371,4 -4,4"/>
<!-- 0 -->
<g id="node1" class="node">
<title>0</title>
<polygon fill="none" stroke="#000000" points="859.793,-450 663.7441,-450 663.7441,-386 859.793,-386 859.793,-450"/>
<text text-anchor="middle" x="761.7686" y="-434.8" font-family="Times,serif" font-size="14.00" fill="#000000">X[0] &lt;= 10.796</text>
<text text-anchor="middle" x="761.7686" y="-420.8" font-family="Times,serif" font-size="14.00" fill="#000000">gini = 0.669</text>
<text text-anchor="middle" x="761.7686" y="-406.8" font-family="Times,serif" font-size="14.00" fill="#000000">samples = 324</text>
<text text-anchor="middle" x="761.7686" y="-392.8" font-family="Times,serif" font-size="14.00" fill="#000000">value = [1, 13, 112, 141, 44, 13]</text>
</g>
<!-- 1 -->
<g id="node2" class="node">
<title>1</title>
<polygon fill="none" stroke="#000000" points="687.3063,-350 512.2308,-350 512.2308,-286 687.3063,-286 687.3063,-350"/>
<text text-anchor="middle" x="599.7686" y="-334.8" font-family="Times,serif" font-size="14.00" fill="#000000">X[9] &lt;= 165.901</text>
<text text-anchor="middle" x="599.7686" y="-320.8" font-family="Times,serif" font-size="14.00" fill="#000000">gini = 0.627</text>
<text text-anchor="middle" x="599.7686" y="-306.8" font-family="Times,serif" font-size="14.00" fill="#000000">samples = 202</text>
<text text-anchor="middle" x="599.7686" y="-292.8" font-family="Times,serif" font-size="14.00" fill="#000000">value = [0, 10, 92, 80, 16, 4]</text>
</g>
<!-- 0&#45;&gt;1 -->
<g id="edge1" class="edge">
<title>0&#45;&gt;1</title>
<path fill="none" stroke="#000000" d="M709.619,-385.8089C694.0104,-376.174 676.7576,-365.5241 660.6401,-355.575"/>
<polygon fill="#000000" stroke="#000000" points="662.1682,-352.4052 651.8204,-350.1308 658.4913,-358.3618 662.1682,-352.4052"/>
<text text-anchor="middle" x="657.5774" y="-370.2589" font-family="Times,serif" font-size="14.00" fill="#000000">True</text>
</g>
<!-- 2 -->
<g id="node11" class="node">
<title>2</title>
<polygon fill="none" stroke="#000000" points="941.8063,-350 773.7308,-350 773.7308,-286 941.8063,-286 941.8063,-350"/>
<text text-anchor="middle" x="857.7686" y="-334.8" font-family="Times,serif" font-size="14.00" fill="#000000">X[0] &lt;= 11.139</text>
<text text-anchor="middle" x="857.7686" y="-320.8" font-family="Times,serif" font-size="14.00" fill="#000000">gini = 0.664</text>
<text text-anchor="middle" x="857.7686" y="-306.8" font-family="Times,serif" font-size="14.00" fill="#000000">samples = 122</text>
<text text-anchor="middle" x="857.7686" y="-292.8" font-family="Times,serif" font-size="14.00" fill="#000000">value = [1, 3, 20, 61, 28, 9]</text>
</g>
<!-- 0&#45;&gt;2 -->
<g id="edge10" class="edge">
<title>0&#45;&gt;2</title>
<path fill="none" stroke="#000000" d="M792.672,-385.8089C801.322,-376.7985 810.8242,-366.9004 819.8313,-357.518"/>
<polygon fill="#000000" stroke="#000000" points="822.5225,-359.7685 826.923,-350.1308 817.4728,-354.9208 822.5225,-359.7685"/>
<text text-anchor="middle" x="827.4331" y="-370.9256" font-family="Times,serif" font-size="14.00" fill="#000000">False</text>
</g>
<!-- 5 -->
<g id="node3" class="node">
<title>5</title>
<polygon fill="none" stroke="#000000" points="433.8063,-250 265.7308,-250 265.7308,-186 433.8063,-186 433.8063,-250"/>
<text text-anchor="middle" x="349.7686" y="-234.8" font-family="Times,serif" font-size="14.00" fill="#000000">X[13] &lt;= 0.586</text>
<text text-anchor="middle" x="349.7686" y="-220.8" font-family="Times,serif" font-size="14.00" fill="#000000">gini = 0.625</text>
<text text-anchor="middle" x="349.7686" y="-206.8" font-family="Times,serif" font-size="14.00" fill="#000000">samples = 150</text>
<text text-anchor="middle" x="349.7686" y="-192.8" font-family="Times,serif" font-size="14.00" fill="#000000">value = [0, 6, 63, 65, 14, 2]</text>
</g>
<!-- 1&#45;&gt;5 -->
<g id="edge2" class="edge">
<title>1&#45;&gt;5</title>
<path fill="none" stroke="#000000" d="M519.6354,-285.9467C494.0684,-275.7199 465.6139,-264.3381 439.4167,-253.8593"/>
<polygon fill="#000000" stroke="#000000" points="440.4615,-250.5076 429.8768,-250.0433 437.8617,-257.0069 440.4615,-250.5076"/>
</g>
<!-- 6 -->
<g id="node8" class="node">
<title>6</title>
<polygon fill="none" stroke="#000000" points="680.3063,-250 519.2308,-250 519.2308,-186 680.3063,-186 680.3063,-250"/>
<text text-anchor="middle" x="599.7686" y="-234.8" font-family="Times,serif" font-size="14.00" fill="#000000">X[9] &lt;= 206.551</text>
<text text-anchor="middle" x="599.7686" y="-220.8" font-family="Times,serif" font-size="14.00" fill="#000000">gini = 0.597</text>
<text text-anchor="middle" x="599.7686" y="-206.8" font-family="Times,serif" font-size="14.00" fill="#000000">samples = 52</text>
<text text-anchor="middle" x="599.7686" y="-192.8" font-family="Times,serif" font-size="14.00" fill="#000000">value = [0, 4, 29, 15, 2, 2]</text>
</g>
<!-- 1&#45;&gt;6 -->
<g id="edge7" class="edge">
<title>1&#45;&gt;6</title>
<path fill="none" stroke="#000000" d="M599.7686,-285.8089C599.7686,-277.6906 599.7686,-268.8517 599.7686,-260.3186"/>
<polygon fill="#000000" stroke="#000000" points="603.2687,-260.1307 599.7686,-250.1308 596.2687,-260.1308 603.2687,-260.1307"/>
</g>
<!-- 9 -->
<g id="node4" class="node">
<title>9</title>
<polygon fill="none" stroke="#000000" points="253.8063,-150 85.7308,-150 85.7308,-86 253.8063,-86 253.8063,-150"/>
<text text-anchor="middle" x="169.7686" y="-134.8" font-family="Times,serif" font-size="14.00" fill="#000000">X[13] &lt;= 0.299</text>
<text text-anchor="middle" x="169.7686" y="-120.8" font-family="Times,serif" font-size="14.00" fill="#000000">gini = 0.628</text>
<text text-anchor="middle" x="169.7686" y="-106.8" font-family="Times,serif" font-size="14.00" fill="#000000">samples = 120</text>
<text text-anchor="middle" x="169.7686" y="-92.8" font-family="Times,serif" font-size="14.00" fill="#000000">value = [0, 5, 44, 57, 12, 2]</text>
</g>
<!-- 5&#45;&gt;9 -->
<g id="edge3" class="edge">
<title>5&#45;&gt;9</title>
<path fill="none" stroke="#000000" d="M291.8246,-185.8089C274.1605,-175.9955 254.6014,-165.1293 236.41,-155.023"/>
<polygon fill="#000000" stroke="#000000" points="238.0453,-151.9277 227.6039,-150.1308 234.6457,-158.0468 238.0453,-151.9277"/>
</g>
<!-- 10 -->
<g id="node7" class="node">
<title>10</title>
<polygon fill="none" stroke="#000000" points="426.8064,-143 272.7308,-143 272.7308,-93 426.8064,-93 426.8064,-143"/>
<text text-anchor="middle" x="349.7686" y="-127.8" font-family="Times,serif" font-size="14.00" fill="#000000">gini = 0.522</text>
<text text-anchor="middle" x="349.7686" y="-113.8" font-family="Times,serif" font-size="14.00" fill="#000000">samples = 30</text>
<text text-anchor="middle" x="349.7686" y="-99.8" font-family="Times,serif" font-size="14.00" fill="#000000">value = [0, 1, 19, 8, 2, 0]</text>
</g>
<!-- 5&#45;&gt;10 -->
<g id="edge6" class="edge">
<title>5&#45;&gt;10</title>
<path fill="none" stroke="#000000" d="M349.7686,-185.8089C349.7686,-175.446 349.7686,-163.909 349.7686,-153.3327"/>
<polygon fill="#000000" stroke="#000000" points="353.2687,-153.1555 349.7686,-143.1555 346.2687,-153.1556 353.2687,-153.1555"/>
</g>
<!-- 11 -->
<g id="node5" class="node">
<title>11</title>
<polygon fill="none" stroke="#000000" points="161.3063,-50 .2308,-50 .2308,0 161.3063,0 161.3063,-50"/>
<text text-anchor="middle" x="80.7686" y="-34.8" font-family="Times,serif" font-size="14.00" fill="#000000">gini = 0.583</text>
<text text-anchor="middle" x="80.7686" y="-20.8" font-family="Times,serif" font-size="14.00" fill="#000000">samples = 79</text>
<text text-anchor="middle" x="80.7686" y="-6.8" font-family="Times,serif" font-size="14.00" fill="#000000">value = [0, 2, 20, 46, 9, 2]</text>
</g>
<!-- 9&#45;&gt;11 -->
<g id="edge4" class="edge">
<title>9&#45;&gt;11</title>
<path fill="none" stroke="#000000" d="M139.1398,-85.9947C130.2524,-76.7079 120.5448,-66.564 111.6425,-57.2616"/>
<polygon fill="#000000" stroke="#000000" points="114.1494,-54.8189 104.7067,-50.014 109.0921,-59.6587 114.1494,-54.8189"/>
</g>
<!-- 12 -->
<g id="node6" class="node">
<title>12</title>
<polygon fill="none" stroke="#000000" points="340.293,-50 179.2441,-50 179.2441,0 340.293,0 340.293,-50"/>
<text text-anchor="middle" x="259.7686" y="-34.8" font-family="Times,serif" font-size="14.00" fill="#000000">gini = 0.575</text>
<text text-anchor="middle" x="259.7686" y="-20.8" font-family="Times,serif" font-size="14.00" fill="#000000">samples = 41</text>
<text text-anchor="middle" x="259.7686" y="-6.8" font-family="Times,serif" font-size="14.00" fill="#000000">value = [0, 3, 24, 11, 3, 0]</text>
</g>
<!-- 9&#45;&gt;12 -->
<g id="edge5" class="edge">
<title>9&#45;&gt;12</title>
<path fill="none" stroke="#000000" d="M200.7414,-85.9947C209.7287,-76.7079 219.5453,-66.564 228.5477,-57.2616"/>
<polygon fill="#000000" stroke="#000000" points="231.1223,-59.6341 235.5614,-50.014 226.0921,-54.7661 231.1223,-59.6341"/>
</g>
<!-- 7 -->
<g id="node9" class="node">
<title>7</title>
<polygon fill="none" stroke="#000000" points="599.8064,-143 445.7308,-143 445.7308,-93 599.8064,-93 599.8064,-143"/>
<text text-anchor="middle" x="522.7686" y="-127.8" font-family="Times,serif" font-size="14.00" fill="#000000">gini = 0.496</text>
<text text-anchor="middle" x="522.7686" y="-113.8" font-family="Times,serif" font-size="14.00" fill="#000000">samples = 40</text>
<text text-anchor="middle" x="522.7686" y="-99.8" font-family="Times,serif" font-size="14.00" fill="#000000">value = [0, 3, 27, 8, 2, 0]</text>
</g>
<!-- 6&#45;&gt;7 -->
<g id="edge8" class="edge">
<title>6&#45;&gt;7</title>
<path fill="none" stroke="#000000" d="M574.9814,-185.8089C566.5033,-174.7983 557.0045,-162.4623 548.4568,-151.3614"/>
<polygon fill="#000000" stroke="#000000" points="551.0125,-148.9435 542.1383,-143.1555 545.4661,-153.2142 551.0125,-148.9435"/>
</g>
<!-- 8 -->
<g id="node10" class="node">
<title>8</title>
<polygon fill="none" stroke="#000000" points="765.3064,-143 618.2307,-143 618.2307,-93 765.3064,-93 765.3064,-143"/>
<text text-anchor="middle" x="691.7686" y="-127.8" font-family="Times,serif" font-size="14.00" fill="#000000">gini = 0.597</text>
<text text-anchor="middle" x="691.7686" y="-113.8" font-family="Times,serif" font-size="14.00" fill="#000000">samples = 12</text>
<text text-anchor="middle" x="691.7686" y="-99.8" font-family="Times,serif" font-size="14.00" fill="#000000">value = [0, 1, 2, 7, 0, 2]</text>
</g>
<!-- 6&#45;&gt;8 -->
<g id="edge9" class="edge">
<title>6&#45;&gt;8</title>
<path fill="none" stroke="#000000" d="M629.3843,-185.8089C639.7127,-174.5824 651.3088,-161.978 661.6755,-150.7098"/>
<polygon fill="#000000" stroke="#000000" points="664.4306,-152.8846 668.6255,-143.1555 659.2791,-148.1452 664.4306,-152.8846"/>
</g>
<!-- 3 -->
<g id="node12" class="node">
<title>3</title>
<polygon fill="none" stroke="#000000" points="938.3063,-250 777.2308,-250 777.2308,-186 938.3063,-186 938.3063,-250"/>
<text text-anchor="middle" x="857.7686" y="-234.8" font-family="Times,serif" font-size="14.00" fill="#000000">X[8] &lt;= 0.516</text>
<text text-anchor="middle" x="857.7686" y="-220.8" font-family="Times,serif" font-size="14.00" fill="#000000">gini = 0.758</text>
<text text-anchor="middle" x="857.7686" y="-206.8" font-family="Times,serif" font-size="14.00" fill="#000000">samples = 36</text>
<text text-anchor="middle" x="857.7686" y="-192.8" font-family="Times,serif" font-size="14.00" fill="#000000">value = [1, 2, 12, 10, 7, 4]</text>
</g>
<!-- 2&#45;&gt;3 -->
<g id="edge11" class="edge">
<title>2&#45;&gt;3</title>
<path fill="none" stroke="#000000" d="M857.7686,-285.8089C857.7686,-277.6906 857.7686,-268.8517 857.7686,-260.3186"/>
<polygon fill="#000000" stroke="#000000" points="861.2687,-260.1307 857.7686,-250.1308 854.2687,-260.1308 861.2687,-260.1307"/>
</g>
<!-- 4 -->
<g id="node19" class="node">
<title>4</title>
<polygon fill="none" stroke="#000000" points="1118.3063,-243 957.2308,-243 957.2308,-193 1118.3063,-193 1118.3063,-243"/>
<text text-anchor="middle" x="1037.7686" y="-227.8" font-family="Times,serif" font-size="14.00" fill="#000000">gini = 0.577</text>
<text text-anchor="middle" x="1037.7686" y="-213.8" font-family="Times,serif" font-size="14.00" fill="#000000">samples = 86</text>
<text text-anchor="middle" x="1037.7686" y="-199.8" font-family="Times,serif" font-size="14.00" fill="#000000">value = [0, 1, 8, 51, 21, 5]</text>
</g>
<!-- 2&#45;&gt;4 -->
<g id="edge18" class="edge">
<title>2&#45;&gt;4</title>
<path fill="none" stroke="#000000" d="M915.7125,-285.8089C937.4747,-273.7188 962.1132,-260.0308 983.5266,-248.1344"/>
<polygon fill="#000000" stroke="#000000" points="985.4468,-251.0716 992.4886,-243.1555 982.0472,-244.9525 985.4468,-251.0716"/>
</g>
<!-- 13 -->
<g id="node13" class="node">
<title>13</title>
<polygon fill="none" stroke="#000000" points="931.3064,-150 784.2307,-150 784.2307,-86 931.3064,-86 931.3064,-150"/>
<text text-anchor="middle" x="857.7686" y="-134.8" font-family="Times,serif" font-size="14.00" fill="#000000">X[1] &lt;= 0.04</text>
<text text-anchor="middle" x="857.7686" y="-120.8" font-family="Times,serif" font-size="14.00" fill="#000000">gini = 0.703</text>
<text text-anchor="middle" x="857.7686" y="-106.8" font-family="Times,serif" font-size="14.00" fill="#000000">samples = 16</text>
<text text-anchor="middle" x="857.7686" y="-92.8" font-family="Times,serif" font-size="14.00" fill="#000000">value = [1, 1, 7, 4, 0, 3]</text>
</g>
<!-- 3&#45;&gt;13 -->
<g id="edge12" class="edge">
<title>3&#45;&gt;13</title>
<path fill="none" stroke="#000000" d="M857.7686,-185.8089C857.7686,-177.6906 857.7686,-168.8517 857.7686,-160.3186"/>
<polygon fill="#000000" stroke="#000000" points="861.2687,-160.1307 857.7686,-150.1308 854.2687,-160.1308 861.2687,-160.1307"/>
</g>
<!-- 14 -->
<g id="node16" class="node">
<title>14</title>
<polygon fill="none" stroke="#000000" points="1097.3064,-150 950.2307,-150 950.2307,-86 1097.3064,-86 1097.3064,-150"/>
<text text-anchor="middle" x="1023.7686" y="-134.8" font-family="Times,serif" font-size="14.00" fill="#000000">X[3] &lt;= 0.994</text>
<text text-anchor="middle" x="1023.7686" y="-120.8" font-family="Times,serif" font-size="14.00" fill="#000000">gini = 0.72</text>
<text text-anchor="middle" x="1023.7686" y="-106.8" font-family="Times,serif" font-size="14.00" fill="#000000">samples = 20</text>
<text text-anchor="middle" x="1023.7686" y="-92.8" font-family="Times,serif" font-size="14.00" fill="#000000">value = [0, 1, 5, 6, 7, 1]</text>
</g>
<!-- 3&#45;&gt;14 -->
<g id="edge15" class="edge">
<title>3&#45;&gt;14</title>
<path fill="none" stroke="#000000" d="M911.2057,-185.8089C927.3479,-176.0848 945.206,-165.3268 961.8524,-155.2989"/>
<polygon fill="#000000" stroke="#000000" points="963.6717,-158.289 970.4315,-150.1308 960.0596,-152.2929 963.6717,-158.289"/>
</g>
<!-- 17 -->
<g id="node14" class="node">
<title>17</title>
<polygon fill="none" stroke="#000000" points="765.3064,-50 618.2307,-50 618.2307,0 765.3064,0 765.3064,-50"/>
<text text-anchor="middle" x="691.7686" y="-34.8" font-family="Times,serif" font-size="14.00" fill="#000000">gini = 0.653</text>
<text text-anchor="middle" x="691.7686" y="-20.8" font-family="Times,serif" font-size="14.00" fill="#000000">samples = 7</text>
<text text-anchor="middle" x="691.7686" y="-6.8" font-family="Times,serif" font-size="14.00" fill="#000000">value = [0, 0, 2, 2, 0, 3]</text>
</g>
<!-- 13&#45;&gt;17 -->
<g id="edge13" class="edge">
<title>13&#45;&gt;17</title>
<path fill="none" stroke="#000000" d="M800.6408,-85.9947C782.7513,-75.9723 763.0801,-64.9517 745.4379,-55.0678"/>
<polygon fill="#000000" stroke="#000000" points="746.8521,-51.8483 736.4173,-50.014 743.4307,-57.9552 746.8521,-51.8483"/>
</g>
<!-- 18 -->
<g id="node15" class="node">
<title>18</title>
<polygon fill="none" stroke="#000000" points="931.3064,-50 784.2307,-50 784.2307,0 931.3064,0 931.3064,-50"/>
<text text-anchor="middle" x="857.7686" y="-34.8" font-family="Times,serif" font-size="14.00" fill="#000000">gini = 0.617</text>
<text text-anchor="middle" x="857.7686" y="-20.8" font-family="Times,serif" font-size="14.00" fill="#000000">samples = 9</text>
<text text-anchor="middle" x="857.7686" y="-6.8" font-family="Times,serif" font-size="14.00" fill="#000000">value = [1, 1, 5, 2, 0, 0]</text>
</g>
<!-- 13&#45;&gt;18 -->
<g id="edge14" class="edge">
<title>13&#45;&gt;18</title>
<path fill="none" stroke="#000000" d="M857.7686,-85.9947C857.7686,-77.6273 857.7686,-68.5643 857.7686,-60.0478"/>
<polygon fill="#000000" stroke="#000000" points="861.2687,-60.014 857.7686,-50.014 854.2687,-60.0141 861.2687,-60.014"/>
</g>
<!-- 15 -->
<g id="node17" class="node">
<title>15</title>
<polygon fill="none" stroke="#000000" points="1097.3064,-50 950.2307,-50 950.2307,0 1097.3064,0 1097.3064,-50"/>
<text text-anchor="middle" x="1023.7686" y="-34.8" font-family="Times,serif" font-size="14.00" fill="#000000">gini = 0.571</text>
<text text-anchor="middle" x="1023.7686" y="-20.8" font-family="Times,serif" font-size="14.00" fill="#000000">samples = 7</text>
<text text-anchor="middle" x="1023.7686" y="-6.8" font-family="Times,serif" font-size="14.00" fill="#000000">value = [0, 0, 4, 0, 2, 1]</text>
</g>
<!-- 14&#45;&gt;15 -->
<g id="edge16" class="edge">
<title>14&#45;&gt;15</title>
<path fill="none" stroke="#000000" d="M1023.7686,-85.9947C1023.7686,-77.6273 1023.7686,-68.5643 1023.7686,-60.0478"/>
<polygon fill="#000000" stroke="#000000" points="1027.2687,-60.014 1023.7686,-50.014 1020.2687,-60.0141 1027.2687,-60.014"/>
</g>
<!-- 16 -->
<g id="node18" class="node">
<title>16</title>
<polygon fill="none" stroke="#000000" points="1263.3064,-50 1116.2307,-50 1116.2307,0 1263.3064,0 1263.3064,-50"/>
<text text-anchor="middle" x="1189.7686" y="-34.8" font-family="Times,serif" font-size="14.00" fill="#000000">gini = 0.627</text>
<text text-anchor="middle" x="1189.7686" y="-20.8" font-family="Times,serif" font-size="14.00" fill="#000000">samples = 13</text>
<text text-anchor="middle" x="1189.7686" y="-6.8" font-family="Times,serif" font-size="14.00" fill="#000000">value = [0, 1, 1, 6, 5, 0]</text>
</g>
<!-- 14&#45;&gt;16 -->
<g id="edge17" class="edge">
<title>14&#45;&gt;16</title>
<path fill="none" stroke="#000000" d="M1080.8963,-85.9947C1098.7858,-75.9723 1118.457,-64.9517 1136.0992,-55.0678"/>
<polygon fill="#000000" stroke="#000000" points="1138.1064,-57.9552 1145.1199,-50.014 1134.685,-51.8483 1138.1064,-57.9552"/>
</g>
</g>
</svg>
