<?xml version="1.0" encoding="UTF-8" standalone="no"?>
<!DOCTYPE svg PUBLIC "-//W3C//DTD SVG 1.1//EN"
 "http://www.w3.org/Graphics/SVG/1.1/DTD/svg11.dtd">
<!-- Generated by graphviz version 2.40.1 (20161225.0304)
 -->
<!-- Title: Tree Pages: 1 -->
<svg width="285pt" height="258pt"
 viewBox="0.00 0.00 285.28 258.00" xmlns="http://www.w3.org/2000/svg" xmlns:xlink="http://www.w3.org/1999/xlink">
<g id="graph0" class="graph" transform="scale(1 1) rotate(0) translate(4 254)">
<title>Tree</title>
<polygon fill="#ffffff" stroke="transparent" points="-4,4 -4,-254 281.2808,-254 281.2808,4 -4,4"/>
<!-- 0 -->
<g id="node1" class="node">
<title>0</title>
<polygon fill="none" stroke="#000000" points="162.793,-250 57.7441,-250 57.7441,-186 162.793,-186 162.793,-250"/>
<text text-anchor="middle" x="110.2686" y="-234.8" font-family="Times,serif" font-size="14.00" fill="#000000">X[23] &lt;= 0.111</text>
<text text-anchor="middle" x="110.2686" y="-220.8" font-family="Times,serif" font-size="14.00" fill="#000000">gini = 0.477</text>
<text text-anchor="middle" x="110.2686" y="-206.8" font-family="Times,serif" font-size="14.00" fill="#000000">samples = 28</text>
<text text-anchor="middle" x="110.2686" y="-192.8" font-family="Times,serif" font-size="14.00" fill="#000000">value = [11, 17]</text>
</g>
<!-- 1 -->
<g id="node2" class="node">
<title>1</title>
<polygon fill="none" stroke="#000000" points="98.3067,-143 .2304,-143 .2304,-93 98.3067,-93 98.3067,-143"/>
<text text-anchor="middle" x="49.2686" y="-127.8" font-family="Times,serif" font-size="14.00" fill="#000000">gini = 0.0</text>
<text text-anchor="middle" x="49.2686" y="-113.8" font-family="Times,serif" font-size="14.00" fill="#000000">samples = 16</text>
<text text-anchor="middle" x="49.2686" y="-99.8" font-family="Times,serif" font-size="14.00" fill="#000000">value = [0, 16]</text>
</g>
<!-- 0&#45;&gt;1 -->
<g id="edge1" class="edge">
<title>0&#45;&gt;1</title>
<path fill="none" stroke="#000000" d="M90.632,-185.8089C84.0472,-175.0142 76.6854,-162.9456 70.0182,-152.0158"/>
<polygon fill="#000000" stroke="#000000" points="72.809,-149.8699 64.6134,-143.1555 66.8331,-153.5153 72.809,-149.8699"/>
<text text-anchor="middle" x="58.7278" y="-163.2528" font-family="Times,serif" font-size="14.00" fill="#000000">True</text>
</g>
<!-- 2 -->
<g id="node3" class="node">
<title>2</title>
<polygon fill="none" stroke="#000000" points="227.4945,-150 117.0426,-150 117.0426,-86 227.4945,-86 227.4945,-150"/>
<text text-anchor="middle" x="172.2686" y="-134.8" font-family="Times,serif" font-size="14.00" fill="#000000">X[10] &lt;= 16.515</text>
<text text-anchor="middle" x="172.2686" y="-120.8" font-family="Times,serif" font-size="14.00" fill="#000000">gini = 0.153</text>
<text text-anchor="middle" x="172.2686" y="-106.8" font-family="Times,serif" font-size="14.00" fill="#000000">samples = 12</text>
<text text-anchor="middle" x="172.2686" y="-92.8" font-family="Times,serif" font-size="14.00" fill="#000000">value = [11, 1]</text>
</g>
<!-- 0&#45;&gt;2 -->
<g id="edge2" class="edge">
<title>0&#45;&gt;2</title>
<path fill="none" stroke="#000000" d="M130.227,-185.8089C135.5923,-177.1553 141.4651,-167.683 147.0748,-158.635"/>
<polygon fill="#000000" stroke="#000000" points="150.0527,-160.4741 152.3475,-150.1308 144.1034,-156.7855 150.0527,-160.4741"/>
<text text-anchor="middle" x="158.0567" y="-170.2701" font-family="Times,serif" font-size="14.00" fill="#000000">False</text>
</g>
<!-- 3 -->
<g id="node4" class="node">
<title>3</title>
<polygon fill="none" stroke="#000000" points="160.8068,-50 69.7303,-50 69.7303,0 160.8068,0 160.8068,-50"/>
<text text-anchor="middle" x="115.2686" y="-34.8" font-family="Times,serif" font-size="14.00" fill="#000000">gini = 0.0</text>
<text text-anchor="middle" x="115.2686" y="-20.8" font-family="Times,serif" font-size="14.00" fill="#000000">samples = 1</text>
<text text-anchor="middle" x="115.2686" y="-6.8" font-family="Times,serif" font-size="14.00" fill="#000000">value = [0, 1]</text>
</g>
<!-- 2&#45;&gt;3 -->
<g id="edge3" class="edge">
<title>2&#45;&gt;3</title>
<path fill="none" stroke="#000000" d="M152.6524,-85.9947C147.2422,-77.1676 141.3575,-67.5662 135.8922,-58.6491"/>
<polygon fill="#000000" stroke="#000000" points="138.8095,-56.7111 130.5997,-50.014 132.8413,-60.369 138.8095,-56.7111"/>
</g>
<!-- 4 -->
<g id="node5" class="node">
<title>4</title>
<polygon fill="none" stroke="#000000" points="277.293,-50 179.2441,-50 179.2441,0 277.293,0 277.293,-50"/>
<text text-anchor="middle" x="228.2686" y="-34.8" font-family="Times,serif" font-size="14.00" fill="#000000">gini = 0.0</text>
<text text-anchor="middle" x="228.2686" y="-20.8" font-family="Times,serif" font-size="14.00" fill="#000000">samples = 11</text>
<text text-anchor="middle" x="228.2686" y="-6.8" font-family="Times,serif" font-size="14.00" fill="#000000">value = [11, 0]</text>
</g>
<!-- 2&#45;&gt;4 -->
<g id="edge4" class="edge">
<title>2&#45;&gt;4</title>
<path fill="none" stroke="#000000" d="M191.5406,-85.9947C196.8558,-77.1676 202.6373,-67.5662 208.0067,-58.6491"/>
<polygon fill="#000000" stroke="#000000" points="211.0462,-60.3863 213.2063,-50.014 205.0494,-56.7753 211.0462,-60.3863"/>
</g>
</g>
</svg>
