<?xml version="1.0" encoding="UTF-8" standalone="no"?>
<!DOCTYPE svg PUBLIC "-//W3C//DTD SVG 1.1//EN"
 "http://www.w3.org/Graphics/SVG/1.1/DTD/svg11.dtd">
<!-- Generated by graphviz version 2.40.1 (20161225.0304)
 -->
<!-- Title: Tree Pages: 1 -->
<svg width="442pt" height="258pt"
 viewBox="0.00 0.00 441.78 258.00" xmlns="http://www.w3.org/2000/svg" xmlns:xlink="http://www.w3.org/1999/xlink">
<g id="graph0" class="graph" transform="scale(1 1) rotate(0) translate(4 254)">
<title>Tree</title>
<polygon fill="#ffffff" stroke="transparent" points="-4,4 -4,-254 437.7808,-254 437.7808,4 -4,4"/>
<!-- 0 -->
<g id="node1" class="node">
<title>0</title>
<polygon fill="none" stroke="#000000" points="272.5366,-250 167.4878,-250 167.4878,-186 272.5366,-186 272.5366,-250"/>
<text text-anchor="middle" x="220.0122" y="-234.8" font-family="Times,serif" font-size="14.00" fill="#000000">X[3] &lt;= 0.048</text>
<text text-anchor="middle" x="220.0122" y="-220.8" font-family="Times,serif" font-size="14.00" fill="#000000">gini = 0.477</text>
<text text-anchor="middle" x="220.0122" y="-206.8" font-family="Times,serif" font-size="14.00" fill="#000000">samples = 28</text>
<text text-anchor="middle" x="220.0122" y="-192.8" font-family="Times,serif" font-size="14.00" fill="#000000">value = [11, 17]</text>
</g>
<!-- 1 -->
<g id="node2" class="node">
<title>1</title>
<polygon fill="none" stroke="#000000" points="214.2381,-150 103.7863,-150 103.7863,-86 214.2381,-86 214.2381,-150"/>
<text text-anchor="middle" x="159.0122" y="-134.8" font-family="Times,serif" font-size="14.00" fill="#000000">X[21] &lt;= 621.73</text>
<text text-anchor="middle" x="159.0122" y="-120.8" font-family="Times,serif" font-size="14.00" fill="#000000">gini = 0.198</text>
<text text-anchor="middle" x="159.0122" y="-106.8" font-family="Times,serif" font-size="14.00" fill="#000000">samples = 18</text>
<text text-anchor="middle" x="159.0122" y="-92.8" font-family="Times,serif" font-size="14.00" fill="#000000">value = [2, 16]</text>
</g>
<!-- 0&#45;&gt;1 -->
<g id="edge1" class="edge">
<title>0&#45;&gt;1</title>
<path fill="none" stroke="#000000" d="M200.3757,-185.8089C195.1514,-177.2445 189.4379,-167.8782 183.9704,-158.915"/>
<polygon fill="#000000" stroke="#000000" points="186.8076,-156.8451 178.612,-150.1308 180.8316,-160.4905 186.8076,-156.8451"/>
<text text-anchor="middle" x="172.7263" y="-170.2281" font-family="Times,serif" font-size="14.00" fill="#000000">True</text>
</g>
<!-- 2 -->
<g id="node5" class="node">
<title>2</title>
<polygon fill="none" stroke="#000000" points="329.2382,-150 232.7862,-150 232.7862,-86 329.2382,-86 329.2382,-150"/>
<text text-anchor="middle" x="281.0122" y="-134.8" font-family="Times,serif" font-size="14.00" fill="#000000">X[3] &lt;= 0.091</text>
<text text-anchor="middle" x="281.0122" y="-120.8" font-family="Times,serif" font-size="14.00" fill="#000000">gini = 0.18</text>
<text text-anchor="middle" x="281.0122" y="-106.8" font-family="Times,serif" font-size="14.00" fill="#000000">samples = 10</text>
<text text-anchor="middle" x="281.0122" y="-92.8" font-family="Times,serif" font-size="14.00" fill="#000000">value = [9, 1]</text>
</g>
<!-- 0&#45;&gt;2 -->
<g id="edge4" class="edge">
<title>0&#45;&gt;2</title>
<path fill="none" stroke="#000000" d="M239.6488,-185.8089C244.8731,-177.2445 250.5865,-167.8782 256.0541,-158.915"/>
<polygon fill="#000000" stroke="#000000" points="259.1928,-160.4905 261.4124,-150.1308 253.2168,-156.8451 259.1928,-160.4905"/>
<text text-anchor="middle" x="267.2981" y="-170.2281" font-family="Times,serif" font-size="14.00" fill="#000000">False</text>
</g>
<!-- 3 -->
<g id="node3" class="node">
<title>3</title>
<polygon fill="none" stroke="#000000" points="98.0366,-50 -.0122,-50 -.0122,0 98.0366,0 98.0366,-50"/>
<text text-anchor="middle" x="49.0122" y="-34.8" font-family="Times,serif" font-size="14.00" fill="#000000">gini = 0.0</text>
<text text-anchor="middle" x="49.0122" y="-20.8" font-family="Times,serif" font-size="14.00" fill="#000000">samples = 11</text>
<text text-anchor="middle" x="49.0122" y="-6.8" font-family="Times,serif" font-size="14.00" fill="#000000">value = [0, 11]</text>
</g>
<!-- 1&#45;&gt;3 -->
<g id="edge2" class="edge">
<title>1&#45;&gt;3</title>
<path fill="none" stroke="#000000" d="M121.1564,-85.9947C109.9545,-76.524 97.6983,-66.1619 86.5186,-56.7099"/>
<polygon fill="#000000" stroke="#000000" points="88.4949,-53.7976 78.5987,-50.014 83.9755,-59.1432 88.4949,-53.7976"/>
</g>
<!-- 4 -->
<g id="node4" class="node">
<title>4</title>
<polygon fill="none" stroke="#000000" points="207.5505,-50 116.4739,-50 116.4739,0 207.5505,0 207.5505,-50"/>
<text text-anchor="middle" x="162.0122" y="-34.8" font-family="Times,serif" font-size="14.00" fill="#000000">gini = 0.408</text>
<text text-anchor="middle" x="162.0122" y="-20.8" font-family="Times,serif" font-size="14.00" fill="#000000">samples = 7</text>
<text text-anchor="middle" x="162.0122" y="-6.8" font-family="Times,serif" font-size="14.00" fill="#000000">value = [2, 5]</text>
</g>
<!-- 1&#45;&gt;4 -->
<g id="edge3" class="edge">
<title>1&#45;&gt;4</title>
<path fill="none" stroke="#000000" d="M160.0446,-85.9947C160.3146,-77.6273 160.6069,-68.5643 160.8816,-60.0478"/>
<polygon fill="#000000" stroke="#000000" points="164.381,-60.1217 161.2053,-50.014 157.3846,-59.896 164.381,-60.1217"/>
</g>
<!-- 5 -->
<g id="node6" class="node">
<title>5</title>
<polygon fill="none" stroke="#000000" points="323.5505,-50 232.4739,-50 232.4739,0 323.5505,0 323.5505,-50"/>
<text text-anchor="middle" x="278.0122" y="-34.8" font-family="Times,serif" font-size="14.00" fill="#000000">gini = 0.32</text>
<text text-anchor="middle" x="278.0122" y="-20.8" font-family="Times,serif" font-size="14.00" fill="#000000">samples = 5</text>
<text text-anchor="middle" x="278.0122" y="-6.8" font-family="Times,serif" font-size="14.00" fill="#000000">value = [4, 1]</text>
</g>
<!-- 2&#45;&gt;5 -->
<g id="edge5" class="edge">
<title>2&#45;&gt;5</title>
<path fill="none" stroke="#000000" d="M279.9798,-85.9947C279.7099,-77.6273 279.4175,-68.5643 279.1428,-60.0478"/>
<polygon fill="#000000" stroke="#000000" points="282.6398,-59.896 278.8191,-50.014 275.6434,-60.1217 282.6398,-59.896"/>
</g>
<!-- 6 -->
<g id="node7" class="node">
<title>6</title>
<polygon fill="none" stroke="#000000" points="433.5505,-50 342.4739,-50 342.4739,0 433.5505,0 433.5505,-50"/>
<text text-anchor="middle" x="388.0122" y="-34.8" font-family="Times,serif" font-size="14.00" fill="#000000">gini = 0.0</text>
<text text-anchor="middle" x="388.0122" y="-20.8" font-family="Times,serif" font-size="14.00" fill="#000000">samples = 5</text>
<text text-anchor="middle" x="388.0122" y="-6.8" font-family="Times,serif" font-size="14.00" fill="#000000">value = [5, 0]</text>
</g>
<!-- 2&#45;&gt;6 -->
<g id="edge6" class="edge">
<title>2&#45;&gt;6</title>
<path fill="none" stroke="#000000" d="M317.8355,-85.9947C328.732,-76.524 340.6539,-66.1619 351.5287,-56.7099"/>
<polygon fill="#000000" stroke="#000000" points="353.9811,-59.2158 359.2326,-50.014 349.389,-53.9324 353.9811,-59.2158"/>
</g>
</g>
</svg>
