<?xml version="1.0" encoding="UTF-8" standalone="no"?>
<!DOCTYPE svg PUBLIC "-//W3C//DTD SVG 1.1//EN"
 "http://www.w3.org/Graphics/SVG/1.1/DTD/svg11.dtd">
<!-- Generated by graphviz version 2.40.1 (20161225.0304)
 -->
<!-- Title: Tree Pages: 1 -->
<svg width="706pt" height="458pt"
 viewBox="0.00 0.00 706.04 458.00" xmlns="http://www.w3.org/2000/svg" xmlns:xlink="http://www.w3.org/1999/xlink">
<g id="graph0" class="graph" transform="scale(1 1) rotate(0) translate(4 454)">
<title>Tree</title>
<polygon fill="#ffffff" stroke="transparent" points="-4,4 -4,-454 702.0371,-454 702.0371,4 -4,4"/>
<!-- 0 -->
<g id="node1" class="node">
<title>0</title>
<polygon fill="none" stroke="#000000" points="301.3066,-450 182.2306,-450 182.2306,-386 301.3066,-386 301.3066,-450"/>
<text text-anchor="middle" x="241.7686" y="-434.8" font-family="Times,serif" font-size="14.00" fill="#000000">X[8] &lt;= 4.506</text>
<text text-anchor="middle" x="241.7686" y="-420.8" font-family="Times,serif" font-size="14.00" fill="#000000">gini = 0.043</text>
<text text-anchor="middle" x="241.7686" y="-406.8" font-family="Times,serif" font-size="14.00" fill="#000000">samples = 324</text>
<text text-anchor="middle" x="241.7686" y="-392.8" font-family="Times,serif" font-size="14.00" fill="#000000">value = [3, 317, 4]</text>
</g>
<!-- 1 -->
<g id="node2" class="node">
<title>1</title>
<polygon fill="none" stroke="#000000" points="230.8066,-350 118.7305,-350 118.7305,-286 230.8066,-286 230.8066,-350"/>
<text text-anchor="middle" x="174.7686" y="-334.8" font-family="Times,serif" font-size="14.00" fill="#000000">X[1] &lt;= 10.722</text>
<text text-anchor="middle" x="174.7686" y="-320.8" font-family="Times,serif" font-size="14.00" fill="#000000">gini = 0.355</text>
<text text-anchor="middle" x="174.7686" y="-306.8" font-family="Times,serif" font-size="14.00" fill="#000000">samples = 13</text>
<text text-anchor="middle" x="174.7686" y="-292.8" font-family="Times,serif" font-size="14.00" fill="#000000">value = [3, 10, 0]</text>
</g>
<!-- 0&#45;&gt;1 -->
<g id="edge1" class="edge">
<title>0&#45;&gt;1</title>
<path fill="none" stroke="#000000" d="M220.2005,-385.8089C214.4026,-377.1553 208.0562,-367.683 201.994,-358.635"/>
<polygon fill="#000000" stroke="#000000" points="204.7701,-356.4903 196.2962,-350.1308 198.9547,-360.3866 204.7701,-356.4903"/>
<text text-anchor="middle" x="191.4498" y="-370.4565" font-family="Times,serif" font-size="14.00" fill="#000000">True</text>
</g>
<!-- 2 -->
<g id="node5" class="node">
<title>2</title>
<polygon fill="none" stroke="#000000" points="368.3066,-350 249.2306,-350 249.2306,-286 368.3066,-286 368.3066,-350"/>
<text text-anchor="middle" x="308.7686" y="-334.8" font-family="Times,serif" font-size="14.00" fill="#000000">X[10] &lt;= 0.339</text>
<text text-anchor="middle" x="308.7686" y="-320.8" font-family="Times,serif" font-size="14.00" fill="#000000">gini = 0.025</text>
<text text-anchor="middle" x="308.7686" y="-306.8" font-family="Times,serif" font-size="14.00" fill="#000000">samples = 311</text>
<text text-anchor="middle" x="308.7686" y="-292.8" font-family="Times,serif" font-size="14.00" fill="#000000">value = [0, 307, 4]</text>
</g>
<!-- 0&#45;&gt;2 -->
<g id="edge4" class="edge">
<title>0&#45;&gt;2</title>
<path fill="none" stroke="#000000" d="M263.3366,-385.8089C269.1345,-377.1553 275.4809,-367.683 281.5431,-358.635"/>
<polygon fill="#000000" stroke="#000000" points="284.5824,-360.3866 287.2409,-350.1308 278.767,-356.4903 284.5824,-360.3866"/>
<text text-anchor="middle" x="292.0874" y="-370.4565" font-family="Times,serif" font-size="14.00" fill="#000000">False</text>
</g>
<!-- 3 -->
<g id="node3" class="node">
<title>3</title>
<polygon fill="none" stroke="#000000" points="105.3067,-243 .2304,-243 .2304,-193 105.3067,-193 105.3067,-243"/>
<text text-anchor="middle" x="52.7686" y="-227.8" font-family="Times,serif" font-size="14.00" fill="#000000">gini = 0.219</text>
<text text-anchor="middle" x="52.7686" y="-213.8" font-family="Times,serif" font-size="14.00" fill="#000000">samples = 8</text>
<text text-anchor="middle" x="52.7686" y="-199.8" font-family="Times,serif" font-size="14.00" fill="#000000">value = [1, 7, 0]</text>
</g>
<!-- 1&#45;&gt;3 -->
<g id="edge2" class="edge">
<title>1&#45;&gt;3</title>
<path fill="none" stroke="#000000" d="M135.4954,-285.8089C121.404,-274.2586 105.5332,-261.2497 91.489,-249.7381"/>
<polygon fill="#000000" stroke="#000000" points="93.411,-246.788 83.4583,-243.1555 88.9735,-252.2017 93.411,-246.788"/>
</g>
<!-- 4 -->
<g id="node4" class="node">
<title>4</title>
<polygon fill="none" stroke="#000000" points="229.3067,-243 124.2304,-243 124.2304,-193 229.3067,-193 229.3067,-243"/>
<text text-anchor="middle" x="176.7686" y="-227.8" font-family="Times,serif" font-size="14.00" fill="#000000">gini = 0.48</text>
<text text-anchor="middle" x="176.7686" y="-213.8" font-family="Times,serif" font-size="14.00" fill="#000000">samples = 5</text>
<text text-anchor="middle" x="176.7686" y="-199.8" font-family="Times,serif" font-size="14.00" fill="#000000">value = [2, 3, 0]</text>
</g>
<!-- 1&#45;&gt;4 -->
<g id="edge3" class="edge">
<title>1&#45;&gt;4</title>
<path fill="none" stroke="#000000" d="M175.4124,-285.8089C175.6196,-275.446 175.8504,-263.909 176.0619,-253.3327"/>
<polygon fill="#000000" stroke="#000000" points="179.5647,-253.2236 176.2654,-243.1555 172.5661,-253.0835 179.5647,-253.2236"/>
</g>
<!-- 5 -->
<g id="node6" class="node">
<title>5</title>
<polygon fill="none" stroke="#000000" points="362.793,-250 250.7441,-250 250.7441,-186 362.793,-186 362.793,-250"/>
<text text-anchor="middle" x="306.7686" y="-234.8" font-family="Times,serif" font-size="14.00" fill="#000000">X[13] &lt;= 0.267</text>
<text text-anchor="middle" x="306.7686" y="-220.8" font-family="Times,serif" font-size="14.00" fill="#000000">gini = 0.153</text>
<text text-anchor="middle" x="306.7686" y="-206.8" font-family="Times,serif" font-size="14.00" fill="#000000">samples = 12</text>
<text text-anchor="middle" x="306.7686" y="-192.8" font-family="Times,serif" font-size="14.00" fill="#000000">value = [0, 11, 1]</text>
</g>
<!-- 2&#45;&gt;5 -->
<g id="edge5" class="edge">
<title>2&#45;&gt;5</title>
<path fill="none" stroke="#000000" d="M308.1247,-285.8089C307.9624,-277.6906 307.7856,-268.8517 307.6149,-260.3186"/>
<polygon fill="#000000" stroke="#000000" points="311.1105,-260.0587 307.4112,-250.1308 304.1119,-260.1988 311.1105,-260.0587"/>
</g>
<!-- 6 -->
<g id="node9" class="node">
<title>6</title>
<polygon fill="none" stroke="#000000" points="500.3066,-250 381.2306,-250 381.2306,-186 500.3066,-186 500.3066,-250"/>
<text text-anchor="middle" x="440.7686" y="-234.8" font-family="Times,serif" font-size="14.00" fill="#000000">X[8] &lt;= 6.946</text>
<text text-anchor="middle" x="440.7686" y="-220.8" font-family="Times,serif" font-size="14.00" fill="#000000">gini = 0.02</text>
<text text-anchor="middle" x="440.7686" y="-206.8" font-family="Times,serif" font-size="14.00" fill="#000000">samples = 299</text>
<text text-anchor="middle" x="440.7686" y="-192.8" font-family="Times,serif" font-size="14.00" fill="#000000">value = [0, 296, 3]</text>
</g>
<!-- 2&#45;&gt;6 -->
<g id="edge8" class="edge">
<title>2&#45;&gt;6</title>
<path fill="none" stroke="#000000" d="M351.2608,-285.8089C363.6256,-276.4416 377.2567,-266.115 390.073,-256.4057"/>
<polygon fill="#000000" stroke="#000000" points="392.4985,-258.9592 398.356,-250.1308 388.2715,-253.3795 392.4985,-258.9592"/>
</g>
<!-- 11 -->
<g id="node7" class="node">
<title>11</title>
<polygon fill="none" stroke="#000000" points="236.3067,-143 131.2304,-143 131.2304,-93 236.3067,-93 236.3067,-143"/>
<text text-anchor="middle" x="183.7686" y="-127.8" font-family="Times,serif" font-size="14.00" fill="#000000">gini = 0.0</text>
<text text-anchor="middle" x="183.7686" y="-113.8" font-family="Times,serif" font-size="14.00" fill="#000000">samples = 7</text>
<text text-anchor="middle" x="183.7686" y="-99.8" font-family="Times,serif" font-size="14.00" fill="#000000">value = [0, 7, 0]</text>
</g>
<!-- 5&#45;&gt;11 -->
<g id="edge6" class="edge">
<title>5&#45;&gt;11</title>
<path fill="none" stroke="#000000" d="M267.1735,-185.8089C252.9666,-174.2586 236.9657,-161.2497 222.8064,-149.7381"/>
<polygon fill="#000000" stroke="#000000" points="224.677,-146.7481 214.7099,-143.1555 220.2612,-152.1796 224.677,-146.7481"/>
</g>
<!-- 12 -->
<g id="node8" class="node">
<title>12</title>
<polygon fill="none" stroke="#000000" points="360.3067,-143 255.2304,-143 255.2304,-93 360.3067,-93 360.3067,-143"/>
<text text-anchor="middle" x="307.7686" y="-127.8" font-family="Times,serif" font-size="14.00" fill="#000000">gini = 0.32</text>
<text text-anchor="middle" x="307.7686" y="-113.8" font-family="Times,serif" font-size="14.00" fill="#000000">samples = 5</text>
<text text-anchor="middle" x="307.7686" y="-99.8" font-family="Times,serif" font-size="14.00" fill="#000000">value = [0, 4, 1]</text>
</g>
<!-- 5&#45;&gt;12 -->
<g id="edge7" class="edge">
<title>5&#45;&gt;12</title>
<path fill="none" stroke="#000000" d="M307.0905,-185.8089C307.1941,-175.446 307.3095,-163.909 307.4152,-153.3327"/>
<polygon fill="#000000" stroke="#000000" points="310.9167,-153.1901 307.517,-143.1555 303.9171,-153.12 310.9167,-153.1901"/>
</g>
<!-- 7 -->
<g id="node10" class="node">
<title>7</title>
<polygon fill="none" stroke="#000000" points="499.3066,-143 380.2306,-143 380.2306,-93 499.3066,-93 499.3066,-143"/>
<text text-anchor="middle" x="439.7686" y="-127.8" font-family="Times,serif" font-size="14.00" fill="#000000">gini = 0.0</text>
<text text-anchor="middle" x="439.7686" y="-113.8" font-family="Times,serif" font-size="14.00" fill="#000000">samples = 249</text>
<text text-anchor="middle" x="439.7686" y="-99.8" font-family="Times,serif" font-size="14.00" fill="#000000">value = [0, 249, 0]</text>
</g>
<!-- 6&#45;&gt;7 -->
<g id="edge9" class="edge">
<title>6&#45;&gt;7</title>
<path fill="none" stroke="#000000" d="M440.4466,-185.8089C440.343,-175.446 440.2276,-163.909 440.1219,-153.3327"/>
<polygon fill="#000000" stroke="#000000" points="443.62,-153.12 440.0201,-143.1555 436.6204,-153.1901 443.62,-153.12"/>
</g>
<!-- 8 -->
<g id="node11" class="node">
<title>8</title>
<polygon fill="none" stroke="#000000" points="635.4945,-150 518.0426,-150 518.0426,-86 635.4945,-86 635.4945,-150"/>
<text text-anchor="middle" x="576.7686" y="-134.8" font-family="Times,serif" font-size="14.00" fill="#000000">X[0] &lt;= 4991.498</text>
<text text-anchor="middle" x="576.7686" y="-120.8" font-family="Times,serif" font-size="14.00" fill="#000000">gini = 0.113</text>
<text text-anchor="middle" x="576.7686" y="-106.8" font-family="Times,serif" font-size="14.00" fill="#000000">samples = 50</text>
<text text-anchor="middle" x="576.7686" y="-92.8" font-family="Times,serif" font-size="14.00" fill="#000000">value = [0, 47, 3]</text>
</g>
<!-- 6&#45;&gt;8 -->
<g id="edge10" class="edge">
<title>6&#45;&gt;8</title>
<path fill="none" stroke="#000000" d="M484.5484,-185.8089C497.4093,-176.3524 511.5998,-165.9182 524.9138,-156.1285"/>
<polygon fill="#000000" stroke="#000000" points="527.0876,-158.8745 533.0707,-150.1308 522.9408,-153.2349 527.0876,-158.8745"/>
</g>
<!-- 9 -->
<g id="node12" class="node">
<title>9</title>
<polygon fill="none" stroke="#000000" points="566.8066,-50 454.7305,-50 454.7305,0 566.8066,0 566.8066,-50"/>
<text text-anchor="middle" x="510.7686" y="-34.8" font-family="Times,serif" font-size="14.00" fill="#000000">gini = 0.054</text>
<text text-anchor="middle" x="510.7686" y="-20.8" font-family="Times,serif" font-size="14.00" fill="#000000">samples = 36</text>
<text text-anchor="middle" x="510.7686" y="-6.8" font-family="Times,serif" font-size="14.00" fill="#000000">value = [0, 35, 1]</text>
</g>
<!-- 8&#45;&gt;9 -->
<g id="edge11" class="edge">
<title>8&#45;&gt;9</title>
<path fill="none" stroke="#000000" d="M554.0551,-85.9947C547.7255,-77.0756 540.8348,-67.3661 534.451,-58.3706"/>
<polygon fill="#000000" stroke="#000000" points="537.1622,-56.1435 528.5204,-50.014 531.4537,-60.1947 537.1622,-56.1435"/>
</g>
<!-- 10 -->
<g id="node13" class="node">
<title>10</title>
<polygon fill="none" stroke="#000000" points="697.8066,-50 585.7305,-50 585.7305,0 697.8066,0 697.8066,-50"/>
<text text-anchor="middle" x="641.7686" y="-34.8" font-family="Times,serif" font-size="14.00" fill="#000000">gini = 0.245</text>
<text text-anchor="middle" x="641.7686" y="-20.8" font-family="Times,serif" font-size="14.00" fill="#000000">samples = 14</text>
<text text-anchor="middle" x="641.7686" y="-6.8" font-family="Times,serif" font-size="14.00" fill="#000000">value = [0, 12, 2]</text>
</g>
<!-- 8&#45;&gt;10 -->
<g id="edge12" class="edge">
<title>8&#45;&gt;10</title>
<path fill="none" stroke="#000000" d="M599.1379,-85.9947C605.3716,-77.0756 612.1578,-67.3661 618.445,-58.3706"/>
<polygon fill="#000000" stroke="#000000" points="621.4256,-60.2156 624.2856,-50.014 615.6881,-56.2054 621.4256,-60.2156"/>
</g>
</g>
</svg>
