<?xml version="1.0" encoding="UTF-8" standalone="no"?>
<!DOCTYPE svg PUBLIC "-//W3C//DTD SVG 1.1//EN"
 "http://www.w3.org/Graphics/SVG/1.1/DTD/svg11.dtd">
<!-- Generated by graphviz version 2.40.1 (20161225.0304)
 -->
<!-- Title: Tree Pages: 1 -->
<svg width="1379pt" height="458pt"
 viewBox="0.00 0.00 1378.54 458.00" xmlns="http://www.w3.org/2000/svg" xmlns:xlink="http://www.w3.org/1999/xlink">
<g id="graph0" class="graph" transform="scale(1 1) rotate(0) translate(4 454)">
<title>Tree</title>
<polygon fill="#ffffff" stroke="transparent" points="-4,4 -4,-454 1374.5371,-454 1374.5371,4 -4,4"/>
<!-- 0 -->
<g id="node1" class="node">
<title>0</title>
<polygon fill="none" stroke="#000000" points="1105.3062,-450 916.2309,-450 916.2309,-386 1105.3062,-386 1105.3062,-450"/>
<text text-anchor="middle" x="1010.7686" y="-434.8" font-family="Times,serif" font-size="14.00" fill="#000000">X[0] &lt;= 9.941</text>
<text text-anchor="middle" x="1010.7686" y="-420.8" font-family="Times,serif" font-size="14.00" fill="#000000">gini = 0.654</text>
<text text-anchor="middle" x="1010.7686" y="-406.8" font-family="Times,serif" font-size="14.00" fill="#000000">samples = 324</text>
<text text-anchor="middle" x="1010.7686" y="-392.8" font-family="Times,serif" font-size="14.00" fill="#000000">value = [3, 10, 101, 152, 54, 4]</text>
</g>
<!-- 1 -->
<g id="node2" class="node">
<title>1</title>
<polygon fill="none" stroke="#000000" points="920.8063,-350 752.7308,-350 752.7308,-286 920.8063,-286 920.8063,-350"/>
<text text-anchor="middle" x="836.7686" y="-334.8" font-family="Times,serif" font-size="14.00" fill="#000000">X[7] &lt;= 9.437</text>
<text text-anchor="middle" x="836.7686" y="-320.8" font-family="Times,serif" font-size="14.00" fill="#000000">gini = 0.587</text>
<text text-anchor="middle" x="836.7686" y="-306.8" font-family="Times,serif" font-size="14.00" fill="#000000">samples = 137</text>
<text text-anchor="middle" x="836.7686" y="-292.8" font-family="Times,serif" font-size="14.00" fill="#000000">value = [1, 3, 71, 51, 10, 1]</text>
</g>
<!-- 0&#45;&gt;1 -->
<g id="edge1" class="edge">
<title>0&#45;&gt;1</title>
<path fill="none" stroke="#000000" d="M954.7561,-385.8089C937.836,-376.0848 919.1172,-365.3268 901.6686,-355.2989"/>
<polygon fill="#000000" stroke="#000000" points="903.0902,-352.0791 892.6761,-350.1308 899.6022,-358.1482 903.0902,-352.0791"/>
<text text-anchor="middle" x="899.1944" y="-370.066" font-family="Times,serif" font-size="14.00" fill="#000000">True</text>
</g>
<!-- 2 -->
<g id="node15" class="node">
<title>2</title>
<polygon fill="none" stroke="#000000" points="1194.3063,-350 1019.2308,-350 1019.2308,-286 1194.3063,-286 1194.3063,-350"/>
<text text-anchor="middle" x="1106.7686" y="-334.8" font-family="Times,serif" font-size="14.00" fill="#000000">X[0] &lt;= 13.249</text>
<text text-anchor="middle" x="1106.7686" y="-320.8" font-family="Times,serif" font-size="14.00" fill="#000000">gini = 0.625</text>
<text text-anchor="middle" x="1106.7686" y="-306.8" font-family="Times,serif" font-size="14.00" fill="#000000">samples = 187</text>
<text text-anchor="middle" x="1106.7686" y="-292.8" font-family="Times,serif" font-size="14.00" fill="#000000">value = [2, 7, 30, 101, 44, 3]</text>
</g>
<!-- 0&#45;&gt;2 -->
<g id="edge14" class="edge">
<title>0&#45;&gt;2</title>
<path fill="none" stroke="#000000" d="M1041.672,-385.8089C1050.322,-376.7985 1059.8242,-366.9004 1068.8313,-357.518"/>
<polygon fill="#000000" stroke="#000000" points="1071.5225,-359.7685 1075.923,-350.1308 1066.4728,-354.9208 1071.5225,-359.7685"/>
<text text-anchor="middle" x="1076.4331" y="-370.9256" font-family="Times,serif" font-size="14.00" fill="#000000">False</text>
</g>
<!-- 3 -->
<g id="node3" class="node">
<title>3</title>
<polygon fill="none" stroke="#000000" points="581.3063,-250 420.2308,-250 420.2308,-186 581.3063,-186 581.3063,-250"/>
<text text-anchor="middle" x="500.7686" y="-234.8" font-family="Times,serif" font-size="14.00" fill="#000000">X[2] &lt;= 0.268</text>
<text text-anchor="middle" x="500.7686" y="-220.8" font-family="Times,serif" font-size="14.00" fill="#000000">gini = 0.533</text>
<text text-anchor="middle" x="500.7686" y="-206.8" font-family="Times,serif" font-size="14.00" fill="#000000">samples = 88</text>
<text text-anchor="middle" x="500.7686" y="-192.8" font-family="Times,serif" font-size="14.00" fill="#000000">value = [1, 2, 53, 28, 4, 0]</text>
</g>
<!-- 1&#45;&gt;3 -->
<g id="edge2" class="edge">
<title>1&#45;&gt;3</title>
<path fill="none" stroke="#000000" d="M752.4153,-292.8949C703.3004,-278.2773 641.3799,-259.8486 591.2522,-244.9297"/>
<polygon fill="#000000" stroke="#000000" points="591.9742,-241.4929 581.3912,-241.9948 589.9773,-248.202 591.9742,-241.4929"/>
</g>
<!-- 4 -->
<g id="node10" class="node">
<title>4</title>
<polygon fill="none" stroke="#000000" points="917.3063,-250 756.2308,-250 756.2308,-186 917.3063,-186 917.3063,-250"/>
<text text-anchor="middle" x="836.7686" y="-234.8" font-family="Times,serif" font-size="14.00" fill="#000000">X[9] &lt;= 196.587</text>
<text text-anchor="middle" x="836.7686" y="-220.8" font-family="Times,serif" font-size="14.00" fill="#000000">gini = 0.629</text>
<text text-anchor="middle" x="836.7686" y="-206.8" font-family="Times,serif" font-size="14.00" fill="#000000">samples = 49</text>
<text text-anchor="middle" x="836.7686" y="-192.8" font-family="Times,serif" font-size="14.00" fill="#000000">value = [0, 1, 18, 23, 6, 1]</text>
</g>
<!-- 1&#45;&gt;4 -->
<g id="edge9" class="edge">
<title>1&#45;&gt;4</title>
<path fill="none" stroke="#000000" d="M836.7686,-285.8089C836.7686,-277.6906 836.7686,-268.8517 836.7686,-260.3186"/>
<polygon fill="#000000" stroke="#000000" points="840.2687,-260.1307 836.7686,-250.1308 833.2687,-260.1308 840.2687,-260.1307"/>
</g>
<!-- 7 -->
<g id="node4" class="node">
<title>7</title>
<polygon fill="none" stroke="#000000" points="323.3063,-150 162.2308,-150 162.2308,-86 323.3063,-86 323.3063,-150"/>
<text text-anchor="middle" x="242.7686" y="-134.8" font-family="Times,serif" font-size="14.00" fill="#000000">X[2] &lt;= 0.042</text>
<text text-anchor="middle" x="242.7686" y="-120.8" font-family="Times,serif" font-size="14.00" fill="#000000">gini = 0.405</text>
<text text-anchor="middle" x="242.7686" y="-106.8" font-family="Times,serif" font-size="14.00" fill="#000000">samples = 46</text>
<text text-anchor="middle" x="242.7686" y="-92.8" font-family="Times,serif" font-size="14.00" fill="#000000">value = [0, 2, 34, 10, 0, 0]</text>
</g>
<!-- 3&#45;&gt;7 -->
<g id="edge3" class="edge">
<title>3&#45;&gt;7</title>
<path fill="none" stroke="#000000" d="M420.197,-186.7707C392.5672,-176.0615 361.47,-164.0083 333.1172,-153.0189"/>
<polygon fill="#000000" stroke="#000000" points="334.2052,-149.6869 323.6162,-149.3363 331.6754,-156.2138 334.2052,-149.6869"/>
</g>
<!-- 8 -->
<g id="node7" class="node">
<title>8</title>
<polygon fill="none" stroke="#000000" points="581.3063,-150 420.2308,-150 420.2308,-86 581.3063,-86 581.3063,-150"/>
<text text-anchor="middle" x="500.7686" y="-134.8" font-family="Times,serif" font-size="14.00" fill="#000000">X[6] &lt;= 3.3</text>
<text text-anchor="middle" x="500.7686" y="-120.8" font-family="Times,serif" font-size="14.00" fill="#000000">gini = 0.602</text>
<text text-anchor="middle" x="500.7686" y="-106.8" font-family="Times,serif" font-size="14.00" fill="#000000">samples = 42</text>
<text text-anchor="middle" x="500.7686" y="-92.8" font-family="Times,serif" font-size="14.00" fill="#000000">value = [1, 0, 19, 18, 4, 0]</text>
</g>
<!-- 3&#45;&gt;8 -->
<g id="edge6" class="edge">
<title>3&#45;&gt;8</title>
<path fill="none" stroke="#000000" d="M500.7686,-185.8089C500.7686,-177.6906 500.7686,-168.8517 500.7686,-160.3186"/>
<polygon fill="#000000" stroke="#000000" points="504.2687,-160.1307 500.7686,-150.1308 497.2687,-160.1308 504.2687,-160.1307"/>
</g>
<!-- 13 -->
<g id="node5" class="node">
<title>13</title>
<polygon fill="none" stroke="#000000" points="147.3064,-50 .2307,-50 .2307,0 147.3064,0 147.3064,-50"/>
<text text-anchor="middle" x="73.7686" y="-34.8" font-family="Times,serif" font-size="14.00" fill="#000000">gini = 0.612</text>
<text text-anchor="middle" x="73.7686" y="-20.8" font-family="Times,serif" font-size="14.00" fill="#000000">samples = 7</text>
<text text-anchor="middle" x="73.7686" y="-6.8" font-family="Times,serif" font-size="14.00" fill="#000000">value = [0, 1, 3, 3, 0, 0]</text>
</g>
<!-- 7&#45;&gt;13 -->
<g id="edge4" class="edge">
<title>7&#45;&gt;13</title>
<path fill="none" stroke="#000000" d="M184.6083,-85.9947C166.3956,-75.9723 146.3689,-64.9517 128.4078,-55.0678"/>
<polygon fill="#000000" stroke="#000000" points="129.6727,-51.7689 119.2242,-50.014 126.2978,-57.9016 129.6727,-51.7689"/>
</g>
<!-- 14 -->
<g id="node6" class="node">
<title>14</title>
<polygon fill="none" stroke="#000000" points="319.8064,-50 165.7308,-50 165.7308,0 319.8064,0 319.8064,-50"/>
<text text-anchor="middle" x="242.7686" y="-34.8" font-family="Times,serif" font-size="14.00" fill="#000000">gini = 0.335</text>
<text text-anchor="middle" x="242.7686" y="-20.8" font-family="Times,serif" font-size="14.00" fill="#000000">samples = 39</text>
<text text-anchor="middle" x="242.7686" y="-6.8" font-family="Times,serif" font-size="14.00" fill="#000000">value = [0, 1, 31, 7, 0, 0]</text>
</g>
<!-- 7&#45;&gt;14 -->
<g id="edge5" class="edge">
<title>7&#45;&gt;14</title>
<path fill="none" stroke="#000000" d="M242.7686,-85.9947C242.7686,-77.6273 242.7686,-68.5643 242.7686,-60.0478"/>
<polygon fill="#000000" stroke="#000000" points="246.2687,-60.014 242.7686,-50.014 239.2687,-60.0141 246.2687,-60.014"/>
</g>
<!-- 9 -->
<g id="node8" class="node">
<title>9</title>
<polygon fill="none" stroke="#000000" points="499.3063,-50 338.2308,-50 338.2308,0 499.3063,0 499.3063,-50"/>
<text text-anchor="middle" x="418.7686" y="-34.8" font-family="Times,serif" font-size="14.00" fill="#000000">gini = 0.566</text>
<text text-anchor="middle" x="418.7686" y="-20.8" font-family="Times,serif" font-size="14.00" fill="#000000">samples = 33</text>
<text text-anchor="middle" x="418.7686" y="-6.8" font-family="Times,serif" font-size="14.00" fill="#000000">value = [1, 0, 18, 12, 2, 0]</text>
</g>
<!-- 8&#45;&gt;9 -->
<g id="edge7" class="edge">
<title>8&#45;&gt;9</title>
<path fill="none" stroke="#000000" d="M472.5488,-85.9947C464.4415,-76.7998 455.5934,-66.7648 447.4581,-57.5381"/>
<polygon fill="#000000" stroke="#000000" points="450.0628,-55.2 440.8239,-50.014 444.8123,-59.8295 450.0628,-55.2"/>
</g>
<!-- 10 -->
<g id="node9" class="node">
<title>10</title>
<polygon fill="none" stroke="#000000" points="665.3064,-50 518.2307,-50 518.2307,0 665.3064,0 665.3064,-50"/>
<text text-anchor="middle" x="591.7686" y="-34.8" font-family="Times,serif" font-size="14.00" fill="#000000">gini = 0.494</text>
<text text-anchor="middle" x="591.7686" y="-20.8" font-family="Times,serif" font-size="14.00" fill="#000000">samples = 9</text>
<text text-anchor="middle" x="591.7686" y="-6.8" font-family="Times,serif" font-size="14.00" fill="#000000">value = [0, 0, 1, 6, 2, 0]</text>
</g>
<!-- 8&#45;&gt;10 -->
<g id="edge8" class="edge">
<title>8&#45;&gt;10</title>
<path fill="none" stroke="#000000" d="M532.0856,-85.9947C541.1727,-76.7079 551.0984,-66.564 560.2008,-57.2616"/>
<polygon fill="#000000" stroke="#000000" points="562.8003,-59.6094 567.2925,-50.014 557.797,-54.7137 562.8003,-59.6094"/>
</g>
<!-- 5 -->
<g id="node11" class="node">
<title>5</title>
<polygon fill="none" stroke="#000000" points="838.3063,-150 677.2308,-150 677.2308,-86 838.3063,-86 838.3063,-150"/>
<text text-anchor="middle" x="757.7686" y="-134.8" font-family="Times,serif" font-size="14.00" fill="#000000">X[5] &lt;= 24.21</text>
<text text-anchor="middle" x="757.7686" y="-120.8" font-family="Times,serif" font-size="14.00" fill="#000000">gini = 0.59</text>
<text text-anchor="middle" x="757.7686" y="-106.8" font-family="Times,serif" font-size="14.00" fill="#000000">samples = 40</text>
<text text-anchor="middle" x="757.7686" y="-92.8" font-family="Times,serif" font-size="14.00" fill="#000000">value = [0, 1, 10, 23, 5, 1]</text>
</g>
<!-- 4&#45;&gt;5 -->
<g id="edge10" class="edge">
<title>4&#45;&gt;5</title>
<path fill="none" stroke="#000000" d="M811.3376,-185.8089C804.3603,-176.9769 796.7093,-167.2921 789.4285,-158.0759"/>
<polygon fill="#000000" stroke="#000000" points="792.0973,-155.8079 783.1519,-150.1308 786.6045,-160.1473 792.0973,-155.8079"/>
</g>
<!-- 6 -->
<g id="node14" class="node">
<title>6</title>
<polygon fill="none" stroke="#000000" points="1004.3064,-143 857.2307,-143 857.2307,-93 1004.3064,-93 1004.3064,-143"/>
<text text-anchor="middle" x="930.7686" y="-127.8" font-family="Times,serif" font-size="14.00" fill="#000000">gini = 0.198</text>
<text text-anchor="middle" x="930.7686" y="-113.8" font-family="Times,serif" font-size="14.00" fill="#000000">samples = 9</text>
<text text-anchor="middle" x="930.7686" y="-99.8" font-family="Times,serif" font-size="14.00" fill="#000000">value = [0, 0, 8, 0, 1, 0]</text>
</g>
<!-- 4&#45;&gt;6 -->
<g id="edge13" class="edge">
<title>4&#45;&gt;6</title>
<path fill="none" stroke="#000000" d="M867.0282,-185.8089C877.5811,-174.5824 889.4292,-161.978 900.0213,-150.7098"/>
<polygon fill="#000000" stroke="#000000" points="902.8234,-152.839 907.1223,-143.1555 897.723,-148.0447 902.8234,-152.839"/>
</g>
<!-- 11 -->
<g id="node12" class="node">
<title>11</title>
<polygon fill="none" stroke="#000000" points="831.3064,-50 684.2307,-50 684.2307,0 831.3064,0 831.3064,-50"/>
<text text-anchor="middle" x="757.7686" y="-34.8" font-family="Times,serif" font-size="14.00" fill="#000000">gini = 0.667</text>
<text text-anchor="middle" x="757.7686" y="-20.8" font-family="Times,serif" font-size="14.00" fill="#000000">samples = 6</text>
<text text-anchor="middle" x="757.7686" y="-6.8" font-family="Times,serif" font-size="14.00" fill="#000000">value = [0, 1, 3, 1, 1, 0]</text>
</g>
<!-- 5&#45;&gt;11 -->
<g id="edge11" class="edge">
<title>5&#45;&gt;11</title>
<path fill="none" stroke="#000000" d="M757.7686,-85.9947C757.7686,-77.6273 757.7686,-68.5643 757.7686,-60.0478"/>
<polygon fill="#000000" stroke="#000000" points="761.2687,-60.014 757.7686,-50.014 754.2687,-60.0141 761.2687,-60.014"/>
</g>
<!-- 12 -->
<g id="node13" class="node">
<title>12</title>
<polygon fill="none" stroke="#000000" points="1003.8064,-50 849.7308,-50 849.7308,0 1003.8064,0 1003.8064,-50"/>
<text text-anchor="middle" x="926.7686" y="-34.8" font-family="Times,serif" font-size="14.00" fill="#000000">gini = 0.524</text>
<text text-anchor="middle" x="926.7686" y="-20.8" font-family="Times,serif" font-size="14.00" fill="#000000">samples = 34</text>
<text text-anchor="middle" x="926.7686" y="-6.8" font-family="Times,serif" font-size="14.00" fill="#000000">value = [0, 0, 7, 22, 4, 1]</text>
</g>
<!-- 5&#45;&gt;12 -->
<g id="edge12" class="edge">
<title>5&#45;&gt;12</title>
<path fill="none" stroke="#000000" d="M815.9288,-85.9947C834.1415,-75.9723 854.1682,-64.9517 872.1293,-55.0678"/>
<polygon fill="#000000" stroke="#000000" points="874.2393,-57.9016 881.3129,-50.014 870.8644,-51.7689 874.2393,-57.9016"/>
</g>
<!-- 15 -->
<g id="node16" class="node">
<title>15</title>
<polygon fill="none" stroke="#000000" points="1190.8063,-250 1022.7308,-250 1022.7308,-186 1190.8063,-186 1190.8063,-250"/>
<text text-anchor="middle" x="1106.7686" y="-234.8" font-family="Times,serif" font-size="14.00" fill="#000000">X[0] &lt;= 12.236</text>
<text text-anchor="middle" x="1106.7686" y="-220.8" font-family="Times,serif" font-size="14.00" fill="#000000">gini = 0.626</text>
<text text-anchor="middle" x="1106.7686" y="-206.8" font-family="Times,serif" font-size="14.00" fill="#000000">samples = 181</text>
<text text-anchor="middle" x="1106.7686" y="-192.8" font-family="Times,serif" font-size="14.00" fill="#000000">value = [2, 7, 30, 98, 41, 3]</text>
</g>
<!-- 2&#45;&gt;15 -->
<g id="edge15" class="edge">
<title>2&#45;&gt;15</title>
<path fill="none" stroke="#000000" d="M1106.7686,-285.8089C1106.7686,-277.6906 1106.7686,-268.8517 1106.7686,-260.3186"/>
<polygon fill="#000000" stroke="#000000" points="1110.2687,-260.1307 1106.7686,-250.1308 1103.2687,-260.1308 1110.2687,-260.1307"/>
</g>
<!-- 16 -->
<g id="node19" class="node">
<title>16</title>
<polygon fill="none" stroke="#000000" points="1356.3064,-243 1209.2307,-243 1209.2307,-193 1356.3064,-193 1356.3064,-243"/>
<text text-anchor="middle" x="1282.7686" y="-227.8" font-family="Times,serif" font-size="14.00" fill="#000000">gini = 0.5</text>
<text text-anchor="middle" x="1282.7686" y="-213.8" font-family="Times,serif" font-size="14.00" fill="#000000">samples = 6</text>
<text text-anchor="middle" x="1282.7686" y="-199.8" font-family="Times,serif" font-size="14.00" fill="#000000">value = [0, 0, 0, 3, 3, 0]</text>
</g>
<!-- 2&#45;&gt;16 -->
<g id="edge18" class="edge">
<title>2&#45;&gt;16</title>
<path fill="none" stroke="#000000" d="M1163.4248,-285.8089C1184.7034,-273.7188 1208.7944,-260.0308 1229.732,-248.1344"/>
<polygon fill="#000000" stroke="#000000" points="1231.5293,-251.1388 1238.4948,-243.1555 1228.0712,-245.0526 1231.5293,-251.1388"/>
</g>
<!-- 17 -->
<g id="node17" class="node">
<title>17</title>
<polygon fill="none" stroke="#000000" points="1190.8063,-143 1022.7308,-143 1022.7308,-93 1190.8063,-93 1190.8063,-143"/>
<text text-anchor="middle" x="1106.7686" y="-127.8" font-family="Times,serif" font-size="14.00" fill="#000000">gini = 0.629</text>
<text text-anchor="middle" x="1106.7686" y="-113.8" font-family="Times,serif" font-size="14.00" fill="#000000">samples = 151</text>
<text text-anchor="middle" x="1106.7686" y="-99.8" font-family="Times,serif" font-size="14.00" fill="#000000">value = [2, 7, 30, 82, 28, 2]</text>
</g>
<!-- 15&#45;&gt;17 -->
<g id="edge16" class="edge">
<title>15&#45;&gt;17</title>
<path fill="none" stroke="#000000" d="M1106.7686,-185.8089C1106.7686,-175.446 1106.7686,-163.909 1106.7686,-153.3327"/>
<polygon fill="#000000" stroke="#000000" points="1110.2687,-153.1555 1106.7686,-143.1555 1103.2687,-153.1556 1110.2687,-153.1555"/>
</g>
<!-- 18 -->
<g id="node18" class="node">
<title>18</title>
<polygon fill="none" stroke="#000000" points="1370.3063,-143 1209.2308,-143 1209.2308,-93 1370.3063,-93 1370.3063,-143"/>
<text text-anchor="middle" x="1289.7686" y="-127.8" font-family="Times,serif" font-size="14.00" fill="#000000">gini = 0.527</text>
<text text-anchor="middle" x="1289.7686" y="-113.8" font-family="Times,serif" font-size="14.00" fill="#000000">samples = 30</text>
<text text-anchor="middle" x="1289.7686" y="-99.8" font-family="Times,serif" font-size="14.00" fill="#000000">value = [0, 0, 0, 16, 13, 1]</text>
</g>
<!-- 15&#45;&gt;18 -->
<g id="edge17" class="edge">
<title>15&#45;&gt;18</title>
<path fill="none" stroke="#000000" d="M1165.426,-185.9467C1187.754,-173.7457 1213.0904,-159.9007 1235.0401,-147.9062"/>
<polygon fill="#000000" stroke="#000000" points="1236.8062,-150.9297 1243.9031,-143.0631 1233.4495,-144.787 1236.8062,-150.9297"/>
</g>
</g>
</svg>
