<?xml version="1.0" encoding="UTF-8" standalone="no"?>
<!DOCTYPE svg PUBLIC "-//W3C//DTD SVG 1.1//EN"
 "http://www.w3.org/Graphics/SVG/1.1/DTD/svg11.dtd">
<!-- Generated by graphviz version 2.40.1 (20161225.0304)
 -->
<!-- Title: Tree Pages: 1 -->
<svg width="357pt" height="358pt"
 viewBox="0.00 0.00 357.04 358.00" xmlns="http://www.w3.org/2000/svg" xmlns:xlink="http://www.w3.org/1999/xlink">
<g id="graph0" class="graph" transform="scale(1 1) rotate(0) translate(4 354)">
<title>Tree</title>
<polygon fill="#ffffff" stroke="transparent" points="-4,4 -4,-354 353.0371,-354 353.0371,4 -4,4"/>
<!-- 0 -->
<g id="node1" class="node">
<title>0</title>
<polygon fill="none" stroke="#000000" points="171.8066,-350 59.7305,-350 59.7305,-286 171.8066,-286 171.8066,-350"/>
<text text-anchor="middle" x="115.7686" y="-334.8" font-family="Times,serif" font-size="14.00" fill="#000000">X[8] &lt;= 5.738</text>
<text text-anchor="middle" x="115.7686" y="-320.8" font-family="Times,serif" font-size="14.00" fill="#000000">gini = 0.06</text>
<text text-anchor="middle" x="115.7686" y="-306.8" font-family="Times,serif" font-size="14.00" fill="#000000">samples = 324</text>
<text text-anchor="middle" x="115.7686" y="-292.8" font-family="Times,serif" font-size="14.00" fill="#000000">value = [314, 10]</text>
</g>
<!-- 1 -->
<g id="node2" class="node">
<title>1</title>
<polygon fill="none" stroke="#000000" points="105.3067,-243 .2304,-243 .2304,-193 105.3067,-193 105.3067,-243"/>
<text text-anchor="middle" x="52.7686" y="-227.8" font-family="Times,serif" font-size="14.00" fill="#000000">gini = 0.0</text>
<text text-anchor="middle" x="52.7686" y="-213.8" font-family="Times,serif" font-size="14.00" fill="#000000">samples = 122</text>
<text text-anchor="middle" x="52.7686" y="-199.8" font-family="Times,serif" font-size="14.00" fill="#000000">value = [122, 0]</text>
</g>
<!-- 0&#45;&gt;1 -->
<g id="edge1" class="edge">
<title>0&#45;&gt;1</title>
<path fill="none" stroke="#000000" d="M95.4882,-285.8089C88.6195,-274.9063 80.9321,-262.7041 73.9921,-251.6882"/>
<polygon fill="#000000" stroke="#000000" points="76.9083,-249.7508 68.6165,-243.1555 70.9856,-253.4821 76.9083,-249.7508"/>
<text text-anchor="middle" x="63.0825" y="-263.3353" font-family="Times,serif" font-size="14.00" fill="#000000">True</text>
</g>
<!-- 2 -->
<g id="node3" class="node">
<title>2</title>
<polygon fill="none" stroke="#000000" points="235.8066,-250 123.7305,-250 123.7305,-186 235.8066,-186 235.8066,-250"/>
<text text-anchor="middle" x="179.7686" y="-234.8" font-family="Times,serif" font-size="14.00" fill="#000000">X[8] &lt;= 6.76</text>
<text text-anchor="middle" x="179.7686" y="-220.8" font-family="Times,serif" font-size="14.00" fill="#000000">gini = 0.094</text>
<text text-anchor="middle" x="179.7686" y="-206.8" font-family="Times,serif" font-size="14.00" fill="#000000">samples = 202</text>
<text text-anchor="middle" x="179.7686" y="-192.8" font-family="Times,serif" font-size="14.00" fill="#000000">value = [192, 10]</text>
</g>
<!-- 0&#45;&gt;2 -->
<g id="edge2" class="edge">
<title>0&#45;&gt;2</title>
<path fill="none" stroke="#000000" d="M136.3708,-285.8089C141.9092,-277.1553 147.9714,-267.683 153.7621,-258.635"/>
<polygon fill="#000000" stroke="#000000" points="156.7622,-260.4402 159.2049,-250.1308 150.8663,-256.6668 156.7622,-260.4402"/>
<text text-anchor="middle" x="164.5651" y="-270.3494" font-family="Times,serif" font-size="14.00" fill="#000000">False</text>
</g>
<!-- 3 -->
<g id="node4" class="node">
<title>3</title>
<polygon fill="none" stroke="#000000" points="170.3067,-143 65.2304,-143 65.2304,-93 170.3067,-93 170.3067,-143"/>
<text text-anchor="middle" x="117.7686" y="-127.8" font-family="Times,serif" font-size="14.00" fill="#000000">gini = 0.0</text>
<text text-anchor="middle" x="117.7686" y="-113.8" font-family="Times,serif" font-size="14.00" fill="#000000">samples = 138</text>
<text text-anchor="middle" x="117.7686" y="-99.8" font-family="Times,serif" font-size="14.00" fill="#000000">value = [138, 0]</text>
</g>
<!-- 2&#45;&gt;3 -->
<g id="edge3" class="edge">
<title>2&#45;&gt;3</title>
<path fill="none" stroke="#000000" d="M159.8101,-185.8089C153.0504,-174.9063 145.4851,-162.7041 138.6552,-151.6882"/>
<polygon fill="#000000" stroke="#000000" points="141.6091,-149.8103 133.365,-143.1555 135.6598,-153.4989 141.6091,-149.8103"/>
</g>
<!-- 4 -->
<g id="node5" class="node">
<title>4</title>
<polygon fill="none" stroke="#000000" points="294.3067,-150 189.2304,-150 189.2304,-86 294.3067,-86 294.3067,-150"/>
<text text-anchor="middle" x="241.7686" y="-134.8" font-family="Times,serif" font-size="14.00" fill="#000000">X[8] &lt;= 7.462</text>
<text text-anchor="middle" x="241.7686" y="-120.8" font-family="Times,serif" font-size="14.00" fill="#000000">gini = 0.264</text>
<text text-anchor="middle" x="241.7686" y="-106.8" font-family="Times,serif" font-size="14.00" fill="#000000">samples = 64</text>
<text text-anchor="middle" x="241.7686" y="-92.8" font-family="Times,serif" font-size="14.00" fill="#000000">value = [54, 10]</text>
</g>
<!-- 2&#45;&gt;4 -->
<g id="edge4" class="edge">
<title>2&#45;&gt;4</title>
<path fill="none" stroke="#000000" d="M199.727,-185.8089C205.0923,-177.1553 210.9651,-167.683 216.5748,-158.635"/>
<polygon fill="#000000" stroke="#000000" points="219.5527,-160.4741 221.8475,-150.1308 213.6034,-156.7855 219.5527,-160.4741"/>
</g>
<!-- 5 -->
<g id="node6" class="node">
<title>5</title>
<polygon fill="none" stroke="#000000" points="231.8067,-50 133.7304,-50 133.7304,0 231.8067,0 231.8067,-50"/>
<text text-anchor="middle" x="182.7686" y="-34.8" font-family="Times,serif" font-size="14.00" fill="#000000">gini = 0.0</text>
<text text-anchor="middle" x="182.7686" y="-20.8" font-family="Times,serif" font-size="14.00" fill="#000000">samples = 54</text>
<text text-anchor="middle" x="182.7686" y="-6.8" font-family="Times,serif" font-size="14.00" fill="#000000">value = [54, 0]</text>
</g>
<!-- 4&#45;&gt;5 -->
<g id="edge5" class="edge">
<title>4&#45;&gt;5</title>
<path fill="none" stroke="#000000" d="M221.4641,-85.9947C215.8641,-77.1676 209.7729,-67.5662 204.1158,-58.6491"/>
<polygon fill="#000000" stroke="#000000" points="206.9502,-56.5832 198.6377,-50.014 201.0393,-60.3331 206.9502,-56.5832"/>
</g>
<!-- 6 -->
<g id="node7" class="node">
<title>6</title>
<polygon fill="none" stroke="#000000" points="348.8067,-50 250.7304,-50 250.7304,0 348.8067,0 348.8067,-50"/>
<text text-anchor="middle" x="299.7686" y="-34.8" font-family="Times,serif" font-size="14.00" fill="#000000">gini = 0.0</text>
<text text-anchor="middle" x="299.7686" y="-20.8" font-family="Times,serif" font-size="14.00" fill="#000000">samples = 10</text>
<text text-anchor="middle" x="299.7686" y="-6.8" font-family="Times,serif" font-size="14.00" fill="#000000">value = [0, 10]</text>
</g>
<!-- 4&#45;&gt;6 -->
<g id="edge6" class="edge">
<title>4&#45;&gt;6</title>
<path fill="none" stroke="#000000" d="M261.7289,-85.9947C267.2339,-77.1676 273.2219,-67.5662 278.7831,-58.6491"/>
<polygon fill="#000000" stroke="#000000" points="281.8464,-60.3513 284.1684,-50.014 275.9068,-56.647 281.8464,-60.3513"/>
</g>
</g>
</svg>
