<?xml version="1.0" encoding="UTF-8" standalone="no"?>
<!DOCTYPE svg PUBLIC "-//W3C//DTD SVG 1.1//EN"
 "http://www.w3.org/Graphics/SVG/1.1/DTD/svg11.dtd">
<!-- Generated by graphviz version 2.40.1 (20161225.0304)
 -->
<!-- Title: Tree Pages: 1 -->
<svg width="1213pt" height="458pt"
 viewBox="0.00 0.00 1212.54 458.00" xmlns="http://www.w3.org/2000/svg" xmlns:xlink="http://www.w3.org/1999/xlink">
<g id="graph0" class="graph" transform="scale(1 1) rotate(0) translate(4 454)">
<title>Tree</title>
<polygon fill="#ffffff" stroke="transparent" points="-4,4 -4,-454 1208.5371,-454 1208.5371,4 -4,4"/>
<!-- 0 -->
<g id="node1" class="node">
<title>0</title>
<polygon fill="none" stroke="#000000" points="610.293,-450 428.2441,-450 428.2441,-386 610.293,-386 610.293,-450"/>
<text text-anchor="middle" x="519.2686" y="-434.8" font-family="Times,serif" font-size="14.00" fill="#000000">X[0] &lt;= 10.585</text>
<text text-anchor="middle" x="519.2686" y="-420.8" font-family="Times,serif" font-size="14.00" fill="#000000">gini = 0.666</text>
<text text-anchor="middle" x="519.2686" y="-406.8" font-family="Times,serif" font-size="14.00" fill="#000000">samples = 324</text>
<text text-anchor="middle" x="519.2686" y="-392.8" font-family="Times,serif" font-size="14.00" fill="#000000">value = [8, 114, 138, 54, 9, 1]</text>
</g>
<!-- 1 -->
<g id="node2" class="node">
<title>1</title>
<polygon fill="none" stroke="#000000" points="510.293,-350 342.2441,-350 342.2441,-286 510.293,-286 510.293,-350"/>
<text text-anchor="middle" x="426.2686" y="-334.8" font-family="Times,serif" font-size="14.00" fill="#000000">X[10] &lt;= 1.717</text>
<text text-anchor="middle" x="426.2686" y="-320.8" font-family="Times,serif" font-size="14.00" fill="#000000">gini = 0.607</text>
<text text-anchor="middle" x="426.2686" y="-306.8" font-family="Times,serif" font-size="14.00" fill="#000000">samples = 183</text>
<text text-anchor="middle" x="426.2686" y="-292.8" font-family="Times,serif" font-size="14.00" fill="#000000">value = [7, 89, 71, 11, 5, 0]</text>
</g>
<!-- 0&#45;&gt;1 -->
<g id="edge1" class="edge">
<title>0&#45;&gt;1</title>
<path fill="none" stroke="#000000" d="M489.3309,-385.8089C480.9511,-376.7985 471.7459,-366.9004 463.0202,-357.518"/>
<polygon fill="#000000" stroke="#000000" points="465.5233,-355.0699 456.1502,-350.1308 460.3974,-359.8371 465.5233,-355.0699"/>
<text text-anchor="middle" x="455.244" y="-370.9143" font-family="Times,serif" font-size="14.00" fill="#000000">True</text>
</g>
<!-- 2 -->
<g id="node13" class="node">
<title>2</title>
<polygon fill="none" stroke="#000000" points="697.3063,-350 529.2308,-350 529.2308,-286 697.3063,-286 697.3063,-350"/>
<text text-anchor="middle" x="613.2686" y="-334.8" font-family="Times,serif" font-size="14.00" fill="#000000">X[0] &lt;= 12.027</text>
<text text-anchor="middle" x="613.2686" y="-320.8" font-family="Times,serif" font-size="14.00" fill="#000000">gini = 0.649</text>
<text text-anchor="middle" x="613.2686" y="-306.8" font-family="Times,serif" font-size="14.00" fill="#000000">samples = 141</text>
<text text-anchor="middle" x="613.2686" y="-292.8" font-family="Times,serif" font-size="14.00" fill="#000000">value = [1, 25, 67, 43, 4, 1]</text>
</g>
<!-- 0&#45;&gt;2 -->
<g id="edge12" class="edge">
<title>0&#45;&gt;2</title>
<path fill="none" stroke="#000000" d="M549.5282,-385.8089C557.998,-376.7985 567.3022,-366.9004 576.1217,-357.518"/>
<polygon fill="#000000" stroke="#000000" points="578.7667,-359.8143 583.0656,-350.1308 573.6663,-355.0199 578.7667,-359.8143"/>
<text text-anchor="middle" x="583.8385" y="-370.9188" font-family="Times,serif" font-size="14.00" fill="#000000">False</text>
</g>
<!-- 5 -->
<g id="node3" class="node">
<title>5</title>
<polygon fill="none" stroke="#000000" points="323.8063,-250 162.7308,-250 162.7308,-186 323.8063,-186 323.8063,-250"/>
<text text-anchor="middle" x="243.2686" y="-234.8" font-family="Times,serif" font-size="14.00" fill="#000000">X[1] &lt;= 0.096</text>
<text text-anchor="middle" x="243.2686" y="-220.8" font-family="Times,serif" font-size="14.00" fill="#000000">gini = 0.419</text>
<text text-anchor="middle" x="243.2686" y="-206.8" font-family="Times,serif" font-size="14.00" fill="#000000">samples = 49</text>
<text text-anchor="middle" x="243.2686" y="-192.8" font-family="Times,serif" font-size="14.00" fill="#000000">value = [0, 35, 13, 1, 0, 0]</text>
</g>
<!-- 1&#45;&gt;5 -->
<g id="edge2" class="edge">
<title>1&#45;&gt;5</title>
<path fill="none" stroke="#000000" d="M367.6111,-285.9467C349.5527,-276.0788 329.5264,-265.1354 310.9155,-254.9656"/>
<polygon fill="#000000" stroke="#000000" points="312.3614,-251.7672 301.9078,-250.0433 309.0047,-257.9099 312.3614,-251.7672"/>
</g>
<!-- 6 -->
<g id="node6" class="node">
<title>6</title>
<polygon fill="none" stroke="#000000" points="510.3063,-250 342.2308,-250 342.2308,-186 510.3063,-186 510.3063,-250"/>
<text text-anchor="middle" x="426.2686" y="-234.8" font-family="Times,serif" font-size="14.00" fill="#000000">X[9] &lt;= 159.998</text>
<text text-anchor="middle" x="426.2686" y="-220.8" font-family="Times,serif" font-size="14.00" fill="#000000">gini = 0.641</text>
<text text-anchor="middle" x="426.2686" y="-206.8" font-family="Times,serif" font-size="14.00" fill="#000000">samples = 134</text>
<text text-anchor="middle" x="426.2686" y="-192.8" font-family="Times,serif" font-size="14.00" fill="#000000">value = [7, 54, 58, 10, 5, 0]</text>
</g>
<!-- 1&#45;&gt;6 -->
<g id="edge5" class="edge">
<title>1&#45;&gt;6</title>
<path fill="none" stroke="#000000" d="M426.2686,-285.8089C426.2686,-277.6906 426.2686,-268.8517 426.2686,-260.3186"/>
<polygon fill="#000000" stroke="#000000" points="429.7687,-260.1307 426.2686,-250.1308 422.7687,-260.1308 429.7687,-260.1307"/>
</g>
<!-- 15 -->
<g id="node4" class="node">
<title>15</title>
<polygon fill="none" stroke="#000000" points="154.3064,-143 .2308,-143 .2308,-93 154.3064,-93 154.3064,-143"/>
<text text-anchor="middle" x="77.2686" y="-127.8" font-family="Times,serif" font-size="14.00" fill="#000000">gini = 0.373</text>
<text text-anchor="middle" x="77.2686" y="-113.8" font-family="Times,serif" font-size="14.00" fill="#000000">samples = 42</text>
<text text-anchor="middle" x="77.2686" y="-99.8" font-family="Times,serif" font-size="14.00" fill="#000000">value = [0, 32, 9, 1, 0, 0]</text>
</g>
<!-- 5&#45;&gt;15 -->
<g id="edge3" class="edge">
<title>5&#45;&gt;15</title>
<path fill="none" stroke="#000000" d="M189.8314,-185.8089C169.941,-173.8268 147.4452,-160.2751 127.8213,-148.4535"/>
<polygon fill="#000000" stroke="#000000" points="129.3986,-145.3177 119.0268,-143.1555 125.7865,-151.3138 129.3986,-145.3177"/>
</g>
<!-- 16 -->
<g id="node5" class="node">
<title>16</title>
<polygon fill="none" stroke="#000000" points="319.8064,-143 172.7307,-143 172.7307,-93 319.8064,-93 319.8064,-143"/>
<text text-anchor="middle" x="246.2686" y="-127.8" font-family="Times,serif" font-size="14.00" fill="#000000">gini = 0.49</text>
<text text-anchor="middle" x="246.2686" y="-113.8" font-family="Times,serif" font-size="14.00" fill="#000000">samples = 7</text>
<text text-anchor="middle" x="246.2686" y="-99.8" font-family="Times,serif" font-size="14.00" fill="#000000">value = [0, 3, 4, 0, 0, 0]</text>
</g>
<!-- 5&#45;&gt;16 -->
<g id="edge4" class="edge">
<title>5&#45;&gt;16</title>
<path fill="none" stroke="#000000" d="M244.2343,-185.8089C244.5452,-175.446 244.8913,-163.909 245.2086,-153.3327"/>
<polygon fill="#000000" stroke="#000000" points="248.7124,-153.256 245.5139,-143.1555 241.7155,-153.0461 248.7124,-153.256"/>
</g>
<!-- 7 -->
<g id="node7" class="node">
<title>7</title>
<polygon fill="none" stroke="#000000" points="504.8063,-150 343.7308,-150 343.7308,-86 504.8063,-86 504.8063,-150"/>
<text text-anchor="middle" x="424.2686" y="-134.8" font-family="Times,serif" font-size="14.00" fill="#000000">X[9] &lt;= 148.706</text>
<text text-anchor="middle" x="424.2686" y="-120.8" font-family="Times,serif" font-size="14.00" fill="#000000">gini = 0.638</text>
<text text-anchor="middle" x="424.2686" y="-106.8" font-family="Times,serif" font-size="14.00" fill="#000000">samples = 78</text>
<text text-anchor="middle" x="424.2686" y="-92.8" font-family="Times,serif" font-size="14.00" fill="#000000">value = [5, 23, 40, 5, 5, 0]</text>
</g>
<!-- 6&#45;&gt;7 -->
<g id="edge6" class="edge">
<title>6&#45;&gt;7</title>
<path fill="none" stroke="#000000" d="M425.6247,-185.8089C425.4624,-177.6906 425.2856,-168.8517 425.1149,-160.3186"/>
<polygon fill="#000000" stroke="#000000" points="428.6105,-160.0587 424.9112,-150.1308 421.6119,-160.1988 428.6105,-160.0587"/>
</g>
<!-- 8 -->
<g id="node10" class="node">
<title>8</title>
<polygon fill="none" stroke="#000000" points="684.8063,-150 523.7308,-150 523.7308,-86 684.8063,-86 684.8063,-150"/>
<text text-anchor="middle" x="604.2686" y="-134.8" font-family="Times,serif" font-size="14.00" fill="#000000">X[4] &lt;= 6.627</text>
<text text-anchor="middle" x="604.2686" y="-120.8" font-family="Times,serif" font-size="14.00" fill="#000000">gini = 0.581</text>
<text text-anchor="middle" x="604.2686" y="-106.8" font-family="Times,serif" font-size="14.00" fill="#000000">samples = 56</text>
<text text-anchor="middle" x="604.2686" y="-92.8" font-family="Times,serif" font-size="14.00" fill="#000000">value = [2, 31, 18, 5, 0, 0]</text>
</g>
<!-- 6&#45;&gt;8 -->
<g id="edge9" class="edge">
<title>6&#45;&gt;8</title>
<path fill="none" stroke="#000000" d="M483.5687,-185.8089C500.8777,-176.0848 520.0268,-165.3268 537.8766,-155.2989"/>
<polygon fill="#000000" stroke="#000000" points="540.0717,-158.0802 547.0758,-150.1308 536.6431,-151.9773 540.0717,-158.0802"/>
</g>
<!-- 9 -->
<g id="node8" class="node">
<title>9</title>
<polygon fill="none" stroke="#000000" points="330.8063,-50 169.7308,-50 169.7308,0 330.8063,0 330.8063,-50"/>
<text text-anchor="middle" x="250.2686" y="-34.8" font-family="Times,serif" font-size="14.00" fill="#000000">gini = 0.65</text>
<text text-anchor="middle" x="250.2686" y="-20.8" font-family="Times,serif" font-size="14.00" fill="#000000">samples = 65</text>
<text text-anchor="middle" x="250.2686" y="-6.8" font-family="Times,serif" font-size="14.00" fill="#000000">value = [5, 23, 30, 4, 3, 0]</text>
</g>
<!-- 7&#45;&gt;9 -->
<g id="edge7" class="edge">
<title>7&#45;&gt;9</title>
<path fill="none" stroke="#000000" d="M364.3876,-85.9947C345.464,-75.8803 324.6383,-64.7494 306.0159,-54.796"/>
<polygon fill="#000000" stroke="#000000" points="307.5382,-51.6411 297.069,-50.014 304.2385,-57.8146 307.5382,-51.6411"/>
</g>
<!-- 10 -->
<g id="node9" class="node">
<title>10</title>
<polygon fill="none" stroke="#000000" points="503.3064,-50 349.2308,-50 349.2308,0 503.3064,0 503.3064,-50"/>
<text text-anchor="middle" x="426.2686" y="-34.8" font-family="Times,serif" font-size="14.00" fill="#000000">gini = 0.379</text>
<text text-anchor="middle" x="426.2686" y="-20.8" font-family="Times,serif" font-size="14.00" fill="#000000">samples = 13</text>
<text text-anchor="middle" x="426.2686" y="-6.8" font-family="Times,serif" font-size="14.00" fill="#000000">value = [0, 0, 10, 1, 2, 0]</text>
</g>
<!-- 7&#45;&gt;10 -->
<g id="edge8" class="edge">
<title>7&#45;&gt;10</title>
<path fill="none" stroke="#000000" d="M424.9568,-85.9947C425.1368,-77.6273 425.3317,-68.5643 425.5148,-60.0478"/>
<polygon fill="#000000" stroke="#000000" points="429.0147,-60.087 425.7306,-50.014 422.0163,-59.9364 429.0147,-60.087"/>
</g>
<!-- 11 -->
<g id="node11" class="node">
<title>11</title>
<polygon fill="none" stroke="#000000" points="679.3064,-50 525.2308,-50 525.2308,0 679.3064,0 679.3064,-50"/>
<text text-anchor="middle" x="602.2686" y="-34.8" font-family="Times,serif" font-size="14.00" fill="#000000">gini = 0.332</text>
<text text-anchor="middle" x="602.2686" y="-20.8" font-family="Times,serif" font-size="14.00" fill="#000000">samples = 19</text>
<text text-anchor="middle" x="602.2686" y="-6.8" font-family="Times,serif" font-size="14.00" fill="#000000">value = [0, 15, 4, 0, 0, 0]</text>
</g>
<!-- 8&#45;&gt;11 -->
<g id="edge10" class="edge">
<title>8&#45;&gt;11</title>
<path fill="none" stroke="#000000" d="M603.5803,-85.9947C603.4003,-77.6273 603.2054,-68.5643 603.0223,-60.0478"/>
<polygon fill="#000000" stroke="#000000" points="606.5208,-59.9364 602.8065,-50.014 599.5224,-60.087 606.5208,-59.9364"/>
</g>
<!-- 12 -->
<g id="node12" class="node">
<title>12</title>
<polygon fill="none" stroke="#000000" points="858.8063,-50 697.7308,-50 697.7308,0 858.8063,0 858.8063,-50"/>
<text text-anchor="middle" x="778.2686" y="-34.8" font-family="Times,serif" font-size="14.00" fill="#000000">gini = 0.649</text>
<text text-anchor="middle" x="778.2686" y="-20.8" font-family="Times,serif" font-size="14.00" fill="#000000">samples = 37</text>
<text text-anchor="middle" x="778.2686" y="-6.8" font-family="Times,serif" font-size="14.00" fill="#000000">value = [2, 16, 14, 5, 0, 0]</text>
</g>
<!-- 8&#45;&gt;12 -->
<g id="edge11" class="edge">
<title>8&#45;&gt;12</title>
<path fill="none" stroke="#000000" d="M664.1495,-85.9947C683.0731,-75.8803 703.8988,-64.7494 722.5212,-54.796"/>
<polygon fill="#000000" stroke="#000000" points="724.2986,-57.8146 731.4681,-50.014 720.9989,-51.6411 724.2986,-57.8146"/>
</g>
<!-- 3 -->
<g id="node14" class="node">
<title>3</title>
<polygon fill="none" stroke="#000000" points="697.3063,-243 529.2308,-243 529.2308,-193 697.3063,-193 697.3063,-243"/>
<text text-anchor="middle" x="613.2686" y="-227.8" font-family="Times,serif" font-size="14.00" fill="#000000">gini = 0.6</text>
<text text-anchor="middle" x="613.2686" y="-213.8" font-family="Times,serif" font-size="14.00" fill="#000000">samples = 98</text>
<text text-anchor="middle" x="613.2686" y="-199.8" font-family="Times,serif" font-size="14.00" fill="#000000">value = [1, 22, 54, 21, 0, 0]</text>
</g>
<!-- 2&#45;&gt;3 -->
<g id="edge13" class="edge">
<title>2&#45;&gt;3</title>
<path fill="none" stroke="#000000" d="M613.2686,-285.8089C613.2686,-275.446 613.2686,-263.909 613.2686,-253.3327"/>
<polygon fill="#000000" stroke="#000000" points="616.7687,-253.1555 613.2686,-243.1555 609.7687,-253.1556 616.7687,-253.1555"/>
</g>
<!-- 4 -->
<g id="node15" class="node">
<title>4</title>
<polygon fill="none" stroke="#000000" points="876.8063,-250 715.7308,-250 715.7308,-186 876.8063,-186 876.8063,-250"/>
<text text-anchor="middle" x="796.2686" y="-234.8" font-family="Times,serif" font-size="14.00" fill="#000000">X[6] &lt;= 3.06</text>
<text text-anchor="middle" x="796.2686" y="-220.8" font-family="Times,serif" font-size="14.00" fill="#000000">gini = 0.633</text>
<text text-anchor="middle" x="796.2686" y="-206.8" font-family="Times,serif" font-size="14.00" fill="#000000">samples = 43</text>
<text text-anchor="middle" x="796.2686" y="-192.8" font-family="Times,serif" font-size="14.00" fill="#000000">value = [0, 3, 13, 22, 4, 1]</text>
</g>
<!-- 2&#45;&gt;4 -->
<g id="edge14" class="edge">
<title>2&#45;&gt;4</title>
<path fill="none" stroke="#000000" d="M671.926,-285.9467C689.9844,-276.0788 710.0107,-265.1354 728.6216,-254.9656"/>
<polygon fill="#000000" stroke="#000000" points="730.5324,-257.9099 737.6293,-250.0433 727.1757,-251.7672 730.5324,-257.9099"/>
</g>
<!-- 13 -->
<g id="node16" class="node">
<title>13</title>
<polygon fill="none" stroke="#000000" points="866.8064,-143 719.7307,-143 719.7307,-93 866.8064,-93 866.8064,-143"/>
<text text-anchor="middle" x="793.2686" y="-127.8" font-family="Times,serif" font-size="14.00" fill="#000000">gini = 0.5</text>
<text text-anchor="middle" x="793.2686" y="-113.8" font-family="Times,serif" font-size="14.00" fill="#000000">samples = 6</text>
<text text-anchor="middle" x="793.2686" y="-99.8" font-family="Times,serif" font-size="14.00" fill="#000000">value = [0, 1, 4, 1, 0, 0]</text>
</g>
<!-- 4&#45;&gt;13 -->
<g id="edge15" class="edge">
<title>4&#45;&gt;13</title>
<path fill="none" stroke="#000000" d="M795.3028,-185.8089C794.9919,-175.446 794.6458,-163.909 794.3285,-153.3327"/>
<polygon fill="#000000" stroke="#000000" points="797.8216,-153.0461 794.0232,-143.1555 790.8248,-153.256 797.8216,-153.0461"/>
</g>
<!-- 14 -->
<g id="node17" class="node">
<title>14</title>
<polygon fill="none" stroke="#000000" points="1039.3064,-150 885.2308,-150 885.2308,-86 1039.3064,-86 1039.3064,-150"/>
<text text-anchor="middle" x="962.2686" y="-134.8" font-family="Times,serif" font-size="14.00" fill="#000000">X[4] &lt;= 6.612</text>
<text text-anchor="middle" x="962.2686" y="-120.8" font-family="Times,serif" font-size="14.00" fill="#000000">gini = 0.603</text>
<text text-anchor="middle" x="962.2686" y="-106.8" font-family="Times,serif" font-size="14.00" fill="#000000">samples = 37</text>
<text text-anchor="middle" x="962.2686" y="-92.8" font-family="Times,serif" font-size="14.00" fill="#000000">value = [0, 2, 9, 21, 4, 1]</text>
</g>
<!-- 4&#45;&gt;14 -->
<g id="edge16" class="edge">
<title>4&#45;&gt;14</title>
<path fill="none" stroke="#000000" d="M849.7057,-185.8089C865.8479,-176.0848 883.706,-165.3268 900.3524,-155.2989"/>
<polygon fill="#000000" stroke="#000000" points="902.1717,-158.289 908.9315,-150.1308 898.5596,-152.2929 902.1717,-158.289"/>
</g>
<!-- 17 -->
<g id="node18" class="node">
<title>17</title>
<polygon fill="none" stroke="#000000" points="1031.8064,-50 884.7307,-50 884.7307,0 1031.8064,0 1031.8064,-50"/>
<text text-anchor="middle" x="958.2686" y="-34.8" font-family="Times,serif" font-size="14.00" fill="#000000">gini = 0.703</text>
<text text-anchor="middle" x="958.2686" y="-20.8" font-family="Times,serif" font-size="14.00" fill="#000000">samples = 21</text>
<text text-anchor="middle" x="958.2686" y="-6.8" font-family="Times,serif" font-size="14.00" fill="#000000">value = [0, 2, 6, 9, 3, 1]</text>
</g>
<!-- 14&#45;&gt;17 -->
<g id="edge17" class="edge">
<title>14&#45;&gt;17</title>
<path fill="none" stroke="#000000" d="M960.892,-85.9947C960.5321,-77.6273 960.1423,-68.5643 959.776,-60.0478"/>
<polygon fill="#000000" stroke="#000000" points="963.271,-59.8544 959.3444,-50.014 956.2775,-60.1552 963.271,-59.8544"/>
</g>
<!-- 18 -->
<g id="node19" class="node">
<title>18</title>
<polygon fill="none" stroke="#000000" points="1204.3064,-50 1050.2308,-50 1050.2308,0 1204.3064,0 1204.3064,-50"/>
<text text-anchor="middle" x="1127.2686" y="-34.8" font-family="Times,serif" font-size="14.00" fill="#000000">gini = 0.398</text>
<text text-anchor="middle" x="1127.2686" y="-20.8" font-family="Times,serif" font-size="14.00" fill="#000000">samples = 16</text>
<text text-anchor="middle" x="1127.2686" y="-6.8" font-family="Times,serif" font-size="14.00" fill="#000000">value = [0, 0, 3, 12, 1, 0]</text>
</g>
<!-- 14&#45;&gt;18 -->
<g id="edge18" class="edge">
<title>14&#45;&gt;18</title>
<path fill="none" stroke="#000000" d="M1019.0522,-85.9947C1036.8339,-75.9723 1056.3866,-64.9517 1073.9225,-55.0678"/>
<polygon fill="#000000" stroke="#000000" points="1075.8959,-57.9732 1082.8888,-50.014 1072.4587,-51.8752 1075.8959,-57.9732"/>
</g>
</g>
</svg>
