<?xml version="1.0" encoding="UTF-8" standalone="no"?>
<!DOCTYPE svg PUBLIC "-//W3C//DTD SVG 1.1//EN"
 "http://www.w3.org/Graphics/SVG/1.1/DTD/svg11.dtd">
<!-- Generated by graphviz version 2.40.1 (20161225.0304)
 -->
<!-- Title: Tree Pages: 1 -->
<svg width="275pt" height="258pt"
 viewBox="0.00 0.00 275.04 258.00" xmlns="http://www.w3.org/2000/svg" xmlns:xlink="http://www.w3.org/1999/xlink">
<g id="graph0" class="graph" transform="scale(1 1) rotate(0) translate(4 254)">
<title>Tree</title>
<polygon fill="#ffffff" stroke="transparent" points="-4,4 -4,-254 271.0371,-254 271.0371,4 -4,4"/>
<!-- 0 -->
<g id="node1" class="node">
<title>0</title>
<polygon fill="none" stroke="#000000" points="217.4945,-250 100.0426,-250 100.0426,-186 217.4945,-186 217.4945,-250"/>
<text text-anchor="middle" x="158.7686" y="-234.8" font-family="Times,serif" font-size="14.00" fill="#000000">X[21] &lt;= 987.553</text>
<text text-anchor="middle" x="158.7686" y="-220.8" font-family="Times,serif" font-size="14.00" fill="#000000">gini = 0.49</text>
<text text-anchor="middle" x="158.7686" y="-206.8" font-family="Times,serif" font-size="14.00" fill="#000000">samples = 28</text>
<text text-anchor="middle" x="158.7686" y="-192.8" font-family="Times,serif" font-size="14.00" fill="#000000">value = [16, 12]</text>
</g>
<!-- 1 -->
<g id="node2" class="node">
<title>1</title>
<polygon fill="none" stroke="#000000" points="149.8067,-150 51.7304,-150 51.7304,-86 149.8067,-86 149.8067,-150"/>
<text text-anchor="middle" x="100.7686" y="-134.8" font-family="Times,serif" font-size="14.00" fill="#000000">X[3] &lt;= 0.037</text>
<text text-anchor="middle" x="100.7686" y="-120.8" font-family="Times,serif" font-size="14.00" fill="#000000">gini = 0.375</text>
<text text-anchor="middle" x="100.7686" y="-106.8" font-family="Times,serif" font-size="14.00" fill="#000000">samples = 16</text>
<text text-anchor="middle" x="100.7686" y="-92.8" font-family="Times,serif" font-size="14.00" fill="#000000">value = [4, 12]</text>
</g>
<!-- 0&#45;&gt;1 -->
<g id="edge1" class="edge">
<title>0&#45;&gt;1</title>
<path fill="none" stroke="#000000" d="M140.0977,-185.8089C135.1304,-177.2445 129.6979,-167.8782 124.4993,-158.915"/>
<polygon fill="#000000" stroke="#000000" points="127.4492,-157.0251 119.4044,-150.1308 121.394,-160.5371 127.4492,-157.0251"/>
<text text-anchor="middle" x="112.9819" y="-170.0917" font-family="Times,serif" font-size="14.00" fill="#000000">True</text>
</g>
<!-- 2 -->
<g id="node5" class="node">
<title>2</title>
<polygon fill="none" stroke="#000000" points="266.8067,-143 168.7304,-143 168.7304,-93 266.8067,-93 266.8067,-143"/>
<text text-anchor="middle" x="217.7686" y="-127.8" font-family="Times,serif" font-size="14.00" fill="#000000">gini = 0.0</text>
<text text-anchor="middle" x="217.7686" y="-113.8" font-family="Times,serif" font-size="14.00" fill="#000000">samples = 12</text>
<text text-anchor="middle" x="217.7686" y="-99.8" font-family="Times,serif" font-size="14.00" fill="#000000">value = [12, 0]</text>
</g>
<!-- 0&#45;&gt;2 -->
<g id="edge4" class="edge">
<title>0&#45;&gt;2</title>
<path fill="none" stroke="#000000" d="M177.7613,-185.8089C184.1302,-175.0142 191.2507,-162.9456 197.6993,-152.0158"/>
<polygon fill="#000000" stroke="#000000" points="200.8597,-153.5468 202.9268,-143.1555 194.8308,-149.9897 200.8597,-153.5468"/>
<text text-anchor="middle" x="209.1691" y="-163.1637" font-family="Times,serif" font-size="14.00" fill="#000000">False</text>
</g>
<!-- 3 -->
<g id="node3" class="node">
<title>3</title>
<polygon fill="none" stroke="#000000" points="91.3068,-50 .2303,-50 .2303,0 91.3068,0 91.3068,-50"/>
<text text-anchor="middle" x="45.7686" y="-34.8" font-family="Times,serif" font-size="14.00" fill="#000000">gini = 0.0</text>
<text text-anchor="middle" x="45.7686" y="-20.8" font-family="Times,serif" font-size="14.00" fill="#000000">samples = 8</text>
<text text-anchor="middle" x="45.7686" y="-6.8" font-family="Times,serif" font-size="14.00" fill="#000000">value = [0, 8]</text>
</g>
<!-- 1&#45;&gt;3 -->
<g id="edge2" class="edge">
<title>1&#45;&gt;3</title>
<path fill="none" stroke="#000000" d="M81.8407,-85.9947C76.6204,-77.1676 70.9421,-67.5662 65.6686,-58.6491"/>
<polygon fill="#000000" stroke="#000000" points="68.6649,-56.8398 60.5618,-50.014 62.6397,-60.4031 68.6649,-56.8398"/>
</g>
<!-- 4 -->
<g id="node4" class="node">
<title>4</title>
<polygon fill="none" stroke="#000000" points="201.3068,-50 110.2303,-50 110.2303,0 201.3068,0 201.3068,-50"/>
<text text-anchor="middle" x="155.7686" y="-34.8" font-family="Times,serif" font-size="14.00" fill="#000000">gini = 0.5</text>
<text text-anchor="middle" x="155.7686" y="-20.8" font-family="Times,serif" font-size="14.00" fill="#000000">samples = 8</text>
<text text-anchor="middle" x="155.7686" y="-6.8" font-family="Times,serif" font-size="14.00" fill="#000000">value = [4, 4]</text>
</g>
<!-- 1&#45;&gt;4 -->
<g id="edge3" class="edge">
<title>1&#45;&gt;4</title>
<path fill="none" stroke="#000000" d="M119.6964,-85.9947C124.9168,-77.1676 130.595,-67.5662 135.8686,-58.6491"/>
<polygon fill="#000000" stroke="#000000" points="138.8975,-60.4031 140.9753,-50.014 132.8722,-56.8398 138.8975,-60.4031"/>
</g>
</g>
</svg>
