<?xml version="1.0" encoding="UTF-8" standalone="no"?>
<!DOCTYPE svg PUBLIC "-//W3C//DTD SVG 1.1//EN"
 "http://www.w3.org/Graphics/SVG/1.1/DTD/svg11.dtd">
<!-- Generated by graphviz version 2.40.1 (20161225.0304)
 -->
<!-- Title: Tree Pages: 1 -->
<svg width="969pt" height="458pt"
 viewBox="0.00 0.00 968.54 458.00" xmlns="http://www.w3.org/2000/svg" xmlns:xlink="http://www.w3.org/1999/xlink">
<g id="graph0" class="graph" transform="scale(1 1) rotate(0) translate(4 454)">
<title>Tree</title>
<polygon fill="#ffffff" stroke="transparent" points="-4,4 -4,-454 964.5371,-454 964.5371,4 -4,4"/>
<!-- 0 -->
<g id="node1" class="node">
<title>0</title>
<polygon fill="none" stroke="#000000" points="507.8064,-450 360.7307,-450 360.7307,-386 507.8064,-386 507.8064,-450"/>
<text text-anchor="middle" x="434.2686" y="-434.8" font-family="Times,serif" font-size="14.00" fill="#000000">X[1] &lt;= 11.65</text>
<text text-anchor="middle" x="434.2686" y="-420.8" font-family="Times,serif" font-size="14.00" fill="#000000">gini = 0.069</text>
<text text-anchor="middle" x="434.2686" y="-406.8" font-family="Times,serif" font-size="14.00" fill="#000000">samples = 5522</text>
<text text-anchor="middle" x="434.2686" y="-392.8" font-family="Times,serif" font-size="14.00" fill="#000000">value = [24, 5325, 173]</text>
</g>
<!-- 1 -->
<g id="node2" class="node">
<title>1</title>
<polygon fill="none" stroke="#000000" points="427.3064,-350 287.2307,-350 287.2307,-286 427.3064,-286 427.3064,-350"/>
<text text-anchor="middle" x="357.2686" y="-334.8" font-family="Times,serif" font-size="14.00" fill="#000000">X[1] &lt;= 8.461</text>
<text text-anchor="middle" x="357.2686" y="-320.8" font-family="Times,serif" font-size="14.00" fill="#000000">gini = 0.039</text>
<text text-anchor="middle" x="357.2686" y="-306.8" font-family="Times,serif" font-size="14.00" fill="#000000">samples = 4489</text>
<text text-anchor="middle" x="357.2686" y="-292.8" font-family="Times,serif" font-size="14.00" fill="#000000">value = [21, 4399, 69]</text>
</g>
<!-- 0&#45;&gt;1 -->
<g id="edge1" class="edge">
<title>0&#45;&gt;1</title>
<path fill="none" stroke="#000000" d="M409.4814,-385.8089C402.6808,-376.9769 395.2234,-367.2921 388.127,-358.0759"/>
<polygon fill="#000000" stroke="#000000" points="390.8834,-355.9187 382.0092,-350.1308 385.3371,-360.1894 390.8834,-355.9187"/>
<text text-anchor="middle" x="378.7877" y="-370.7223" font-family="Times,serif" font-size="14.00" fill="#000000">True</text>
</g>
<!-- 2 -->
<g id="node11" class="node">
<title>2</title>
<polygon fill="none" stroke="#000000" points="636.8065,-350 503.7306,-350 503.7306,-286 636.8065,-286 636.8065,-350"/>
<text text-anchor="middle" x="570.2686" y="-334.8" font-family="Times,serif" font-size="14.00" fill="#000000">X[0] &lt;= 5688.304</text>
<text text-anchor="middle" x="570.2686" y="-320.8" font-family="Times,serif" font-size="14.00" fill="#000000">gini = 0.186</text>
<text text-anchor="middle" x="570.2686" y="-306.8" font-family="Times,serif" font-size="14.00" fill="#000000">samples = 1033</text>
<text text-anchor="middle" x="570.2686" y="-292.8" font-family="Times,serif" font-size="14.00" fill="#000000">value = [3, 926, 104]</text>
</g>
<!-- 0&#45;&gt;2 -->
<g id="edge10" class="edge">
<title>0&#45;&gt;2</title>
<path fill="none" stroke="#000000" d="M478.0484,-385.8089C490.9093,-376.3524 505.0998,-365.9182 518.4138,-356.1285"/>
<polygon fill="#000000" stroke="#000000" points="520.5876,-358.8745 526.5707,-350.1308 516.4408,-353.2349 520.5876,-358.8745"/>
<text text-anchor="middle" x="522.8008" y="-370.6449" font-family="Times,serif" font-size="14.00" fill="#000000">False</text>
</g>
<!-- 7 -->
<g id="node3" class="node">
<title>7</title>
<polygon fill="none" stroke="#000000" points="268.8067,-243 163.7304,-243 163.7304,-193 268.8067,-193 268.8067,-243"/>
<text text-anchor="middle" x="216.2686" y="-227.8" font-family="Times,serif" font-size="14.00" fill="#000000">gini = 0.408</text>
<text text-anchor="middle" x="216.2686" y="-213.8" font-family="Times,serif" font-size="14.00" fill="#000000">samples = 7</text>
<text text-anchor="middle" x="216.2686" y="-199.8" font-family="Times,serif" font-size="14.00" fill="#000000">value = [2, 5, 0]</text>
</g>
<!-- 1&#45;&gt;7 -->
<g id="edge2" class="edge">
<title>1&#45;&gt;7</title>
<path fill="none" stroke="#000000" d="M311.8791,-285.8089C295.2887,-274.0427 276.5642,-260.7629 260.1113,-249.0942"/>
<polygon fill="#000000" stroke="#000000" points="261.9195,-246.0857 251.7379,-243.1555 257.87,-251.7955 261.9195,-246.0857"/>
</g>
<!-- 8 -->
<g id="node4" class="node">
<title>8</title>
<polygon fill="none" stroke="#000000" points="427.3064,-250 287.2307,-250 287.2307,-186 427.3064,-186 427.3064,-250"/>
<text text-anchor="middle" x="357.2686" y="-234.8" font-family="Times,serif" font-size="14.00" fill="#000000">X[8] &lt;= 5.821</text>
<text text-anchor="middle" x="357.2686" y="-220.8" font-family="Times,serif" font-size="14.00" fill="#000000">gini = 0.039</text>
<text text-anchor="middle" x="357.2686" y="-206.8" font-family="Times,serif" font-size="14.00" fill="#000000">samples = 4482</text>
<text text-anchor="middle" x="357.2686" y="-192.8" font-family="Times,serif" font-size="14.00" fill="#000000">value = [19, 4394, 69]</text>
</g>
<!-- 1&#45;&gt;8 -->
<g id="edge3" class="edge">
<title>1&#45;&gt;8</title>
<path fill="none" stroke="#000000" d="M357.2686,-285.8089C357.2686,-277.6906 357.2686,-268.8517 357.2686,-260.3186"/>
<polygon fill="#000000" stroke="#000000" points="360.7687,-260.1307 357.2686,-250.1308 353.7687,-260.1308 360.7687,-260.1307"/>
</g>
<!-- 9 -->
<g id="node5" class="node">
<title>9</title>
<polygon fill="none" stroke="#000000" points="271.8065,-150 138.7306,-150 138.7306,-86 271.8065,-86 271.8065,-150"/>
<text text-anchor="middle" x="205.2686" y="-134.8" font-family="Times,serif" font-size="14.00" fill="#000000">X[8] &lt;= 4.013</text>
<text text-anchor="middle" x="205.2686" y="-120.8" font-family="Times,serif" font-size="14.00" fill="#000000">gini = 0.019</text>
<text text-anchor="middle" x="205.2686" y="-106.8" font-family="Times,serif" font-size="14.00" fill="#000000">samples = 1948</text>
<text text-anchor="middle" x="205.2686" y="-92.8" font-family="Times,serif" font-size="14.00" fill="#000000">value = [19, 1929, 0]</text>
</g>
<!-- 8&#45;&gt;9 -->
<g id="edge4" class="edge">
<title>8&#45;&gt;9</title>
<path fill="none" stroke="#000000" d="M308.3381,-185.8089C293.8286,-176.2632 277.8049,-165.7213 262.803,-155.8516"/>
<polygon fill="#000000" stroke="#000000" points="264.3852,-152.703 254.1073,-150.1308 260.5378,-158.5509 264.3852,-152.703"/>
</g>
<!-- 10 -->
<g id="node8" class="node">
<title>10</title>
<polygon fill="none" stroke="#000000" points="423.8065,-150 290.7306,-150 290.7306,-86 423.8065,-86 423.8065,-150"/>
<text text-anchor="middle" x="357.2686" y="-134.8" font-family="Times,serif" font-size="14.00" fill="#000000">X[12] &lt;= 1.533</text>
<text text-anchor="middle" x="357.2686" y="-120.8" font-family="Times,serif" font-size="14.00" fill="#000000">gini = 0.053</text>
<text text-anchor="middle" x="357.2686" y="-106.8" font-family="Times,serif" font-size="14.00" fill="#000000">samples = 2534</text>
<text text-anchor="middle" x="357.2686" y="-92.8" font-family="Times,serif" font-size="14.00" fill="#000000">value = [0, 2465, 69]</text>
</g>
<!-- 8&#45;&gt;10 -->
<g id="edge7" class="edge">
<title>8&#45;&gt;10</title>
<path fill="none" stroke="#000000" d="M357.2686,-185.8089C357.2686,-177.6906 357.2686,-168.8517 357.2686,-160.3186"/>
<polygon fill="#000000" stroke="#000000" points="360.7687,-160.1307 357.2686,-150.1308 353.7687,-160.1308 360.7687,-160.1307"/>
</g>
<!-- 11 -->
<g id="node6" class="node">
<title>11</title>
<polygon fill="none" stroke="#000000" points="126.3065,-50 .2306,-50 .2306,0 126.3065,0 126.3065,-50"/>
<text text-anchor="middle" x="63.2686" y="-34.8" font-family="Times,serif" font-size="14.00" fill="#000000">gini = 0.178</text>
<text text-anchor="middle" x="63.2686" y="-20.8" font-family="Times,serif" font-size="14.00" fill="#000000">samples = 193</text>
<text text-anchor="middle" x="63.2686" y="-6.8" font-family="Times,serif" font-size="14.00" fill="#000000">value = [19, 174, 0]</text>
</g>
<!-- 9&#45;&gt;11 -->
<g id="edge5" class="edge">
<title>9&#45;&gt;11</title>
<path fill="none" stroke="#000000" d="M156.4002,-85.9947C141.378,-76.1562 124.887,-65.3558 110.0109,-55.613"/>
<polygon fill="#000000" stroke="#000000" points="111.7452,-52.565 101.462,-50.014 107.91,-58.4209 111.7452,-52.565"/>
</g>
<!-- 12 -->
<g id="node7" class="node">
<title>12</title>
<polygon fill="none" stroke="#000000" points="271.3065,-50 145.2306,-50 145.2306,0 271.3065,0 271.3065,-50"/>
<text text-anchor="middle" x="208.2686" y="-34.8" font-family="Times,serif" font-size="14.00" fill="#000000">gini = 0.0</text>
<text text-anchor="middle" x="208.2686" y="-20.8" font-family="Times,serif" font-size="14.00" fill="#000000">samples = 1755</text>
<text text-anchor="middle" x="208.2686" y="-6.8" font-family="Times,serif" font-size="14.00" fill="#000000">value = [0, 1755, 0]</text>
</g>
<!-- 9&#45;&gt;12 -->
<g id="edge6" class="edge">
<title>9&#45;&gt;12</title>
<path fill="none" stroke="#000000" d="M206.301,-85.9947C206.5709,-77.6273 206.8633,-68.5643 207.138,-60.0478"/>
<polygon fill="#000000" stroke="#000000" points="210.6373,-60.1217 207.4617,-50.014 203.641,-59.896 210.6373,-60.1217"/>
</g>
<!-- 13 -->
<g id="node9" class="node">
<title>13</title>
<polygon fill="none" stroke="#000000" points="413.8066,-50 294.7306,-50 294.7306,0 413.8066,0 413.8066,-50"/>
<text text-anchor="middle" x="354.2686" y="-34.8" font-family="Times,serif" font-size="14.00" fill="#000000">gini = 0.021</text>
<text text-anchor="middle" x="354.2686" y="-20.8" font-family="Times,serif" font-size="14.00" fill="#000000">samples = 556</text>
<text text-anchor="middle" x="354.2686" y="-6.8" font-family="Times,serif" font-size="14.00" fill="#000000">value = [0, 550, 6]</text>
</g>
<!-- 10&#45;&gt;13 -->
<g id="edge8" class="edge">
<title>10&#45;&gt;13</title>
<path fill="none" stroke="#000000" d="M356.2361,-85.9947C355.9662,-77.6273 355.6739,-68.5643 355.3991,-60.0478"/>
<polygon fill="#000000" stroke="#000000" points="358.8961,-59.896 355.0755,-50.014 351.8998,-60.1217 358.8961,-59.896"/>
</g>
<!-- 14 -->
<g id="node10" class="node">
<title>14</title>
<polygon fill="none" stroke="#000000" points="565.8065,-50 432.7306,-50 432.7306,0 565.8065,0 565.8065,-50"/>
<text text-anchor="middle" x="499.2686" y="-34.8" font-family="Times,serif" font-size="14.00" fill="#000000">gini = 0.062</text>
<text text-anchor="middle" x="499.2686" y="-20.8" font-family="Times,serif" font-size="14.00" fill="#000000">samples = 1978</text>
<text text-anchor="middle" x="499.2686" y="-6.8" font-family="Times,serif" font-size="14.00" fill="#000000">value = [0, 1915, 63]</text>
</g>
<!-- 10&#45;&gt;14 -->
<g id="edge9" class="edge">
<title>10&#45;&gt;14</title>
<path fill="none" stroke="#000000" d="M406.1369,-85.9947C421.1592,-76.1562 437.6501,-65.3558 452.5262,-55.613"/>
<polygon fill="#000000" stroke="#000000" points="454.6271,-58.4209 461.0751,-50.014 450.7919,-52.565 454.6271,-58.4209"/>
</g>
<!-- 3 -->
<g id="node12" class="node">
<title>3</title>
<polygon fill="none" stroke="#000000" points="633.3065,-250 507.2306,-250 507.2306,-186 633.3065,-186 633.3065,-250"/>
<text text-anchor="middle" x="570.2686" y="-234.8" font-family="Times,serif" font-size="14.00" fill="#000000">X[8] &lt;= 7.764</text>
<text text-anchor="middle" x="570.2686" y="-220.8" font-family="Times,serif" font-size="14.00" fill="#000000">gini = 0.209</text>
<text text-anchor="middle" x="570.2686" y="-206.8" font-family="Times,serif" font-size="14.00" fill="#000000">samples = 854</text>
<text text-anchor="middle" x="570.2686" y="-192.8" font-family="Times,serif" font-size="14.00" fill="#000000">value = [3, 753, 98]</text>
</g>
<!-- 2&#45;&gt;3 -->
<g id="edge11" class="edge">
<title>2&#45;&gt;3</title>
<path fill="none" stroke="#000000" d="M570.2686,-285.8089C570.2686,-277.6906 570.2686,-268.8517 570.2686,-260.3186"/>
<polygon fill="#000000" stroke="#000000" points="573.7687,-260.1307 570.2686,-250.1308 566.7687,-260.1308 573.7687,-260.1307"/>
</g>
<!-- 4 -->
<g id="node15" class="node">
<title>4</title>
<polygon fill="none" stroke="#000000" points="829.8066,-250 710.7306,-250 710.7306,-186 829.8066,-186 829.8066,-250"/>
<text text-anchor="middle" x="770.2686" y="-234.8" font-family="Times,serif" font-size="14.00" fill="#000000">X[10] &lt;= 0.484</text>
<text text-anchor="middle" x="770.2686" y="-220.8" font-family="Times,serif" font-size="14.00" fill="#000000">gini = 0.065</text>
<text text-anchor="middle" x="770.2686" y="-206.8" font-family="Times,serif" font-size="14.00" fill="#000000">samples = 179</text>
<text text-anchor="middle" x="770.2686" y="-192.8" font-family="Times,serif" font-size="14.00" fill="#000000">value = [0, 173, 6]</text>
</g>
<!-- 2&#45;&gt;4 -->
<g id="edge14" class="edge">
<title>2&#45;&gt;4</title>
<path fill="none" stroke="#000000" d="M634.3751,-285.9467C655.7695,-275.2495 679.6913,-263.2886 701.4302,-252.4192"/>
<polygon fill="#000000" stroke="#000000" points="703.2205,-255.4372 710.5995,-247.8345 700.0899,-249.1762 703.2205,-255.4372"/>
</g>
<!-- 5 -->
<g id="node13" class="node">
<title>5</title>
<polygon fill="none" stroke="#000000" points="561.8066,-143 442.7306,-143 442.7306,-93 561.8066,-93 561.8066,-143"/>
<text text-anchor="middle" x="502.2686" y="-127.8" font-family="Times,serif" font-size="14.00" fill="#000000">gini = 0.008</text>
<text text-anchor="middle" x="502.2686" y="-113.8" font-family="Times,serif" font-size="14.00" fill="#000000">samples = 756</text>
<text text-anchor="middle" x="502.2686" y="-99.8" font-family="Times,serif" font-size="14.00" fill="#000000">value = [3, 753, 0]</text>
</g>
<!-- 3&#45;&gt;5 -->
<g id="edge12" class="edge">
<title>3&#45;&gt;5</title>
<path fill="none" stroke="#000000" d="M548.3786,-185.8089C540.9648,-174.9063 532.6673,-162.7041 525.1765,-151.6882"/>
<polygon fill="#000000" stroke="#000000" points="527.8917,-149.4567 519.3743,-143.1555 522.1032,-153.3929 527.8917,-149.4567"/>
</g>
<!-- 6 -->
<g id="node14" class="node">
<title>6</title>
<polygon fill="none" stroke="#000000" points="692.3066,-143 580.2305,-143 580.2305,-93 692.3066,-93 692.3066,-143"/>
<text text-anchor="middle" x="636.2686" y="-127.8" font-family="Times,serif" font-size="14.00" fill="#000000">gini = 0.0</text>
<text text-anchor="middle" x="636.2686" y="-113.8" font-family="Times,serif" font-size="14.00" fill="#000000">samples = 98</text>
<text text-anchor="middle" x="636.2686" y="-99.8" font-family="Times,serif" font-size="14.00" fill="#000000">value = [0, 0, 98]</text>
</g>
<!-- 3&#45;&gt;6 -->
<g id="edge13" class="edge">
<title>3&#45;&gt;6</title>
<path fill="none" stroke="#000000" d="M591.5147,-185.8089C598.7104,-174.9063 606.7639,-162.7041 614.0343,-151.6882"/>
<polygon fill="#000000" stroke="#000000" points="617.0786,-153.4296 619.6659,-143.1555 611.2363,-149.5737 617.0786,-153.4296"/>
</g>
<!-- 15 -->
<g id="node16" class="node">
<title>15</title>
<polygon fill="none" stroke="#000000" points="829.8066,-150 710.7306,-150 710.7306,-86 829.8066,-86 829.8066,-150"/>
<text text-anchor="middle" x="770.2686" y="-134.8" font-family="Times,serif" font-size="14.00" fill="#000000">X[7] &lt;= 3.447</text>
<text text-anchor="middle" x="770.2686" y="-120.8" font-family="Times,serif" font-size="14.00" fill="#000000">gini = 0.087</text>
<text text-anchor="middle" x="770.2686" y="-106.8" font-family="Times,serif" font-size="14.00" fill="#000000">samples = 110</text>
<text text-anchor="middle" x="770.2686" y="-92.8" font-family="Times,serif" font-size="14.00" fill="#000000">value = [0, 105, 5]</text>
</g>
<!-- 4&#45;&gt;15 -->
<g id="edge15" class="edge">
<title>4&#45;&gt;15</title>
<path fill="none" stroke="#000000" d="M770.2686,-185.8089C770.2686,-177.6906 770.2686,-168.8517 770.2686,-160.3186"/>
<polygon fill="#000000" stroke="#000000" points="773.7687,-160.1307 770.2686,-150.1308 766.7687,-160.1308 773.7687,-160.1307"/>
</g>
<!-- 16 -->
<g id="node19" class="node">
<title>16</title>
<polygon fill="none" stroke="#000000" points="960.3066,-143 848.2305,-143 848.2305,-93 960.3066,-93 960.3066,-143"/>
<text text-anchor="middle" x="904.2686" y="-127.8" font-family="Times,serif" font-size="14.00" fill="#000000">gini = 0.029</text>
<text text-anchor="middle" x="904.2686" y="-113.8" font-family="Times,serif" font-size="14.00" fill="#000000">samples = 69</text>
<text text-anchor="middle" x="904.2686" y="-99.8" font-family="Times,serif" font-size="14.00" fill="#000000">value = [0, 68, 1]</text>
</g>
<!-- 4&#45;&gt;16 -->
<g id="edge18" class="edge">
<title>4&#45;&gt;16</title>
<path fill="none" stroke="#000000" d="M813.4046,-185.8089C829.0267,-174.1506 846.6399,-161.0064 862.1715,-149.4157"/>
<polygon fill="#000000" stroke="#000000" points="864.6391,-151.9414 870.5601,-143.1555 860.4525,-146.3314 864.6391,-151.9414"/>
</g>
<!-- 17 -->
<g id="node17" class="node">
<title>17</title>
<polygon fill="none" stroke="#000000" points="766.8066,-50 647.7306,-50 647.7306,0 766.8066,0 766.8066,-50"/>
<text text-anchor="middle" x="707.2686" y="-34.8" font-family="Times,serif" font-size="14.00" fill="#000000">gini = 0.057</text>
<text text-anchor="middle" x="707.2686" y="-20.8" font-family="Times,serif" font-size="14.00" fill="#000000">samples = 103</text>
<text text-anchor="middle" x="707.2686" y="-6.8" font-family="Times,serif" font-size="14.00" fill="#000000">value = [0, 100, 3]</text>
</g>
<!-- 15&#45;&gt;17 -->
<g id="edge16" class="edge">
<title>15&#45;&gt;17</title>
<path fill="none" stroke="#000000" d="M748.5875,-85.9947C742.5456,-77.0756 735.9682,-67.3661 729.8745,-58.3706"/>
<polygon fill="#000000" stroke="#000000" points="732.7198,-56.3303 724.2135,-50.014 726.9243,-60.2562 732.7198,-56.3303"/>
</g>
<!-- 18 -->
<g id="node18" class="node">
<title>18</title>
<polygon fill="none" stroke="#000000" points="890.8067,-50 785.7304,-50 785.7304,0 890.8067,0 890.8067,-50"/>
<text text-anchor="middle" x="838.2686" y="-34.8" font-family="Times,serif" font-size="14.00" fill="#000000">gini = 0.408</text>
<text text-anchor="middle" x="838.2686" y="-20.8" font-family="Times,serif" font-size="14.00" fill="#000000">samples = 7</text>
<text text-anchor="middle" x="838.2686" y="-6.8" font-family="Times,serif" font-size="14.00" fill="#000000">value = [0, 5, 2]</text>
</g>
<!-- 15&#45;&gt;18 -->
<g id="edge17" class="edge">
<title>15&#45;&gt;18</title>
<path fill="none" stroke="#000000" d="M793.6703,-85.9947C800.259,-76.9837 807.4376,-67.1658 814.0718,-58.0927"/>
<polygon fill="#000000" stroke="#000000" points="816.9017,-60.1522 819.9787,-50.014 811.251,-56.0205 816.9017,-60.1522"/>
</g>
</g>
</svg>
