<?xml version="1.0" encoding="UTF-8" standalone="no"?>
<!DOCTYPE svg PUBLIC "-//W3C//DTD SVG 1.1//EN"
 "http://www.w3.org/Graphics/SVG/1.1/DTD/svg11.dtd">
<!-- Generated by graphviz version 2.40.1 (20161225.0304)
 -->
<!-- Title: Tree Pages: 1 -->
<svg width="338pt" height="258pt"
 viewBox="0.00 0.00 338.04 258.00" xmlns="http://www.w3.org/2000/svg" xmlns:xlink="http://www.w3.org/1999/xlink">
<g id="graph0" class="graph" transform="scale(1 1) rotate(0) translate(4 254)">
<title>Tree</title>
<polygon fill="#ffffff" stroke="transparent" points="-4,4 -4,-254 334.0371,-254 334.0371,4 -4,4"/>
<!-- 0 -->
<g id="node1" class="node">
<title>0</title>
<polygon fill="none" stroke="#000000" points="270.8064,-250 123.7307,-250 123.7307,-186 270.8064,-186 270.8064,-250"/>
<text text-anchor="middle" x="197.2686" y="-234.8" font-family="Times,serif" font-size="14.00" fill="#000000">X[8] &lt;= 7.5</text>
<text text-anchor="middle" x="197.2686" y="-220.8" font-family="Times,serif" font-size="14.00" fill="#000000">gini = 0.069</text>
<text text-anchor="middle" x="197.2686" y="-206.8" font-family="Times,serif" font-size="14.00" fill="#000000">samples = 5522</text>
<text text-anchor="middle" x="197.2686" y="-192.8" font-family="Times,serif" font-size="14.00" fill="#000000">value = [24, 5325, 173]</text>
</g>
<!-- 1 -->
<g id="node2" class="node">
<title>1</title>
<polygon fill="none" stroke="#000000" points="191.8065,-150 58.7306,-150 58.7306,-86 191.8065,-86 191.8065,-150"/>
<text text-anchor="middle" x="125.2686" y="-134.8" font-family="Times,serif" font-size="14.00" fill="#000000">X[8] &lt;= 3.5</text>
<text text-anchor="middle" x="125.2686" y="-120.8" font-family="Times,serif" font-size="14.00" fill="#000000">gini = 0.009</text>
<text text-anchor="middle" x="125.2686" y="-106.8" font-family="Times,serif" font-size="14.00" fill="#000000">samples = 5349</text>
<text text-anchor="middle" x="125.2686" y="-92.8" font-family="Times,serif" font-size="14.00" fill="#000000">value = [24, 5325, 0]</text>
</g>
<!-- 0&#45;&gt;1 -->
<g id="edge1" class="edge">
<title>0&#45;&gt;1</title>
<path fill="none" stroke="#000000" d="M174.091,-185.8089C167.7961,-177.0661 160.8996,-167.4876 154.3244,-158.3553"/>
<polygon fill="#000000" stroke="#000000" points="157.0862,-156.201 148.4027,-150.1308 151.4054,-160.2912 157.0862,-156.201"/>
<text text-anchor="middle" x="144.3858" y="-170.6059" font-family="Times,serif" font-size="14.00" fill="#000000">True</text>
</g>
<!-- 4 -->
<g id="node5" class="node">
<title>4</title>
<polygon fill="none" stroke="#000000" points="329.8066,-143 210.7306,-143 210.7306,-93 329.8066,-93 329.8066,-143"/>
<text text-anchor="middle" x="270.2686" y="-127.8" font-family="Times,serif" font-size="14.00" fill="#000000">gini = 0.0</text>
<text text-anchor="middle" x="270.2686" y="-113.8" font-family="Times,serif" font-size="14.00" fill="#000000">samples = 173</text>
<text text-anchor="middle" x="270.2686" y="-99.8" font-family="Times,serif" font-size="14.00" fill="#000000">value = [0, 0, 173]</text>
</g>
<!-- 0&#45;&gt;4 -->
<g id="edge4" class="edge">
<title>0&#45;&gt;4</title>
<path fill="none" stroke="#000000" d="M220.768,-185.8089C228.8058,-174.7983 237.8111,-162.4623 245.9148,-151.3614"/>
<polygon fill="#000000" stroke="#000000" points="248.8358,-153.2961 251.905,-143.1555 243.1819,-149.1688 248.8358,-153.2961"/>
<text text-anchor="middle" x="255.7601" y="-163.6565" font-family="Times,serif" font-size="14.00" fill="#000000">False</text>
</g>
<!-- 2 -->
<g id="node3" class="node">
<title>2</title>
<polygon fill="none" stroke="#000000" points="112.3066,-50 .2305,-50 .2305,0 112.3066,0 112.3066,-50"/>
<text text-anchor="middle" x="56.2686" y="-34.8" font-family="Times,serif" font-size="14.00" fill="#000000">gini = 0.0</text>
<text text-anchor="middle" x="56.2686" y="-20.8" font-family="Times,serif" font-size="14.00" fill="#000000">samples = 24</text>
<text text-anchor="middle" x="56.2686" y="-6.8" font-family="Times,serif" font-size="14.00" fill="#000000">value = [24, 0, 0]</text>
</g>
<!-- 1&#45;&gt;2 -->
<g id="edge2" class="edge">
<title>1&#45;&gt;2</title>
<path fill="none" stroke="#000000" d="M101.5227,-85.9947C94.8371,-76.9837 87.5529,-67.1658 80.8212,-58.0927"/>
<polygon fill="#000000" stroke="#000000" points="83.5967,-55.9596 74.8274,-50.014 77.975,-60.1305 83.5967,-55.9596"/>
</g>
<!-- 3 -->
<g id="node4" class="node">
<title>3</title>
<polygon fill="none" stroke="#000000" points="257.3065,-50 131.2306,-50 131.2306,0 257.3065,0 257.3065,-50"/>
<text text-anchor="middle" x="194.2686" y="-34.8" font-family="Times,serif" font-size="14.00" fill="#000000">gini = 0.0</text>
<text text-anchor="middle" x="194.2686" y="-20.8" font-family="Times,serif" font-size="14.00" fill="#000000">samples = 5325</text>
<text text-anchor="middle" x="194.2686" y="-6.8" font-family="Times,serif" font-size="14.00" fill="#000000">value = [0, 5325, 0]</text>
</g>
<!-- 1&#45;&gt;3 -->
<g id="edge3" class="edge">
<title>1&#45;&gt;3</title>
<path fill="none" stroke="#000000" d="M149.0144,-85.9947C155.7,-76.9837 162.9842,-67.1658 169.7159,-58.0927"/>
<polygon fill="#000000" stroke="#000000" points="172.5621,-60.1305 175.7098,-50.014 166.9404,-55.9596 172.5621,-60.1305"/>
</g>
</g>
</svg>
