<?xml version="1.0" encoding="UTF-8" standalone="no"?>
<!DOCTYPE svg PUBLIC "-//W3C//DTD SVG 1.1//EN"
 "http://www.w3.org/Graphics/SVG/1.1/DTD/svg11.dtd">
<!-- Generated by graphviz version 2.40.1 (20161225.0304)
 -->
<!-- Title: Tree Pages: 1 -->
<svg width="1346pt" height="458pt"
 viewBox="0.00 0.00 1345.54 458.00" xmlns="http://www.w3.org/2000/svg" xmlns:xlink="http://www.w3.org/1999/xlink">
<g id="graph0" class="graph" transform="scale(1 1) rotate(0) translate(4 454)">
<title>Tree</title>
<polygon fill="#ffffff" stroke="transparent" points="-4,4 -4,-454 1341.5371,-454 1341.5371,4 -4,4"/>
<!-- 0 -->
<g id="node1" class="node">
<title>0</title>
<polygon fill="none" stroke="#000000" points="759.8061,-450 507.731,-450 507.731,-386 759.8061,-386 759.8061,-450"/>
<text text-anchor="middle" x="633.7686" y="-434.8" font-family="Times,serif" font-size="14.00" fill="#000000">X[0] &lt;= 9.39</text>
<text text-anchor="middle" x="633.7686" y="-420.8" font-family="Times,serif" font-size="14.00" fill="#000000">gini = 0.671</text>
<text text-anchor="middle" x="633.7686" y="-406.8" font-family="Times,serif" font-size="14.00" fill="#000000">samples = 5522</text>
<text text-anchor="middle" x="633.7686" y="-392.8" font-family="Times,serif" font-size="14.00" fill="#000000">value = [24, 186, 1814, 2416, 909, 170, 3]</text>
</g>
<!-- 1 -->
<g id="node2" class="node">
<title>1</title>
<polygon fill="none" stroke="#000000" points="613.8062,-350 403.7309,-350 403.7309,-286 613.8062,-286 613.8062,-350"/>
<text text-anchor="middle" x="508.7686" y="-334.8" font-family="Times,serif" font-size="14.00" fill="#000000">X[13] &lt;= 0.436</text>
<text text-anchor="middle" x="508.7686" y="-320.8" font-family="Times,serif" font-size="14.00" fill="#000000">gini = 0.603</text>
<text text-anchor="middle" x="508.7686" y="-306.8" font-family="Times,serif" font-size="14.00" fill="#000000">samples = 1014</text>
<text text-anchor="middle" x="508.7686" y="-292.8" font-family="Times,serif" font-size="14.00" fill="#000000">value = [5, 39, 528, 348, 78, 16, 0]</text>
</g>
<!-- 0&#45;&gt;1 -->
<g id="edge1" class="edge">
<title>0&#45;&gt;1</title>
<path fill="none" stroke="#000000" d="M593.5297,-385.8089C581.8206,-376.4416 568.9123,-366.115 556.7757,-356.4057"/>
<polygon fill="#000000" stroke="#000000" points="558.9272,-353.6447 548.932,-350.1308 554.5543,-359.1108 558.9272,-353.6447"/>
<text text-anchor="middle" x="551.6928" y="-370.7779" font-family="Times,serif" font-size="14.00" fill="#000000">True</text>
</g>
<!-- 2 -->
<g id="node9" class="node">
<title>2</title>
<polygon fill="none" stroke="#000000" points="884.8061,-350 632.731,-350 632.731,-286 884.8061,-286 884.8061,-350"/>
<text text-anchor="middle" x="758.7686" y="-334.8" font-family="Times,serif" font-size="14.00" fill="#000000">X[10] &lt;= 1.993</text>
<text text-anchor="middle" x="758.7686" y="-320.8" font-family="Times,serif" font-size="14.00" fill="#000000">gini = 0.672</text>
<text text-anchor="middle" x="758.7686" y="-306.8" font-family="Times,serif" font-size="14.00" fill="#000000">samples = 4508</text>
<text text-anchor="middle" x="758.7686" y="-292.8" font-family="Times,serif" font-size="14.00" fill="#000000">value = [19, 147, 1286, 2068, 831, 154, 3]</text>
</g>
<!-- 0&#45;&gt;2 -->
<g id="edge8" class="edge">
<title>0&#45;&gt;2</title>
<path fill="none" stroke="#000000" d="M674.0074,-385.8089C685.7165,-376.4416 698.6248,-366.115 710.7614,-356.4057"/>
<polygon fill="#000000" stroke="#000000" points="712.9828,-359.1108 718.6051,-350.1308 708.6099,-353.6447 712.9828,-359.1108"/>
<text text-anchor="middle" x="715.8443" y="-370.7779" font-family="Times,serif" font-size="14.00" fill="#000000">False</text>
</g>
<!-- 13 -->
<g id="node3" class="node">
<title>13</title>
<polygon fill="none" stroke="#000000" points="402.8062,-250 192.7309,-250 192.7309,-186 402.8062,-186 402.8062,-250"/>
<text text-anchor="middle" x="297.7686" y="-234.8" font-family="Times,serif" font-size="14.00" fill="#000000">X[13] &lt;= 0.184</text>
<text text-anchor="middle" x="297.7686" y="-220.8" font-family="Times,serif" font-size="14.00" fill="#000000">gini = 0.616</text>
<text text-anchor="middle" x="297.7686" y="-206.8" font-family="Times,serif" font-size="14.00" fill="#000000">samples = 811</text>
<text text-anchor="middle" x="297.7686" y="-192.8" font-family="Times,serif" font-size="14.00" fill="#000000">value = [1, 22, 396, 299, 77, 16, 0]</text>
</g>
<!-- 1&#45;&gt;13 -->
<g id="edge2" class="edge">
<title>1&#45;&gt;13</title>
<path fill="none" stroke="#000000" d="M441.1362,-285.9467C419.9362,-275.8993 396.384,-264.7372 374.5971,-254.4116"/>
<polygon fill="#000000" stroke="#000000" points="375.9154,-251.1633 365.3799,-250.0433 372.9175,-257.4888 375.9154,-251.1633"/>
</g>
<!-- 14 -->
<g id="node8" class="node">
<title>14</title>
<polygon fill="none" stroke="#000000" points="610.3062,-243 421.2309,-243 421.2309,-193 610.3062,-193 610.3062,-243"/>
<text text-anchor="middle" x="515.7686" y="-227.8" font-family="Times,serif" font-size="14.00" fill="#000000">gini = 0.511</text>
<text text-anchor="middle" x="515.7686" y="-213.8" font-family="Times,serif" font-size="14.00" fill="#000000">samples = 203</text>
<text text-anchor="middle" x="515.7686" y="-199.8" font-family="Times,serif" font-size="14.00" fill="#000000">value = [4, 17, 132, 49, 1, 0, 0]</text>
</g>
<!-- 1&#45;&gt;14 -->
<g id="edge7" class="edge">
<title>1&#45;&gt;14</title>
<path fill="none" stroke="#000000" d="M511.0219,-285.8089C511.7473,-275.446 512.5549,-263.909 513.2953,-253.3327"/>
<polygon fill="#000000" stroke="#000000" points="516.8007,-253.3756 514.0077,-243.1555 509.8178,-252.8867 516.8007,-253.3756"/>
</g>
<!-- 15 -->
<g id="node4" class="node">
<title>15</title>
<polygon fill="none" stroke="#000000" points="194.8062,-143 12.7309,-143 12.7309,-93 194.8062,-93 194.8062,-143"/>
<text text-anchor="middle" x="103.7686" y="-127.8" font-family="Times,serif" font-size="14.00" fill="#000000">gini = 0.675</text>
<text text-anchor="middle" x="103.7686" y="-113.8" font-family="Times,serif" font-size="14.00" fill="#000000">samples = 98</text>
<text text-anchor="middle" x="103.7686" y="-99.8" font-family="Times,serif" font-size="14.00" fill="#000000">value = [0, 2, 21, 39, 34, 2, 0]</text>
</g>
<!-- 13&#45;&gt;15 -->
<g id="edge3" class="edge">
<title>13&#45;&gt;15</title>
<path fill="none" stroke="#000000" d="M235.5852,-185.9467C211.8099,-173.6914 184.817,-159.7776 161.4766,-147.7464"/>
<polygon fill="#000000" stroke="#000000" points="162.8832,-144.5339 152.3909,-143.0631 159.6759,-150.7559 162.8832,-144.5339"/>
</g>
<!-- 16 -->
<g id="node5" class="node">
<title>16</title>
<polygon fill="none" stroke="#000000" points="423.8062,-150 213.7309,-150 213.7309,-86 423.8062,-86 423.8062,-150"/>
<text text-anchor="middle" x="318.7686" y="-134.8" font-family="Times,serif" font-size="14.00" fill="#000000">X[13] &lt;= 0.275</text>
<text text-anchor="middle" x="318.7686" y="-120.8" font-family="Times,serif" font-size="14.00" fill="#000000">gini = 0.586</text>
<text text-anchor="middle" x="318.7686" y="-106.8" font-family="Times,serif" font-size="14.00" fill="#000000">samples = 713</text>
<text text-anchor="middle" x="318.7686" y="-92.8" font-family="Times,serif" font-size="14.00" fill="#000000">value = [1, 20, 375, 260, 43, 14, 0]</text>
</g>
<!-- 13&#45;&gt;16 -->
<g id="edge4" class="edge">
<title>13&#45;&gt;16</title>
<path fill="none" stroke="#000000" d="M304.5287,-185.8089C306.2523,-177.6014 308.1305,-168.6574 309.9407,-160.0374"/>
<polygon fill="#000000" stroke="#000000" points="313.3911,-160.6366 312.0211,-150.1308 306.5406,-159.198 313.3911,-160.6366"/>
</g>
<!-- 17 -->
<g id="node6" class="node">
<title>17</title>
<polygon fill="none" stroke="#000000" points="203.3062,-50 .2309,-50 .2309,0 203.3062,0 203.3062,-50"/>
<text text-anchor="middle" x="101.7686" y="-34.8" font-family="Times,serif" font-size="14.00" fill="#000000">gini = 0.633</text>
<text text-anchor="middle" x="101.7686" y="-20.8" font-family="Times,serif" font-size="14.00" fill="#000000">samples = 353</text>
<text text-anchor="middle" x="101.7686" y="-6.8" font-family="Times,serif" font-size="14.00" fill="#000000">value = [1, 3, 145, 152, 38, 14, 0]</text>
</g>
<!-- 16&#45;&gt;17 -->
<g id="edge5" class="edge">
<title>16&#45;&gt;17</title>
<path fill="none" stroke="#000000" d="M244.0895,-85.9947C219.8456,-75.6045 193.0986,-64.1415 169.3986,-53.9843"/>
<polygon fill="#000000" stroke="#000000" points="170.7048,-50.7363 160.1346,-50.014 167.9473,-57.1703 170.7048,-50.7363"/>
</g>
<!-- 18 -->
<g id="node7" class="node">
<title>18</title>
<polygon fill="none" stroke="#000000" points="417.8062,-50 221.7309,-50 221.7309,0 417.8062,0 417.8062,-50"/>
<text text-anchor="middle" x="319.7686" y="-34.8" font-family="Times,serif" font-size="14.00" fill="#000000">gini = 0.499</text>
<text text-anchor="middle" x="319.7686" y="-20.8" font-family="Times,serif" font-size="14.00" fill="#000000">samples = 360</text>
<text text-anchor="middle" x="319.7686" y="-6.8" font-family="Times,serif" font-size="14.00" fill="#000000">value = [0, 17, 230, 108, 5, 0, 0]</text>
</g>
<!-- 16&#45;&gt;18 -->
<g id="edge6" class="edge">
<title>16&#45;&gt;18</title>
<path fill="none" stroke="#000000" d="M319.1127,-85.9947C319.2027,-77.6273 319.3001,-68.5643 319.3917,-60.0478"/>
<polygon fill="#000000" stroke="#000000" points="322.8918,-60.0511 319.4996,-50.014 315.8922,-59.9758 322.8918,-60.0511"/>
</g>
<!-- 3 -->
<g id="node10" class="node">
<title>3</title>
<polygon fill="none" stroke="#000000" points="860.3062,-250 643.231,-250 643.231,-186 860.3062,-186 860.3062,-250"/>
<text text-anchor="middle" x="751.7686" y="-234.8" font-family="Times,serif" font-size="14.00" fill="#000000">X[0] &lt;= 9.571</text>
<text text-anchor="middle" x="751.7686" y="-220.8" font-family="Times,serif" font-size="14.00" fill="#000000">gini = 0.65</text>
<text text-anchor="middle" x="751.7686" y="-206.8" font-family="Times,serif" font-size="14.00" fill="#000000">samples = 1192</text>
<text text-anchor="middle" x="751.7686" y="-192.8" font-family="Times,serif" font-size="14.00" fill="#000000">value = [6, 38, 466, 501, 164, 17, 0]</text>
</g>
<!-- 2&#45;&gt;3 -->
<g id="edge9" class="edge">
<title>2&#45;&gt;3</title>
<path fill="none" stroke="#000000" d="M756.5152,-285.8089C755.9469,-277.6906 755.3282,-268.8517 754.7309,-260.3186"/>
<polygon fill="#000000" stroke="#000000" points="758.2075,-259.8619 754.0177,-250.1308 751.2246,-260.3508 758.2075,-259.8619"/>
</g>
<!-- 4 -->
<g id="node15" class="node">
<title>4</title>
<polygon fill="none" stroke="#000000" points="1124.3061,-250 879.231,-250 879.231,-186 1124.3061,-186 1124.3061,-250"/>
<text text-anchor="middle" x="1001.7686" y="-234.8" font-family="Times,serif" font-size="14.00" fill="#000000">X[9] &lt;= 185.038</text>
<text text-anchor="middle" x="1001.7686" y="-220.8" font-family="Times,serif" font-size="14.00" fill="#000000">gini = 0.672</text>
<text text-anchor="middle" x="1001.7686" y="-206.8" font-family="Times,serif" font-size="14.00" fill="#000000">samples = 3316</text>
<text text-anchor="middle" x="1001.7686" y="-192.8" font-family="Times,serif" font-size="14.00" fill="#000000">value = [13, 109, 820, 1567, 667, 137, 3]</text>
</g>
<!-- 2&#45;&gt;4 -->
<g id="edge14" class="edge">
<title>2&#45;&gt;4</title>
<path fill="none" stroke="#000000" d="M836.658,-285.9467C861.5091,-275.7199 889.1669,-264.3381 914.6305,-253.8593"/>
<polygon fill="#000000" stroke="#000000" points="915.9877,-257.0856 923.9033,-250.0433 913.3238,-250.6123 915.9877,-257.0856"/>
</g>
<!-- 5 -->
<g id="node11" class="node">
<title>5</title>
<polygon fill="none" stroke="#000000" points="627.8062,-143 445.7309,-143 445.7309,-93 627.8062,-93 627.8062,-143"/>
<text text-anchor="middle" x="536.7686" y="-127.8" font-family="Times,serif" font-size="14.00" fill="#000000">gini = 0.422</text>
<text text-anchor="middle" x="536.7686" y="-113.8" font-family="Times,serif" font-size="14.00" fill="#000000">samples = 192</text>
<text text-anchor="middle" x="536.7686" y="-99.8" font-family="Times,serif" font-size="14.00" fill="#000000">value = [0, 2, 136, 53, 1, 0, 0]</text>
</g>
<!-- 3&#45;&gt;5 -->
<g id="edge10" class="edge">
<title>3&#45;&gt;5</title>
<path fill="none" stroke="#000000" d="M682.8541,-185.9467C656.2719,-173.583 626.0606,-159.5312 600.0376,-147.4275"/>
<polygon fill="#000000" stroke="#000000" points="601.1975,-144.1069 590.6542,-143.0631 598.2453,-150.454 601.1975,-144.1069"/>
</g>
<!-- 6 -->
<g id="node12" class="node">
<title>6</title>
<polygon fill="none" stroke="#000000" points="863.3062,-150 646.231,-150 646.231,-86 863.3062,-86 863.3062,-150"/>
<text text-anchor="middle" x="754.7686" y="-134.8" font-family="Times,serif" font-size="14.00" fill="#000000">X[13] &lt;= 0.38</text>
<text text-anchor="middle" x="754.7686" y="-120.8" font-family="Times,serif" font-size="14.00" fill="#000000">gini = 0.662</text>
<text text-anchor="middle" x="754.7686" y="-106.8" font-family="Times,serif" font-size="14.00" fill="#000000">samples = 1000</text>
<text text-anchor="middle" x="754.7686" y="-92.8" font-family="Times,serif" font-size="14.00" fill="#000000">value = [6, 36, 330, 448, 163, 17, 0]</text>
</g>
<!-- 3&#45;&gt;6 -->
<g id="edge11" class="edge">
<title>3&#45;&gt;6</title>
<path fill="none" stroke="#000000" d="M752.7343,-185.8089C752.9778,-177.6906 753.243,-168.8517 753.499,-160.3186"/>
<polygon fill="#000000" stroke="#000000" points="757.0031,-160.2312 753.8046,-150.1308 750.0062,-160.0213 757.0031,-160.2312"/>
</g>
<!-- 7 -->
<g id="node13" class="node">
<title>7</title>
<polygon fill="none" stroke="#000000" points="639.8062,-50 443.7309,-50 443.7309,0 639.8062,0 639.8062,-50"/>
<text text-anchor="middle" x="541.7686" y="-34.8" font-family="Times,serif" font-size="14.00" fill="#000000">gini = 0.638</text>
<text text-anchor="middle" x="541.7686" y="-20.8" font-family="Times,serif" font-size="14.00" fill="#000000">samples = 268</text>
<text text-anchor="middle" x="541.7686" y="-6.8" font-family="Times,serif" font-size="14.00" fill="#000000">value = [0, 2, 38, 128, 90, 10, 0]</text>
</g>
<!-- 6&#45;&gt;7 -->
<g id="edge12" class="edge">
<title>6&#45;&gt;7</title>
<path fill="none" stroke="#000000" d="M681.466,-85.9947C657.7744,-75.6504 631.6474,-64.2429 608.461,-54.1192"/>
<polygon fill="#000000" stroke="#000000" points="609.6238,-50.8079 599.0588,-50.014 606.8228,-57.2231 609.6238,-50.8079"/>
</g>
<!-- 8 -->
<g id="node14" class="node">
<title>8</title>
<polygon fill="none" stroke="#000000" points="861.3062,-50 658.2309,-50 658.2309,0 861.3062,0 861.3062,-50"/>
<text text-anchor="middle" x="759.7686" y="-34.8" font-family="Times,serif" font-size="14.00" fill="#000000">gini = 0.638</text>
<text text-anchor="middle" x="759.7686" y="-20.8" font-family="Times,serif" font-size="14.00" fill="#000000">samples = 732</text>
<text text-anchor="middle" x="759.7686" y="-6.8" font-family="Times,serif" font-size="14.00" fill="#000000">value = [6, 34, 292, 320, 73, 7, 0]</text>
</g>
<!-- 6&#45;&gt;8 -->
<g id="edge13" class="edge">
<title>6&#45;&gt;8</title>
<path fill="none" stroke="#000000" d="M756.4893,-85.9947C756.9391,-77.6273 757.4264,-68.5643 757.8843,-60.0478"/>
<polygon fill="#000000" stroke="#000000" points="761.3817,-60.1875 758.4237,-50.014 754.3918,-59.8117 761.3817,-60.1875"/>
</g>
<!-- 9 -->
<g id="node16" class="node">
<title>9</title>
<polygon fill="none" stroke="#000000" points="1115.3061,-150 884.231,-150 884.231,-86 1115.3061,-86 1115.3061,-150"/>
<text text-anchor="middle" x="999.7686" y="-134.8" font-family="Times,serif" font-size="14.00" fill="#000000">X[1] &lt;= 0.057</text>
<text text-anchor="middle" x="999.7686" y="-120.8" font-family="Times,serif" font-size="14.00" fill="#000000">gini = 0.674</text>
<text text-anchor="middle" x="999.7686" y="-106.8" font-family="Times,serif" font-size="14.00" fill="#000000">samples = 2964</text>
<text text-anchor="middle" x="999.7686" y="-92.8" font-family="Times,serif" font-size="14.00" fill="#000000">value = [7, 92, 682, 1396, 650, 134, 3]</text>
</g>
<!-- 4&#45;&gt;9 -->
<g id="edge15" class="edge">
<title>4&#45;&gt;9</title>
<path fill="none" stroke="#000000" d="M1001.1247,-185.8089C1000.9624,-177.6906 1000.7856,-168.8517 1000.6149,-160.3186"/>
<polygon fill="#000000" stroke="#000000" points="1004.1105,-160.0587 1000.4112,-150.1308 997.1119,-160.1988 1004.1105,-160.0587"/>
</g>
<!-- 10 -->
<g id="node19" class="node">
<title>10</title>
<polygon fill="none" stroke="#000000" points="1337.3062,-143 1134.2309,-143 1134.2309,-93 1337.3062,-93 1337.3062,-143"/>
<text text-anchor="middle" x="1235.7686" y="-127.8" font-family="Times,serif" font-size="14.00" fill="#000000">gini = 0.605</text>
<text text-anchor="middle" x="1235.7686" y="-113.8" font-family="Times,serif" font-size="14.00" fill="#000000">samples = 352</text>
<text text-anchor="middle" x="1235.7686" y="-99.8" font-family="Times,serif" font-size="14.00" fill="#000000">value = [6, 17, 138, 171, 17, 3, 0]</text>
</g>
<!-- 4&#45;&gt;10 -->
<g id="edge18" class="edge">
<title>4&#45;&gt;10</title>
<path fill="none" stroke="#000000" d="M1076.7732,-185.9467C1105.9582,-173.4745 1139.1628,-159.2845 1167.6526,-147.1094"/>
<polygon fill="#000000" stroke="#000000" points="1169.3008,-150.2113 1177.1209,-143.0631 1166.55,-143.7744 1169.3008,-150.2113"/>
</g>
<!-- 11 -->
<g id="node17" class="node">
<title>11</title>
<polygon fill="none" stroke="#000000" points="1114.3061,-50 883.231,-50 883.231,0 1114.3061,0 1114.3061,-50"/>
<text text-anchor="middle" x="998.7686" y="-34.8" font-family="Times,serif" font-size="14.00" fill="#000000">gini = 0.673</text>
<text text-anchor="middle" x="998.7686" y="-20.8" font-family="Times,serif" font-size="14.00" fill="#000000">samples = 2756</text>
<text text-anchor="middle" x="998.7686" y="-6.8" font-family="Times,serif" font-size="14.00" fill="#000000">value = [6, 82, 591, 1304, 640, 130, 3]</text>
</g>
<!-- 9&#45;&gt;11 -->
<g id="edge16" class="edge">
<title>9&#45;&gt;11</title>
<path fill="none" stroke="#000000" d="M999.4244,-85.9947C999.3344,-77.6273 999.237,-68.5643 999.1454,-60.0478"/>
<polygon fill="#000000" stroke="#000000" points="1002.6449,-59.9758 999.0375,-50.014 995.6453,-60.0511 1002.6449,-59.9758"/>
</g>
<!-- 12 -->
<g id="node18" class="node">
<title>12</title>
<polygon fill="none" stroke="#000000" points="1322.3062,-50 1133.2309,-50 1133.2309,0 1322.3062,0 1322.3062,-50"/>
<text text-anchor="middle" x="1227.7686" y="-34.8" font-family="Times,serif" font-size="14.00" fill="#000000">gini = 0.608</text>
<text text-anchor="middle" x="1227.7686" y="-20.8" font-family="Times,serif" font-size="14.00" fill="#000000">samples = 208</text>
<text text-anchor="middle" x="1227.7686" y="-6.8" font-family="Times,serif" font-size="14.00" fill="#000000">value = [1, 10, 91, 92, 10, 4, 0]</text>
</g>
<!-- 9&#45;&gt;12 -->
<g id="edge17" class="edge">
<title>9&#45;&gt;12</title>
<path fill="none" stroke="#000000" d="M1078.2332,-85.9947C1103.8187,-75.5585 1132.0576,-64.04 1157.0406,-53.8496"/>
<polygon fill="#000000" stroke="#000000" points="1158.5064,-57.0317 1166.4438,-50.014 1155.8626,-50.5502 1158.5064,-57.0317"/>
</g>
</g>
</svg>
